<?xml version="1.0" encoding="iso-8859-1"?>
<!-- Generator: Adobe Illustrator 19.0.0, SVG Export Plug-In . SVG Version: 6.00 Build 0)  -->
<svg xmlns="http://www.w3.org/2000/svg" xmlns:xlink="http://www.w3.org/1999/xlink" version="1.1" id="Capa_1" x="0px" y="0px" viewBox="0 0 512 512" style="enable-background:new 0 0 512 512;" xml:space="preserve">
<g>
	<path style="fill:#5F8ACE;" d="M110.01,59.202h72.929V15.131c0-2.82-2.63-5.131-5.849-5.131h-30.615h-30.617   c-3.217,0-5.848,2.311-5.848,5.131C110.01,15.131,110.01,59.202,110.01,59.202z"/>
	<path style="fill:#FFD997;" d="M182.939,59.202H110.01c24.081,22.132-17.792,48.897,0,107.153l-48.849,31.389v44.979h170.627   v-44.979l-48.85-31.389C200.729,108.1,158.859,81.334,182.939,59.202z"/>
	<polygon style="fill:#5F8ACE;" points="231.788,242.723 61.161,242.723 61.161,444.953 231.788,444.953 231.788,405.703  "/>
	<polygon style="fill:#FFD997;" points="231.788,444.953 61.161,444.953 61.161,502 146.475,502 231.788,502  "/>
	<path style="fill:#DAE3E4;" d="M281.788,336.005l5.358,88.94c11.612,0.891,29.227,1.559,50.479,1.424l-6.147-22.949l59.151-15.848   l9.704,36.213c14.799-1.131,30.119-2.689,45.508-4.78l5.001-83L281.788,336.005L281.788,336.005z"/>
	<g>
		<path style="fill:#9ADFEF;" d="M390.63,387.572l-59.151,15.848l6.147,22.949c18.633-0.117,40.064-0.85,62.708-2.584    L390.63,387.572z"/>
		<path style="fill:#9ADFEF;" d="M400.334,423.785c-22.644,1.734-44.075,2.467-62.708,2.584l9.701,36.203l59.155-15.85    L400.334,423.785z"/>
	</g>
	<path style="fill:#FFD997;" d="M406.483,446.723l-59.155,15.85l-9.701-36.203c-21.252,0.135-38.867-0.533-50.479-1.424L291.789,502   h149.052l5.001-82.995c-15.389,2.091-30.709,3.649-45.508,4.78L406.483,446.723z"/>
</g>
<path d="M237.195,189.331l-42.688-27.429c6.998-29.425,0.139-51.264-4.974-67.541c-5.372-17.105-6.057-22.07,0.173-27.797  c0.047-0.043,0.087-0.092,0.133-0.136c0.142-0.135,0.276-0.275,0.409-0.418c0.097-0.103,0.192-0.205,0.284-0.312  c0.13-0.151,0.251-0.31,0.372-0.469c0.08-0.105,0.162-0.208,0.237-0.316c0.124-0.179,0.238-0.364,0.351-0.551  c0.059-0.096,0.12-0.189,0.175-0.287c0.122-0.218,0.23-0.441,0.336-0.668c0.034-0.075,0.073-0.146,0.106-0.222  c0.114-0.263,0.214-0.532,0.306-0.807c0.015-0.045,0.034-0.088,0.049-0.133c0.097-0.302,0.177-0.61,0.245-0.924  c0.005-0.021,0.012-0.04,0.016-0.062c0.066-0.318,0.117-0.643,0.153-0.972c0.002-0.016,0.006-0.032,0.007-0.048  c0.035-0.342,0.055-0.688,0.055-1.04V15.131C192.939,6.788,185.829,0,177.09,0h-61.233c-8.738,0-15.848,6.788-15.848,15.131v44.071  c0,0.352,0.019,0.698,0.055,1.04c0.001,0.016,0.005,0.032,0.007,0.048c0.036,0.329,0.086,0.653,0.153,0.972  c0.004,0.021,0.011,0.041,0.016,0.062c0.067,0.313,0.148,0.622,0.245,0.924c0.015,0.045,0.033,0.088,0.049,0.133  c0.092,0.274,0.191,0.544,0.306,0.807c0.033,0.075,0.072,0.146,0.106,0.222c0.105,0.227,0.214,0.45,0.336,0.668  c0.055,0.098,0.116,0.191,0.175,0.287c0.112,0.187,0.227,0.372,0.351,0.551c0.076,0.108,0.158,0.211,0.237,0.316  c0.121,0.159,0.242,0.317,0.372,0.469c0.092,0.106,0.188,0.209,0.284,0.312c0.133,0.143,0.268,0.283,0.409,0.418  c0.046,0.044,0.086,0.093,0.133,0.136c6.229,5.727,5.545,10.69,0.172,27.795c-5.112,16.278-11.972,38.118-4.974,67.543  l-42.688,27.429c-0.026,0.017-0.048,0.037-0.073,0.054c-0.315,0.207-0.619,0.429-0.908,0.669c-0.067,0.056-0.128,0.118-0.193,0.176  c-0.217,0.19-0.428,0.388-0.627,0.596c-0.095,0.099-0.185,0.2-0.275,0.303c-0.167,0.188-0.326,0.384-0.479,0.585  c-0.076,0.102-0.155,0.201-0.229,0.305c-0.195,0.28-0.379,0.569-0.547,0.869c-0.014,0.025-0.031,0.049-0.045,0.074  c-0.181,0.331-0.338,0.676-0.48,1.027c-0.039,0.096-0.07,0.193-0.106,0.29c-0.097,0.26-0.183,0.523-0.258,0.792  c-0.034,0.123-0.065,0.246-0.095,0.37c-0.061,0.255-0.108,0.514-0.148,0.775c-0.02,0.127-0.043,0.253-0.059,0.381  c-0.037,0.327-0.058,0.659-0.063,0.995c-0.001,0.052-0.01,0.102-0.01,0.152V502c0,5.522,4.478,10,10,10h170.629  c5.523,0,10-4.478,10-10V197.744C241.788,194.341,240.058,191.171,237.195,189.331z M71.159,252.719h150.629v142.984h-41.036  c-5.522,0-10,4.478-10,10s4.478,10,10,10h41.036v19.25H71.159V252.719z M172.939,20v29.202H120.01V20H172.939z M115.415,174.769  c3.768-2.421,5.467-7.051,4.158-11.334c-8.326-27.265-2.35-46.293,2.923-63.082c3.262-10.383,6.586-20.989,4.556-31.15h38.844  c-2.03,10.161,1.294,20.768,4.556,31.151c5.273,16.789,11.249,35.817,2.923,63.081c-1.308,4.283,0.392,8.913,4.158,11.334  l44.256,28.436v29.514H71.159v-24.975h61.037c5.522,0,10-4.478,10-10c0-5.523-4.478-10-10-10H95.221L115.415,174.769z M71.159,492  v-37.047h150.629V492H71.159z"/>
<path d="M160.928,207.748h0.238c5.523,0,10-4.477,10-10c0-5.522-4.477-10-10-10h-0.238c-5.522,0-10,4.478-10,10  C150.928,203.271,155.406,207.748,160.928,207.748z"/>
<path d="M460.824,336.607c0.166-2.752-0.811-5.45-2.701-7.457c-1.89-2.007-4.523-3.145-7.28-3.145H281.788  c-2.757,0-5.391,1.138-7.28,3.145c-1.89,2.007-2.867,4.705-2.701,7.457l10.001,165.995c0.317,5.279,4.692,9.398,9.981,9.398h149.052  c5.289,0,9.664-4.119,9.982-9.398l4.994-82.878c0.002-0.031,0.003-0.064,0.005-0.095L460.824,336.607z M440.222,346.005  l-3.865,64.144c-9.637,1.198-19.179,2.194-28.518,3.007l-7.55-28.172c-1.43-5.335-6.914-8.498-12.247-7.07l-59.151,15.848  c-2.561,0.686-4.746,2.362-6.072,4.659s-1.686,5.026-0.999,7.588l2.775,10.357c-10.814-0.105-20.289-0.419-27.996-0.832  l-4.189-69.528L440.222,346.005L440.222,346.005z M394.235,439.651l-39.836,10.674l-3.783-14.119  c13.103-0.269,27.311-0.843,42.202-1.844L394.235,439.651z M345.284,416.31l-1.559-5.818l39.834-10.672l3.979,14.85  C372.527,415.61,358.282,416.115,345.284,416.31z M301.205,492l-3.397-56.381c8.872,0.432,19.765,0.734,32.151,0.771l7.708,28.77  c0.686,2.562,2.362,4.746,4.659,6.072c1.533,0.886,3.26,1.34,5,1.34c0.866,0,1.736-0.112,2.588-0.341l59.155-15.85  c2.563-0.686,4.746-2.362,6.072-4.659s1.685-5.026,0.999-7.589l-3.05-11.379c7.257-0.661,14.616-1.43,22.042-2.314L431.425,492  H301.205z"/>
<path d="M152.023,395.707h-0.238c-5.522,0-10,4.478-10,10s4.478,10,10,10h0.238c5.522,0,10-4.478,10-10  S157.545,395.707,152.023,395.707z"/>
<g>
</g>
<g>
</g>
<g>
</g>
<g>
</g>
<g>
</g>
<g>
</g>
<g>
</g>
<g>
</g>
<g>
</g>
<g>
</g>
<g>
</g>
<g>
</g>
<g>
</g>
<g>
</g>
<g>
</g>
</svg>
