<?xml version="1.0" encoding="iso-8859-1"?>
<!-- Generator: Adobe Illustrator 19.0.0, SVG Export Plug-In . SVG Version: 6.00 Build 0)  -->
<svg xmlns="http://www.w3.org/2000/svg" xmlns:xlink="http://www.w3.org/1999/xlink" version="1.1" id="Capa_1" x="0px" y="0px" viewBox="0 0 512.001 512.001" style="enable-background:new 0 0 512.001 512.001;" xml:space="preserve">
<path style="fill:#A1ACAD;" d="M506.856,450.446H5.144c-2.841,0-5.144-2.303-5.144-5.144V66.7c0-2.841,2.303-5.144,5.144-5.144  h501.712c2.841,0,5.144,2.303,5.144,5.144v378.602C512,448.142,509.697,450.446,506.856,450.446z"/>
<path style="fill:#819696;" d="M506.856,450.446h-46.311V61.555h46.311c2.841,0,5.144,2.303,5.144,5.144v378.602  C512,448.142,509.697,450.446,506.856,450.446z"/>
<circle style="fill:#FF8A33;" cx="421.84" cy="136.067" r="45.908"/>
<path style="fill:#ED7829;" d="M467.742,136.058c0,25.361-20.546,45.916-45.906,45.916c-3.714,0-7.325-0.443-10.782-1.276  c20.144-4.846,35.124-22.994,35.124-44.64c0-21.636-14.98-39.785-35.124-44.63c3.457-0.833,7.068-1.276,10.782-1.276  C447.197,90.152,467.742,110.707,467.742,136.058z"/>
<circle style="fill:#FFFFFF;" cx="460.543" cy="276.57" r="14.668"/>
<circle style="fill:#36353A;" cx="193.267" cy="260.781" r="152.295"/>
<path style="fill:#2D2C30;" d="M281.926,384.611c-32.829,23.498-71.812,32.089-108.901,27.109c23.849-3.2,47.265-12.13,68.19-27.109  c68.386-48.972,84.127-144.097,35.165-212.483c-25.454-35.567-63.396-56.894-103.572-62.285  c54.085-7.294,110.3,14.815,144.282,62.285C366.063,240.514,350.312,335.639,281.926,384.611z"/>
<circle style="fill:#4EC0AA;" cx="193.267" cy="260.781" r="53.293"/>
<path style="fill:#40AD98;" d="M224.292,304.116c-13.025,9.321-28.827,11.945-43.293,8.519c6.544-1.543,12.901-4.362,18.704-8.519  c23.931-17.14,29.445-50.433,12.305-74.364c-7.799-10.906-18.961-17.984-31.061-20.834c20.432-4.856,42.676,2.706,55.66,20.834  C253.737,253.683,248.232,286.976,224.292,304.116z"/>
<circle style="fill:#FFFFFF;" cx="294.428" cy="294.308" r="17.714"/>
<g>
	<ellipse style="fill:#36353A;" cx="29.659" cy="88.979" rx="8.305" ry="8.272"/>
	<ellipse style="fill:#36353A;" cx="29.659" cy="423.02" rx="8.305" ry="8.272"/>
	<ellipse style="fill:#36353A;" cx="482.338" cy="423.02" rx="8.305" ry="8.272"/>
	<ellipse style="fill:#36353A;" cx="482.338" cy="88.979" rx="8.305" ry="8.272"/>
	<path style="fill:#36353A;" d="M468.26,255.555v-28.188c0-4.262-3.455-7.716-7.716-7.716c-4.262,0-7.716,3.455-7.716,7.716v28.188   c-8.552,3.15-14.668,11.38-14.668,21.013s6.116,17.863,14.668,21.013v95.708c0,4.262,3.455,7.716,7.716,7.716   c4.262,0,7.716-3.455,7.716-7.716V297.58c8.552-3.15,14.669-11.38,14.669-21.013C482.929,266.935,476.813,258.705,468.26,255.555z    M460.544,283.519c-3.833,0-6.951-3.119-6.951-6.951c0-3.833,3.119-6.951,6.951-6.951c3.834,0,6.952,3.119,6.952,6.951   C467.497,280.4,464.378,283.519,460.544,283.519z"/>
</g>
<g>
	<path style="fill:#A1ACAD;" d="M169.123,153.475c24.864-5.583,51.101-2.312,73.877,9.209c1.117,0.565,2.305,0.832,3.478,0.832   c2.817,0,5.533-1.549,6.891-4.235c1.924-3.802,0.4-8.445-3.402-10.369c-25.966-13.135-55.878-16.861-84.226-10.495   c-4.157,0.933-6.771,5.061-5.837,9.22C160.838,151.796,164.963,154.415,169.123,153.475z"/>
	<path style="fill:#A1ACAD;" d="M134.972,371.823c17.95,9.407,38.107,14.355,58.408,14.355c0.587,0,1.173-0.004,1.76-0.012   c21.339-0.302,42.374-6.107,60.827-16.788c3.688-2.135,4.949-6.856,2.813-10.544c-2.135-3.689-6.856-4.947-10.544-2.813   c-32.778,18.975-72.443,19.771-106.101,2.132c-3.772-1.976-8.437-0.523-10.417,3.253   C129.742,365.18,131.198,369.844,134.972,371.823z"/>
	<path style="fill:#A1ACAD;" d="M230.359,341.378c-20.992,12.153-46.396,12.662-67.954,1.363c-3.771-1.977-8.437-0.523-10.417,3.253   c-1.978,3.774-0.522,8.438,3.253,10.417c12.611,6.608,26.298,9.899,39.959,9.899c14.805,0,29.577-3.869,42.893-11.576   c3.687-2.135,4.948-6.856,2.812-10.545C238.767,340.503,234.048,339.243,230.359,341.378z"/>
</g>
<g>
	<circle style="fill:#36353A;" cx="206.728" cy="251.148" r="5.263"/>
	<path style="fill:#36353A;" d="M174.778,289.101c1.506,2.105,3.875,3.225,6.28,3.225c1.555,0,3.126-0.47,4.486-1.444   c3.466-2.48,4.263-7.301,1.782-10.766l-14.279-19.941c-2.479-3.467-7.302-4.263-10.766-1.782c-3.466,2.48-4.263,7.301-1.782,10.766   L174.778,289.101z"/>
</g>
<path style="fill:#FFFFFF;" d="M309.93,295.032c-2.847,0-5.567-1.63-6.825-4.389c-1.716-3.767-0.054-8.212,3.712-9.929  l107.559-49.012V199.48c0-4.14,3.355-7.495,7.495-7.495c4.14,0,7.495,3.355,7.495,7.495v37.042c0,2.936-1.715,5.602-4.387,6.82  l-111.945,51.012C312.025,294.815,310.969,295.032,309.93,295.032z"/>
<path style="fill:#FFD15C;" d="M415.04,163.226h13.236c2.841,0,5.144,2.303,5.144,5.144v24.998c0,2.841-2.303,5.144-5.144,5.144  H415.04c-2.841,0-5.144-2.303-5.144-5.144v-24.998C409.895,165.529,412.199,163.226,415.04,163.226z"/>
<g>
</g>
<g>
</g>
<g>
</g>
<g>
</g>
<g>
</g>
<g>
</g>
<g>
</g>
<g>
</g>
<g>
</g>
<g>
</g>
<g>
</g>
<g>
</g>
<g>
</g>
<g>
</g>
<g>
</g>
</svg>
