<?xml version="1.0" encoding="iso-8859-1"?>
<!-- Generator: Adobe Illustrator 19.0.0, SVG Export Plug-In . SVG Version: 6.00 Build 0)  -->
<svg xmlns="http://www.w3.org/2000/svg" xmlns:xlink="http://www.w3.org/1999/xlink" version="1.1" id="Capa_1" x="0px" y="0px" viewBox="0 0 512 512" style="enable-background:new 0 0 512 512;" xml:space="preserve">
<path style="fill:#424A4C;" d="M499.52,386.622c-16.64-16.64-43.619-16.64-60.26,0c-2.79,2.79-5.102,5.875-6.956,9.149  l-316.07-316.07l-0.006-0.004c3.274-1.855,6.359-4.167,9.15-6.957c16.64-16.64,16.64-43.619,0-60.26  c-16.64-16.64-43.619-16.64-60.26,0c-10.757,10.757-14.56,25.834-11.41,39.645l-1.583,1.583c-13.812-3.15-28.889,0.653-39.645,11.41  c-16.64,16.64-16.64,43.62,0,60.26s43.619,16.64,60.26,0c2.791-2.791,5.103-5.876,6.958-9.151l0.004,0.007l316.07,316.07  c-3.274,1.854-6.359,4.166-9.149,6.956c-16.64,16.64-16.64,43.619,0,60.26c16.64,16.64,43.619,16.64,60.26,0  c10.757-10.757,14.56-25.834,11.41-39.645l1.583-1.583c13.812,3.15,28.889-0.653,39.645-11.41  C516.16,430.242,516.16,403.262,499.52,386.622z"/>
<path style="fill:#424A4C;" d="M499.52,65.118c-10.757-10.757-25.834-14.56-39.645-11.41l-1.583-1.583  c3.15-13.812-0.653-28.889-11.41-39.645c-16.64-16.64-43.619-16.64-60.26,0c-16.64,16.64-16.64,43.62,0,60.26  c2.792,2.792,5.879,5.105,9.156,6.96l-0.012,0.001l-316.07,316.07c-1.854-3.274-4.166-6.359-6.956-9.149  c-16.64-16.64-43.619-16.64-60.26,0c-16.64,16.64-16.64,43.619,0,60.26c10.757,10.757,25.834,14.56,39.645,11.41l1.583,1.583  c-3.15,13.812,0.653,28.889,11.41,39.645c16.64,16.64,43.619,16.64,60.26,0c16.64-16.64,16.64-43.62,0-60.26  c-2.79-2.79-5.875-5.102-9.149-6.956l316.07-316.07l0.003-0.008c1.855,3.275,4.167,6.361,6.958,9.152  c16.64,16.64,43.619,16.64,60.26,0C516.16,108.738,516.16,81.758,499.52,65.118z"/>
<path style="fill:#A1ACAD;" d="M402.37,240.587c0-84.973-68.354-153.982-153.077-155.04  c-85.547-1.068-157.027,69.487-157.027,155.04c0,50.827,24.462,95.936,62.25,124.213c1.382,1.034,2.213,2.644,2.213,4.371v43.593  c0,3.003,2.434,5.437,5.437,5.437H332.47c3.003,0,5.438-2.434,5.438-5.437v-46.338C376.95,338.27,402.37,292.4,402.37,240.587z"/>
<path style="fill:#819696;" d="M402.37,241.371c-0.25,50.509-24.657,95.298-62.252,123.432c-1.382,1.034-2.213,2.644-2.213,4.371  v43.585c0,3.003-2.434,5.438-5.438,5.438h-28.916v-49.018c0-1.729,0.832-3.342,2.216-4.378  c37.788-28.28,62.251-73.385,62.251-124.213c0-79.831-60.32-145.565-137.877-154.106c7.345-0.818,14.85-1.113,22.464-0.859  C336.123,88.401,402.784,157.808,402.37,241.371z"/>
<g>
	<path style="fill:#424A4C;" d="M225.524,285.829c0.749,0.235,1.508,0.348,2.254,0.348c3.188,0,6.145-2.049,7.152-5.25   c1.243-3.951-0.951-8.162-4.902-9.406l-55.072-17.336c-3.948-1.242-8.163,0.952-9.406,4.902c-1.243,3.951,0.951,8.162,4.902,9.406   l22.288,7.016v15.168c0,4.143,3.357,7.5,7.5,7.5s7.5-3.357,7.5-7.5V280.23L225.524,285.829z"/>
	<path style="fill:#424A4C;" d="M327.741,259.086c-1.243-3.951-5.458-6.145-9.406-4.902l-55.073,17.336   c-3.951,1.244-6.146,5.455-4.902,9.406c1.008,3.202,3.965,5.25,7.152,5.25c0.746,0,1.505-0.112,2.254-0.348l17.785-5.598v10.447   c0,4.143,3.357,7.5,7.5,7.5s7.5-3.357,7.5-7.5v-15.169l22.288-7.016C326.79,267.248,328.985,263.038,327.741,259.086z"/>
	<path style="fill:#424A4C;" d="M197.029,345.244c-4.143,0-7.5,3.357-7.5,7.5v58.063c0,4.143,3.357,7.5,7.5,7.5s7.5-3.357,7.5-7.5   v-58.063C204.529,348.601,201.171,345.244,197.029,345.244z"/>
	<path style="fill:#424A4C;" d="M229.882,345.244c-4.143,0-7.5,3.357-7.5,7.5v58.063c0,4.143,3.357,7.5,7.5,7.5s7.5-3.357,7.5-7.5   v-58.063C237.382,348.601,234.025,345.244,229.882,345.244z"/>
	<path style="fill:#424A4C;" d="M262.736,345.244c-4.143,0-7.5,3.357-7.5,7.5v58.063c0,4.143,3.357,7.5,7.5,7.5s7.5-3.357,7.5-7.5   v-58.063C270.236,348.601,266.878,345.244,262.736,345.244z"/>
	<path style="fill:#424A4C;" d="M295.589,345.244c-4.143,0-7.5,3.357-7.5,7.5v58.063c0,4.143,3.357,7.5,7.5,7.5s7.5-3.357,7.5-7.5   v-58.063C303.089,348.601,299.732,345.244,295.589,345.244z"/>
</g>
<g>
</g>
<g>
</g>
<g>
</g>
<g>
</g>
<g>
</g>
<g>
</g>
<g>
</g>
<g>
</g>
<g>
</g>
<g>
</g>
<g>
</g>
<g>
</g>
<g>
</g>
<g>
</g>
<g>
</g>
</svg>
