<?xml version="1.0" encoding="iso-8859-1"?>
<!-- Generator: Adobe Illustrator 19.0.0, SVG Export Plug-In . SVG Version: 6.00 Build 0)  -->
<svg xmlns="http://www.w3.org/2000/svg" xmlns:xlink="http://www.w3.org/1999/xlink" version="1.1" id="Capa_1" x="0px" y="0px" viewBox="0 0 512.002 512.002" style="enable-background:new 0 0 512.002 512.002;" xml:space="preserve">
<g>
	<g>
		<path style="fill:#5F8ACE;" d="M151.225,263.581c-7.845-14.542-20.371-47.021,4.938-74.206    c17.863-19.182,16.118-32.418,8.11-40.625c-12.175-12.472-29.684-10.03-45.487-12.077c-31.487-4.068-88.178-18.391-100.597-63.061    c0,0-29.765,62.094,24.226,93.267c0,0-27.935,31.331,13.748,42.5c0,0-12.502,38.123,35.625,38.123    c0,0-15.353,53.394,26.249,29.374c0,0,2.552,32.104,23.075,19.913C142.605,285.042,146.084,273.869,151.225,263.581z"/>
		<path style="fill:#5F8ACE;" d="M355.842,189.375c25.311,27.184,12.782,59.664,4.938,74.206    c5.141,10.287,8.62,21.461,10.115,33.207c20.522,12.191,23.073-19.913,23.073-19.913c41.602,24.02,26.249-29.374,26.249-29.374    c48.127,0,35.627-38.123,35.627-38.123c41.683-11.169,13.749-42.5,13.749-42.5c53.987-31.173,24.223-93.267,24.223-93.267    c-12.464,44.829-69.515,59.095-100.93,63.106c-12.769,1.632-25.828,0.212-37.545,6.462    C342.101,150.24,333.151,165.006,355.842,189.375z"/>
	</g>
	<path style="fill:#DAE3E4;" d="M360.779,263.581c-18.486-37.08-58.453-62.748-104.777-62.748s-86.291,25.668-104.777,62.748   c-5.141,10.287-8.62,21.461-10.113,33.207c-0.56,4.322-0.844,8.725-0.844,13.192c0,14.478,2.99,28.292,8.42,40.935   c-5.09,5.033-8.256,12.012-8.256,19.693c0,15.256,12.48,27.734,27.734,27.734h22.713v28.736c0,6.221,5.093,11.315,11.314,11.315   h30.241h47.136h28.407c6.222,0,11.312-5.095,11.312-11.315v-28.736h24.549c15.255,0,27.734-12.478,27.734-27.734   c0-7.682-3.164-14.66-8.256-19.693c5.43-12.643,8.42-26.457,8.42-40.935c0-4.468-0.284-8.87-0.842-13.192   C369.4,285.042,365.92,273.869,360.779,263.581L360.779,263.581z M305.99,299.894c14.691,0,26.599,11.91,26.599,26.6   c0,14.689-11.907,26.599-26.599,26.599c-14.69,0-26.6-11.91-26.6-26.599C279.391,311.804,291.301,299.894,305.99,299.894   L305.99,299.894z M206.014,299.894c14.691,0,26.6,11.91,26.6,26.6c0,14.689-11.908,26.599-26.6,26.599   c-14.69,0-26.599-11.91-26.599-26.599C179.415,311.804,191.323,299.894,206.014,299.894z"/>
	<g>
		<circle style="fill:#808080;" cx="305.992" cy="326.492" r="26.599"/>
		<circle style="fill:#808080;" cx="206.012" cy="326.492" r="26.599"/>
	</g>
</g>
<path d="M206.016,289.894c-20.182,0-36.6,16.419-36.6,36.6s16.419,36.599,36.6,36.599c20.182,0,36.6-16.418,36.6-36.599  C242.615,306.313,226.197,289.894,206.016,289.894z M206.016,343.092c-9.153,0-16.601-7.446-16.601-16.599s7.447-16.6,16.601-16.6  c9.153,0,16.6,7.446,16.6,16.6C222.615,335.646,215.169,343.092,206.016,343.092z"/>
<path d="M305.992,289.894c-20.182,0-36.6,16.419-36.6,36.6s16.418,36.599,36.6,36.599s36.602-16.418,36.602-36.599  C342.594,306.313,326.174,289.894,305.992,289.894z M305.992,343.092c-9.152,0-16.6-7.446-16.6-16.599s7.447-16.6,16.6-16.6  c9.154,0,16.602,7.446,16.602,16.6C322.594,335.646,315.147,343.092,305.992,343.092z"/>
<path d="M511.944,108.199c-0.759-21.261-8.77-38.199-9.11-38.909c-1.801-3.758-5.737-6-9.896-5.639  c-4.151,0.365-7.641,3.268-8.757,7.282c-11.459,41.217-68.548,52.799-92.563,55.866c-3.287,0.42-6.658,0.621-10.228,0.833  c-9.578,0.571-20.434,1.219-30.755,6.724c-10.204,5.441-16.705,13.705-18.304,23.27c-1.991,11.913,3.456,24.889,16.19,38.564  c13.78,14.799,13.995,31.681,10.378,45.398c-22.772-30.672-60.404-50.755-102.898-50.755s-80.127,20.083-102.899,50.755  c-3.617-13.717-3.401-30.598,10.377-45.397c26.909-28.896,14.523-47.687,7.947-54.426c-12.045-12.34-27.352-13.292-40.855-14.132  c-3.689-0.229-7.174-0.446-10.506-0.878c-23.928-3.092-80.816-14.72-92.243-55.822c-1.116-4.015-4.605-6.917-8.757-7.282  c-4.147-0.38-8.094,1.88-9.896,5.639C8.828,70,0.818,86.939,0.059,108.199c-0.914,25.672,8.86,46.709,28.387,61.424  c-3.701,6.78-7.021,16.398-4.065,26.286c2.651,8.868,9.508,15.634,20.433,20.184c-0.553,7.03,0.262,16.666,6.457,25.218  c6.027,8.32,15.563,13.464,28.43,15.36c-1.222,9.042-1.297,20.905,4.514,28.623c3.785,5.024,9.544,7.792,16.217,7.792  c3.246,0,6.742-0.633,10.546-1.917c3.172,8.805,9.14,17.139,19.297,18.248c-0.001,0.188-0.007,0.375-0.007,0.563  c0,13.437,2.328,26.562,6.932,39.1c-4.399,6.279-6.768,13.724-6.768,21.528c0,20.807,16.928,37.734,37.734,37.734h12.713v18.736  c0,11.753,9.563,21.315,21.314,21.315h105.784c11.751,0,21.312-9.563,21.312-21.315v-18.736h14.549  c20.807,0,37.734-16.928,37.734-37.734c0-7.807-2.367-15.25-6.766-21.529c4.602-12.538,6.93-25.662,6.93-39.099  c0-0.188-0.006-0.375-0.007-0.563c10.157-1.108,16.126-9.443,19.297-18.248c3.804,1.284,7.3,1.917,10.544,1.917c0,0,0.002,0,0.003,0  c6.673-0.001,12.433-2.769,16.216-7.794c5.811-7.719,5.736-19.58,4.514-28.621c12.867-1.896,22.402-7.04,28.432-15.36  c6.195-8.552,7.01-18.188,6.457-25.218c10.925-4.551,17.782-11.315,20.433-20.184c2.956-9.89-0.362-19.506-4.065-26.286  C503.084,154.908,512.859,133.871,511.944,108.199z M132.188,289.167c-1.607-1.756-3.713-7.613-4.183-13.085  c-0.273-3.42-2.278-6.463-5.316-8.059c-1.458-0.767-3.056-1.148-4.652-1.148c-1.729,0-3.455,0.448-5,1.34  c-7.614,4.397-11.351,4.871-12.604,4.871c-0.164,0-0.29-0.008-0.384-0.018c-1.833-2.779-1.202-13.829,1.351-22.805  c0.867-3.018,0.266-6.27-1.623-8.778c-1.889-2.509-4.848-3.984-7.988-3.984c-8.434,0-19.488-1.361-24.264-7.848  c-5-6.793-1.869-17.125-1.859-17.159c0.857-2.611,0.602-5.459-0.707-7.876c-1.308-2.416-3.553-4.188-6.206-4.899  c-8.641-2.315-14.038-5.692-15.198-9.509c-0.901-2.967,0.33-6.855,2.07-10.255c8.881,4.279,18.766,7.547,29.057,9.571  c0.651,0.129,1.301,0.191,1.94,0.191c4.682,0,8.863-3.305,9.802-8.071c1.065-5.419-2.463-10.677-7.883-11.742  c-11.397-2.243-22.104-6.25-30.963-11.59c-0.029-0.018-0.06-0.03-0.088-0.047c-0.025-0.016-0.049-0.034-0.074-0.049  c-26.538-15.322-29.229-39.587-26.723-57.448c24.806,32.806,73.863,42.855,96.809,45.82c3.99,0.517,7.977,0.765,11.83,1.005  c11.334,0.705,21.122,1.314,27.785,8.139c5.674,5.815,2.891,14.841-8.271,26.827c-27.404,29.435-16.952,63.9-8.746,81.176  c-1.973,4.435-3.645,8.974-5.029,13.591c-0.023,0.078-0.047,0.156-0.07,0.234c-0.256,0.861-0.505,1.724-0.74,2.591  c-0.043,0.156-0.082,0.315-0.125,0.472c-0.217,0.809-0.43,1.618-0.628,2.433c-0.064,0.264-0.122,0.53-0.185,0.796  c-0.201,0.852-0.397,1.706-0.579,2.563c-0.187,0.88-0.366,1.763-0.532,2.649C132.202,289.1,132.195,289.133,132.188,289.167z   M356.287,358.028c3.408,3.369,5.285,7.837,5.285,12.581c0,9.778-7.955,17.734-17.734,17.734h-24.549c-5.523,0-10,4.478-10,10  v28.736c0,0.701-0.613,1.315-1.312,1.315H289.57v-11.171c0-5.522-4.477-10-10-10s-10,4.478-10,10v11.171h-27.136v-11.171  c0-5.522-4.477-10-10-10c-5.522,0-10,4.478-10,10v11.171h-20.241c-0.7,0-1.314-0.614-1.314-1.315v-28.736c0-5.522-4.477-10-10-10  h-22.713c-9.779,0-17.734-7.956-17.734-17.734c0-4.742,1.878-9.211,5.287-12.582c2.925-2.892,3.781-7.279,2.158-11.058  c-5.05-11.756-7.609-24.2-7.609-36.988c0-4.081,0.27-8.105,0.783-12.058c0.152-1.18,0.329-2.353,0.525-3.524  c0.037-0.22,0.078-0.439,0.117-0.659c0.172-0.979,0.361-1.956,0.564-2.929c0.049-0.232,0.093-0.467,0.143-0.698  c0.221-1.012,0.463-2.018,0.717-3.022c0.109-0.436,0.224-0.871,0.34-1.306c0.189-0.705,0.389-1.408,0.595-2.109  c0.216-0.736,0.442-1.47,0.677-2.2c0.152-0.479,0.309-0.956,0.469-1.432c0.206-0.609,0.414-1.219,0.633-1.823  c0.015-0.041,0.031-0.081,0.045-0.122c0.516-1.418,1.064-2.82,1.645-4.209c0.073-0.175,0.148-0.35,0.222-0.525  c15.566-36.599,53.743-62.531,98.26-62.531c44.553,0,82.755,25.974,98.297,62.619c0.053,0.123,0.105,0.247,0.157,0.37  c0.862,2.059,1.651,4.15,2.368,6.272c0.144,0.426,0.282,0.853,0.42,1.279c0.259,0.805,0.507,1.613,0.744,2.427  c0.188,0.643,0.372,1.288,0.545,1.935c0.125,0.464,0.247,0.929,0.365,1.396c0.246,0.977,0.482,1.958,0.697,2.944  c0.061,0.275,0.112,0.554,0.17,0.83c0.189,0.91,0.366,1.822,0.527,2.738c0.049,0.271,0.099,0.539,0.144,0.81  c0.189,1.126,0.358,2.256,0.506,3.391c0.521,3.979,0.793,8.027,0.793,12.136c0,12.788-2.56,25.232-7.608,36.988  C352.505,350.748,353.362,355.136,356.287,358.028z M464.592,158.218c-0.025,0.015-0.047,0.033-0.072,0.048  c-0.029,0.017-0.059,0.029-0.088,0.047c-8.861,5.341-19.57,9.349-30.967,11.591c-5.42,1.065-8.948,6.323-7.883,11.742  c0.938,4.767,5.119,8.071,9.802,8.071c0.64,0,1.29-0.062,1.94-0.191c10.291-2.023,20.175-5.291,29.058-9.57  c1.743,3.403,2.972,7.289,2.071,10.254c-1.16,3.816-6.557,7.193-15.197,9.509c-2.654,0.711-4.91,2.448-6.218,4.864  c-1.308,2.417-1.575,5.23-0.72,7.841c0.033,0.104,3.164,10.436-1.837,17.229c-4.775,6.486-15.831,7.848-24.265,7.848  c-3.141,0-6.099,1.476-7.988,3.984c-1.889,2.509-2.49,5.76-1.622,8.778c2.527,8.791,3.166,20.033,1.349,22.805  c-0.094,0.01-0.221,0.018-0.385,0.018c-1.252,0-4.986-0.474-12.603-4.871c-2.96-1.709-6.593-1.77-9.626-0.19  c-3.033,1.582-5.048,4.62-5.34,8.027c-0.473,5.498-2.578,11.358-4.185,13.115c-0.01-0.053-0.022-0.105-0.032-0.158  c-0.108-0.578-0.23-1.153-0.348-1.729c-0.277-1.366-0.576-2.727-0.904-4.082c-0.008-0.033-0.016-0.066-0.023-0.1  c-0.219-0.899-0.453-1.796-0.694-2.689c-0.019-0.069-0.036-0.14-0.055-0.209c-0.251-0.925-0.517-1.846-0.792-2.764  c-0.005-0.018-0.01-0.036-0.016-0.054c-1.389-4.638-3.065-9.194-5.047-13.646c8.207-17.276,18.658-51.743-8.746-81.176  c-8.047-8.642-11.99-16.326-11.102-21.639c0.707-4.228,4.733-7.184,7.988-8.919c6.465-3.448,13.912-3.892,22.535-4.406  c3.743-0.223,7.614-0.454,11.57-0.959c23.034-2.942,72.289-12.959,97.16-45.859C493.818,118.642,491.121,142.901,464.592,158.218z"/>
<path d="M105.201,171.46l-0.41,0.048c-5.496,0.553-9.502,5.456-8.948,10.951c0.519,5.155,4.865,8.999,9.938,8.999  c0.335,0,0.674-0.017,1.015-0.052c0.27-0.026,0.542-0.059,0.81-0.091c5.483-0.664,9.39-5.646,8.726-11.13  C115.666,174.704,110.679,170.809,105.201,171.46z"/>
<path d="M407.214,171.508l-0.419-0.049c-5.481-0.662-10.463,3.251-11.122,8.735c-0.659,5.483,3.252,10.463,8.735,11.122  c0.267,0.032,0.534,0.064,0.802,0.09c0.341,0.035,0.679,0.052,1.015,0.052c5.071,0,9.418-3.845,9.938-8.999  C416.715,176.964,412.709,172.061,407.214,171.508z"/>
<g>
</g>
<g>
</g>
<g>
</g>
<g>
</g>
<g>
</g>
<g>
</g>
<g>
</g>
<g>
</g>
<g>
</g>
<g>
</g>
<g>
</g>
<g>
</g>
<g>
</g>
<g>
</g>
<g>
</g>
</svg>
