<?xml version="1.0" encoding="iso-8859-1"?>
<!-- Generator: Adobe Illustrator 19.0.0, SVG Export Plug-In . SVG Version: 6.00 Build 0)  -->
<svg xmlns="http://www.w3.org/2000/svg" xmlns:xlink="http://www.w3.org/1999/xlink" version="1.1" id="Capa_1" x="0px" y="0px" viewBox="0 0 512.001 512.001" style="enable-background:new 0 0 512.001 512.001;" xml:space="preserve">
<g>
	<path style="fill:#DDE5E8;" d="M234.824,222.497c-9.721-17.441-28.481-27.898-48.448-27.898H5.244   c-4.099,0-6.608,4.498-4.455,7.986l4.316,6.992c9.907,16.048,27.42,25.818,46.279,25.818l4.252,0.412l6.999,14.978   c7.499,16.048,20.757,25.818,35.034,25.818h18.155l4.737,14.978c5.076,16.048,14.049,25.818,23.712,25.818h65.77h26.591   c2.892,0,5.236-2.344,5.236-5.236V249.61C241.87,240.123,239.446,230.789,234.824,222.497z"/>
	<path style="fill:#DDE5E8;" d="M324.678,194.6c-19.893,0-38.198,10.861-47.733,28.32l0,0c-4.471,8.186-6.813,17.364-6.813,26.692   v62.553c0,2.892,2.344,5.236,5.236,5.236h26.591h65.77c9.663,0,18.636-9.77,23.711-25.818l4.737-14.978h18.155   c14.277,0,27.535-9.77,35.034-25.818l6.999-14.978l4.252-0.412c18.859,0,36.373-9.77,46.279-25.818l4.316-6.992   c2.153-3.488-0.356-7.986-4.455-7.986L324.678,194.6L324.678,194.6z"/>
</g>
<g>
	<path style="fill:#BACBD1;" d="M511.214,202.59l-4.314,6.984c-9.906,16.052-27.424,25.822-46.283,25.822l-4.251,0.408   l-7.005,14.984c-7.497,16.042-20.754,25.811-35.026,25.811h-18.157l-4.743,14.984c-5.068,16.042-14.042,25.811-23.707,25.811   h-44.764c10.209,0,19.686-10.314,25.047-27.267l5.005-15.822h19.183c15.078,0,29.089-10.324,37.005-27.277l7.393-15.822   l4.492-0.429c19.927,0,38.429-10.324,48.89-27.277l4.555-7.382c0.304-0.492,0.524-1.005,0.66-1.519h31.56   C510.858,194.601,513.361,199.093,511.214,202.59z"/>
	<path style="fill:#BACBD1;" d="M0.786,202.59l4.314,6.984c9.906,16.052,27.424,25.822,46.283,25.822l4.251,0.408l7.005,14.984   c7.497,16.042,20.754,25.811,35.026,25.811h18.157l4.743,14.984c5.068,16.042,14.042,25.811,23.707,25.811h44.764   c-10.209,0-19.686-10.314-25.047-27.267l-5.005-15.822h-19.183c-15.078,0-29.089-10.324-37.005-27.277l-7.393-15.822l-4.492-0.429   c-19.927,0-38.429-10.324-48.89-27.277l-4.555-7.382c-0.304-0.492-0.524-1.005-0.66-1.519H5.247   C1.142,194.601-1.361,199.093,0.786,202.59z"/>
</g>
<g>
</g>
<g>
</g>
<g>
</g>
<g>
</g>
<g>
</g>
<g>
</g>
<g>
</g>
<g>
</g>
<g>
</g>
<g>
</g>
<g>
</g>
<g>
</g>
<g>
</g>
<g>
</g>
<g>
</g>
</svg>
