<?xml version="1.0" encoding="iso-8859-1"?>
<!-- Generator: Adobe Illustrator 19.0.0, SVG Export Plug-In . SVG Version: 6.00 Build 0)  -->
<svg xmlns="http://www.w3.org/2000/svg" xmlns:xlink="http://www.w3.org/1999/xlink" version="1.1" id="Capa_1" x="0px" y="0px" viewBox="0 0 512.001 512.001" style="enable-background:new 0 0 512.001 512.001;" xml:space="preserve">
<g>
	<path style="fill:#FFD15C;" d="M84.442,144.871l12.604,25.538c0.75,1.52,2.201,2.574,3.879,2.818l28.182,4.095   c4.225,0.614,5.912,5.806,2.855,8.787l-20.393,19.878c-1.214,1.183-1.768,2.889-1.482,4.56l4.814,28.068   c0.722,4.208-3.695,7.417-7.474,5.43L82.22,230.793c-1.501-0.789-3.294-0.789-4.794,0l-25.207,13.252   c-3.779,1.987-8.196-1.222-7.474-5.43l4.814-28.068c0.287-1.671-0.267-3.376-1.482-4.56l-20.393-19.878   c-3.057-2.98-1.37-8.173,2.855-8.787l28.182-4.095c1.678-0.244,3.128-1.298,3.879-2.818l12.604-25.538   C77.093,141.042,82.552,141.042,84.442,144.871z"/>
	<path style="fill:#FFD15C;" d="M260.619,2.873l35.673,72.28c0.75,1.52,2.201,2.574,3.879,2.818l79.766,11.591   c4.225,0.614,5.912,5.806,2.855,8.787l-57.719,56.263c-1.214,1.183-1.768,2.889-1.482,4.56l13.626,79.444   c0.722,4.208-3.695,7.417-7.474,5.43l-71.345-37.508c-1.501-0.789-3.294-0.789-4.794,0l-71.345,37.508   c-3.779,1.987-8.196-1.222-7.474-5.43l13.626-79.444c0.287-1.671-0.267-3.376-1.482-4.56L129.21,98.349   c-3.057-2.98-1.37-8.173,2.855-8.787l79.766-11.591c1.678-0.244,3.128-1.298,3.879-2.818l35.673-72.28   C253.27-0.956,258.73-0.956,260.619,2.873z"/>
</g>
<g>
	<path style="fill:#E8B44D;" d="M110.089,210.549l4.814,28.066c0.722,4.208-3.695,7.417-7.474,5.43l-21.76-11.44l-2.88-16.791   c-0.287-1.671,0.267-3.376,1.481-4.559L98.996,196.9c3.057-2.98,1.37-8.171-2.854-8.786l-20.353-2.961   c-1.677-0.244-3.126-1.297-3.877-2.816l-7.599-15.385l10.895-22.073c1.89-3.828,7.349-3.828,9.238,0l12.603,25.537   c0.75,1.52,2.201,2.574,3.878,2.818l28.179,4.095c4.225,0.614,5.912,5.806,2.855,8.786l-20.391,19.876   C110.357,207.173,109.803,208.878,110.089,210.549z"/>
	<path style="fill:#E8B44D;" d="M323.131,156.506l14.082,82.109c0.722,4.208-3.695,7.417-7.475,5.43l-49.313-25.927l-7.713-44.949   c-0.257-1.498,0.16-3.033,1.141-4.194L316.7,118.22c2.436-2.885,1.042-7.324-2.605-8.3l-65.177-17.432   c-1.433-0.383-2.632-1.366-3.289-2.697l-18.573-37.635l24.322-49.284c1.89-3.829,7.349-3.829,9.239,0l36.87,74.702l82.45,11.985   c4.225,0.614,5.912,5.806,2.855,8.787L323.131,156.506z"/>
</g>
<g>
	<path style="fill:#FFD15C;" d="M436.797,144.871l12.604,25.538c0.75,1.52,2.201,2.574,3.879,2.818l28.182,4.095   c4.225,0.614,5.912,5.806,2.855,8.787l-20.393,19.878c-1.214,1.183-1.768,2.889-1.482,4.56l4.814,28.068   c0.722,4.208-3.695,7.417-7.474,5.43l-25.207-13.252c-1.501-0.789-3.294-0.789-4.794,0l-25.207,13.252   c-3.779,1.987-8.196-1.222-7.474-5.43l4.814-28.068c0.287-1.671-0.267-3.376-1.482-4.56l-20.393-19.878   c-3.057-2.98-1.37-8.173,2.855-8.787l28.182-4.095c1.678-0.244,3.128-1.298,3.879-2.818l12.604-25.538   C429.448,141.042,434.907,141.042,436.797,144.871z"/>
	<path style="fill:#FFD15C;" d="M273,512.001c-4.142,0-7.5-3.357-7.5-7.5v-36.507c0-4.143,3.358-7.5,7.5-7.5s7.5,3.357,7.5,7.5   v36.507C280.5,508.644,277.142,512.001,273,512.001z"/>
	<path style="fill:#FFD15C;" d="M168.426,512.001c-4.142,0-7.5-3.357-7.5-7.5V268.488c0-4.143,3.358-7.5,7.5-7.5s7.5,3.357,7.5,7.5   v236.013C175.926,508.644,172.568,512.001,168.426,512.001z"/>
	<path style="fill:#FFD15C;" d="M203.456,512.001c-4.142,0-7.5-3.357-7.5-7.5V268.488c0-4.143,3.358-7.5,7.5-7.5s7.5,3.357,7.5,7.5   v236.013C210.956,508.644,207.598,512.001,203.456,512.001z"/>
	<path style="fill:#FFD15C;" d="M238.485,512.001c-4.142,0-7.5-3.357-7.5-7.5V268.488c0-4.143,3.358-7.5,7.5-7.5s7.5,3.357,7.5,7.5   v236.013C245.985,508.644,242.627,512.001,238.485,512.001z"/>
	<path style="fill:#FFD15C;" d="M273.515,427.508c-4.142,0-7.5-3.357-7.5-7.5v-151.52c0-4.143,3.358-7.5,7.5-7.5s7.5,3.357,7.5,7.5   v151.52C281.015,424.15,277.657,427.508,273.515,427.508z"/>
	<path style="fill:#FFD15C;" d="M308.544,512.001c-4.142,0-7.5-3.357-7.5-7.5V268.488c0-4.143,3.358-7.5,7.5-7.5s7.5,3.357,7.5,7.5   v236.013C316.044,508.644,312.687,512.001,308.544,512.001z"/>
	<path style="fill:#FFD15C;" d="M343.574,512.001c-4.142,0-7.5-3.357-7.5-7.5V268.488c0-4.143,3.358-7.5,7.5-7.5s7.5,3.357,7.5,7.5   v236.013C351.074,508.644,347.716,512.001,343.574,512.001z"/>
</g>
<path style="fill:#E8B44D;" d="M462.44,210.549l4.815,28.071c0.722,4.209-3.696,7.418-7.475,5.431l-21.764-11.442l-2.881-16.795  c-0.287-1.671,0.267-3.376,1.482-4.56l14.729-14.358c3.057-2.98,1.371-8.173-2.855-8.787l-20.357-2.961  c-1.677-0.244-3.127-1.297-3.878-2.817l-7.601-15.388l10.897-22.077c1.89-3.829,7.35-3.829,9.24,0l12.605,25.541  c0.75,1.521,2.201,2.574,3.879,2.818l28.184,4.096c4.226,0.614,5.913,5.807,2.855,8.787l-20.394,19.88  C462.708,207.172,462.154,208.877,462.44,210.549z"/>
<g>
</g>
<g>
</g>
<g>
</g>
<g>
</g>
<g>
</g>
<g>
</g>
<g>
</g>
<g>
</g>
<g>
</g>
<g>
</g>
<g>
</g>
<g>
</g>
<g>
</g>
<g>
</g>
<g>
</g>
</svg>
