<?xml version="1.0" encoding="iso-8859-1"?>
<!-- Generator: Adobe Illustrator 19.0.0, SVG Export Plug-In . SVG Version: 6.00 Build 0)  -->
<svg xmlns="http://www.w3.org/2000/svg" xmlns:xlink="http://www.w3.org/1999/xlink" version="1.1" id="Capa_1" x="0px" y="0px" viewBox="0 0 512 512" style="enable-background:new 0 0 512 512;" xml:space="preserve">
<path style="fill:#E7526A;" d="M260.403,347.104l0.359-147.726l-40.672,7.605l4.453-157.527  C169.653,18.669,98.897,26.62,52.208,73.308c-56.277,56.278-56.277,147.518,0,203.792L256,480.897L459.792,277.1  c56.277-56.274,56.277-147.514,0-203.792c-40.338-40.341-98.642-51.758-149.157-34.265l-24.966,111.198l47.53-4.68L260.403,347.104z  "/>
<path d="M466.864,66.237c-29.103-29.104-67.798-45.132-108.959-45.132c-17.271,0-34.277,2.856-50.543,8.489  c-3.272,1.133-5.727,3.879-6.484,7.259l-24.966,111.197c-0.703,3.132,0.14,6.41,2.267,8.814c2.125,2.405,5.277,3.645,8.471,3.328  l31.762-3.128l-47.868,132.528l0.22-90.19c0.008-2.979-1.313-5.805-3.602-7.71c-2.289-1.905-5.307-2.691-8.236-2.145l-28.488,5.327  l4.104-145.138c0.105-3.717-1.861-7.186-5.104-9.004c-22.896-12.842-48.947-19.629-75.34-19.629  c-41.159,0-79.855,16.028-108.961,45.132C16.03,95.344,0,134.043,0,175.206s16.03,79.86,45.136,108.966l203.793,203.797  c1.875,1.875,4.419,2.929,7.071,2.929c2.652,0,5.196-1.054,7.071-2.929l203.792-203.798C495.97,255.066,512,216.368,512,175.206  S495.97,95.344,466.864,66.237z M452.722,270.029L256,466.754L59.278,270.029C33.95,244.701,20,211.025,20,175.206  S33.95,105.71,59.278,80.38c25.328-25.326,59.002-39.274,94.818-39.274c20.967,0,41.68,4.917,60.276,14.267l-4.277,151.328  c-0.086,3.021,1.201,5.921,3.5,7.885c2.298,1.964,5.361,2.784,8.334,2.227l28.805-5.386l-0.33,135.652  c-0.012,4.862,3.475,9.028,8.264,9.872c4.791,0.85,9.49-1.879,11.141-6.45l72.797-201.543c1.166-3.229,0.596-6.829-1.513-9.538  c-2.108-2.708-5.456-4.151-8.872-3.812l-33.763,3.324l20.685-92.134c12.554-3.78,25.567-5.694,38.763-5.694  c35.818,0,69.491,13.948,94.816,39.274C478.05,105.71,492,139.385,492,175.206C492,211.025,478.05,244.701,452.722,270.029z"/>
<path d="M68.052,115.726c-4.822-2.693-10.914-0.97-13.607,3.852c-16.341,29.245-18.992,64.06-7.274,95.519  c1.499,4.025,5.315,6.513,9.372,6.513c1.16,0,2.34-0.203,3.489-0.632c5.176-1.928,7.809-7.687,5.881-12.861  c-9.667-25.952-7.483-54.668,5.991-78.782C74.598,124.512,72.873,118.419,68.052,115.726z"/>
<path d="M73.366,94.575l-0.275,0.278c-3.936,3.875-3.984,10.206-0.109,14.142c1.957,1.987,4.541,2.983,7.126,2.983  c2.533,0,5.068-0.957,7.017-2.875c0.163-0.161,0.328-0.327,0.492-0.493c3.875-3.935,3.827-10.267-0.108-14.142  C83.573,90.59,77.241,90.64,73.366,94.575z"/>
<path d="M458.349,204.413c-5.132-2.045-10.947,0.464-12.988,5.597c-4.735,11.911-11.775,22.588-20.923,31.735l-21.698,21.699  c-3.905,3.905-3.904,10.237,0,14.143c1.953,1.952,4.512,2.929,7.071,2.929s5.118-0.977,7.071-2.929l21.698-21.699  c11.083-11.084,19.618-24.033,25.366-38.487C465.986,212.269,463.48,206.454,458.349,204.413z"/>
<path d="M382.524,283.662l-0.429,0.427c-3.917,3.893-3.935,10.226-0.04,14.142c1.954,1.966,4.522,2.949,7.091,2.949  c2.55,0,5.101-0.969,7.051-2.909l0.429-0.427c3.917-3.894,3.936-10.226,0.041-14.142  C392.772,279.785,386.44,279.766,382.524,283.662z"/>
<g>
</g>
<g>
</g>
<g>
</g>
<g>
</g>
<g>
</g>
<g>
</g>
<g>
</g>
<g>
</g>
<g>
</g>
<g>
</g>
<g>
</g>
<g>
</g>
<g>
</g>
<g>
</g>
<g>
</g>
</svg>
