<?xml version="1.0" encoding="iso-8859-1"?>
<!-- Generator: Adobe Illustrator 19.0.0, SVG Export Plug-In . SVG Version: 6.00 Build 0)  -->
<svg xmlns="http://www.w3.org/2000/svg" xmlns:xlink="http://www.w3.org/1999/xlink" version="1.1" id="Capa_1" x="0px" y="0px" viewBox="0 0 512 512" style="enable-background:new 0 0 512 512;" xml:space="preserve">
<rect x="114.25" y="38.529" style="fill:#D8362A;" width="283.5" height="272.27"/>
<g>
	<path style="fill:#A1ACAD;" d="M406.223,38.529H105.777c-2.764,0-5.005-2.241-5.005-5.005V5.005c0-2.764,2.241-5.005,5.005-5.005   h300.446c2.764,0,5.005,2.241,5.005,5.005v28.519C411.228,36.288,408.987,38.529,406.223,38.529z"/>
	<path style="fill:#A1ACAD;" d="M406.223,349.328H105.777c-2.764,0-5.005-2.241-5.005-5.005v-28.519   c0-2.764,2.241-5.005,5.005-5.005h300.446c2.764,0,5.005,2.241,5.005,5.005v28.519   C411.228,347.087,408.987,349.328,406.223,349.328z"/>
	<path style="fill:#A1ACAD;" d="M411.156,98.607h-13.408v-34.78h13.408c2.764,0,5.005,2.241,5.005,5.005v24.77   C416.161,96.366,413.92,98.607,411.156,98.607z"/>
	<path style="fill:#A1ACAD;" d="M411.156,285.501h-13.408v-34.78h13.408c2.764,0,5.005,2.241,5.005,5.005v24.77   C416.161,283.26,413.92,285.501,411.156,285.501z"/>
	<path style="fill:#A1ACAD;" d="M114.252,98.607h-13.408c-2.764,0-5.005-2.241-5.005-5.005v-24.77c0-2.764,2.241-5.005,5.005-5.005   h13.408V98.607z"/>
	<path style="fill:#A1ACAD;" d="M114.252,285.501h-13.408c-2.764,0-5.005-2.241-5.005-5.005v-24.77c0-2.764,2.241-5.005,5.005-5.005   h13.408V285.501z"/>
</g>
<rect x="362.47" y="38.529" style="fill:#B72020;" width="35.28" height="272.27"/>
<g>
	<path style="fill:#819696;" d="M406.223,38.529h-43.755V0h43.755c2.764,0,5.005,2.241,5.005,5.005v28.519   C411.228,36.288,408.987,38.529,406.223,38.529z"/>
	<path style="fill:#819696;" d="M406.223,349.328h-43.755v-38.529h43.755c2.764,0,5.005,2.241,5.005,5.005v28.519   C411.228,347.087,408.987,349.328,406.223,349.328z"/>
</g>
<g>
	<path style="fill:#FFD15C;" d="M203.04,89.59h-12.878c-2.764,0-5.005-2.241-5.005-5.005V60.263c0-2.764,2.241-5.005,5.005-5.005   h12.878c2.764,0,5.005,2.241,5.005,5.005v24.322C208.045,87.349,205.804,89.59,203.04,89.59z"/>
	<path style="fill:#FFD15C;" d="M321.838,89.59H308.96c-2.764,0-5.005-2.241-5.005-5.005V60.263c0-2.764,2.241-5.005,5.005-5.005   h12.878c2.764,0,5.005,2.241,5.005,5.005v24.322C326.843,87.349,324.602,89.59,321.838,89.59z"/>
	<path style="fill:#FFD15C;" d="M196.659,61.875c-4.142,0-7.5-3.357-7.5-7.5V18.417c0-4.143,3.358-7.5,7.5-7.5s7.5,3.357,7.5,7.5   v35.958C204.159,58.518,200.801,61.875,196.659,61.875z"/>
	<path style="fill:#FFD15C;" d="M315.341,61.875c-4.142,0-7.5-3.357-7.5-7.5V18.417c0-4.143,3.358-7.5,7.5-7.5s7.5,3.357,7.5,7.5   v35.958C322.841,58.518,319.483,61.875,315.341,61.875z"/>
	<path style="fill:#FFD15C;" d="M308.96,255.682h12.878c2.764,0,5.005,2.241,5.005,5.005v24.322c0,2.764-2.241,5.005-5.005,5.005   H308.96c-2.764,0-5.005-2.241-5.005-5.005v-24.322C303.955,257.923,306.196,255.682,308.96,255.682z"/>
	<path style="fill:#FFD15C;" d="M190.162,255.682h12.878c2.764,0,5.005,2.241,5.005,5.005v24.322c0,2.764-2.241,5.005-5.005,5.005   h-12.878c-2.764,0-5.005-2.241-5.005-5.005v-24.322C185.157,257.923,187.398,255.682,190.162,255.682z"/>
	<path style="fill:#FFD15C;" d="M315.341,332.358c-4.142,0-7.5-3.357-7.5-7.5V288.9c0-4.143,3.358-7.5,7.5-7.5s7.5,3.357,7.5,7.5   v35.958C322.841,329.001,319.483,332.358,315.341,332.358z"/>
	<path style="fill:#FFD15C;" d="M196.659,332.358c-4.142,0-7.5-3.357-7.5-7.5V288.9c0-4.143,3.358-7.5,7.5-7.5s7.5,3.357,7.5,7.5   v35.958C204.159,329.001,200.801,332.358,196.659,332.358z"/>
</g>
<g>
	<path style="fill:#36353A;" d="M98.142,493.29c-4.142,0-7.5-3.358-7.5-7.5v-81.089c0-4.836,2.832-9.283,7.215-11.327l43.846-20.462   V265.66c0-4.142,3.358-7.5,7.5-7.5s7.5,3.358,7.5,7.5v108.844c0,4.837-2.832,9.283-7.215,11.328l-43.846,20.461v79.497   C105.642,489.932,102.284,493.29,98.142,493.29z"/>
	<path style="fill:#36353A;" d="M412.378,493.29c-4.142,0-7.5-3.358-7.5-7.5v-79.497l-43.847-20.462   c-4.382-2.044-7.214-6.49-7.214-11.327V265.66c0-4.142,3.358-7.5,7.5-7.5s7.5,3.358,7.5,7.5v107.251l43.847,20.462   c4.382,2.044,7.214,6.491,7.214,11.327v81.089C419.878,489.932,416.52,493.29,412.378,493.29z"/>
	<path style="fill:#36353A;" d="M256,493.29c-4.142,0-7.5-3.358-7.5-7.5V324c0-4.142,3.358-7.5,7.5-7.5s7.5,3.358,7.5,7.5v161.79   C263.5,489.932,260.142,493.29,256,493.29z"/>
	<path style="fill:#36353A;" d="M268.57,512h-25.14c-2.251,0-4.093-1.842-4.093-4.093v-16.955c0-2.251,1.842-4.093,4.093-4.093   h25.14c2.251,0,4.093,1.842,4.093,4.093v16.955C272.663,510.158,270.821,512,268.57,512z"/>
	<path style="fill:#36353A;" d="M111.325,512h-25.14c-2.251,0-4.093-1.842-4.093-4.093v-16.955c0-2.251,1.842-4.093,4.093-4.093   h25.14c2.251,0,4.093,1.842,4.093,4.093v16.955C115.418,510.158,113.576,512,111.325,512z"/>
	<path style="fill:#36353A;" d="M400.675,512h25.14c2.251,0,4.093-1.842,4.093-4.093v-16.955c0-2.251-1.842-4.093-4.093-4.093   h-25.14c-2.251,0-4.093,1.842-4.093,4.093v16.955C396.582,510.158,398.424,512,400.675,512z"/>
</g>
<g>
</g>
<g>
</g>
<g>
</g>
<g>
</g>
<g>
</g>
<g>
</g>
<g>
</g>
<g>
</g>
<g>
</g>
<g>
</g>
<g>
</g>
<g>
</g>
<g>
</g>
<g>
</g>
<g>
</g>
</svg>
