<?xml version="1.0" encoding="iso-8859-1"?>
<!-- Generator: Adobe Illustrator 19.0.0, SVG Export Plug-In . SVG Version: 6.00 Build 0)  -->
<svg xmlns="http://www.w3.org/2000/svg" xmlns:xlink="http://www.w3.org/1999/xlink" version="1.1" id="Capa_1" x="0px" y="0px" viewBox="0 0 512 512" style="enable-background:new 0 0 512 512;" xml:space="preserve">
<g>
	<path style="fill:#FFD997;" d="M393.909,243.98l-42.236,35.99l13.013,53.942l-47.282-29.049l-47.277,29.049l13.013-53.946   L240.9,243.98l55.328-4.293l21.175-51.294l21.18,51.294L393.909,243.98L393.909,243.98z M304.2,453.258   c52.266-19.653,89.709-70.252,89.709-129.167v-80.11v-61.727c-52.633-21.25-68.62-60.626-68.62-60.626   c-51.912,52.58-141.604,94.375-207.196,88.125v114.339c0,58.92,37.443,109.514,89.71,129.167c15.02,5.647,31.265,8.74,48.199,8.74   C272.933,461.998,289.18,458.905,304.2,453.258z"/>
	<path style="fill:#E7526A;" d="M118.092,209.752c65.593,6.25,155.284-35.545,207.196-88.125c0,0,15.987,39.376,68.62,60.626v61.727   v80.11c0,58.915-37.443,109.514-89.709,129.167v24.369h89.538h37.887v-292C431.625,89.032,352.596,10,256.001,10   C159.408,10,80.376,89.032,80.376,185.626v292.001h127.427v-24.369c-52.267-19.653-89.71-70.247-89.71-129.167V209.752H118.092z"/>
	<polygon style="fill:#5F8ACE;" points="296.228,239.688 240.9,243.98 283.138,279.967 270.125,333.913 317.403,304.864    364.685,333.913 351.672,279.971 393.909,243.98 338.582,239.688 317.403,188.394  "/>
	<path style="fill:#FFD997;" d="M255.999,461.998L255.999,461.998L255.999,461.998z M304.2,453.258   c-15.02,5.647-31.267,8.74-48.198,8.74c-16.935,0-33.179-3.093-48.199-8.74v24.369V502H304.2v-24.373V453.258z"/>
</g>
<path d="M317.403,258.01c-7.409,0-13.452,6.047-13.452,13.456c0,7.406,6.043,13.453,13.452,13.453  c7.41,0,13.452-6.047,13.452-13.453C330.855,264.057,324.813,258.01,317.403,258.01z"/>
<path d="M230.376,407.984h51.249c5.522,0,10-4.478,10-10s-4.478-10-10-10h-51.249c-5.523,0-10,4.478-10,10  S224.853,407.984,230.376,407.984z"/>
<path d="M194.598,284.919c7.41,0,13.454-6.047,13.454-13.453c0-7.409-6.044-13.456-13.454-13.456  c-7.407,0-13.452,6.047-13.452,13.456C181.146,278.872,187.191,284.919,194.598,284.919z"/>
<path d="M123.412,160.033c-0.234-0.023-0.468-0.046-0.702-0.064c-5.518-0.46-10.335,3.641-10.788,9.144  c-0.454,5.505,3.64,10.335,9.144,10.788l0.415,0.039c0.331,0.032,0.66,0.049,0.986,0.049c5.083,0,9.426-3.862,9.932-9.027  C132.937,165.465,128.909,160.571,123.412,160.033z"/>
<path d="M219.371,136.002c-22.21,11.155-44.448,18.873-64.304,22.316c-2.271,0.393-4.471,0.727-6.534,0.992  c-5.477,0.706-9.346,5.719-8.64,11.196c0.65,5.044,4.952,8.723,9.905,8.723c0.427,0,0.857-0.027,1.291-0.083  c2.346-0.303,4.828-0.679,7.388-1.121c21.77-3.775,45.931-12.127,69.87-24.15c4.936-2.48,6.927-8.489,4.448-13.425  C230.316,135.515,224.304,133.525,219.371,136.002z"/>
<path d="M387.107,54.52C351.951,19.362,305.39,0,256.001,0c-49.388,0-95.949,19.362-131.107,54.52  c-35.157,35.157-54.519,81.719-54.519,131.106v292.001c0,5.522,4.477,10,10,10h117.427V502c0,5.522,4.477,10,10,10H304.2  c5.522,0,10-4.478,10-10v-14.373h117.425c5.522,0,10-4.478,10-10V185.626C441.625,136.237,422.263,89.677,387.107,54.52z   M128.092,220.321c1.057,0.021,2.118,0.036,3.189,0.036c29.794,0,64.554-8.131,99.549-23.445  c34.354-15.033,66.56-35.751,92.015-59.059c8.882,13.713,27.395,35.77,61.064,50.991v44.331l-38.428-2.982l-18.835-45.615  c-1.545-3.742-5.194-6.184-9.243-6.184s-7.698,2.441-9.243,6.184l-18.831,45.614l-49.202,3.818c-4.037,0.313-7.486,3.029-8.737,6.88  s-0.057,8.076,3.025,10.702l37.562,32.001l-11.575,47.974c-0.95,3.936,0.567,8.056,3.843,10.436c1.747,1.27,3.81,1.91,5.879,1.91  c1.81,0,3.624-0.49,5.233-1.479l42.047-25.833l42.048,25.833c3.449,2.12,7.837,1.949,11.112-0.43c3.275-2.38,4.793-6.5,3.843-10.436  l-11.571-47.971l21.074-17.958v58.451c0,54.538-34.315,101.205-82.485,119.566c-0.517,0.148-1.013,0.341-1.491,0.567  c-13.707,5.028-28.505,7.773-43.933,7.773c-15.424,0-30.22-2.744-43.923-7.771c-0.482-0.229-0.983-0.423-1.505-0.572  c-48.167-18.362-82.479-65.028-82.479-119.565V220.321H128.092z M341.952,282.315l7.333,30.399l-26.647-16.371  c-1.605-0.986-3.42-1.48-5.234-1.48s-3.629,0.493-5.234,1.48l-26.645,16.37l7.335-30.401c0.885-3.664-0.366-7.514-3.235-9.958  l-23.801-20.277l31.179-2.42c3.758-0.291,7.032-2.671,8.47-6.154l11.933-28.905l11.936,28.906c1.438,3.483,4.713,5.862,8.47,6.153  l31.18,2.42l-23.802,20.282C342.318,274.804,341.068,278.652,341.952,282.315z M294.2,492h-76.397v-25.013  c12.19,3.262,24.994,5.011,38.199,5.011c13.205,0,26.008-1.749,38.198-5.011V492z M421.625,467.627h-17.887v-13.368  c0-5.522-4.477-10-10-10c-5.522,0-10,4.478-10,10v13.368H314.2v-7.569c52.704-22.645,89.709-75.063,89.709-135.967V182.253  c0-0.016-0.002-0.03-0.002-0.046c-0.002-0.253-0.019-0.504-0.039-0.755c-0.006-0.086-0.008-0.174-0.017-0.259  c-0.022-0.206-0.059-0.409-0.093-0.613c-0.022-0.127-0.037-0.257-0.063-0.382c-0.025-0.117-0.06-0.232-0.09-0.348  c-0.283-1.148-0.756-2.223-1.397-3.176c-0.657-0.98-1.499-1.843-2.489-2.55c-0.08-0.057-0.155-0.12-0.237-0.175  c-0.115-0.077-0.239-0.145-0.359-0.219c-0.167-0.103-0.333-0.207-0.507-0.3c-0.079-0.042-0.164-0.078-0.244-0.118  c-0.223-0.111-0.445-0.219-0.677-0.314c-0.015-0.006-0.027-0.014-0.042-0.02c-47.688-19.254-62.509-53.701-63.099-55.115  c-1.266-3.116-4.013-5.389-7.311-6.046c-3.305-0.655-6.708,0.389-9.07,2.782c-52.713,53.391-140.184,90.817-199.132,85.195  c-0.172-0.017-0.342-0.016-0.513-0.023c-0.146-0.007-0.288-0.022-0.436-0.022c-0.009,0-0.018,0.001-0.026,0.001  c-0.265,0.001-0.524,0.02-0.784,0.04c-0.074,0.006-0.15,0.005-0.225,0.013c-0.244,0.025-0.484,0.067-0.724,0.11  c-0.09,0.016-0.182,0.025-0.271,0.043c-0.166,0.034-0.328,0.083-0.491,0.126c-0.157,0.041-0.318,0.075-0.473,0.124  c-0.039,0.012-0.075,0.028-0.113,0.041c-2.137,0.698-3.958,2.092-5.19,3.919c-0.051,0.075-0.092,0.155-0.141,0.231  c-0.124,0.195-0.25,0.391-0.36,0.596c-0.05,0.092-0.09,0.19-0.138,0.285c-0.099,0.196-0.199,0.392-0.285,0.595  c-0.034,0.083-0.06,0.17-0.092,0.254c-0.087,0.223-0.174,0.445-0.245,0.676c-0.022,0.073-0.036,0.15-0.058,0.225  c-0.069,0.246-0.137,0.492-0.188,0.744c-0.018,0.09-0.026,0.184-0.042,0.275c-0.041,0.239-0.082,0.479-0.105,0.724  c-0.001,0.011-0.004,0.02-0.005,0.031c-0.016,0.167-0.015,0.33-0.022,0.496c-0.007,0.15-0.022,0.3-0.022,0.452v0.061  c0,0.009,0,0.017,0,0.024v114.254c0,60.904,37.006,113.322,89.71,135.967v7.569H90.376V185.626C90.376,94.3,164.675,20,256.001,20  c91.325,0,165.623,74.3,165.623,165.626L421.625,467.627L421.625,467.627z"/>
<path d="M393.734,415.287c-5.522,0-10,4.478-10,10v0.24c0,5.522,4.478,10,10,10c5.523,0,10-4.478,10-10v-0.24  C403.734,419.765,399.256,415.287,393.734,415.287z"/>
<g>
</g>
<g>
</g>
<g>
</g>
<g>
</g>
<g>
</g>
<g>
</g>
<g>
</g>
<g>
</g>
<g>
</g>
<g>
</g>
<g>
</g>
<g>
</g>
<g>
</g>
<g>
</g>
<g>
</g>
</svg>
