<?xml version="1.0" encoding="iso-8859-1"?>
<!-- Generator: Adobe Illustrator 19.0.0, SVG Export Plug-In . SVG Version: 6.00 Build 0)  -->
<svg xmlns="http://www.w3.org/2000/svg" xmlns:xlink="http://www.w3.org/1999/xlink" version="1.1" id="Capa_1" x="0px" y="0px" viewBox="0 0 512 512" style="enable-background:new 0 0 512 512;" xml:space="preserve">
<path style="fill:#F0BEB4;" d="M351.019,20.088h-0.155c-12.817,0-23.304,10.487-23.304,23.304v58.061  c0-12.817-10.487-23.304-23.304-23.304h-0.155c-12.817,0-23.304,10.487-23.304,23.304h-0.155c0-12.817-10.486-23.304-23.304-23.304  h-0.155c-12.817,0-23.304,10.487-23.304,23.304l-0.053-78.061c0-12.775-10.521-23.227-23.381-23.227s-23.381,10.452-23.381,23.227  v125.754v2.515c-16.266-8.601-34.825-8.035-44.928-6.819c-3.638,0.438-5.61,4.48-3.736,7.629l61.917,104.003  c7.492,11.805,17.803,21.838,30.025,29.267V512h100.622V285.753c26.022-15.814,43.356-43.469,43.356-74.776v-28.861V161.64v-11.987  V43.391C374.322,30.574,363.836,20.088,351.019,20.088z"/>
<path style="fill:#E5A195;" d="M351.022,20.088h-0.162c-3.205,0-6.268,0.659-9.047,1.836c8.347,3.55,14.25,11.856,14.25,21.471  v167.587c0,24.412-10.538,46.592-27.516,62.678c-5.681,5.388-12.088,10.085-19.059,13.956l-2.631,1.06v0.343  c-10.7,5.512-22.637,9.112-35.298,10.29c2.992,0.284,6.024,0.426,9.097,0.426c9.086,0,17.878-1.247,26.2-3.561V512h24.109V285.748  c5.731-3.484,11.041-7.542,15.837-12.089c16.978-16.085,27.516-38.266,27.516-62.678V43.394  C374.319,30.574,363.832,20.088,351.022,20.088z"/>
<path style="fill:#FF8A33;" d="M354.71,380.886H206.502c-2.801,0-5.071-2.27-5.071-5.071v-37.751c0-2.801,2.27-5.071,5.071-5.071  H354.71c2.801,0,5.071,2.27,5.071,5.071v37.751C359.781,378.615,357.511,380.886,354.71,380.886z"/>
<path style="fill:#ED7829;" d="M354.71,380.886h-47.902v-47.893h47.902c2.801,0,5.071,2.27,5.071,5.071v37.751  C359.781,378.615,357.511,380.886,354.71,380.886z"/>
<g>
	<circle style="fill:#36353A;" cx="228.172" cy="357.11" r="8.707"/>
	<circle style="fill:#36353A;" cx="263.162" cy="357.11" r="8.707"/>
	<circle style="fill:#36353A;" cx="298.152" cy="357.11" r="8.707"/>
	<circle style="fill:#36353A;" cx="333.142" cy="357.11" r="8.707"/>
</g>
<g>
	<path style="fill:#E5A195;" d="M263.313,289.444l0.01,8.59c-3.053-0.548-6.055-1.237-8.996-2.059   c2.941-81.136-49.818-91.978-49.818-91.978c-10.74-35.72-40.507-42.15-60.436-42.181l-5.669-9.513   c-1.876-3.154,0.091-7.191,3.732-7.627c17.201-2.079,58.925-2.272,72.09,41.481C214.226,186.157,271.802,198.003,263.313,289.444z"/>
	<path style="fill:#E5A195;" d="M233.851,23.225v136.603c0,12.911-10.466,23.377-23.377,23.377c-3.043,0-5.953-0.578-8.621-1.643   c8.641-3.428,14.757-11.866,14.757-21.734V23.225c0-6.39-2.627-12.201-6.866-16.4c-2.231-2.221-4.909-3.996-7.891-5.172   C204.52,0.588,207.431,0,210.473,0c6.43,0,12.272,2.607,16.511,6.826C231.224,11.025,233.851,16.836,233.851,23.225z"/>
	<path style="fill:#E5A195;" d="M327.589,101.426v60.193c0,12.819-10.487,23.306-23.306,23.306h-0.152   c-3.489,0-6.805-0.771-9.777-2.16c7.962-3.722,13.519-11.815,13.519-21.146v-60.193c0-9.32-5.558-17.414-13.519-21.136   c2.972-1.389,6.288-2.16,9.777-2.16h0.152C317.102,78.13,327.589,88.617,327.589,101.426z"/>
	<path style="fill:#E5A195;" d="M280.595,101.426v60.193c0,12.819-10.487,23.306-23.306,23.306h-0.152   c-3.489,0-6.805-0.771-9.777-2.16c7.962-3.722,13.519-11.815,13.519-21.146v-60.193c0-9.32-5.558-17.414-13.519-21.136   c2.972-1.389,6.288-2.16,9.777-2.16h0.152C270.108,78.13,280.595,88.617,280.595,101.426z"/>
</g>
<g>
</g>
<g>
</g>
<g>
</g>
<g>
</g>
<g>
</g>
<g>
</g>
<g>
</g>
<g>
</g>
<g>
</g>
<g>
</g>
<g>
</g>
<g>
</g>
<g>
</g>
<g>
</g>
<g>
</g>
</svg>
