<?xml version="1.0" encoding="iso-8859-1"?>
<!-- Generator: Adobe Illustrator 19.0.0, SVG Export Plug-In . SVG Version: 6.00 Build 0)  -->
<svg xmlns="http://www.w3.org/2000/svg" xmlns:xlink="http://www.w3.org/1999/xlink" version="1.1" id="Capa_1" x="0px" y="0px" viewBox="0 0 511.998 511.998" style="enable-background:new 0 0 511.998 511.998;" xml:space="preserve">
<path style="fill:#FFD15C;" d="M510.458,167.6c-20.297,0.508-36.388-17.068-36.749-36.716c-0.011-0.608-0.464-1.38-1.127-1.481  c-3.739-0.564-7.882-0.077-11.645-0.082c-10.423-0.012-20.846-0.016-31.268-0.021c-34.572-0.016-69.146-0.021-103.718-0.025  c-41.718-0.005-83.435-0.005-125.154-0.001c-36.031,0.003-72.062,0.008-108.093,0.022c-11.84,0.005-52.937,0.054-53.293,0.107  c-0.664,0.1-1.116,0.864-1.127,1.481c-0.362,19.649-16.453,37.223-36.749,36.716C0.705,167.58,0,168.32,0,169.135  c0,50.753,0,101.505,0,152.257c0,7.151,0,14.302,0,21.454c0,0.815,0.703,1.556,1.535,1.535  c20.297-0.508,36.388,17.068,36.749,36.716c0.011,0.608,0.464,1.38,1.127,1.481c3.739,0.564,230.068,0.133,271.786,0.13  c36.031-0.003,131.772-0.032,143.612-0.042c5.322-0.004,17.418-0.034,17.774-0.088c0.664-0.1,1.116-0.864,1.127-1.481  c0.373-20.285,16.433-36.343,36.717-36.716c0.011,0,0.022,0.001,0.032,0.001c0.83,0.021,1.535-0.72,1.535-1.535  c0-50.752,0-101.505,0-152.257c0-7.151,0-14.302,0-21.454C511.993,168.321,511.29,167.579,510.458,167.6z"/>
<g>
	<path style="fill:#E8B44D;" d="M361.891,129.301c-34.569-0.02-69.139-0.02-103.718-0.03h67.779c23.04,0.01,46.079,0.01,69.119,0.02   c-0.65,0.02-1.28,0.03-1.91,0.03C382.741,129.311,372.321,129.301,361.891,129.301z"/>
	<path style="fill:#E8B44D;" d="M511.998,169.14v173.707c0,0.81-0.71,1.56-1.54,1.53h-0.03c-20.29,0.38-36.349,16.44-36.719,36.719   c-0.01,0.62-0.46,1.38-1.13,1.48c-0.35,0.06-12.45,0.09-17.77,0.09c-11.84,0.01-107.578,0.04-143.617,0.04   c-28.009,0.01-139.247,0.2-210.456,0.15c60.079-0.04,122.658-0.15,142.687-0.15c36.029,0,131.767-0.03,143.607-0.04   c5.32,0,17.42-0.03,17.78-0.09c0.66-0.1,1.11-0.86,1.12-1.48c0.38-20.28,16.44-36.339,36.719-36.719h0.03   c0.83,0.03,1.54-0.72,1.54-1.53V169.14c0-0.82-0.7-1.56-1.54-1.54c-20.29,0.51-36.379-17.07-36.749-36.719   c-0.01-0.6-0.46-1.38-1.12-1.48c-0.29-0.04-0.58-0.08-0.87-0.11c8.57,0,17.15,0.01,25.73,0.01c10.42,0,20.84,0.01,31.269,0.02   c3.76,0.01,7.9-0.48,11.64,0.08c0.67,0.1,1.12,0.88,1.13,1.48c0.36,19.65,16.45,37.229,36.749,36.719   C511.288,167.58,511.998,168.32,511.998,169.14z"/>
	<path style="fill:#E8B44D;" d="M403.94,129.291h-8.78C398.06,129.201,401.09,128.981,403.94,129.291z"/>
</g>
<g>
	<path style="fill:#E2A427;" d="M401.841,234.496H110.15c-4.24,0-7.676-3.436-7.676-7.676s3.436-7.676,7.676-7.676h291.691   c4.24,0,7.676,3.436,7.676,7.676C409.517,231.06,406.081,234.496,401.841,234.496z"/>
	<path style="fill:#E2A427;" d="M401.841,292.838H110.15c-4.24,0-7.676-3.436-7.676-7.676s3.436-7.676,7.676-7.676h291.691   c4.24,0,7.676,3.436,7.676,7.676S406.081,292.838,401.841,292.838z"/>
	<path style="fill:#E2A427;" d="M436.542,164.608h-40.939c-4.24,0-7.676-3.436-7.676-7.676c0-4.24,3.436-7.676,7.676-7.676h40.939   c4.24,0,7.676,3.436,7.676,7.676C444.218,161.172,440.782,164.608,436.542,164.608z M354.664,164.608h-40.939   c-4.24,0-7.676-3.436-7.676-7.676c0-4.24,3.436-7.676,7.676-7.676h40.939c4.24,0,7.676,3.436,7.676,7.676   C362.34,161.172,358.904,164.608,354.664,164.608z M272.786,164.608h-40.939c-4.24,0-7.676-3.436-7.676-7.676   c0-4.24,3.436-7.676,7.676-7.676h40.939c4.24,0,7.676,3.436,7.676,7.676C280.463,161.172,277.026,164.608,272.786,164.608z    M190.907,164.608h-40.939c-4.24,0-7.676-3.436-7.676-7.676c0-4.24,3.436-7.676,7.676-7.676h40.939c4.24,0,7.676,3.436,7.676,7.676   C198.584,161.172,195.147,164.608,190.907,164.608z M109.03,164.608H68.091c-4.24,0-7.676-3.436-7.676-7.676   c0-4.24,3.436-7.676,7.676-7.676h40.939c4.24,0,7.676,3.436,7.676,7.676C116.706,161.172,113.269,164.608,109.03,164.608z"/>
	<path style="fill:#E2A427;" d="M436.542,360.92h-40.939c-4.24,0-7.676-3.436-7.676-7.676c0-4.24,3.436-7.676,7.676-7.676h40.939   c4.24,0,7.676,3.436,7.676,7.676C444.218,357.484,440.782,360.92,436.542,360.92z M354.664,360.92h-40.939   c-4.24,0-7.676-3.436-7.676-7.676c0-4.24,3.436-7.676,7.676-7.676h40.939c4.24,0,7.676,3.436,7.676,7.676   C362.34,357.484,358.904,360.92,354.664,360.92z M272.786,360.92h-40.939c-4.24,0-7.676-3.436-7.676-7.676   c0-4.24,3.436-7.676,7.676-7.676h40.939c4.24,0,7.676,3.436,7.676,7.676C280.462,357.484,277.026,360.92,272.786,360.92z    M190.907,360.92h-40.939c-4.24,0-7.676-3.436-7.676-7.676c0-4.24,3.436-7.676,7.676-7.676h40.939c4.24,0,7.676,3.436,7.676,7.676   C198.583,357.484,195.147,360.92,190.907,360.92z M109.03,360.92H68.091c-4.24,0-7.676-3.436-7.676-7.676   c0-4.24,3.436-7.676,7.676-7.676h40.939c4.24,0,7.676,3.436,7.676,7.676C116.706,357.484,113.269,360.92,109.03,360.92z"/>
</g>
<g>
</g>
<g>
</g>
<g>
</g>
<g>
</g>
<g>
</g>
<g>
</g>
<g>
</g>
<g>
</g>
<g>
</g>
<g>
</g>
<g>
</g>
<g>
</g>
<g>
</g>
<g>
</g>
<g>
</g>
</svg>
