<?xml version="1.0" encoding="iso-8859-1"?>
<!-- Generator: Adobe Illustrator 19.0.0, SVG Export Plug-In . SVG Version: 6.00 Build 0)  -->
<svg xmlns="http://www.w3.org/2000/svg" xmlns:xlink="http://www.w3.org/1999/xlink" version="1.1" id="Capa_1" x="0px" y="0px" viewBox="0 0 512 512" style="enable-background:new 0 0 512 512;" xml:space="preserve">
<g>
	<polygon style="fill:#DAE3E4;" points="379.944,80.666 431.335,132.058 446.429,116.964 446.068,93.439 465.864,73.644    490.261,73.135 501.999,10 438.866,21.741 438.359,46.141 418.565,65.935 395.037,65.57  "/>
	
		<rect x="320.021" y="85.949" transform="matrix(-0.7071 -0.7071 0.7071 -0.7071 498.2973 517.6674)" style="fill:#808080;" width="72.679" height="139.369"/>
	<path style="fill:#9ADFEF;" d="M332.785,230.609l-51.393-51.396c-9.015-9.016-23.765-9.013-32.777,0.002l-113.54,113.539   l-9.249,9.25c-9.017,9.012-9.017,23.763-0.002,32.775l3.142,3.141c0.044,0.045,0.087,0.086,0.13,0.131l44.855,44.856l3.27,3.268   c9.015,9.017,23.764,9.017,32.778,0l110.012-110.01l12.776-12.776C341.801,254.372,341.801,239.626,332.785,230.609z"/>
	<g>
		<path style="fill:#5F8ACE;" d="M171.036,379.995l-39.028-39.03l-0.111-0.109c-6.787-6.649-18.6-5.786-26.337,1.948    c-7.777,7.776-8.604,19.678-1.835,26.445l39.028,39.029c6.769,6.768,18.668,5.941,26.446-1.839    C176.979,398.663,177.805,386.762,171.036,379.995z"/>
		<path style="fill:#5F8ACE;" d="M142.753,408.278l-39.028-39.029c-6.769-6.767-18.669-5.941-26.448,1.839    c-7.778,7.78-8.604,19.678-1.838,26.444l39.03,39.03c6.767,6.771,18.667,5.94,26.446-1.835    C148.694,426.947,149.522,415.046,142.753,408.278z"/>
		<path style="fill:#5F8ACE;" d="M114.469,436.563l-39.03-39.03c-6.767-6.767-18.666-5.94-26.446,1.84    c-7.78,7.779-8.606,19.678-1.837,26.448l19.515,19.515l19.515,19.516c6.768,6.767,18.667,5.94,26.445-1.84    S121.236,443.333,114.469,436.563z"/>
	</g>
</g>
<path d="M509.071,2.929c-2.33-2.33-5.661-3.363-8.899-2.76L437.038,11.91c-4.66,0.866-8.071,4.885-8.17,9.623l-0.424,20.38  L414.487,55.87l-19.295-0.297c-2.73-0.033-5.313,1.015-7.226,2.928L280.303,166.164c-4.663-2.422-9.877-3.711-15.298-3.711  c-8.882,0-17.214,3.442-23.462,9.691L118.756,294.932c-6.25,6.247-9.693,14.579-9.693,23.46c0,3.44,0.522,6.796,1.519,9.982  c-4.518,1.43-8.652,3.919-12.089,7.354c-0.048,0.048-0.095,0.096-0.142,0.143c-5.342,5.411-8.199,12.364-8.583,19.43  c-7.406,0.396-14.301,3.454-19.563,8.716c-5.264,5.265-8.321,12.16-8.717,19.567c-7.407,0.396-14.304,3.454-19.566,8.717  c-5.652,5.651-8.765,13.185-8.765,21.213s3.112,15.561,8.764,21.213l10.606,10.607L2.93,494.929c-3.905,3.905-3.905,10.236,0,14.143  C4.883,511.024,7.442,512,10.001,512c2.558,0,5.118-0.976,7.071-2.929l49.598-49.595l10.604,10.605  c5.652,5.651,13.186,8.764,21.214,8.764c8.027,0,15.562-3.112,21.216-8.765c5.429-5.431,8.333-12.441,8.721-19.566  c7.406-0.397,14.302-3.455,19.561-8.716c5.432-5.432,8.337-12.445,8.725-19.571c7.404-0.397,14.298-3.453,19.559-8.712  c0.047-0.048,0.094-0.095,0.14-0.143c3.43-3.474,5.829-7.586,7.216-11.953c3.186,0.997,6.543,1.52,9.983,1.52  c8.88,0,17.212-3.442,23.46-9.691L339.858,270.46c10.47-10.473,12.461-26.261,5.979-38.76L453.5,124.035  c1.913-1.913,2.969-4.52,2.928-7.225l-0.297-19.294l13.961-13.959l20.378-0.425c4.738-0.099,8.756-3.511,9.623-8.17l11.737-63.135  C512.433,8.588,511.401,5.259,509.071,2.929z M295.535,179.216l84.407-84.408l37.25,37.251l-84.406,84.407L295.535,179.216z   M105.558,455.941c-1.873,1.874-4.384,2.905-7.069,2.905c-2.686,0-5.197-1.032-7.071-2.906l-35.354-35.355  c-1.874-1.874-2.905-4.385-2.905-7.07c0-2.686,1.031-5.196,2.906-7.07c1.874-1.874,4.385-2.906,7.071-2.906  c2.686,0,5.196,1.032,7.07,2.906L105.56,441.8C109.458,445.697,109.458,452.041,105.558,455.941z M133.843,427.657  c-1.872,1.873-4.383,2.905-7.069,2.905s-5.197-1.032-7.07-2.906l-35.355-35.355c-1.874-1.874-2.906-4.385-2.906-7.071  c0-2.685,1.032-5.196,2.906-7.071c1.874-1.874,4.385-2.905,7.071-2.905s5.195,1.031,7.069,2.906l35.357,35.355  C137.744,417.413,137.743,423.757,133.843,427.657z M162.131,399.368c-0.028,0.027-0.056,0.056-0.084,0.084  c-1.864,1.821-4.342,2.823-6.989,2.823c-2.687,0-5.197-1.031-7.069-2.903l-35.356-35.354c-3.899-3.901-3.899-10.245-0.002-14.144  c0.028-0.027,0.056-0.056,0.083-0.083c1.864-1.822,4.342-2.823,6.989-2.823c2.682,0,5.188,1.027,7.06,2.893l35.403,35.403  C166.027,389.17,166.016,395.482,162.131,399.368z M202.925,379.106c-2.471,2.472-5.779,3.833-9.316,3.833  c-3.538,0-6.847-1.361-9.318-3.834l-7.981-7.981c-0.013-0.013-0.024-0.026-0.037-0.039l-35.358-35.356l-8.02-8.02  c-2.471-2.47-3.831-5.778-3.831-9.315c0-3.537,1.361-6.845,3.834-9.316l2.179-2.179l29.017,29.013  c1.952,1.953,4.511,2.929,7.07,2.929s5.119-0.977,7.071-2.93c3.905-3.905,3.905-10.236-0.001-14.142l-29.016-29.012l106.47-106.47  c2.471-2.472,5.78-3.833,9.318-3.833c3.537,0,6.845,1.361,9.315,3.832l0.002,0.002l51.392,51.394c0.003,0.003,0.007,0.006,0.01,0.01  c5.128,5.139,5.125,13.492-0.01,18.628l-5.705,5.705l-29.015-29.02c-3.903-3.905-10.236-3.905-14.142-0.001  c-3.905,3.904-3.906,10.236-0.001,14.142l29.016,29.021L202.925,379.106z M481.917,63.307l-16.262,0.339  c-2.579,0.054-5.037,1.103-6.861,2.927l-19.797,19.795c-1.914,1.913-2.97,4.52-2.929,7.225l0.297,19.294l-5.03,5.029l-37.25-37.25  l5.03-5.029l19.295,0.298c0.052,0.001,0.104,0.001,0.154,0.001c2.65,0,5.194-1.053,7.071-2.929l19.794-19.794  c1.824-1.824,2.873-4.283,2.927-6.863l0.338-16.264l40.811-7.59L481.917,63.307z"/>
<path d="M270.547,212.565c-3.883-3.927-10.214-3.964-14.142-0.081c-3.928,3.883-3.964,10.214-0.081,14.142l0.169,0.171  c1.956,1.979,4.533,2.97,7.111,2.97c2.54,0,5.081-0.962,7.03-2.889c3.928-3.883,3.964-10.214,0.081-14.142L270.547,212.565z"/>
<path d="M198.546,342.089c-3.906-3.904-10.236-3.904-14.143,0c-3.905,3.905-3.905,10.237,0,14.143l0.167,0.167  c1.953,1.952,4.512,2.929,7.071,2.929s5.118-0.977,7.071-2.929c3.905-3.905,3.905-10.237,0-14.143L198.546,342.089z"/>
<g>
</g>
<g>
</g>
<g>
</g>
<g>
</g>
<g>
</g>
<g>
</g>
<g>
</g>
<g>
</g>
<g>
</g>
<g>
</g>
<g>
</g>
<g>
</g>
<g>
</g>
<g>
</g>
<g>
</g>
</svg>
