<?xml version="1.0" encoding="iso-8859-1"?>
<!-- Generator: Adobe Illustrator 19.0.0, SVG Export Plug-In . SVG Version: 6.00 Build 0)  -->
<svg xmlns="http://www.w3.org/2000/svg" xmlns:xlink="http://www.w3.org/1999/xlink" version="1.1" id="Capa_1" x="0px" y="0px" viewBox="0 0 511.999 511.999" style="enable-background:new 0 0 511.999 511.999;" xml:space="preserve">
<g>
	<rect x="67.26" y="83.5" style="fill:#9ADFEF;" width="40" height="83.75"/>
	<g>
		<circle style="fill:#27D8A9;" cx="181.63" cy="83.5" r="26.875"/>
		<circle style="fill:#27D8A9;" cx="330.37" cy="83.5" r="26.876"/>
	</g>
	<path style="fill:#DAE3E4;" d="M330.372,110.374c-14.844,0-26.875-12.032-26.875-26.876s12.031-26.876,26.875-26.876   s26.877,12.032,26.877,26.876S345.217,110.374,330.372,110.374L330.372,110.374z M374.342,10H137.659   c-16.72,0-30.399,13.68-30.399,30.399v43.099v83.749V471.6c0,16.72,13.68,30.399,30.399,30.399h236.683   c16.721,0,30.398-13.68,30.398-30.399V167.247V83.498V40.399C404.74,23.68,391.063,10,374.342,10L374.342,10z M286.053,137.195   c7.69,7.691,12.449,18.316,12.449,30.052c0,23.474-19.028,42.502-42.503,42.502c-23.473,0-42.501-19.028-42.501-42.502   c0-23.473,19.028-42.501,42.501-42.501C267.737,124.746,278.361,129.503,286.053,137.195L286.053,137.195z M208.501,83.498   c0,14.844-12.033,26.876-26.877,26.876c-14.842,0-26.874-12.032-26.874-26.876s12.032-26.876,26.874-26.876   C196.469,56.622,208.501,68.654,208.501,83.498L208.501,83.498z M166.727,256.004h178.548c8.311,0,15.11,6.796,15.11,15.108v39.998   v135.78c0,8.313-6.8,15.112-15.11,15.112H166.727c-8.311,0-15.109-6.8-15.109-15.112V311.11v-39.998   C151.617,262.8,158.414,256.004,166.727,256.004z"/>
	<path style="fill:#51C2E5;" d="M298.503,167.247c0-11.735-4.759-22.361-12.449-30.055c-7.692-7.689-18.316-12.446-30.054-12.446   c-23.473,0-42.501,19.028-42.501,42.501c0,23.474,19.028,42.502,42.501,42.502C279.475,209.749,298.503,190.721,298.503,167.247z"/>
	<path style="fill:#5F8ACE;" d="M345.273,256.004H166.727c-8.311,0-15.109,6.796-15.109,15.108v39.998   c0-8.309,6.798-15.107,15.109-15.107h178.548c8.311,0,15.11,6.799,15.11,15.107v-39.998   C360.385,262.8,353.585,256.004,345.273,256.004z"/>
	<g>
		<path style="fill:#9ADFEF;" d="M345.273,296.003H166.727c-8.311,0-15.109,6.799-15.109,15.107v135.78    c0,8.313,6.798,15.112,15.109,15.112h178.548c8.311,0,15.11-6.8,15.11-15.112V311.11    C360.385,302.802,353.585,296.003,345.273,296.003z"/>
		<rect x="404.74" y="83.5" style="fill:#9ADFEF;" width="40" height="83.75"/>
	</g>
</g>
<path d="M192.865,362.505h95.729c5.523,0,10-4.478,10-10c0-5.523-4.478-10-10-10h-95.729c-5.523,0-10,4.477-10,10  C182.865,358.027,187.341,362.505,192.865,362.505z"/>
<path d="M319.135,342.505h-0.62c-5.522,0-10,4.477-10,10c0,5.522,4.478,10,10,10h0.62c5.523,0,10-4.478,10-10  C329.135,346.982,324.658,342.505,319.135,342.505z"/>
<path d="M256.002,219.749c28.949,0,52.501-23.553,52.501-52.502c0-14.138-5.627-26.979-14.747-36.427  c-0.198-0.24-0.406-0.475-0.631-0.699c-0.226-0.225-0.461-0.434-0.7-0.633c-9.448-9.117-22.287-14.742-36.423-14.742  c-28.95,0-52.503,23.552-52.503,52.501S227.052,219.749,256.002,219.749z M256.002,134.746c5.322,0,10.346,1.294,14.783,3.572  l-21.856,21.857c-3.905,3.905-3.905,10.237,0.001,14.143c1.952,1.952,4.512,2.929,7.07,2.929c2.559,0,5.119-0.977,7.071-2.929  l21.858-21.858c2.278,4.439,3.573,9.463,3.573,14.787c0,17.922-14.58,32.502-32.501,32.502c-17.922,0-32.503-14.58-32.503-32.502  C223.499,149.326,238.079,134.746,256.002,134.746z"/>
<path d="M181.626,120.374c20.333,0,36.875-16.543,36.875-36.876s-16.542-36.876-36.875-36.876  c-20.334,0-36.876,16.543-36.876,36.876S161.293,120.374,181.626,120.374z M181.626,66.622c9.305,0,16.875,7.57,16.875,16.876  s-7.57,16.876-16.875,16.876c-9.306,0-16.876-7.57-16.876-16.876S172.32,66.622,181.626,66.622z"/>
<path d="M330.375,120.374c20.334,0,36.877-16.543,36.877-36.876s-16.543-36.876-36.877-36.876  c-20.332,0-36.875,16.543-36.875,36.876S310.043,120.374,330.375,120.374z M330.375,66.622c9.307,0,16.877,7.57,16.877,16.876  s-7.57,16.876-16.877,16.876c-9.305,0-16.875-7.57-16.875-16.876S321.07,66.622,330.375,66.622z"/>
<path d="M444.743,73.498H414.74V40.399C414.74,18.123,396.617,0,374.342,0H137.659C115.383,0,97.26,18.123,97.26,40.399v33.099  H67.257c-5.522,0-10,4.478-10,10v83.749c0,5.523,4.478,10,10,10H97.26V471.6c0,22.276,18.123,40.399,40.399,40.399h236.683  c22.275,0,40.398-18.123,40.398-40.399V177.247h30.003c5.522,0,10-4.477,10-10V83.498C454.743,77.976,450.266,73.498,444.743,73.498  z M77.257,157.247V93.498H97.26v63.749L77.257,157.247L77.257,157.247z M394.74,471.601c0,11.248-9.15,20.399-20.398,20.399H137.659  c-11.249,0-20.4-9.151-20.4-20.399V167.247V83.498V40.399c0-11.248,9.15-20.399,20.4-20.399h236.683  c11.248,0,20.398,9.151,20.398,20.399v43.099v83.749V471.601z M434.743,157.247H414.74V93.498h20.003L434.743,157.247  L434.743,157.247z"/>
<path d="M345.273,246.004H166.727c-13.846,0-25.109,11.264-25.109,25.108v39.998v135.78c0,13.847,11.264,25.112,25.109,25.112  h178.548c13.846,0,25.11-11.266,25.11-25.112V311.11v-39.998C370.385,257.268,359.12,246.004,345.273,246.004z M166.727,266.004  h178.548c2.771,0,5.11,2.339,5.11,5.108v15.415c-1.65-0.343-3.359-0.524-5.11-0.524H166.727c-1.75,0-3.459,0.182-5.109,0.523  v-15.414C161.617,268.343,163.957,266.004,166.727,266.004z M350.385,446.89c0,2.771-2.34,5.112-5.11,5.112H166.727  c-2.769,0-5.109-2.341-5.109-5.112V311.11c0-2.769,2.34-5.107,5.109-5.107h178.548c2.771,0,5.11,2.339,5.11,5.107V446.89z"/>
<path d="M193.486,395.5h-0.621c-5.523,0-10,4.478-10,10s4.477,10,10,10h0.621c5.522,0,10-4.478,10-10S199.009,395.5,193.486,395.5z"/>
<path d="M319.135,395.5h-95.728c-5.523,0-10,4.478-10,10s4.477,10,10,10h95.728c5.523,0,10-4.478,10-10S324.658,395.5,319.135,395.5  z"/>
<g>
</g>
<g>
</g>
<g>
</g>
<g>
</g>
<g>
</g>
<g>
</g>
<g>
</g>
<g>
</g>
<g>
</g>
<g>
</g>
<g>
</g>
<g>
</g>
<g>
</g>
<g>
</g>
<g>
</g>
</svg>
