<?xml version="1.0" encoding="iso-8859-1"?>
<!-- Generator: Adobe Illustrator 19.0.0, SVG Export Plug-In . SVG Version: 6.00 Build 0)  -->
<svg xmlns="http://www.w3.org/2000/svg" xmlns:xlink="http://www.w3.org/1999/xlink" version="1.1" id="Capa_1" x="0px" y="0px" viewBox="0 0 512 512" style="enable-background:new 0 0 512 512;" xml:space="preserve">
<g>
	<path style="fill:#36353A;" d="M376.902,69.921c-4.142,0-7.498-3.356-7.498-7.498V37.404c0-12.356-10.054-22.409-22.41-22.409   H165.006c-12.357,0-22.41,10.053-22.41,22.409V59.29c0,4.142-3.357,7.498-7.498,7.498c-4.141,0-7.498-3.356-7.498-7.498V37.404   C127.6,16.78,144.38,0,165.006,0h181.989C367.62,0,384.4,16.78,384.4,37.404v25.019C384.4,66.564,381.044,69.921,376.902,69.921z"/>
	<path style="fill:#36353A;" d="M158.216,86.692h-47.844V63.839c0-2.803,2.272-5.075,5.075-5.075h37.692   c2.803,0,5.075,2.272,5.075,5.075v22.853H158.216z"/>
	<path style="fill:#36353A;" d="M401.393,86.692h-47.844V63.839c0-2.803,2.272-5.075,5.075-5.075h37.692   c2.803,0,5.075,2.272,5.075,5.075v22.853H401.393z"/>
</g>
<path style="fill:#A1ACAD;" d="M468.843,512H43.157c-2.803,0-5.075-2.272-5.075-5.075V89.457c0-2.803,2.272-5.075,5.075-5.075  h425.686c2.803,0,5.075,2.272,5.075,5.075v417.466C473.919,509.728,471.647,512,468.843,512z"/>
<path style="fill:#819696;" d="M468.843,512h-60.512V84.382h60.512c2.803,0,5.075,2.272,5.075,5.075v417.466  C473.919,509.728,471.647,512,468.843,512z"/>
<path style="fill:#FFFFFF;" d="M421.989,474.945H90.012c-2.803,0-5.075-2.272-5.075-5.075V126.512c0-2.803,2.272-5.075,5.075-5.075  h331.977c2.803,0,5.075,2.272,5.075,5.075V469.87C427.065,472.673,424.792,474.945,421.989,474.945z"/>
<g>
	<circle style="fill:#D8362A;" cx="272.636" cy="179.215" r="12.889"/>
	<circle style="fill:#D8362A;" cx="325.13" cy="179.215" r="12.889"/>
	<circle style="fill:#D8362A;" cx="377.624" cy="179.215" r="12.889"/>
</g>
<path style="fill:#FFD15C;" d="M421.989,474.945H90.012c-2.803,0-5.075-2.272-5.075-5.075V215.835h342.128V469.87  C427.065,472.673,424.792,474.945,421.989,474.945z"/>
<path style="fill:#E8B44D;" d="M425.588,289.758c4.211,0,7.624-3.413,7.624-7.624s-3.413-7.624-7.624-7.624H398.49v-17.647h27.099  c4.211,0,7.624-3.413,7.624-7.624s-3.413-7.624-7.624-7.624H398.49v-18.331h24.536c4.211,0,7.624-3.413,7.624-7.624  s-3.413-7.624-7.624-7.624H88.975c-4.211,0-7.624,3.413-7.624,7.624s3.413,7.624,7.624,7.624h24.535v18.331H86.413  c-4.211,0-7.624,3.413-7.624,7.624s3.413,7.624,7.624,7.624h27.098v17.647H86.413c-4.211,0-7.624,3.413-7.624,7.624  s3.413,7.624,7.624,7.624h27.098v17.647H86.413c-4.211,0-7.624,3.413-7.624,7.624c0,4.211,3.413,7.624,7.624,7.624h27.098v17.648  H86.413c-4.211,0-7.624,3.413-7.624,7.624c0,4.211,3.413,7.624,7.624,7.624h27.098v17.647H86.413c-4.211,0-7.624,3.413-7.624,7.624  s3.413,7.624,7.624,7.624h27.098v17.647H86.413c-4.211,0-7.624,3.413-7.624,7.624c0,4.211,3.413,7.624,7.624,7.624h27.098v17.647  H86.413c-4.211,0-7.624,3.413-7.624,7.624c0,4.211,3.413,7.624,7.624,7.624h27.098v20.623c0,4.211,3.413,7.624,7.624,7.624  c4.211,0,7.624-3.413,7.624-7.624v-20.623h23.287v20.623c0,4.211,3.413,7.624,7.624,7.624s7.624-3.413,7.624-7.624v-20.623h23.286  v20.623c0,4.211,3.413,7.624,7.624,7.624s7.624-3.413,7.624-7.624v-20.623h23.287v20.623c0,4.211,3.413,7.624,7.624,7.624  c4.211,0,7.624-3.413,7.624-7.624v-20.623h23.287v20.623c0,4.211,3.413,7.624,7.624,7.624c4.211,0,7.624-3.413,7.624-7.624v-20.623  h23.286v20.623c0,4.211,3.413,7.624,7.624,7.624c4.211,0,7.624-3.413,7.624-7.624v-20.623h23.287v20.623  c0,4.211,3.413,7.624,7.624,7.624c4.211,0,7.624-3.413,7.624-7.624v-20.623h23.287v20.623c0,4.211,3.413,7.624,7.624,7.624  c4.211,0,7.624-3.413,7.624-7.624v-20.623h27.099c4.211,0,7.624-3.413,7.624-7.624c0-4.211-3.413-7.624-7.624-7.624h-27.099v-17.647  h27.099c4.211,0,7.624-3.413,7.624-7.624c0-4.211-3.413-7.624-7.624-7.624h-27.099V388.44h27.099c4.211,0,7.624-3.413,7.624-7.624  s-3.413-7.624-7.624-7.624h-27.099v-17.647h27.099c4.211,0,7.624-3.413,7.624-7.624c0-4.211-3.413-7.624-7.624-7.624h-27.099  v-17.648h27.099c4.211,0,7.624-3.413,7.624-7.624c0-4.211-3.413-7.624-7.624-7.624h-27.099v-17.647L425.588,289.758L425.588,289.758  z M383.243,274.511h-23.287v-17.647h23.287V274.511z M306.176,241.617H282.89v-18.331h23.286V241.617z M321.423,223.286h23.287  v18.331h-23.287V223.286z M244.357,307.404v-17.647h23.287v17.647H244.357z M267.644,322.651v17.648h-23.287v-17.648  L267.644,322.651L267.644,322.651z M244.357,274.511v-17.647h23.287v17.647H244.357z M229.11,274.511h-23.287v-17.647h23.287  V274.511z M229.11,289.758v17.647h-23.287v-17.647H229.11z M229.11,322.651v17.648h-23.287v-17.648L229.11,322.651L229.11,322.651z   M229.11,355.545v17.647h-23.287v-17.647H229.11z M244.357,355.545h23.287v17.647h-23.287V355.545z M282.89,355.545h23.286v17.647  H282.89V355.545z M282.89,340.298V322.65h23.286v17.648H282.89z M282.89,307.404v-17.647h23.286v17.647H282.89z M282.89,274.511  v-17.647h23.286v17.647H282.89z M267.644,241.617h-23.287v-18.331h23.287V241.617z M229.11,241.617h-23.287v-18.331h23.287V241.617z   M190.577,241.617h-23.286v-18.331h23.286V241.617z M190.577,256.865v17.647h-23.286v-17.647H190.577z M190.577,289.758v17.647  h-23.286v-17.647H190.577z M190.577,322.651v17.648h-23.286v-17.648L190.577,322.651L190.577,322.651z M190.577,355.545v17.647  h-23.286v-17.647H190.577z M190.577,388.438v17.647h-23.286v-17.647H190.577z M205.824,388.438h23.287v17.647h-23.287V388.438z   M244.357,388.438h23.287v17.647h-23.287V388.438z M282.89,388.438h23.286v17.647H282.89V388.438z M321.423,388.438h23.287v17.647  h-23.287V388.438z M321.423,373.192v-17.647h23.287v17.647H321.423z M321.423,340.298V322.65h23.287v17.648H321.423z   M321.423,307.404v-17.647h23.287v17.647H321.423z M321.423,274.511v-17.647h23.287v17.647H321.423z M383.243,241.617h-23.287  v-18.331h23.287V241.617z M128.758,223.286h23.287v18.331h-23.287V223.286z M128.758,256.865h23.287v17.647h-23.287V256.865z   M128.758,289.758h23.287v17.647h-23.287V289.758z M128.758,322.651h23.287v17.648h-23.287V322.651z M128.758,355.545h23.287v17.647  h-23.287V355.545z M128.758,388.438h23.287v17.647h-23.287V388.438z M128.758,438.978v-17.647h23.287v17.647H128.758z   M167.291,438.978v-17.647h23.286v17.647H167.291z M205.824,438.978v-17.647h23.287v17.647H205.824z M244.357,438.978v-17.647  h23.287v17.647H244.357z M282.89,438.978v-17.647h23.286v17.647H282.89z M321.423,438.978v-17.647h23.287v17.647H321.423z   M383.243,438.978h-23.287v-17.647h23.287V438.978z M383.243,406.085h-23.287v-17.647h23.287V406.085z M383.243,373.192h-23.287  v-17.647h23.287V373.192z M383.243,340.298h-23.287V322.65h23.287V340.298z M383.243,307.404h-23.287v-17.647h23.287V307.404z"/>
<circle cx="125.892" cy="181.054" r="8.406"/>
<circle cx="159.681" cy="181.054" r="8.406"/>
<circle cx="193.461" cy="181.054" r="8.406"/>
<circle cx="227.25" cy="181.054" r="8.406"/>
<g>
</g>
<g>
</g>
<g>
</g>
<g>
</g>
<g>
</g>
<g>
</g>
<g>
</g>
<g>
</g>
<g>
</g>
<g>
</g>
<g>
</g>
<g>
</g>
<g>
</g>
<g>
</g>
<g>
</g>
</svg>
