<?xml version="1.0" encoding="iso-8859-1"?>
<!-- Generator: Adobe Illustrator 19.0.0, SVG Export Plug-In . SVG Version: 6.00 Build 0)  -->
<svg xmlns="http://www.w3.org/2000/svg" xmlns:xlink="http://www.w3.org/1999/xlink" version="1.1" id="Capa_1" x="0px" y="0px" viewBox="0 0 511.999 511.999" style="enable-background:new 0 0 511.999 511.999;" xml:space="preserve">
<g>
	<path style="fill:#424A4C;" d="M378.081,161.688c-2.047,0-4.087-0.823-5.583-2.445c-2.843-3.083-2.649-7.887,0.433-10.73   l6.467-5.965c1.497-1.382,2.345-3.263,2.386-5.299c0.041-2.037-0.73-3.952-2.17-5.394c-4.268-4.267-6.619-9.942-6.619-15.979   s2.351-11.712,6.619-15.98l10.976-10.976c2.965-2.964,7.773-2.964,10.739,0c2.966,2.966,2.966,7.773,0,10.739l-10.975,10.975   c-1.4,1.4-2.171,3.261-2.171,5.242c0,1.981,0.771,3.841,2.171,5.241c4.392,4.392,6.741,10.23,6.615,16.438   c-0.126,6.209-2.709,11.947-7.274,16.156l-6.467,5.964C381.767,161.023,379.921,161.688,378.081,161.688z"/>
	<path style="fill:#424A4C;" d="M382.11,223.046l27.815-27.815c1.978-1.978,1.978-5.183,0-7.161l-64.963-64.963   c-1.978-1.978-5.183-1.978-7.161,0l-27.815,27.815c-1.574,1.574-3.999,1.947-5.958,0.887   c-73.038-39.526-166.395-27.982-227.552,34.653c-73.27,75.042-72.52,194.293,1.642,268.453   c74.59,74.589,195.523,74.589,270.111-0.001c61.178-61.178,72.167-153.526,32.991-225.915   C380.162,227.043,380.537,224.62,382.11,223.046z"/>
</g>
<path style="fill:#30393A;" d="M382.107,223.045c-1.574,1.573-1.95,3.997-0.89,5.955c39.179,72.39,25.775,162.415-32.985,225.918  c-70.642,76.344-192.643,75.872-270.118,0c-5.259-5.15-10.045-10.633-14.511-16.252c74.986,59.704,184.471,54.864,253.856-14.521  c61.538-61.528,72.29-154.602,32.307-227.178c-0.654-1.187-0.457-2.66,0.502-3.619l32.466-32.466l27.193,27.193  c1.978,1.978,1.978,5.184-0.001,7.161L382.107,223.045z"/>
<path style="fill:#D8362A;" d="M384.548,84.133c1.522-5.451,5.082-11.86,12.862-17.662c2.851-2.126,6.045-3.744,9.388-4.956  c2.658-0.963,6.766-2.489,12.528-4.723c0,0,0.64-0.16,1.546-0.761c1.182-0.784,2.777-0.085,2.945,1.324  c0.248,2.075,0.184,4.787-1.117,7.172c-0.733,1.344,0.425,2.93,1.94,2.712c4.197-0.604,10.393-2.635,14.382-9.098  c0.87-1.41,2.967-1.117,3.41,0.478c1.554,5.594,2.329,15.805-8.449,24.216c-0.029,0.022-0.055,0.042-0.085,0.063l-0.014,0.01  c-1.767,1.269-0.32,4.048,1.724,3.303c0.964-0.351,1.98-0.921,3.004-1.804c1.2-1.034,3.062-0.146,3.096,1.439  c0.126,5.906-1.674,16.69-14.432,25.436c0,0-18.22,13.117-34.951-2.211c0,0-0.655-0.494-1.627-1.476  C384.625,101.456,382.225,92.452,384.548,84.133z"/>
<g>
	<path style="fill:#FFD15C;" d="M461.164,35.48l9.806-14.813c2.315-3.497,1.357-8.21-2.14-10.525   c-3.499-2.316-8.21-1.357-10.525,2.141l-9.806,14.813c-2.315,3.497-1.357,8.21,2.14,10.525c1.291,0.855,2.745,1.263,4.186,1.263   C457.286,38.883,459.702,37.686,461.164,35.48z"/>
	<path style="fill:#FFD15C;" d="M482.556,45.009l-17.761-0.37c-4.232-0.058-7.664,3.241-7.752,7.434s3.241,7.664,7.434,7.751   l17.761,0.37c0.054,0.001,0.108,0.002,0.162,0.002c4.121,0,7.504-3.297,7.59-7.436C490.078,48.567,486.749,45.096,482.556,45.009z"/>
	<path style="fill:#FFD15C;" d="M430.437,32.95c0.053,0,0.108-0.001,0.162-0.002c4.194-0.087,7.522-3.558,7.434-7.751l-0.37-17.762   c-0.088-4.194-3.561-7.517-7.752-7.434c-4.194,0.087-7.522,3.558-7.434,7.751l0.37,17.762   C422.934,29.654,426.316,32.95,430.437,32.95z"/>
</g>
<g>
</g>
<g>
</g>
<g>
</g>
<g>
</g>
<g>
</g>
<g>
</g>
<g>
</g>
<g>
</g>
<g>
</g>
<g>
</g>
<g>
</g>
<g>
</g>
<g>
</g>
<g>
</g>
<g>
</g>
</svg>
