<?xml version="1.0" encoding="iso-8859-1"?>
<!-- Generator: Adobe Illustrator 19.0.0, SVG Export Plug-In . SVG Version: 6.00 Build 0)  -->
<svg xmlns="http://www.w3.org/2000/svg" xmlns:xlink="http://www.w3.org/1999/xlink" version="1.1" id="Capa_1" x="0px" y="0px" viewBox="0 0 511.998 511.998" style="enable-background:new 0 0 511.998 511.998;" xml:space="preserve">
<g>
	<path style="fill:#808080;" d="M247.868,121.825h-59.999H39.964C23.483,121.825,10,135.311,10,151.791v248.418   c0,16.479,13.483,29.964,29.964,29.964h432.07c16.481,0,29.964-13.484,29.964-29.964V151.791c0-16.48-13.482-29.966-29.964-29.966   H447.87h-60.001h-40.001h-59.999H247.868L247.868,121.825z M204.285,170.454H447.87v169.285H204.285V170.454z"/>
	<rect x="187.87" y="81.83" style="fill:#E7526A;" width="59.999" height="40"/>
	<g>
		<rect x="287.87" y="81.83" style="fill:#5F8ACE;" width="59.999" height="40"/>
		<rect x="387.87" y="81.83" style="fill:#5F8ACE;" width="60" height="40"/>
	</g>
	<path style="fill:#27D8A9;" d="M447.87,170.454H204.285v169.285H447.87V170.454L447.87,170.454z M387.61,234.877   c0.087,0,0.173,0,0.259,0c11.047,0,20.001,8.956,20.001,19.999c0,11.048-8.954,20.003-20.001,20.003c-11.046,0-20-8.955-20-20.003   C367.869,243.918,376.684,235.02,387.61,234.877L387.61,234.877z M264.285,235.097c11.047,0,20,8.952,20,19.999   s-8.953,20.003-20,20.003c-11.048,0-20.002-8.956-20.002-20.003C244.283,244.049,253.237,235.097,264.285,235.097z"/>
	<g>
		<path style="fill:#DAE3E4;" d="M284.285,255.096c0-10.982-8.853-19.898-19.813-19.999h-0.187    c-11.048,0-20.002,8.952-20.002,19.999s8.954,20.003,20.002,20.003C275.332,275.099,284.285,266.143,284.285,255.096z"/>
		<path style="fill:#DAE3E4;" d="M387.61,234.877c-10.927,0.143-19.741,9.041-19.741,19.999c0,11.048,8.954,20.003,20,20.003    c11.047,0,20.001-8.955,20.001-20.003c0-11.043-8.954-19.999-20.001-19.999L387.61,234.877L387.61,234.877z"/>
	</g>
</g>
<path d="M472.034,111.825H457.87v-30c0-5.523-4.477-10-10-10h-60.001c-5.523,0-10,4.477-10,10v30h-20.001v-30  c0-5.523-4.478-10-10-10h-59.999c-5.523,0-10,4.477-10,10v30h-20.001v-30c0-5.523-4.477-10-10-10h-59.999c-5.523,0-10,4.477-10,10  v30H39.964C17.928,111.825,0,129.754,0,151.791v248.418c0,22.036,17.928,39.964,39.964,39.964h432.07  c22.036,0,39.964-17.928,39.964-39.964V151.791C511.998,129.754,494.07,111.825,472.034,111.825z M397.869,91.825h40.001v20h-40.001  V91.825z M297.869,91.825h39.999v20h-39.999V91.825z M197.869,91.825h39.999v20h-39.999L197.869,91.825L197.869,91.825z   M491.998,400.209c0,11.008-8.955,19.964-19.964,19.964H39.964c-11.009,0-19.964-8.956-19.964-19.964V151.791  c0-11.009,8.955-19.966,19.964-19.966h147.905h59.999h40.001h59.999h40.001h60.001h24.164c11.009,0,19.964,8.957,19.964,19.966  L491.998,400.209L491.998,400.209z"/>
<path d="M447.87,160.454H204.285c-5.523,0-10,4.477-10,10v169.285c0,5.522,4.477,10,10,10H447.87c5.523,0,10-4.478,10-10V170.454  C457.87,164.932,453.393,160.454,447.87,160.454z M437.87,329.739H214.285V180.454H437.87V329.739z"/>
<path d="M264.287,285.099c16.541,0,29.998-13.459,29.998-30.003c0-3.523-0.615-6.905-1.736-10.049l67.023-0.119  c-1.099,3.115-1.703,6.462-1.703,9.948c0,16.542,13.459,29.999,30.002,29.999s30.001-13.457,30.001-29.999  s-13.458-29.999-30.001-29.999c-0.001,0-0.001,0-0.002,0l0,0c-0.006,0-0.013,0-0.018,0l-123.584,0.22  c-0.007,0-0.013,0.001-0.02,0.001c-16.525,0.02-29.963,13.469-29.963,29.998C234.285,271.64,247.744,285.099,264.287,285.099z   M264.287,265.099c-5.516,0-10.002-4.487-10.002-10.003c0-5.514,4.486-9.999,10.002-9.999c5.514,0,9.998,4.485,9.998,9.999  C274.285,260.611,269.801,265.099,264.287,265.099z M387.871,264.875c-5.516,0-10.002-4.485-10.002-9.999s4.486-9.999,10.001-9.999  h0.001c5.515,0,10.001,4.485,10.001,9.999C397.872,260.39,393.385,264.875,387.871,264.875z"/>
<path d="M447.87,374.958h-0.239c-5.523,0-10,4.477-10,10c0,5.522,4.477,10,10,10h0.239c5.523,0,10-4.478,10-10  C457.87,379.435,453.393,374.958,447.87,374.958z"/>
<path d="M418.9,374.954h-51.035c-5.523,0-10,4.478-10,10s4.477,10,10,10H418.9c5.523,0,10-4.478,10-10  S424.424,374.954,418.9,374.954z"/>
<path d="M56.195,160.456h-0.271c-5.522,0-10,4.477-10,10c0,5.522,4.478,10,10,10h0.271c5.523,0,10-4.478,10-10  C66.195,164.934,61.719,160.456,56.195,160.456z"/>
<path d="M56.195,202.775h-0.271c-5.522,0-10,4.477-10,10c0,5.522,4.478,10,10,10h0.271c5.523,0,10-4.478,10-10  C66.195,207.253,61.719,202.775,56.195,202.775z"/>
<path d="M56.195,245.096h-0.271c-5.522,0-10,4.477-10,10c0,5.522,4.478,10,10,10h0.271c5.523,0,10-4.478,10-10  C66.195,249.573,61.719,245.096,56.195,245.096z"/>
<path d="M56.195,287.418h-0.271c-5.522,0-10,4.478-10,10s4.478,10,10,10h0.271c5.523,0,10-4.478,10-10  S61.719,287.418,56.195,287.418z"/>
<path d="M56.195,329.739h-0.271c-5.522,0-10,4.478-10,10s4.478,10,10,10h0.271c5.523,0,10-4.478,10-10  S61.719,329.739,56.195,329.739z"/>
<path d="M101.375,180.456h0.271c5.522,0,10-4.478,10-10c0-5.523-4.478-10-10-10h-0.271c-5.522,0-10,4.477-10,10  C91.375,175.979,95.853,180.456,101.375,180.456z"/>
<path d="M101.375,222.775h0.271c5.522,0,10-4.478,10-10c0-5.523-4.478-10-10-10h-0.271c-5.522,0-10,4.477-10,10  C91.375,218.298,95.853,222.775,101.375,222.775z"/>
<path d="M101.375,265.096h0.271c5.522,0,10-4.478,10-10c0-5.523-4.478-10-10-10h-0.271c-5.522,0-10,4.477-10,10  C91.375,260.618,95.853,265.096,101.375,265.096z"/>
<path d="M101.375,307.418h0.271c5.522,0,10-4.478,10-10s-4.478-10-10-10h-0.271c-5.522,0-10,4.478-10,10  S95.853,307.418,101.375,307.418z"/>
<path d="M101.375,349.739h0.271c5.522,0,10-4.478,10-10s-4.478-10-10-10h-0.271c-5.522,0-10,4.478-10,10  C91.375,345.262,95.853,349.739,101.375,349.739z"/>
<path d="M147.1,160.456h-0.271c-5.523,0-10,4.477-10,10c0,5.522,4.477,10,10,10h0.271c5.523,0,10-4.478,10-10  C157.1,164.934,152.622,160.456,147.1,160.456z"/>
<path d="M147.1,202.775h-0.271c-5.523,0-10,4.477-10,10c0,5.522,4.477,10,10,10h0.271c5.523,0,10-4.478,10-10  C157.1,207.253,152.622,202.775,147.1,202.775z"/>
<path d="M147.1,245.096h-0.271c-5.523,0-10,4.477-10,10c0,5.522,4.477,10,10,10h0.271c5.523,0,10-4.478,10-10  C157.1,249.573,152.622,245.096,147.1,245.096z"/>
<path d="M147.1,287.418h-0.271c-5.523,0-10,4.478-10,10s4.477,10,10,10h0.271c5.523,0,10-4.478,10-10S152.622,287.418,147.1,287.418  z"/>
<path d="M147.1,329.739h-0.271c-5.523,0-10,4.478-10,10s4.477,10,10,10h0.271c5.523,0,10-4.478,10-10S152.622,329.739,147.1,329.739  z"/>
<path d="M147.1,374.954H88.937c-5.522,0-10,4.478-10,10s4.478,10,10,10H147.1c5.523,0,10-4.478,10-10S152.622,374.954,147.1,374.954  z"/>
<path d="M56.195,374.958h-0.272c-5.523,0-10,4.477-10,10c0,5.522,4.477,10,10,10h0.272c5.523,0,10-4.478,10-10  C66.195,379.435,61.719,374.958,56.195,374.958z"/>
<g>
</g>
<g>
</g>
<g>
</g>
<g>
</g>
<g>
</g>
<g>
</g>
<g>
</g>
<g>
</g>
<g>
</g>
<g>
</g>
<g>
</g>
<g>
</g>
<g>
</g>
<g>
</g>
<g>
</g>
</svg>
