<?xml version="1.0" encoding="iso-8859-1"?>
<!-- Generator: Adobe Illustrator 19.0.0, SVG Export Plug-In . SVG Version: 6.00 Build 0)  -->
<svg xmlns="http://www.w3.org/2000/svg" xmlns:xlink="http://www.w3.org/1999/xlink" version="1.1" id="Capa_1" x="0px" y="0px" viewBox="0 0 512 512" style="enable-background:new 0 0 512 512;" xml:space="preserve">
<path style="fill:#36353A;" d="M210.05,512h-5.677c-34.642,0-62.825-28.183-62.825-62.825c0-4.201,3.405-7.606,7.606-7.606  s7.606,3.404,7.606,7.606c0,26.254,21.36,47.614,47.614,47.614h5.677c26.254,0,47.614-21.36,47.614-47.614v-39.656  c0-23.171,18.851-42.022,42.023-42.022c16.59,0,30.089-13.497,30.089-30.089v-36.713c0-4.201,3.405-7.606,7.606-7.606  c4.201,0,7.606,3.404,7.606,7.606v36.713c0,24.978-20.322,45.3-45.3,45.3c-14.784,0-26.811,12.026-26.811,26.81v39.656  C272.876,483.817,244.693,512,210.05,512z"/>
<path style="fill:#D8362A;" d="M155.3,449.49h-14.576c-2.956,0-5.352-2.396-5.352-5.352v-34.889h25.279v34.889  C160.65,447.094,158.255,449.49,155.3,449.49z"/>
<path style="fill:#A1ACAD;" d="M282.367,409.249H14.883c-2.83,0-5.125-2.295-5.125-5.125v-399C9.759,2.295,12.053,0,14.883,0  h266.256c2.83,0,5.125,2.295,5.125,5.125v400.229C286.264,407.505,284.519,409.249,282.367,409.249z"/>
<path style="fill:#819696;" d="M282.367,409.249h-36.27V0h35.042c2.83,0,5.125,2.295,5.125,5.125v400.229  C286.264,407.505,284.519,409.249,282.367,409.249z"/>
<path style="fill:#DDE5E8;" d="M240.974,173.163H55.049c-2.83,0-5.125-2.295-5.125-5.125V55.314c0-2.83,2.295-5.125,5.125-5.125  h185.924c2.83,0,5.125,2.295,5.125,5.125V168.04C246.097,170.869,243.804,173.163,240.974,173.163z"/>
<path style="fill:#FCFCFC;" d="M240.974,173.163h-34.569V50.19h34.569c2.83,0,5.125,2.295,5.125,5.125V168.04  C246.097,170.869,243.804,173.163,240.974,173.163z"/>
<circle style="fill:#FFD15C;" cx="148.012" cy="286.307" r="58.925"/>
<path style="fill:#E8B44D;" d="M206.934,286.308c0,32.538-26.379,58.917-58.928,58.917c-6.867,0-13.456-1.179-19.574-3.33  c22.926-8.076,39.343-29.915,39.343-55.587c0-25.683-16.418-47.522-39.343-55.587c6.118-2.173,12.708-3.341,19.574-3.341  C180.555,227.38,206.934,253.759,206.934,286.308z"/>
<path style="fill:#D8362A;" d="M163.467,282.516c3.016,2.062,2.965,6.529-0.096,8.523l-18.983,12.365  c-3.408,2.221-7.92-0.226-7.92-4.294v-25.348c0-4.12,4.616-6.556,8.018-4.23L163.467,282.516z"/>
<g>
	<path style="fill:#36353A;" d="M338.972,267.994c-4.245,0-7.686-3.44-7.686-7.686c0-19.82,16.125-35.944,35.944-35.944h41.087   c4.245,0,7.686,3.44,7.686,7.686s-3.441,7.686-7.686,7.686h-41.087c-11.343,0-20.572,9.228-20.572,20.572   C346.658,264.553,343.217,267.994,338.972,267.994z"/>
	<path style="fill:#36353A;" d="M338.396,282.698c-4.201,0-7.606-3.404-7.606-7.606V132.327c0-4.201,3.405-7.606,7.606-7.606   c4.201,0,7.606,3.404,7.606,7.606v142.766C346.002,279.293,342.597,282.698,338.396,282.698z"/>
</g>
<path style="fill:#D8362A;" d="M345.744,304.753h-15.031c-2.83,0-5.125-2.295-5.125-5.125v-26.645c0-2.83,2.295-5.125,5.125-5.125  h15.031c2.83,0,5.125,2.295,5.125,5.125v26.645C350.867,302.458,348.574,304.753,345.744,304.753z"/>
<path style="fill:#E5CE93;" d="M307.697,72.783c0,11.514,6.376,21.536,15.787,26.736v38.31c0,8.11,6.635,14.744,14.744,14.744l0,0  c8.11,0,14.744-6.635,14.744-14.744V99.52c9.411-5.202,15.787-15.222,15.787-26.736c0-16.863-13.669-30.532-30.532-30.532  C321.366,42.251,307.697,55.921,307.697,72.783z"/>
<g>
	<circle style="fill:#36353A;" cx="328.346" cy="72.78" r="2.99"/>
	<circle style="fill:#36353A;" cx="348.109" cy="72.78" r="2.99"/>
	<circle style="fill:#36353A;" cx="338.233" cy="62.902" r="2.99"/>
	<circle style="fill:#36353A;" cx="338.233" cy="82.667" r="2.99"/>
	<circle style="fill:#36353A;" cx="331.238" cy="79.775" r="2.99"/>
	<circle style="fill:#36353A;" cx="345.217" cy="65.796" r="2.99"/>
	<circle style="fill:#36353A;" cx="331.238" cy="65.796" r="2.99"/>
	<circle style="fill:#36353A;" cx="345.217" cy="79.775" r="2.99"/>
</g>
<path style="fill:#E5CE93;" d="M472.029,202.375c-11.394,0-21.311,6.309-26.457,15.622h-37.91c-8.025,0-14.59,6.566-14.59,14.59l0,0  c0,8.025,6.566,14.59,14.59,14.59h37.91c5.147,9.313,15.063,15.622,26.457,15.622c16.685,0,30.213-13.526,30.213-30.213  S488.715,202.375,472.029,202.375z"/>
<g>
	<circle style="fill:#36353A;" cx="472.025" cy="222.813" r="2.958"/>
	<circle style="fill:#36353A;" cx="472.025" cy="242.367" r="2.958"/>
	<circle style="fill:#36353A;" cx="481.811" cy="232.59" r="2.958"/>
	<circle style="fill:#36353A;" cx="462.248" cy="232.59" r="2.958"/>
	<circle style="fill:#36353A;" cx="465.12" cy="225.675" r="2.958"/>
	<circle style="fill:#36353A;" cx="478.939" cy="239.505" r="2.958"/>
	<circle style="fill:#36353A;" cx="478.939" cy="225.675" r="2.958"/>
	<circle style="fill:#36353A;" cx="465.12" cy="239.505" r="2.958"/>
</g>
<g>
</g>
<g>
</g>
<g>
</g>
<g>
</g>
<g>
</g>
<g>
</g>
<g>
</g>
<g>
</g>
<g>
</g>
<g>
</g>
<g>
</g>
<g>
</g>
<g>
</g>
<g>
</g>
<g>
</g>
</svg>
