<?xml version="1.0" encoding="iso-8859-1"?>
<!-- Generator: Adobe Illustrator 19.0.0, SVG Export Plug-In . SVG Version: 6.00 Build 0)  -->
<svg xmlns="http://www.w3.org/2000/svg" xmlns:xlink="http://www.w3.org/1999/xlink" version="1.1" id="Capa_1" x="0px" y="0px" viewBox="0 0 512 512" style="enable-background:new 0 0 512 512;" xml:space="preserve">
<path style="fill:#FF8A33;" d="M272.436,134.28c-2.938-5.43-5.181-12.629-5.03-21.877c0.128-7.798,2.078-15.455,5.371-22.524  c1.665-3.576,4.085-8.873,7.305-16.172c0,0,0.478-0.797,0.778-2.296c0.388-1.942,2.675-2.775,4.229-1.548  c2.251,1.778,4.804,4.456,5.89,8.003c0.642,2.097,3.34,2.61,4.651,0.853c3.528-4.729,7.596-12.804,5.176-23.056  c-0.526-2.229,1.838-4.031,3.832-2.904c7.048,3.985,17.873,13.296,15.506,32.23v0.002c-0.491,3.062,3.76,4.293,5.02,1.459  c0.552-1.241,0.952-2.72,1.09-4.477c0.175-2.225,2.811-3.284,4.425-1.743c5.939,5.671,14.838,18.07,10.878,39.295  c0,0-5.024,30.853-36.588,32.234c0,0-1.425,0.199-3.797,0.136C289.165,151.578,278.154,144.845,272.436,134.28z"/>
<path style="fill:#ED7829;" d="M341.56,119.521c0,0-5.03,30.86-36.59,32.24c0,0-1.42,0.2-3.8,0.13c-1.19-0.03-2.38-0.12-3.55-0.28  c29.63-2.66,34.42-32.09,34.42-32.09c3.04-16.27-1.49-27.36-6.44-34.2c0.33-0.98,0.56-2.1,0.66-3.35c0.17-2.22,2.81-3.28,4.42-1.74  C336.62,85.901,345.52,98.301,341.56,119.521z"/>
<path style="fill:#D8362A;" d="M322.19,87.971c-1.12-0.23-2.08-1.14-2.08-2.49c0-0.16,0.01-0.32,0.04-0.49c0-0.02,0-0.03,0.01-0.05  C320.85,85.861,321.53,86.871,322.19,87.971z"/>
<path style="fill:#424A4C;" d="M187.148,243.195c-4.143,0-7.5-3.357-7.5-7.5v-38.3c0-4.143,3.357-7.5,7.5-7.5  c14.695,0,26.65,11.955,26.65,26.649C213.798,231.24,201.843,243.195,187.148,243.195z M194.648,207.636v17.816  c2.537-2.139,4.15-5.338,4.15-8.908C198.798,212.975,197.185,209.775,194.648,207.636z"/>
<g>
	<path style="fill:#36353A;" d="M430.337,193.575h-79.285c-4.143,0-7.5-3.357-7.5-7.5s3.357-7.5,7.5-7.5h79.285   c4.143,0,7.5,3.357,7.5,7.5S434.48,193.575,430.337,193.575z"/>
	<path style="fill:#36353A;" d="M395.519,246.436c-4.143,0-7.5-3.357-7.5-7.5v-52.861c0-4.143,3.357-7.5,7.5-7.5s7.5,3.357,7.5,7.5   v52.861C403.019,243.079,399.661,246.436,395.519,246.436z"/>
</g>
<path style="fill:#4EC0AA;" d="M364.123,238.01H243.924v-73.627c0-2.87,2.326-5.196,5.196-5.196h109.808  c2.87,0,5.196,2.326,5.196,5.196v73.627H364.123z"/>
<path style="fill:#40AD98;" d="M364.123,238.01h-40.521v-78.823h37.505c1.666,0,3.017,1.351,3.017,3.017v75.806H364.123z"/>
<path style="fill:#424A4C;" d="M186.533,5.196v232.668c0,2.87-2.326,5.196-5.196,5.196H79.359c-2.87,0-5.196-2.326-5.196-5.196  V5.196c0-2.87,2.326-5.196,5.196-5.196h101.979C184.207,0,186.533,2.326,186.533,5.196z"/>
<path style="fill:#30393A;" d="M186.533,5.196v42.121H74.163V5.196c0-2.87,2.326-5.196,5.196-5.196h101.979  C184.207,0,186.533,2.326,186.533,5.196z"/>
<path style="fill:#424A4C;" d="M420.357,512H187.69c-2.87,0-5.196-2.326-5.196-5.196V243.206c0-2.87,2.326-5.196,5.196-5.196  h232.668c2.87,0,5.196,2.326,5.196,5.196v263.598C425.553,509.674,423.227,512,420.357,512z"/>
<path style="fill:#30393A;" d="M420.357,512H377.45V238.01h42.907c2.87,0,5.196,2.326,5.196,5.196v263.598  C425.553,509.674,423.227,512,420.357,512z"/>
<g>
	<circle style="fill:#FFD15C;" cx="271.11" cy="203.25" r="8.06"/>
	<circle style="fill:#FFD15C;" cx="303.52" cy="203.25" r="8.06"/>
	<circle style="fill:#FFD15C;" cx="335.92" cy="203.25" r="8.06"/>
</g>
<g>
</g>
<g>
</g>
<g>
</g>
<g>
</g>
<g>
</g>
<g>
</g>
<g>
</g>
<g>
</g>
<g>
</g>
<g>
</g>
<g>
</g>
<g>
</g>
<g>
</g>
<g>
</g>
<g>
</g>
</svg>
