<?xml version="1.0" encoding="iso-8859-1"?>
<!-- Generator: Adobe Illustrator 19.0.0, SVG Export Plug-In . SVG Version: 6.00 Build 0)  -->
<svg xmlns="http://www.w3.org/2000/svg" xmlns:xlink="http://www.w3.org/1999/xlink" version="1.1" id="Capa_1" x="0px" y="0px" viewBox="0 0 512.001 512.001" style="enable-background:new 0 0 512.001 512.001;" xml:space="preserve">
<g>
	<polygon style="fill:#808080;" points="112.458,179.639 399.539,179.639 434.337,96.511 77.659,96.511  "/>
	<path style="fill:#27D8A9;" d="M399.539,179.639H112.458L77.659,96.511H19.666c-5.318,0-9.666,4.351-9.666,9.666v299.646   c0,5.315,4.348,9.666,9.666,9.666h472.667c5.318,0,9.668-4.351,9.668-9.666V106.177c0-5.315-4.35-9.666-9.668-9.666h-57.996   L399.539,179.639L399.539,179.639z M147.256,238.601H364.74c24.988,0,45.431,20.44,45.431,45.431   c0,24.988-20.442,45.431-45.431,45.431H147.256c-24.987,0-45.429-20.442-45.429-45.431   C101.827,259.042,122.269,238.601,147.256,238.601z"/>
</g>
<path d="M492.333,86.511h-57.996H77.659H19.666C8.822,86.511,0,95.334,0,106.177v299.646c0,10.844,8.822,19.666,19.666,19.666  h472.667c10.845,0,19.668-8.822,19.668-19.666V106.177C512.001,95.334,503.178,86.511,492.333,86.511z M419.31,106.511  l-26.425,63.128H119.112l-26.426-63.128C92.686,106.511,419.31,106.511,419.31,106.511z M492.001,405.49H20V106.511h51.005  l32.229,76.989c1.557,3.719,5.193,6.139,9.225,6.139H399.54c4.031,0,7.668-2.42,9.225-6.139l32.229-76.989h51.009V405.49H492.001z"/>
<path d="M364.74,228.601H147.256c-30.563,0-55.429,24.866-55.429,55.431c0,30.564,24.865,55.431,55.429,55.431H364.74  c30.564,0,55.431-24.866,55.431-55.431S395.305,228.601,364.74,228.601z M309.314,284.033c0,13.463,4.829,25.817,12.841,35.431  H189.846c8.012-9.613,12.841-21.968,12.841-35.431s-4.828-25.816-12.84-35.431h132.306  C314.142,258.215,309.314,270.569,309.314,284.033z M113.273,294.033h1.937c5.522,0,10-4.478,10-10s-4.478-10-10-10h-1.937  c3.392-11.507,12.476-20.592,23.982-23.984v1.939c0,5.523,4.478,10,10,10c5.523,0,10-4.477,10-10v-1.939  c11.507,3.392,20.592,12.477,23.984,23.984H179.3c-5.522,0-10,4.478-10,10s4.478,10,10,10h1.939  c-3.393,11.506-12.478,20.59-23.984,23.982v-1.937c0-5.522-4.477-10-10-10c-5.522,0-10,4.478-10,10v1.939  C125.749,314.624,116.665,305.539,113.273,294.033z M374.74,318.016v-1.939c0-5.522-4.478-10-10-10s-10,4.478-10,10v1.936  c-11.505-3.394-20.588-12.477-23.98-23.981h1.938c5.522,0,10-4.478,10-10s-4.478-10-10-10h-1.938  c3.392-11.507,12.475-20.592,23.98-23.984v1.939c0,5.523,4.478,10,10,10s10-4.477,10-10v-1.939  c11.507,3.393,20.592,12.478,23.984,23.984h-1.937c-5.522,0-10,4.478-10,10s4.478,10,10,10h1.937  C395.332,305.539,386.247,314.624,374.74,318.016z"/>
<path d="M224.823,148.077h0.238c5.523,0,10-4.478,10-10c0-5.523-4.477-10-10-10h-0.238c-5.522,0-10,4.477-10,10  C214.823,143.599,219.301,148.077,224.823,148.077z"/>
<path d="M145.059,148.073h51.036c5.523,0,10-4.478,10-10c0-5.523-4.477-10-10-10h-51.036c-5.522,0-10,4.477-10,10  C135.059,143.595,139.536,148.073,145.059,148.073z"/>
<path d="M458.999,149.51c5.51,0,10.002-4.492,10.002-10c0-5.507-4.492-9.999-10.002-9.999c-5.505,0-9.997,4.492-9.997,9.999  C449.002,145.018,453.494,149.51,458.999,149.51z"/>
<path d="M52.999,129.511c-5.508,0-10,4.492-10,9.999c0,5.508,4.492,10,10,10s10-4.492,10-10  C62.999,134.003,58.507,129.511,52.999,129.511z"/>
<path d="M458.999,362.491c-5.505,0-9.997,4.492-9.997,10c0,5.507,4.492,9.999,9.997,9.999c5.51,0,10.002-4.492,10.002-9.999  C469.001,366.983,464.509,362.491,458.999,362.491z"/>
<path d="M52.999,362.491c-5.508,0-10,4.492-10,10c0,5.507,4.492,9.999,10,9.999s10-4.492,10-9.999  C62.999,366.983,58.507,362.491,52.999,362.491z"/>
<g>
</g>
<g>
</g>
<g>
</g>
<g>
</g>
<g>
</g>
<g>
</g>
<g>
</g>
<g>
</g>
<g>
</g>
<g>
</g>
<g>
</g>
<g>
</g>
<g>
</g>
<g>
</g>
<g>
</g>
</svg>
