<?xml version="1.0" encoding="iso-8859-1"?>
<!-- Generator: Adobe Illustrator 19.0.0, SVG Export Plug-In . SVG Version: 6.00 Build 0)  -->
<svg xmlns="http://www.w3.org/2000/svg" xmlns:xlink="http://www.w3.org/1999/xlink" version="1.1" id="Capa_1" x="0px" y="0px" viewBox="0 0 512 512" style="enable-background:new 0 0 512 512;" xml:space="preserve">
<g>
	<path style="fill:#FFD997;" d="M192.882,110.124c0-11.174,9.139-20.314,20.313-20.314c11.171,0,20.313,9.141,20.313,20.314v12.5   v65.591v12.221c0,11.17,9.139,20.313,20.313,20.313c11.171,0,20.313-9.143,20.313-20.313v-12.221V58.252h49.011V34.125   c0-13.27-10.857-24.125-24.125-24.125H113.713c-13.267,0-24.125,10.855-24.125,24.125v24.127h62.669v75.932   c0,11.174,9.139,20.314,20.313,20.314c11.171,0,20.313-9.141,20.313-20.314v-11.56v-12.5H192.882z"/>
	<path style="fill:#DAE3E4;" d="M152.257,134.184V58.252H89.588c-7.135,0-12.975,5.837-12.975,12.973v116.99h156.894v-65.591v-12.5   c0-11.174-9.142-20.314-20.313-20.314c-11.174,0-20.313,9.141-20.313,20.314v12.5v11.56c0,11.174-9.142,20.314-20.313,20.314   C161.396,154.498,152.257,145.357,152.257,134.184z"/>
	<path style="fill:#F7A139;" d="M233.507,188.215H76.613v116.992c6.432,16.935,10.383,39.859,10.383,65.098   c0,25.238-3.951,48.163-10.383,65.098v53.624c0,7.135,5.842,12.974,12.975,12.974h233.555c7.134,0,12.975-5.841,12.975-12.974   v-53.624c-6.432-16.935-10.38-39.859-10.38-65.098c0-14.898,1.377-28.99,3.826-41.52c1.699-8.695,3.919-16.64,6.554-23.577V188.215   h-61.985v12.221c0,11.17-9.142,20.313-20.313,20.313c-11.174,0-20.313-9.143-20.313-20.313L233.507,188.215L233.507,188.215z"/>
	<g>
		<path style="fill:#DAE3E4;" d="M274.132,58.252v129.963h61.985v-19.676V127.02V71.225c0-7.134-5.839-12.973-12.975-12.973H274.132    z"/>
		<path style="fill:#DAE3E4;" d="M336.117,127.021v41.519h49.634c4.38,0,8.113,3.732,8.113,8.115v144.017    c0,4.382-3.733,8.113-8.113,8.113h-56.188c-2.449,12.53-3.826,26.622-3.826,41.52h60.014c27.299,0,49.634-22.335,49.634-49.634    V176.654c0-27.299-22.335-49.634-49.634-49.634L336.117,127.021L336.117,127.021z"/>
	</g>
</g>
<path d="M156.616,425.407h-0.237c-5.522,0-10,4.478-10,10s4.478,10,10,10h0.237c5.522,0,10-4.478,10-10  S162.139,425.407,156.616,425.407z"/>
<path d="M256.353,295.209h-0.238c-5.522,0-10,4.477-10,10c0,5.522,4.478,10,10,10h0.238c5.522,0,10-4.478,10-10  C266.353,299.686,261.875,295.209,256.353,295.209z"/>
<path d="M385.751,117.021h-39.634V71.225c0-9.085-5.303-16.954-12.975-20.679V34.125C333.143,15.309,317.834,0,299.018,0H113.713  C94.896,0,79.588,15.309,79.588,34.125v16.421c-7.672,3.725-12.975,11.594-12.975,20.679v233.982c0,1.213,0.221,2.416,0.651,3.551  c6.275,16.522,9.731,38.381,9.731,61.547c0,23.166-3.456,45.024-9.731,61.547c-0.031,0.083-0.054,0.169-0.083,0.253  c-0.058,0.164-0.113,0.327-0.163,0.495c-0.041,0.141-0.074,0.283-0.108,0.425c-0.04,0.161-0.081,0.321-0.112,0.485  c-0.034,0.175-0.056,0.351-0.08,0.526c-0.019,0.136-0.043,0.269-0.056,0.406c-0.031,0.318-0.049,0.639-0.049,0.96v53.624  C66.613,501.694,76.92,512,89.588,512h233.555c12.668,0,22.975-10.306,22.975-22.974v-53.624c0-1.213-0.221-2.416-0.651-3.551  c-5.362-14.117-8.656-32.142-9.503-51.547h49.788c32.882,0,59.634-26.752,59.634-59.634V176.654  C445.385,143.773,418.633,117.021,385.751,117.021z M323.143,68.252c1.612,0,2.975,1.361,2.975,2.973v106.99h-41.985V68.252H323.143  z M345.466,308.758c0.031-0.083,0.054-0.169,0.083-0.253c0.058-0.164,0.113-0.327,0.163-0.495c0.041-0.141,0.074-0.283,0.108-0.425  c0.04-0.161,0.081-0.321,0.112-0.485c0.034-0.175,0.056-0.351,0.08-0.526c0.019-0.136,0.043-0.269,0.056-0.406  c0.031-0.318,0.049-0.639,0.049-0.96V178.539h37.747v140.245h-41.679C343.174,315.267,344.268,311.913,345.466,308.758z   M99.588,34.125c0-7.788,6.337-14.125,14.125-14.125h185.305c7.788,0,14.125,6.337,14.125,14.125v14.127h-39.011  c-5.522,0-10,4.478-10,10v142.184c0,5.687-4.626,10.313-10.313,10.313s-10.313-4.626-10.313-10.313v-90.312  c0-16.716-13.598-30.314-30.313-30.314c-16.714,0-30.313,13.599-30.313,30.314v24.06c0,5.688-4.626,10.314-10.313,10.314  c-5.686,0-10.313-4.627-10.313-10.314V58.252c0-5.522-4.477-10-10-10H99.588V34.125z M86.613,71.225  c0-1.611,1.362-2.973,2.975-2.973h52.669v65.932c0,16.716,13.599,30.314,30.313,30.314c16.715,0,30.313-13.599,30.313-30.314v-24.06  c0-5.688,4.626-10.314,10.313-10.314s10.313,4.627,10.313,10.314v68.091H86.613V71.225z M326.117,489.026  c0,1.612-1.362,2.974-2.975,2.974H89.588c-1.612,0-2.975-1.361-2.975-2.974v-43.624h41.036c5.522,0,10-4.478,10-10s-4.478-10-10-10  H90.288c4.357-16.293,6.708-35.346,6.708-55.098c0-24.743-3.68-48.402-10.383-66.893V198.215h136.894v2.221  c0,16.715,13.599,30.313,30.313,30.313c16.715,0,30.313-13.598,30.313-30.313v-2.221h41.985v96.992h-41.036c-5.523,0-10,4.478-10,10  s4.477,10,10,10h37.361c-0.982,3.675-1.865,7.485-2.639,11.418c-0.031,0.141-0.055,0.283-0.08,0.426  c-2.603,13.39-3.986,28.114-3.986,43.254c0,24.748,3.679,48.406,10.38,66.893v51.828H326.117z M425.385,320.671  c0,21.854-17.779,39.634-39.634,39.634h-49.788c0.324-7.425,1.008-14.643,2.029-21.52h47.759c9.987,0,18.113-8.126,18.113-18.113  V176.654c0-9.988-8.126-18.115-18.113-18.115h-39.634V137.02h39.634c21.854,0,39.634,17.779,39.634,39.634V320.671z"/>
<g>
</g>
<g>
</g>
<g>
</g>
<g>
</g>
<g>
</g>
<g>
</g>
<g>
</g>
<g>
</g>
<g>
</g>
<g>
</g>
<g>
</g>
<g>
</g>
<g>
</g>
<g>
</g>
<g>
</g>
</svg>
