<?xml version="1.0" encoding="iso-8859-1"?>
<!-- Generator: Adobe Illustrator 19.0.0, SVG Export Plug-In . SVG Version: 6.00 Build 0)  -->
<svg xmlns="http://www.w3.org/2000/svg" xmlns:xlink="http://www.w3.org/1999/xlink" version="1.1" id="Capa_1" x="0px" y="0px" viewBox="0 0 512 512" style="enable-background:new 0 0 512 512;" xml:space="preserve">
<g>
	<path style="fill:#36353A;" d="M121.071,139.801c0,4.261,3.453,7.713,7.713,7.713c4.261,0,7.713-3.453,7.713-7.713   c0-19.899-16.239-36.088-36.2-36.088H77.086c-4.261,0-7.713,3.453-7.713,7.713c0,4.261,3.453,7.713,7.713,7.713h23.211   C111.753,119.139,121.071,128.408,121.071,139.801z"/>
	<path style="fill:#36353A;" d="M197.612,253.102h-97.117c-4.261,0-7.713,3.453-7.713,7.713c0,30.924,25.244,56.083,56.272,56.083   s56.272-25.159,56.272-56.083C205.325,256.555,201.872,253.102,197.612,253.102z M149.053,301.472   c-19.873,0-36.477-14.201-40.108-32.943h32.394V285c0,4.261,3.453,7.713,7.713,7.713s7.713-3.453,7.713-7.713v-16.471h32.394   C185.53,287.271,168.926,301.472,149.053,301.472z"/>
</g>
<path style="fill:#A1ACAD;" d="M155.707,104.432c-5.334,25.678-28.328,45.088-55.547,45.667v103.003h129.947  c13.177,0,23.858-10.64,23.858-23.765v-129.01h-93.306C158.236,100.327,156.2,102.06,155.707,104.432z"/>
<path style="fill:#36353A;" d="M100.16,150.099l-11.278,6.89C33.155,196.073,0,259.717,0,327.605v78.918  c0,2.844,2.306,5.151,5.151,5.151h89.858c2.844,0,5.151-2.306,5.151-5.151V150.099z"/>
<path style="fill:#A1ACAD;" d="M506.849,150.678H253.966v-50.351h252.883c2.844,0,5.151,2.306,5.151,5.151v40.048  C512,148.371,509.694,150.678,506.849,150.678z"/>
<path style="fill:#819696;" d="M512,117.703H253.966v-17.375h252.883c2.844,0,5.151,2.306,5.151,5.151V117.703z"/>
<path style="fill:#A1ACAD;" d="M464.456,191.031h-210.49v-40.352h210.49c2.844,0,5.151,2.306,5.151,5.151v30.051  C469.606,188.725,467.3,191.031,464.456,191.031z"/>
<path style="fill:#819696;" d="M469.606,168.053H254.528v-17.375h209.927c2.844,0,5.151,2.306,5.151,5.151v12.224H469.606z"/>
<path style="fill:#D8362A;" d="M209.34,209.974h-47.581c-2.844,0-5.151-2.306-5.151-5.151v-47.355c0-2.844,2.306-5.151,5.151-5.151  h47.581c2.844,0,5.151,2.306,5.151,5.151v47.355C214.491,207.668,212.185,209.974,209.34,209.974z"/>
<g>
	<ellipse style="fill:#FFFFFF;" cx="56.196" cy="260.307" rx="8.088" ry="8.048"/>
	<ellipse style="fill:#FFFFFF;" cx="56.196" cy="365.491" rx="8.088" ry="8.048"/>
</g>
<path style="fill:#36353A;" d="M214.491,188.643h-57.882c-4.142,0-7.498-3.356-7.498-7.498s3.356-7.498,7.498-7.498h57.882  c4.142,0,7.498,3.356,7.498,7.498S218.633,188.643,214.491,188.643z"/>
<g>
</g>
<g>
</g>
<g>
</g>
<g>
</g>
<g>
</g>
<g>
</g>
<g>
</g>
<g>
</g>
<g>
</g>
<g>
</g>
<g>
</g>
<g>
</g>
<g>
</g>
<g>
</g>
<g>
</g>
</svg>
