<?xml version="1.0" encoding="iso-8859-1"?>
<!-- Generator: Adobe Illustrator 19.0.0, SVG Export Plug-In . SVG Version: 6.00 Build 0)  -->
<svg xmlns="http://www.w3.org/2000/svg" xmlns:xlink="http://www.w3.org/1999/xlink" version="1.1" id="Capa_1" x="0px" y="0px" viewBox="0 0 512 512" style="enable-background:new 0 0 512 512;" xml:space="preserve">
<path style="fill:#FF8A33;" d="M50.211,32.638c-2.836,0-5.134,2.299-5.134,5.134v154.724c0,9.457-0.227,18.914,0,28.368  c0.24,10.003-0.689,35.196-15.715,64.599c-15.875,31.062-20.838,38.834-25.286,57.235C1.049,355.218,0,397.813,0,409.024h511.939  c0,0,8.081-95.818-169.684-130.119c-32.693-6.308-55.059-22.462-70.653-37.597c-23.371-22.681-30.122-61.569-30.122-153.454V37.773  c0-2.836-2.299-5.134-5.134-5.134H50.211z"/>
<path style="fill:#ED7829;" d="M511.944,409.027h-76.292c0,0-0.623-65.917-145.262-103.239  c-29.506-7.613-50.824-17.828-65.221-29.833c-21.566-17.992-39.167-48.852-39.167-121.755V32.64h50.341  c2.836,0,5.134,2.299,5.134,5.134v50.074c0,91.891,6.757,130.782,30.121,153.456c15.599,15.137,37.967,31.291,70.654,37.597  C520.016,313.203,511.944,409.027,511.944,409.027z"/>
<path style="fill:#A1ACAD;" d="M506.805,479.362H5.134c-2.836,0-5.134-2.299-5.134-5.134v-65.203h511.939v65.203  C511.939,477.063,509.64,479.362,506.805,479.362z"/>
<path style="fill:#819696;" d="M509.949,479.362h-72.93c-1.099,0-1.99-0.891-1.99-1.99v-68.348h76.91v68.348  C511.939,478.471,511.048,479.362,509.949,479.362z"/>
<circle style="fill:#FFFFFF;" cx="107.728" cy="104.998" r="19.333"/>
<g>
	<ellipse style="fill:#36353A;" cx="159.592" cy="97.449" rx="8.436" ry="8.403"/>
	<ellipse style="fill:#36353A;" cx="159.592" cy="141.334" rx="8.436" ry="8.403"/>
	<ellipse style="fill:#36353A;" cx="159.592" cy="185.229" rx="8.436" ry="8.403"/>
	<ellipse style="fill:#36353A;" cx="165.861" cy="229.114" rx="8.436" ry="8.403"/>
	<ellipse style="fill:#36353A;" cx="182.729" cy="266.679" rx="8.436" ry="8.403"/>
	<ellipse style="fill:#36353A;" cx="207.436" cy="298.176" rx="8.436" ry="8.403"/>
	<ellipse style="fill:#36353A;" cx="244.442" cy="318.983" rx="8.436" ry="8.403"/>
	<ellipse style="fill:#36353A;" cx="281.598" cy="332.662" rx="8.436" ry="8.403"/>
	<ellipse style="fill:#36353A;" cx="320.263" cy="343.11" rx="8.436" ry="8.403"/>
	<path style="fill:#36353A;" d="M275.43,451.692H7.499c-4.142,0-7.499-3.357-7.499-7.499c0-4.143,3.358-7.499,7.499-7.499H275.43   c4.143,0,7.499,3.357,7.499,7.499C282.929,448.335,279.573,451.692,275.43,451.692z"/>
</g>
<g>
</g>
<g>
</g>
<g>
</g>
<g>
</g>
<g>
</g>
<g>
</g>
<g>
</g>
<g>
</g>
<g>
</g>
<g>
</g>
<g>
</g>
<g>
</g>
<g>
</g>
<g>
</g>
<g>
</g>
</svg>
