<?xml version="1.0" encoding="iso-8859-1"?>
<!-- Generator: Adobe Illustrator 19.0.0, SVG Export Plug-In . SVG Version: 6.00 Build 0)  -->
<svg xmlns="http://www.w3.org/2000/svg" xmlns:xlink="http://www.w3.org/1999/xlink" version="1.1" id="Capa_1" x="0px" y="0px" viewBox="0 0 512 512" style="enable-background:new 0 0 512 512;" xml:space="preserve">
<g>
	<path style="fill:#FFD997;" d="M175.668,234.015v-64.854c0-16.205-13.259-29.46-29.462-29.46c-16.2,0-29.458,13.27-29.458,29.46   v34.409v30.445c0,16.189,13.258,29.457,29.46,29.457C162.409,263.472,175.668,250.217,175.668,234.015z"/>
	<path style="fill:#FFD997;" d="M175.668,159.119v10.042v64.854v28.135c0,16.189,13.265,29.457,29.457,29.457   c16.199,0,29.458-13.256,29.458-29.457v-30.093v-72.939c0-4.248-0.911-8.295-2.548-11.951   c-4.605-10.291-14.955-17.507-26.912-17.507C188.923,129.661,175.668,142.927,175.668,159.119z"/>
	<path style="fill:#FFD997;" d="M224.186,87.518l7.849,59.649c1.637,3.656,2.548,7.703,2.548,11.951v72.939   c0-16.198,13.261-29.46,29.46-29.46h32.73v-15.081L276.779,35.618c-2.112-16.059-16.99-27.476-33.053-25.364   c-16.063,2.116-27.475,16.988-25.36,33.053l2.447,18.592L224.186,87.518z"/>
	<path style="fill:#FFD997;" d="M329.009,67.22l-32.235,120.296v15.081h39.462c5.967,0,11.535,1.799,16.188,4.881l41.819-156.079   c4.194-15.651-5.181-31.887-20.829-36.081c-15.645-4.191-31.889,5.186-36.08,20.831L329.009,67.22z"/>
	<path style="fill:#FFD997;" d="M205.123,291.607L205.123,291.607L205.123,291.607z M336.235,202.597h-39.462h-32.73   c-16.199,0-29.46,13.262-29.46,29.46v30.093c0,16.201-13.259,29.457-29.458,29.457c-16.192,0-29.457-13.269-29.457-29.457v-28.135   c0,16.202-13.259,29.457-29.46,29.457c-16.202,0-29.46-13.268-29.46-29.457v68.777c0,37.71,16.996,71.645,43.705,94.521v66.952V502   h140.5v-90.1c38.625-21.193,64.742-62.166,64.742-109.109v-41.273v-29.462c0-10.235-5.29-19.293-13.272-24.579   C347.77,204.396,342.202,202.597,336.235,202.597z"/>
</g>
<path d="M399.931,24.062c-5.281-9.149-13.78-15.684-23.93-18.403c-10.146-2.72-20.773-1.307-29.924,3.976  c-9.149,5.282-15.686,13.78-18.403,23.927l-27.546,102.804L286.695,34.313c-2.839-21.569-22.699-36.809-44.275-33.974  c-21.572,2.842-36.81,22.702-33.969,44.271l10.192,77.437c-4.22-1.544-8.772-2.387-13.521-2.387  c-14.313,0-26.869,7.663-33.785,19.101c-6.831-5.656-15.591-9.061-25.132-9.061c-21.758,0-39.46,17.702-39.46,39.46v34.409  c0,0.013,0.002,0.025,0.002,0.039v30.367c0,0.014-0.002,0.026-0.002,0.039c0,0.025,0.002,0.051,0.002,0.077v68.7  c0,38.238,16.488,73.955,43.705,98.991V502c0,5.522,4.477,10,10,10h140.502c5.522,0,10-4.478,10-10v-84.35  c40.076-24.357,64.74-67.819,64.74-114.857v-70.735c0-11.062-4.582-21.067-11.938-28.239l40.145-149.83  C406.623,43.837,405.213,33.209,399.931,24.062z M245.029,20.169c10.645-1.407,20.437,6.116,21.837,16.754l19.909,151.249v4.426  h-22.732c-7.072,0-13.711,1.88-19.458,5.152v-38.631c0-5.156-1.005-10.079-2.811-14.598L228.281,42  C226.879,31.363,234.394,21.569,245.029,20.169z M185.668,159.119c0-10.729,8.729-19.458,19.457-19.458  c7.943,0,14.779,4.789,17.801,11.626c0.033,0.074,0.07,0.146,0.105,0.22c0.998,2.34,1.554,4.912,1.554,7.612v103.033  c0,10.728-8.729,19.455-19.46,19.455h-0.002c-10.727,0-19.455-8.728-19.455-19.455v-53.701v-39.29V159.119z M146.208,149.701  c10.73,0,19.46,8.73,19.46,19.46v39.29v25.564c0,10.73-8.73,19.459-19.462,19.459c-10.717,0-19.437-8.709-19.458-19.42V203.57  c0-0.013-0.002-0.025-0.002-0.039v-34.37C126.746,158.43,135.476,149.701,146.208,149.701z M296.212,403.095  c-0.312,0.168-0.612,0.354-0.903,0.554c-0.112,0.077-0.216,0.162-0.324,0.242c-0.148,0.11-0.297,0.218-0.438,0.336  c-0.15,0.125-0.29,0.26-0.433,0.393c-0.09,0.085-0.184,0.167-0.271,0.255c-0.148,0.15-0.285,0.308-0.423,0.466  c-0.074,0.085-0.151,0.167-0.222,0.254c-0.127,0.156-0.244,0.318-0.36,0.481c-0.073,0.103-0.149,0.202-0.22,0.308  c-0.099,0.15-0.188,0.304-0.278,0.458c-0.075,0.129-0.153,0.255-0.224,0.388c-0.072,0.138-0.137,0.28-0.203,0.422  c-0.072,0.153-0.147,0.307-0.211,0.465c-0.055,0.134-0.101,0.271-0.149,0.407c-0.06,0.168-0.122,0.334-0.174,0.506  c-0.046,0.153-0.081,0.311-0.12,0.467c-0.038,0.154-0.08,0.307-0.111,0.464c-0.045,0.223-0.074,0.447-0.103,0.673  c-0.012,0.093-0.029,0.184-0.038,0.276c-0.038,0.37-0.055,0.743-0.05,1.117v79.976H170.453v-17.735h41.254c5.523,0,10-4.478,10-10  s-4.477-10-10-10h-41.254V417c7.762,4.836,16.074,8.941,24.88,12.161c1.134,0.414,2.293,0.611,3.434,0.611  c4.079,0,7.91-2.515,9.393-6.568c1.897-5.187-0.771-10.93-5.957-12.826c-45.132-16.505-75.454-59.74-75.454-107.585v-34.471  c5.748,3.272,12.387,5.152,19.46,5.152c7.257,0,14.056-1.978,19.904-5.409c2.788,18.467,18.423,32.77,37.477,33.503  c-1.64,2.592-3.192,5.257-4.626,8.013c-2.549,4.899-0.643,10.938,4.257,13.485c1.475,0.767,3.052,1.131,4.606,1.131  c3.61,0,7.099-1.962,8.88-5.388c15.174-29.171,45.027-47.292,77.91-47.292h12.16c5.523,0,10-4.477,10-10c0-5.522-4.477-10-10-10  h-42.734c-10.729,0-19.458-8.73-19.458-19.46s8.73-19.46,19.458-19.46h72.192c3.901,0,7.53,1.165,10.579,3.149  c0.139,0.095,0.278,0.188,0.423,0.275c5.103,3.512,8.458,9.387,8.458,16.035v70.735  C355.695,344.504,332.904,382.928,296.212,403.095z M384.584,48.811l-38.838,144.952c-3.048-0.758-6.232-1.166-9.511-1.166h-29.46  v-3.766l40.219-150.095c1.335-4.986,4.561-9.171,9.084-11.782c4.523-2.61,9.76-3.313,14.748-1.978  c4.989,1.337,9.174,4.563,11.784,9.084C385.221,38.583,385.922,43.821,384.584,48.811z"/>
<path d="M200.494,331.419c-5.413-1.109-10.695,2.38-11.804,7.789c-0.013,0.06-0.04,0.203-0.056,0.287  c-1.045,5.389,2.451,10.62,7.841,11.707c0.667,0.135,1.332,0.199,1.987,0.199c4.662,0,8.835-3.279,9.792-8.025  c0.01-0.048,0.032-0.167,0.046-0.243C209.353,337.755,205.875,332.522,200.494,331.419z"/>
<path d="M240.799,454.27h-0.238c-5.523,0-10,4.477-10,10c0,5.522,4.477,10,10,10h0.238c5.523,0,10-4.478,10-10  S246.321,454.27,240.799,454.27z"/>
<g>
</g>
<g>
</g>
<g>
</g>
<g>
</g>
<g>
</g>
<g>
</g>
<g>
</g>
<g>
</g>
<g>
</g>
<g>
</g>
<g>
</g>
<g>
</g>
<g>
</g>
<g>
</g>
<g>
</g>
</svg>
