<?xml version="1.0" encoding="iso-8859-1"?>
<!-- Generator: Adobe Illustrator 19.0.0, SVG Export Plug-In . SVG Version: 6.00 Build 0)  -->
<svg xmlns="http://www.w3.org/2000/svg" xmlns:xlink="http://www.w3.org/1999/xlink" version="1.1" id="Capa_1" x="0px" y="0px" viewBox="0 0 512 512" style="enable-background:new 0 0 512 512;" xml:space="preserve">
<path style="fill:#36353A;" d="M370.667,75.275c-4.139,0-7.494-3.355-7.494-7.494V17.486c0-1.378-1.121-2.498-2.498-2.498H135.338  c-1.377,0-2.498,1.12-2.498,2.498v50.295c0,4.139-3.355,7.494-7.494,7.494c-4.139,0-7.494-3.355-7.494-7.494V17.486  C117.852,7.844,125.696,0,135.338,0h225.336c9.642,0,17.486,7.844,17.486,17.486v50.295  C378.161,71.921,374.805,75.275,370.667,75.275z"/>
<g>
	<path style="fill:#D8362A;" d="M452.076,147.866v-39.583h18.116c2.803,0,5.075,2.272,5.075,5.075v34.508H452.076z"/>
	<path style="fill:#D8362A;" d="M452.076,187.199v-39.583h23.191v34.508c0,2.803-2.272,5.075-5.075,5.075L452.076,187.199   L452.076,187.199z"/>
</g>
<path style="fill:#4EC0AA;" d="M447.001,512H41.808c-2.803,0-5.075-2.272-5.075-5.075V73.855c0-2.803,2.272-5.075,5.075-5.075  h405.193c2.803,0,5.075,2.272,5.075,5.075v433.07C452.076,509.728,449.804,512,447.001,512z"/>
<path style="fill:#40AD98;" d="M447.001,512h-46.362V68.78h46.362c2.803,0,5.075,2.272,5.075,5.075v433.07  C452.076,509.728,449.804,512,447.001,512z"/>
<path style="fill:#D8362A;" d="M407.152,257.503H81.656c-2.803,0-5.075-2.272-5.075-5.075V113.221c0-2.803,2.272-5.075,5.075-5.075  h325.496c2.803,0,5.075,2.272,5.075,5.075v139.207C412.227,255.23,409.955,257.503,407.152,257.503z"/>
<path style="fill:#B72020;" d="M407.152,257.503h-38.15V108.146h38.15c2.803,0,5.075,2.272,5.075,5.075v139.207  C412.227,255.23,409.955,257.503,407.152,257.503z"/>
<g>
	<circle style="fill:#FFFFFF;" cx="126.34" cy="344.22" r="18.13"/>
	<circle style="fill:#FFFFFF;" cx="205.05" cy="405.03" r="18.13"/>
	<circle style="fill:#FFFFFF;" cx="283.76" cy="375.68" r="18.13"/>
	<circle style="fill:#FFFFFF;" cx="362.47" cy="344.22" r="18.13"/>
	<path style="fill:#FFFFFF;" d="M106.38,214.801c-4.204,0-7.613-3.408-7.613-7.613V158.46c0-4.205,3.408-7.613,7.613-7.613   c4.204,0,7.613,3.408,7.613,7.613v48.728C113.992,211.393,110.584,214.801,106.38,214.801z"/>
	<path style="fill:#FFFFFF;" d="M129.396,224.521c-4.204,0-7.613-3.408-7.613-7.613V148.74c0-4.205,3.408-7.613,7.613-7.613   s7.613,3.408,7.613,7.613v68.168C137.008,221.113,133.6,224.521,129.396,224.521z"/>
	<path style="fill:#FFFFFF;" d="M152.411,232.48c-4.204,0-7.613-3.408-7.613-7.613V140.78c0-4.205,3.408-7.613,7.613-7.613   s7.613,3.408,7.613,7.613v84.087C160.024,229.072,156.616,232.48,152.411,232.48z"/>
	<path style="fill:#FFFFFF;" d="M175.427,245.083c-4.204,0-7.613-3.408-7.613-7.613V128.178c0-4.205,3.408-7.613,7.613-7.613   s7.613,3.408,7.613,7.613V237.47C183.039,241.675,179.631,245.083,175.427,245.083z"/>
	<path style="fill:#FFFFFF;" d="M198.443,232.48c-4.204,0-7.613-3.408-7.613-7.613V140.78c0-4.205,3.408-7.613,7.613-7.613   c4.204,0,7.613,3.408,7.613,7.613v84.087C206.056,229.072,202.647,232.48,198.443,232.48z"/>
	<path style="fill:#FFFFFF;" d="M221.459,224.521c-4.204,0-7.613-3.408-7.613-7.613V148.74c0-4.205,3.408-7.613,7.613-7.613   s7.613,3.408,7.613,7.613v68.168C229.071,221.113,225.663,224.521,221.459,224.521z"/>
	<path style="fill:#FFFFFF;" d="M244.475,214.801c-4.204,0-7.613-3.408-7.613-7.613V158.46c0-4.205,3.408-7.613,7.613-7.613   c4.204,0,7.613,3.408,7.613,7.613v48.728C252.087,211.393,248.679,214.801,244.475,214.801z"/>
	<path style="fill:#FFFFFF;" d="M267.35,224.521c-4.204,0-7.613-3.408-7.613-7.613V148.74c0-4.205,3.408-7.613,7.613-7.613   s7.613,3.408,7.613,7.613v68.168C274.962,221.113,271.554,224.521,267.35,224.521z"/>
	<path style="fill:#FFFFFF;" d="M290.366,232.48c-4.204,0-7.613-3.408-7.613-7.613V140.78c0-4.205,3.408-7.613,7.613-7.613   s7.613,3.408,7.613,7.613v84.087C297.978,229.072,294.57,232.48,290.366,232.48z"/>
	<path style="fill:#FFFFFF;" d="M313.382,245.083c-4.204,0-7.613-3.408-7.613-7.613V128.178c0-4.205,3.408-7.613,7.613-7.613   s7.613,3.408,7.613,7.613V237.47C320.994,241.675,317.586,245.083,313.382,245.083z"/>
	<path style="fill:#FFFFFF;" d="M336.397,232.48c-4.204,0-7.613-3.408-7.613-7.613V140.78c0-4.205,3.408-7.613,7.613-7.613   s7.613,3.408,7.613,7.613v84.087C344.01,229.072,340.601,232.48,336.397,232.48z"/>
	<path style="fill:#FFFFFF;" d="M359.413,224.521c-4.204,0-7.613-3.408-7.613-7.613V148.74c0-4.205,3.408-7.613,7.613-7.613   c4.204,0,7.613,3.408,7.613,7.613v68.168C367.026,221.113,363.617,224.521,359.413,224.521z"/>
	<path style="fill:#FFFFFF;" d="M382.429,214.801c-4.204,0-7.613-3.408-7.613-7.613V158.46c0-4.205,3.408-7.613,7.613-7.613   s7.613,3.408,7.613,7.613v48.728C390.041,211.393,386.633,214.801,382.429,214.801z"/>
</g>
<g>
	<path style="fill:#36353A;" d="M133.956,319.624v-36.222c0-4.205-3.408-7.613-7.613-7.613c-4.204,0-7.613,3.408-7.613,7.613v36.222   c-10.49,3.254-18.131,13.048-18.131,24.594s7.641,21.341,18.131,24.594v119.683c0,4.205,3.408,7.613,7.613,7.613   c4.204,0,7.613-3.408,7.613-7.613V368.813c10.49-3.254,18.131-13.048,18.131-24.594S144.446,322.878,133.956,319.624z    M126.343,354.737c-5.8,0-10.519-4.719-10.519-10.519s4.719-10.519,10.519-10.519c5.8,0,10.519,4.719,10.519,10.519   S132.143,354.737,126.343,354.737z"/>
	<path style="fill:#36353A;" d="M212.663,380.44v-97.038c0-4.205-3.408-7.613-7.613-7.613s-7.613,3.408-7.613,7.613v97.038   c-10.49,3.254-18.131,13.048-18.131,24.594s7.641,21.341,18.131,24.594v58.867c0,4.205,3.408,7.613,7.613,7.613   s7.613-3.408,7.613-7.613v-58.867c10.49-3.254,18.131-13.048,18.131-24.594S223.153,383.694,212.663,380.44z M205.05,415.553   c-5.8,0-10.519-4.719-10.519-10.519s4.719-10.519,10.519-10.519s10.519,4.719,10.519,10.519S210.851,415.553,205.05,415.553z"/>
	<path style="fill:#36353A;" d="M291.371,351.088v-67.686c0-4.205-3.408-7.613-7.613-7.613s-7.613,3.408-7.613,7.613v67.686   c-10.49,3.254-18.131,13.048-18.131,24.594s7.641,21.341,18.131,24.594v88.219c0,4.205,3.408,7.613,7.613,7.613   s7.613-3.408,7.613-7.613v-88.219c10.491-3.254,18.131-13.048,18.131-24.594C309.502,364.136,301.861,354.342,291.371,351.088z    M283.758,386.201c-5.8,0-10.519-4.719-10.519-10.519c0-5.8,4.719-10.519,10.519-10.519s10.519,4.719,10.519,10.519   S289.558,386.201,283.758,386.201z"/>
	<path style="fill:#36353A;" d="M370.078,319.624v-36.222c0-4.205-3.408-7.613-7.613-7.613c-4.204,0-7.613,3.408-7.613,7.613v36.222   c-10.49,3.254-18.131,13.048-18.131,24.594s7.641,21.341,18.131,24.594v119.683c0,4.205,3.408,7.613,7.613,7.613   c4.204,0,7.613-3.408,7.613-7.613V368.813c10.49-3.254,18.131-13.048,18.131-24.594S380.569,322.878,370.078,319.624z    M362.466,354.737c-5.8,0-10.519-4.719-10.519-10.519s4.719-10.519,10.519-10.519s10.519,4.719,10.519,10.519   S368.266,354.737,362.466,354.737z"/>
</g>
<g>
</g>
<g>
</g>
<g>
</g>
<g>
</g>
<g>
</g>
<g>
</g>
<g>
</g>
<g>
</g>
<g>
</g>
<g>
</g>
<g>
</g>
<g>
</g>
<g>
</g>
<g>
</g>
<g>
</g>
</svg>
