<?xml version="1.0" encoding="iso-8859-1"?>
<!-- Generator: Adobe Illustrator 19.0.0, SVG Export Plug-In . SVG Version: 6.00 Build 0)  -->
<svg xmlns="http://www.w3.org/2000/svg" xmlns:xlink="http://www.w3.org/1999/xlink" version="1.1" id="Capa_1" x="0px" y="0px" viewBox="0 0 512 512" style="enable-background:new 0 0 512 512;" xml:space="preserve">
<path style="fill:#E8B44D;" d="M396.053,413.682c-4.14,0-7.497-3.355-7.497-7.497V34.644c0-2.909,1.683-5.557,4.318-6.79  c2.637-1.231,5.746-0.83,7.979,1.033l108.45,90.44c3.18,2.651,3.607,7.379,0.957,10.558c-2.652,3.18-7.38,3.606-10.558,0.956  L403.55,50.656v355.528C403.549,410.326,400.193,413.682,396.053,413.682z"/>
<circle style="fill:#FFD15C;" cx="333.661" cy="415.442" r="69.409"/>
<path style="fill:#E8B44D;" d="M403.064,415.445c0,38.323-31.076,69.399-69.409,69.399c-5.757,0-11.365-0.7-16.713-2.039  c30.266-7.467,52.696-34.794,52.696-67.36s-22.43-59.903-52.696-67.37c5.348-1.339,10.955-2.039,16.713-2.039  C371.988,346.036,403.064,377.112,403.064,415.445z"/>
<g>
	<path style="fill:#36353A;" d="M55.193,137.385h289.874c4.14,0,7.497-3.355,7.497-7.497c0-4.141-3.356-7.497-7.497-7.497H55.193   c-4.14,0-7.497,3.355-7.497,7.497C47.697,134.029,51.053,137.385,55.193,137.385z"/>
	<path style="fill:#36353A;" d="M345.068,194.223H55.193c-4.14,0-7.497,3.355-7.497,7.497c0,4.141,3.357,7.497,7.497,7.497h289.874   c4.14,0,7.497-3.355,7.497-7.497C352.564,197.579,349.208,194.223,345.068,194.223z"/>
	<path style="fill:#36353A;" d="M345.068,266.055H55.193c-4.14,0-7.497,3.355-7.497,7.497s3.357,7.497,7.497,7.497h289.874   c4.14,0,7.497-3.355,7.497-7.497S349.208,266.055,345.068,266.055z"/>
	<path style="fill:#36353A;" d="M241.582,337.887H55.193c-4.14,0-7.497,3.355-7.497,7.497s3.357,7.497,7.497,7.497h186.389   c4.14,0,7.497-3.355,7.497-7.497S245.723,337.887,241.582,337.887z"/>
	<path style="fill:#36353A;" d="M217.743,409.719H55.193c-4.14,0-7.497,3.355-7.497,7.497c0,4.141,3.357,7.497,7.497,7.497h162.549   c4.14,0,7.497-3.355,7.497-7.497C225.239,413.074,221.883,409.719,217.743,409.719z"/>
	<ellipse style="fill:#36353A;" cx="10.773" cy="129.89" rx="10.773" ry="10.731"/>
	<ellipse style="fill:#36353A;" cx="10.773" cy="202.377" rx="10.773" ry="10.731"/>
	<ellipse style="fill:#36353A;" cx="10.773" cy="276.204" rx="10.773" ry="10.731"/>
	<ellipse style="fill:#36353A;" cx="10.773" cy="346.023" rx="10.773" ry="10.731"/>
	<ellipse style="fill:#36353A;" cx="10.773" cy="417.171" rx="10.773" ry="10.731"/>
</g>
<g>
</g>
<g>
</g>
<g>
</g>
<g>
</g>
<g>
</g>
<g>
</g>
<g>
</g>
<g>
</g>
<g>
</g>
<g>
</g>
<g>
</g>
<g>
</g>
<g>
</g>
<g>
</g>
<g>
</g>
</svg>
