<?xml version="1.0" encoding="iso-8859-1"?>
<!-- Generator: Adobe Illustrator 19.0.0, SVG Export Plug-In . SVG Version: 6.00 Build 0)  -->
<svg xmlns="http://www.w3.org/2000/svg" xmlns:xlink="http://www.w3.org/1999/xlink" version="1.1" id="Capa_1" x="0px" y="0px" viewBox="0 0 512.001 512.001" style="enable-background:new 0 0 512.001 512.001;" xml:space="preserve">
<g>
	<circle style="fill:#808080;" cx="255.999" cy="136.299" r="20"/>
	<path style="fill:#5F8ACE;" d="M276.001,136.299c0,11.045-8.954,20.001-19.999,20.001c-11.045,0-20.001-8.956-20.001-20.001   c0-11.046,8.956-19.999,20.001-19.999C267.047,116.3,276.001,125.253,276.001,136.299L276.001,136.299z M367.77,66.901H144.231   v306.898h88.02h47.5h88.019V66.901L367.77,66.901z M256.002,200.045c35.207,0,63.752,28.544,63.752,63.752   c0,35.21-28.545,63.753-63.752,63.753c-35.209,0-63.753-28.544-63.753-63.753C192.248,228.589,220.793,200.045,256.002,200.045z"/>
	<path style="fill:#9ADFEF;" d="M319.753,263.798c0-35.209-28.545-63.752-63.752-63.752c-35.209,0-63.753,28.544-63.753,63.752   c0,35.21,28.545,63.753,63.753,63.753C291.209,327.551,319.753,299.007,319.753,263.798L319.753,263.798z M256.002,243.799   c11.045,0,19.999,8.954,19.999,19.999c0,11.046-8.954,19.999-19.999,19.999c-11.045,0-20.001-8.953-20.001-19.999   C236.001,252.753,244.957,243.799,256.002,243.799z"/>
	<g>
		<circle style="fill:#5F8ACE;" cx="255.999" cy="263.798" r="20"/>
		<rect x="232.249" y="373.797" style="fill:#5F8ACE;" width="47.5" height="71.299"/>
	</g>
</g>
<path d="M367.77,56.902H144.231c-5.523,0-10,4.478-10,10V373.8c0,5.522,4.477,10,10,10h78.018v51.3h-53.749c-5.523,0-10,4.477-10,10  c0,5.522,4.477,10,10,10h63.748h47.5h63.751c5.523,0,10-4.478,10-10c0-5.523-4.477-10-10-10h-53.751v-51.3h78.021  c5.523,0,10-4.478,10-10V66.902C377.77,61.379,373.294,56.902,367.77,56.902z M269.749,435.098h-27.5v-51.3h27.5V435.098z   M357.77,363.799h-78.021h-47.5h-78.018V76.901H357.77V363.799z"/>
<path d="M256.002,166.299c16.541,0,29.999-13.458,29.999-30.001c0-16.542-13.458-29.999-29.999-29.999s-29.999,13.457-29.999,29.999  C226.003,152.841,239.461,166.299,256.002,166.299z M256.002,126.3c5.514,0,9.999,4.485,9.999,9.999  c0,5.515-4.485,10.001-9.999,10.001c-5.514,0-9.999-4.486-9.999-10.001C246.003,130.785,250.488,126.3,256.002,126.3z"/>
<path d="M256.002,337.551c40.668,0,73.753-33.086,73.753-73.753s-33.086-73.752-73.753-73.752c-40.666,0-73.75,33.085-73.75,73.752  S215.336,337.551,256.002,337.551z M256.002,210.045c29.64,0,53.754,24.113,53.754,53.753s-24.114,53.754-53.754,53.754  c-29.639,0-53.751-24.114-53.751-53.754C202.251,234.158,226.363,210.045,256.002,210.045z"/>
<path d="M256.002,293.796c16.541,0,29.999-13.457,29.999-29.999s-13.458-29.999-29.999-29.999s-29.999,13.457-29.999,29.999  S239.461,293.796,256.002,293.796z M256.002,253.799c5.514,0,9.999,4.485,9.999,9.999c0,5.514-4.485,9.999-9.999,9.999  c-5.514,0-9.999-4.485-9.999-9.999C246.003,258.284,250.488,253.799,256.002,253.799z"/>
<path d="M410.891,178.176c0.689,0,1.39-0.071,2.091-0.221l58.748-12.498c3.291-0.7,6.009-3.008,7.233-6.143  c1.224-3.134,0.79-6.673-1.153-9.419l-13.893-19.614l41.768-16.561c5.135-2.035,7.646-7.848,5.611-12.981  c-2.037-5.134-7.85-7.647-12.983-5.61l-53.599,21.251c-2.852,1.131-5.028,3.509-5.901,6.45c-0.873,2.941-0.348,6.121,1.426,8.626  l12.467,17.601l-43.887,9.336c-5.402,1.149-8.85,6.46-7.7,11.862C402.119,174.955,406.27,178.176,410.891,178.176z"/>
<path d="M103.185,158.393l-43.888-9.336l12.467-17.601c1.774-2.504,2.3-5.684,1.427-8.626c-0.873-2.941-3.049-5.319-5.901-6.45  L13.689,95.13c-5.133-2.035-10.945,0.476-12.981,5.61c-2.036,5.134,0.476,10.946,5.61,12.981l41.77,16.561l-13.893,19.614  c-1.944,2.746-2.378,6.285-1.154,9.419c1.225,3.134,3.942,5.442,7.233,6.143l58.751,12.498c0.702,0.149,1.401,0.221,2.091,0.221  c4.619,0,8.771-3.221,9.771-7.921C112.034,164.853,108.587,159.542,103.185,158.393z"/>
<path d="M99.022,308.395l-58.75,12.5c-3.291,0.7-6.01,3.009-7.233,6.142c-1.224,3.134-0.79,6.674,1.154,9.419l13.893,19.613  l-41.77,16.559c-5.134,2.035-7.646,7.848-5.61,12.982c1.556,3.925,5.319,6.317,9.299,6.317c1.226,0,2.474-0.228,3.683-0.707  l53.601-21.25c2.853-1.131,5.028-3.509,5.901-6.45c0.873-2.942,0.348-6.122-1.427-8.626l-12.467-17.6l43.888-9.338  c5.402-1.15,8.85-6.46,7.701-11.862C109.735,310.695,104.427,307.243,99.022,308.395z"/>
<path d="M505.683,372.629l-41.768-16.559l13.893-19.613c1.943-2.746,2.377-6.285,1.153-9.419c-1.224-3.134-3.942-5.442-7.233-6.142  l-58.748-12.5c-5.402-1.15-10.713,2.299-11.862,7.7c-1.149,5.401,2.298,10.713,7.7,11.862l43.887,9.338l-12.467,17.6  c-1.773,2.504-2.299,5.684-1.426,8.626c0.873,2.941,3.049,5.319,5.901,6.45l53.599,21.25c1.21,0.48,2.457,0.707,3.684,0.707  c3.98,0,7.742-2.393,9.299-6.317C513.33,380.477,510.818,374.664,505.683,372.629z"/>
<path d="M90.005,253.177c5.523,0,10-4.477,10-10c0-5.522-4.477-10-10-10H38.971c-5.523,0-10,4.478-10,10c0,5.523,4.477,10,10,10  H90.005z"/>
<path d="M10.242,253.181c5.523,0,10-4.478,10-10s-4.477-10-10-10h-0.238c-5.523,0-10,4.478-10,10s4.477,10,10,10H10.242z"/>
<path d="M501.76,233.181c-5.522,0-10,4.478-10,10s4.478,10,10,10h0.238c5.523,0,10-4.478,10-10s-4.477-10-10-10H501.76z"/>
<path d="M421.997,233.177c-5.523,0-10,4.478-10,10c0,5.523,4.477,10,10,10h51.035c5.523,0,10-4.477,10-10c0-5.522-4.477-10-10-10  H421.997z"/>
<g>
</g>
<g>
</g>
<g>
</g>
<g>
</g>
<g>
</g>
<g>
</g>
<g>
</g>
<g>
</g>
<g>
</g>
<g>
</g>
<g>
</g>
<g>
</g>
<g>
</g>
<g>
</g>
<g>
</g>
</svg>
