<?xml version="1.0" encoding="iso-8859-1"?>
<!-- Generator: Adobe Illustrator 19.0.0, SVG Export Plug-In . SVG Version: 6.00 Build 0)  -->
<svg xmlns="http://www.w3.org/2000/svg" xmlns:xlink="http://www.w3.org/1999/xlink" version="1.1" id="Capa_1" x="0px" y="0px" viewBox="0 0 512.003 512.003" style="enable-background:new 0 0 512.003 512.003;" xml:space="preserve">
<g>
	<polygon style="fill:#E7526A;" points="464.787,82.082 501.962,44.903 467.058,10 429.883,47.176 440.723,58.02 453.943,71.238     "/>
	<polygon style="fill:#5F8ACE;" points="401.786,127.586 428.581,98.639 453.943,71.238 440.723,58.02 413.326,83.38    384.379,110.179 299.915,188.361 174.084,304.832 207.131,337.879 323.605,212.051  "/>
	<path style="fill:#E7526A;" d="M298.898,351.146c6.807-39.38,68.326-81.74,24.707-139.095L207.131,337.879l-33.047-33.047   l125.831-116.471c-57.359-43.625-99.72,17.898-139.098,24.705c58.783,48.53-65.668,103.552-63.497,37.585   c0,0-26.724,10.614-56.274,40.165C-3.699,335.561,0.35,412.15,50.081,461.882c49.731,49.733,126.318,53.78,171.063,9.035   c29.554-29.551,40.167-56.274,40.167-56.274C195.345,416.814,250.366,292.363,298.898,351.146L298.898,351.146z M99.955,376.068   l35.939,35.938l-20.813,20.812l-35.938-35.936L99.955,376.068z"/>
	
		<rect x="82.103" y="389.727" transform="matrix(-0.7071 -0.7071 0.7071 -0.7071 -102.4438 766.4529)" style="fill:#5F8ACE;" width="50.825" height="29.433"/>
</g>
<path d="M196.017,161.02c1.573,0,3.17-0.373,4.659-1.158c0.025-0.014,0.076-0.041,0.118-0.063c4.831-2.558,6.72-8.532,4.215-13.408  c-2.525-4.913-8.558-6.848-13.465-4.323c-0.063,0.031-0.177,0.093-0.252,0.133c-4.849,2.592-6.697,8.617-4.128,13.486  C188.956,159.081,192.426,161.02,196.017,161.02z"/>
<path d="M222.415,149.279c1.065,0,2.15-0.172,3.215-0.533c18.521-6.287,35.603-7.537,52.225-3.826  c5.381,1.2,10.734-2.19,11.938-7.58c1.203-5.391-2.19-10.736-7.581-11.939c-20.025-4.471-41.225-2.988-63.01,4.406  c-5.23,1.775-8.03,7.454-6.256,12.684C214.361,146.655,218.249,149.279,222.415,149.279z"/>
<path d="M296.188,435.569c-4.846-2.653-10.922-0.874-13.573,3.97c-5.36,9.79-12.605,20.491-20.954,30.944  c-3.447,4.315-2.742,10.607,1.573,14.054c1.843,1.473,4.045,2.186,6.233,2.186c2.937,0,5.846-1.287,7.82-3.76  c9.187-11.502,16.881-22.881,22.87-33.821C302.81,444.299,301.033,438.222,296.188,435.569z"/>
<path d="M306.385,409.331c-5.146-2.003-10.942,0.546-12.945,5.693l-0.098,0.251c-2.003,5.147,0.546,10.942,5.693,12.945  c1.191,0.464,2.418,0.684,3.624,0.684c4.003,0,7.782-2.421,9.321-6.377l0.098-0.251C314.081,417.13,311.533,411.334,306.385,409.331  z"/>
<path d="M509.033,37.832L474.129,2.929C472.253,1.054,469.71,0,467.058,0s-5.196,1.054-7.071,2.93l-37.175,37.176  c-3.905,3.905-3.905,10.236,0,14.142l3.492,3.493l-12.71,11.765l-7.646-7.645c-3.906-3.904-10.236-3.904-14.143,0.001  c-3.905,3.905-3.905,10.237,0,14.142l7.1,7.1l-14.261,13.2l-7.643-7.646c-3.906-3.905-10.236-3.905-14.143,0  c-3.905,3.905-3.905,10.237,0,14.143l7.098,7.098l-70.921,65.647c-41.503-26.719-76.353-5.861-104.644,11.078  c-12.669,7.585-24.636,14.75-35.277,16.589c-3.85,0.665-6.96,3.512-7.962,7.288c-1.003,3.775,0.286,7.79,3.299,10.277  c11.416,9.426,14.781,18.965,10,28.352c-7.192,14.122-30.662,24.973-45.664,21.111c-5.153-1.326-11.949-4.767-11.473-19.26  c0.111-3.371-1.483-6.57-4.242-8.51c-2.759-1.939-6.307-2.357-9.443-1.113c-1.17,0.465-28.995,11.729-59.656,42.389  c-46.425,46.426-44.765,124.383,2.239,177.944c-0.271,0.22-0.535,0.454-0.788,0.707L23.63,474.19  c-3.905,3.904-3.906,10.236-0.001,14.142c1.952,1.953,4.512,2.93,7.071,2.93c2.559,0,5.118-0.977,7.07-2.929l11.794-11.792  c0.251-0.251,0.485-0.514,0.704-0.783c24.653,21.667,55.085,34.389,86.686,36.059c2.37,0.125,4.725,0.186,7.067,0.186  c32.435-0.001,62.116-11.938,84.192-34.014c30.662-30.659,41.926-58.485,42.391-59.654c1.244-3.135,0.826-6.685-1.113-9.443  c-1.94-2.758-5.126-4.358-8.51-4.242c-14.474,0.469-17.934-6.319-19.26-11.473c-3.862-14.999,6.989-38.472,21.111-45.664  c9.386-4.78,18.926-1.417,28.352,10c2.488,3.014,6.501,4.3,10.278,3.299c3.775-1.002,6.622-4.112,7.287-7.962  c1.84-10.642,9.004-22.608,16.59-35.278c16.938-28.292,37.793-63.141,11.076-104.643l65.646-70.922l7.101,7.101  c1.953,1.952,4.512,2.929,7.071,2.929s5.118-0.977,7.071-2.929c3.905-3.905,3.905-10.237,0-14.143l-7.646-7.646l13.199-14.26  l7.105,7.103c1.953,1.952,4.512,2.928,7.07,2.928c2.56,0,5.119-0.977,7.072-2.93c3.904-3.906,3.903-10.238-0.002-14.143  l-7.648-7.646L454.22,85.66l3.494,3.494c1.876,1.876,4.419,2.93,7.071,2.93s5.196-1.054,7.071-2.93l37.175-37.178  C512.939,48.068,512.939,41.737,509.033,37.832z M206.853,323.459l-18.35-18.349L435.244,76.717L206.853,323.459z M308.181,307.297  c-5.239,8.752-10.302,17.206-14.01,25.728c-17.532-12.297-33.482-6.865-40.414-3.334c-22.687,11.555-37.654,44.19-31.403,68.472  c3.243,12.595,11.568,21.123,23.609,24.663c-5.722,9.921-15.855,24.988-31.89,41.021c-19.608,19.609-46.612,29.549-76.064,27.997  c-29.838-1.576-58.555-14.728-80.857-37.032c-45.755-45.754-49.809-116.15-9.037-156.923c15.936-15.936,31.066-26.103,41.031-31.86  c3.545,12.027,12.069,20.342,24.654,23.582c24.287,6.254,56.918-8.717,68.472-31.403c3.531-6.933,8.963-22.882-3.334-40.414  c8.521-3.708,16.976-8.771,25.727-14.011c25.58-15.316,49.888-29.863,79.054-14.06l-116.43,107.771  c-1.995,1.848-3.152,4.428-3.205,7.146c-0.053,2.718,1.004,5.341,2.927,7.264l33.049,33.047c1.878,1.877,4.422,2.929,7.071,2.929  c0.064,0,0.129-0.001,0.193-0.002c2.719-0.053,5.298-1.21,7.146-3.205l107.771-116.43  C338.042,257.408,323.496,281.716,308.181,307.297z M464.787,67.939l-20.763-20.764l23.033-23.033l20.763,20.762L464.787,67.939z"/>
<path d="M107.027,368.997c-1.876-1.875-4.42-2.929-7.071-2.929c-2.652,0-5.196,1.054-7.071,2.93l-20.812,20.814  c-3.905,3.905-3.905,10.236,0,14.142l35.938,35.936c1.953,1.953,4.512,2.929,7.071,2.929s5.118-0.977,7.07-2.929l20.814-20.812  c1.876-1.875,2.93-4.419,2.93-7.071s-1.054-5.196-2.929-7.071L107.027,368.997z M115.081,418.676l-21.796-21.795l6.671-6.67  l21.796,21.795L115.081,418.676z"/>
<path d="M136.422,311.254c-11.421-4.408-25.717,2.663-40.852,10.154c-6.79,3.36-13.812,6.836-19.631,8.719  c-6.451,2.088-8.248,1.198-8.259,1.194c-0.001-0.001-0.101-0.086-0.262-0.361c4.963-0.45,8.924-4.545,9.08-9.652  c0.17-5.52-4.168-10.133-9.688-10.302c-5.707-0.173-13.74,2.707-17.774,9.452c-2.048,3.425-4.635,10.639,1.046,20.477  c2.48,4.296,7.997,10.549,19.091,10.548c2.579,0,5.459-0.338,8.672-1.116c8.436-2.045,17.668-6.614,26.597-11.034  c5.706-2.824,14.198-7.027,19.883-8.739c-1.39,1.824-2.162,4.133-2.027,6.603c0.302,5.515,5.016,9.734,10.531,9.439  c5.315-0.291,10.016-3.029,12.895-7.513c3.148-4.903,3.714-11.175,1.515-16.771C144.593,315.61,139.897,312.596,136.422,311.254z"/>
<path d="M190.554,416.391c7.49-15.133,14.566-29.427,10.154-40.851c-1.341-3.475-4.355-8.171-11.097-10.818  c-5.604-2.199-11.875-1.63-16.778,1.521c-4.48,2.881-7.216,7.579-7.505,12.893c-0.3,5.515,3.929,10.228,9.443,10.527  c2.466,0.133,4.774-0.638,6.597-2.027c-1.712,5.686-5.915,14.178-8.739,19.883c-4.419,8.929-8.989,18.161-11.034,26.597  c-4.129,17.036,4.137,24.707,9.431,27.764c4.455,2.572,8.371,3.449,11.642,3.449c3.952,0,6.962-1.281,8.835-2.401  c6.746-4.033,9.631-12.04,9.456-17.773c-0.167-5.52-4.75-9.845-10.299-9.691c-5.109,0.155-9.207,4.117-9.655,9.084  c-0.27-0.158-0.357-0.257-0.358-0.257c-0.016-0.029-0.892-1.835,1.188-8.264C183.716,430.205,187.193,423.182,190.554,416.391z"/>
<g>
</g>
<g>
</g>
<g>
</g>
<g>
</g>
<g>
</g>
<g>
</g>
<g>
</g>
<g>
</g>
<g>
</g>
<g>
</g>
<g>
</g>
<g>
</g>
<g>
</g>
<g>
</g>
<g>
</g>
</svg>
