<?xml version="1.0" encoding="iso-8859-1"?>
<!-- Generator: Adobe Illustrator 19.0.0, SVG Export Plug-In . SVG Version: 6.00 Build 0)  -->
<svg xmlns="http://www.w3.org/2000/svg" xmlns:xlink="http://www.w3.org/1999/xlink" version="1.1" id="Capa_1" x="0px" y="0px" viewBox="0 0 512 512" style="enable-background:new 0 0 512 512;" xml:space="preserve">
<path d="M256,512c-4.207,0-7.617-3.41-7.617-7.617v-90.209c0-4.207,3.41-7.617,7.617-7.617s7.617,3.41,7.617,7.617v90.209  C263.617,508.59,260.207,512,256,512z"/>
<path style="fill:#58595B;" d="M210.375,206.604l17.062,211.013c0.2,2.478,2.219,4.384,4.642,4.384h22.926h1.989h22.927  c2.423,0,4.442-1.906,4.642-4.384l17.062-211.013H210.375z"/>
<path style="fill:#3D3D3D;" d="M301.623,206.608l-17.057,211.013c-0.2,2.478-2.219,4.384-4.642,4.384h-19.021l17.412-215.397  H301.623z"/>
<path style="fill:#A1ACAD;" d="M301.612,206.916c37.127-17.222,62.865-54.825,62.865-98.44C364.477,48.559,315.907,0,256,0  S147.523,48.559,147.523,108.477c0,43.615,25.738,81.218,62.865,98.44L301.612,206.916L301.612,206.916z"/>
<path style="fill:#819696;" d="M364.477,108.477c0,43.615-25.738,81.218-62.855,98.439h-50.63  c37.127-17.211,62.865-54.825,62.865-98.439c0-51.201-35.458-94.108-83.162-105.497C238.81,1.025,247.283,0,256,0  C315.907,0,364.477,48.56,364.477,108.477z"/>
<circle cx="257.25" cy="264.74" r="8.08"/>
<g>
</g>
<g>
</g>
<g>
</g>
<g>
</g>
<g>
</g>
<g>
</g>
<g>
</g>
<g>
</g>
<g>
</g>
<g>
</g>
<g>
</g>
<g>
</g>
<g>
</g>
<g>
</g>
<g>
</g>
</svg>
