<?xml version="1.0" encoding="iso-8859-1"?>
<!-- Generator: Adobe Illustrator 19.0.0, SVG Export Plug-In . SVG Version: 6.00 Build 0)  -->
<svg xmlns="http://www.w3.org/2000/svg" xmlns:xlink="http://www.w3.org/1999/xlink" version="1.1" id="Capa_1" x="0px" y="0px" viewBox="0 0 511.999 511.999" style="enable-background:new 0 0 511.999 511.999;" xml:space="preserve">
<g>
	<path style="fill:#9ADFEF;" d="M148.618,112.227l60.588-16.88c-2.783-11.563-5.636-23.086-8.661-34.461   c-4.342-16.316-9.037-32.326-14.398-47.701c0,0-73.478-16.854-59.321,26.963l11.843,39.167L148.618,112.227z"/>
	<path style="fill:#DAE3E4;" d="M209.206,95.347l-60.588,16.88l-19.46,5.422l10.734,38.534l20.307-5.658l58.268-16.233   C215.371,121.363,212.331,108.333,209.206,95.347z"/>
	<path style="fill:#9ADFEF;" d="M218.467,134.291l-58.268,16.233l14.512,47.996l56.197-15.656   C226.459,167.066,222.414,150.767,218.467,134.291z"/>
	<path style="fill:#DAE3E4;" d="M230.908,182.864l-56.197,15.656l-19.304,5.377l10.736,38.533l76.844-21.409   C238.568,208.774,234.601,195.989,230.908,182.864z"/>
	<path style="fill:#5F8ACE;" d="M174.711,198.52l-14.512-47.996l-20.307,5.658l-10.734-38.534l19.46-5.422l-9.95-32.912   l-11.843-39.167L27.058,61.721c0,0,36.312,88.728,52.578,182.999c49.871-3.239,55.824,53.113,73.729,88.215   c6.941,13.609,15.678,24.025,29.466,26.536l19.476-17.671l27.401-24.862l41.461-37.62c-11.388-17.153-20.474-36.914-28.18-58.297   l-76.844,21.409l-10.736-38.533L174.711,198.52z"/>
	<g>
		<path style="fill:#9ADFEF;" d="M153.363,332.934c-17.904-35.102-23.857-91.454-73.729-88.215    c8.412,48.763,11.462,99.006,1.352,139.225c8.661,13.989,26.939,17.887,52.488,20.396l-0.043-0.047l49.396-44.822    C169.041,356.96,160.305,346.544,153.363,332.934z"/>
		<path style="fill:#9ADFEF;" d="M182.829,359.471l-49.396,44.822l0.043,0.047c26.819,2.639,61.648,3.745,101.775,13.393    l26.005-23.597l-58.952-52.337L182.829,359.471z"/>
	</g>
	<polygon style="fill:#DAE3E4;" points="202.305,341.8 261.257,394.137 273.381,383.139 289.431,368.575 229.706,316.937  "/>
	<path style="fill:#9ADFEF;" d="M229.706,316.937l59.725,51.638l41.028-37.227c-25.202-11.271-44.253-29.376-59.292-52.03   L229.706,316.937z"/>
	<path style="fill:#5F8ACE;" d="M330.458,331.348l-41.028,37.227l-16.05,14.564c0,0,73.688,23.8,117.479-38.993   C367.457,343.494,347.544,338.991,330.458,331.348z"/>
	<path style="fill:#9ADFEF;" d="M390.86,344.145c-43.793,62.793-117.479,38.993-117.479,38.993l-12.124,10.998l-26.005,23.595   c7.924,1.902,16.052,4.14,24.367,6.789c84.1,26.773,173.748-10.49,197.519-27.096c0,0,17.527-54.602-55.277-53.253   C398.111,344.255,394.444,344.245,390.86,344.145z"/>
	<path style="fill:#5F8ACE;" d="M259.619,424.52c-8.315-2.649-16.443-4.887-24.367-6.789   c-40.129-9.646-74.957-10.753-101.775-13.392c-25.55-2.509-43.827-6.406-52.488-20.396c0,0-14.833,56.622-12.811,93.024   c0.871,15.676,33.118,19.6,72.893,19.849c27.81,0.175,59.3-1.448,86.321-2.107c11.143-49.866,85.965-35.24,89.987,7.223   c16.957,0.468,36.371-1.587,59.002-7.401c19.92-5.117,42.335-13.15,67.762-24.94c12.162-5.64,25.013-12.138,38.611-19.588   c10.127-19.912-17.369-52.041-25.615-52.58C433.367,414.03,343.719,451.293,259.619,424.52z"/>
	<path style="fill:#DAE3E4;" d="M317.378,501.932c-4.022-42.463-78.846-57.089-89.987-7.223c24.08-0.588,44.612-0.411,55.826,2.481   C293.449,499.833,304.729,501.584,317.378,501.932z"/>
</g>
<path d="M487.064,414.078c-3.993-7.016-11.115-16.471-18.646-22.03c1.194-9.002,1.16-23.651-8.035-36.26  c-10.473-14.36-29.279-21.641-55.899-21.641c-0.923,0-1.857,0.009-2.846,0.027c-1.611,0.035-3.229,0.053-4.807,0.054  c-0.01,0-0.013,0-0.022,0c-23.33,0-43.679-3.813-61.5-11.648c-0.242-0.134-0.482-0.272-0.737-0.387  c-21.94-9.817-39.952-25.654-55.063-48.416c-0.049-0.074-0.107-0.139-0.156-0.211c-1.133-1.71-2.254-3.443-3.352-5.229  c-9.219-14.995-16.798-31.819-23.38-49.952c-0.069-0.254-0.14-0.509-0.23-0.758c-4.024-11.156-7.904-23.412-11.859-37.472  c-0.049-0.175-0.114-0.341-0.172-0.511c-4.303-15.379-8.26-31.346-12.167-47.663c-0.002-0.007-0.002-0.013-0.004-0.02  c-1.409-5.887-2.808-11.794-4.207-17.709c-0.077-0.325-0.155-0.65-0.231-0.975c-1.567-6.624-3.153-13.323-4.77-20.047  c-0.019-0.075-0.036-0.15-0.054-0.225c-0.001-0.006-0.004-0.012-0.005-0.018c-2.791-11.593-5.676-23.248-8.715-34.675  c-4.911-18.454-9.693-34.292-14.62-48.423c-1.133-3.248-3.855-5.686-7.207-6.454C187.77,3.299,173.208,0,157.717,0  c-18.333,0-31.022,4.662-37.715,13.858c-3.799,5.219-5.437,11.445-4.906,18.596L24.944,51.947c-2.891,0.624-5.356,2.497-6.734,5.113  c-1.378,2.617-1.527,5.709-0.408,8.447c0.824,2.012,81.984,202.565,53.495,315.968c-0.806,3.085-15.175,58.765-13.104,96.049  c1.825,32.832,66.76,30.608,141.94,28.038c32.775-1.121,66.664-2.28,80.586,1.311c11.659,3.01,23.78,4.696,36.467,5.051  c0.061,0.001,0.121,0.009,0.183,0.009c0.031,0,0.063-0.004,0.095-0.005c1.591,0.042,3.186,0.071,4.794,0.071  c46.257-0.002,99.944-17.414,165.303-53.227c1.764-0.967,3.195-2.443,4.107-4.236C497.273,443.51,495.64,429.141,487.064,414.078z   M402.046,354.17c0.825-0.015,1.638-0.022,2.439-0.022c13.609,0,31.537,2.311,39.664,13.321c5.979,8.101,5.1,18.633,4.172,23.785  c-19.094,11.858-69.248,32.663-125.562,32.663c-21.281,0-41.504-3.003-60.105-8.925c-2.384-0.759-4.749-1.48-7.101-2.175  l20.528-18.627c6.221,1.442,16.991,3.373,30.106,3.373c3.298,0,6.745-0.123,10.304-0.405c32.537-2.586,59.87-17.406,79.386-42.942  c0.322,0.001,0.635,0.013,0.958,0.013C398.558,354.227,400.323,354.209,402.046,354.17z M164.866,396.977  c-0.873-0.076-1.74-0.15-2.603-0.224c-1.745-0.148-3.474-0.293-5.165-0.432l45.28-41.085l43.908,38.982l-13.87,12.584  c-24.559-5.541-46.991-8.028-66.768-9.757C165.388,397.022,165.127,397,164.866,396.977z M91.804,381.681  c7.563-33.757,7.453-76.074-0.267-126.377c20.575,3.919,29.77,23.985,41.282,54.414c3.542,9.363,7.129,18.834,11.467,27.415  c0.026,0.058,0.06,0.112,0.087,0.17c5.224,10.296,11.547,19.285,20.193,25.239l-34.589,31.385  C112.053,391.956,98.716,389.008,91.804,381.681z M269.615,294.39c11.929,15.828,26.116,29.24,43.359,39.32l-23.704,21.508  l-44.483-38.46l24.756-22.462C269.566,294.328,269.592,294.357,269.615,294.39z M370.69,352.623  c-14.755,14.419-33.216,22.659-55.099,24.541c-7.59,0.653-14.624,0.425-20.58-0.15l37.396-33.93  C343.949,347.601,356.657,350.843,370.69,352.623z M229.867,330.296l44.483,38.46l-13.165,11.945l-43.909-38.981L229.867,330.296z   M224.047,195.156c1.994,6.732,3.985,13.067,6.001,19.089l-56.955,15.869l-5.368-19.268L224.047,195.156z M181.451,186.261  l-8.722-28.846l38.45-10.713c2.394,9.803,4.858,19.56,7.455,29.2L181.451,186.261z M201.892,107.765  c0.165,0.695,0.33,1.392,0.495,2.086c0.479,2.016,0.956,4.03,1.433,6.045c0.223,0.939,0.446,1.885,0.668,2.822  c0.672,2.84,1.345,5.682,2.02,8.525l-59.665,16.622l-5.367-19.268L201.892,107.765z M136.172,25.627  C138.737,22.104,146.791,20,157.717,20c7.967,0,15.843,1.064,20.845,1.91c4.115,12.271,8.164,25.93,12.319,41.547  c2.176,8.178,4.274,16.504,6.322,24.854l-41.844,11.658l-18.962-62.714c-0.01-0.032-0.023-0.063-0.034-0.095  c-0.009-0.028-0.014-0.057-0.022-0.086C135.148,33.385,134.151,28.403,136.172,25.627z M119.924,51.872l6.035,19.961l-19.821,4.286  c-5.398,1.166-8.828,6.488-7.661,11.887c1.014,4.686,5.157,7.889,9.765,7.889c0.7,0,1.411-0.074,2.123-0.229l21.401-4.627  l4.323,14.299l-9.613,2.678c-5.32,1.482-8.432,6.997-6.949,12.317l10.734,38.534c0.711,2.555,2.409,4.723,4.719,6.025  c1.513,0.854,3.207,1.291,4.914,1.291c0.899,0,1.803-0.121,2.684-0.367l10.883-3.031l8.722,28.846l-9.457,2.635  c-2.555,0.711-4.723,2.409-6.025,4.719c-1.304,2.311-1.636,5.043-0.924,7.598l10.736,38.533c1.232,4.423,5.25,7.318,9.627,7.318  c0.889,0,1.792-0.119,2.689-0.369l68.061-18.961c6.134,15.832,13.135,30.783,21.37,44.428l-62.687,56.879  c-0.016,0.014-0.031,0.028-0.047,0.042l-15.311,13.893c-5.71-2.351-10.273-7.066-14.25-13.339l17.166-15.576  c4.09-3.711,4.397-10.035,0.686-14.125c-3.712-4.09-10.035-4.397-14.125-0.686L156.817,316.3c-1.768-4.351-3.506-8.939-5.292-13.659  c-11.12-29.392-24.746-65.458-63.488-67.917c-3.454-18.57-7.853-38.123-13.217-58.656c-12.49-47.82-27.088-88.339-34.188-107.051  L119.924,51.872z M242.7,484.449c8.55-11.227,22.841-11.455,27.926-11.143c12.408,0.779,25.908,6.979,32.624,17.516  c-5.996-0.75-11.841-1.844-17.535-3.314C275.965,484.992,260.934,484.32,242.7,484.449z M474.69,443.008  c-8.811,4.772-17.37,9.17-25.717,13.234l-6.963-15.019c-2.322-5.011-8.267-7.19-13.278-4.866c-5.011,2.323-7.189,8.268-4.866,13.278  l6.977,15.048c-16.671,7.374-32.396,13.225-47.287,17.595l-5.932-23.085c-1.374-5.349-6.824-8.569-12.174-7.197  c-5.35,1.375-8.571,6.825-7.197,12.174l5.926,23.065c-13.572,2.924-26.422,4.495-38.638,4.728  c-2.927-9.66-8.993-18.381-17.651-25.147c-10.057-7.859-22.846-12.642-36.012-13.47c-24.446-1.523-44.047,10.662-51.964,31.561  c-6.597,0.193-13.441,0.428-20.468,0.668c-15.339,0.524-30.938,1.058-45.763,1.216c0.751-4.399,1.166-8.489,1.629-13.091  c0.669-6.652,1.503-14.933,3.729-27.81c0.941-5.442-2.707-10.616-8.149-11.558c-5.442-0.941-10.617,2.708-11.558,8.149  c-2.349,13.577-3.221,22.249-3.922,29.217c-0.57,5.668-1.008,10.006-2.074,15.02c-7.411-0.151-14.474-0.456-21.007-0.984  c-31.821-2.573-34.17-9.253-34.174-9.318c-1.258-22.656,4.505-54.257,8.625-73.34c11.47,6.75,26.907,9.37,45.707,11.216  c0.002,0,0.003,0.001,0.005,0.001c0.017,0.002,0.033,0.003,0.049,0.005c5.761,0.565,11.83,1.06,18.205,1.576  c3.634,0.295,7.378,0.599,11.228,0.929c0.018,0.002,0.036,0.004,0.054,0.005c17.243,1.482,36.593,3.513,57.532,7.715  c0.177,0.035,0.352,0.069,0.53,0.105c0.94,0.189,1.886,0.387,2.832,0.586c0.89,0.188,1.784,0.38,2.681,0.576  c0.896,0.195,1.796,0.395,2.698,0.599c1.218,0.276,2.441,0.559,3.671,0.852c8.008,1.899,16.217,4.139,24.609,6.81  c20.566,6.547,42.83,9.867,66.172,9.867c0.004,0,0,0,0.004,0c57.642,0,110.658-20.215,134.944-34.958  c4.531,3.845,11.998,12.767,15.533,22.627C474.415,434.867,475.48,439.242,474.69,443.008z"/>
<path d="M82.073,101.785l0.232-0.051c5.396-1.179,8.813-6.509,7.635-11.903c-1.179-5.396-6.51-8.816-11.904-7.636l-0.232,0.051  c-5.396,1.179-8.813,6.509-7.635,11.903c1.021,4.678,5.161,7.868,9.76,7.868C80.636,102.018,81.355,101.942,82.073,101.785z"/>
<path d="M197.686,302.715c2.404,0,4.817-0.862,6.734-2.609l0.177-0.161c4.081-3.722,4.373-10.046,0.653-14.128  c-3.721-4.081-10.046-4.373-14.128-0.652l-0.177,0.16c-4.081,3.721-4.373,10.046-0.653,14.128  C192.266,301.616,194.971,302.715,197.686,302.715z"/>
<g>
</g>
<g>
</g>
<g>
</g>
<g>
</g>
<g>
</g>
<g>
</g>
<g>
</g>
<g>
</g>
<g>
</g>
<g>
</g>
<g>
</g>
<g>
</g>
<g>
</g>
<g>
</g>
<g>
</g>
</svg>
