<?xml version="1.0" encoding="iso-8859-1"?>
<!-- Generator: Adobe Illustrator 19.0.0, SVG Export Plug-In . SVG Version: 6.00 Build 0)  -->
<svg xmlns="http://www.w3.org/2000/svg" xmlns:xlink="http://www.w3.org/1999/xlink" version="1.1" id="Capa_1" x="0px" y="0px" viewBox="0 0 512.001 512.001" style="enable-background:new 0 0 512.001 512.001;" xml:space="preserve">
<g>
	<path style="fill:#F7A139;" d="M97.601,32.558c-37.117,45.623-34.799,87.38-13.92,120.64h30.157   C154.047,96.549,97.601,32.558,97.601,32.558z"/>
	<polygon style="fill:#DAE3E4;" points="113.839,153.198 83.682,153.198 70.412,153.198 70.412,195.385 124.783,195.385    124.783,153.198  "/>
	<rect x="124.78" y="153.2" style="fill:#9ADFEF;" width="45.629" height="42.19"/>
	<path style="fill:#E7526A;" d="M124.783,195.385H70.412v49.384H97.49c5.263-7.945,14.281-13.214,24.473-13.214h29.336h19.113   v-36.17H124.783z"/>
	<g>
		<path style="fill:#FFD997;" d="M97.49,244.769H70.412H49.335C33.199,244.769,20,257.971,20,274.105    c0,16.133,13.211,29.333,29.335,29.333h43.294V260.89C92.629,254.948,94.422,249.404,97.49,244.769z"/>
		<path style="fill:#FFD997;" d="M92.629,303.438H49.335h-9.999c-16.135,0-29.336,13.2-29.336,29.334    c0,16.135,13.208,29.337,29.336,29.337h9.999h72.628c-16.13,0-29.334-13.206-29.334-29.333V303.438z"/>
		<path style="fill:#FFD997;" d="M121.965,362.109h-72.63c-16.134,0-29.331,13.198-29.331,29.334    c0,16.134,13.209,29.333,29.331,29.333h9.999h64.58h28.015c16.12,0,29.332-13.21,29.332-29.333c0-16.13-13.2-29.334-29.332-29.334    H121.965z"/>
		<path style="fill:#FFD997;" d="M123.914,420.776h-64.58c-16.135,0-29.335,13.2-29.335,29.334    c0,16.134,13.214,29.333,29.335,29.333H93.6h30.314c16.119,0,29.333-13.199,29.333-29.333    C153.247,433.976,140.047,420.776,123.914,420.776z"/>
		<path style="fill:#FFD997;" d="M121.963,362.109L121.963,362.109L121.963,362.109z M181.261,391.443    c0,16.123-13.212,29.333-29.332,29.333h-28.015c16.133,0,29.333,13.2,29.333,29.334c0,16.134-13.214,29.333-29.333,29.333h68.485    c37.549,0,71.34-16.923,94.12-43.518h60.41V296.02h-45.888c-21.1-38.458-61.898-64.465-108.643-64.465h-21.987h-19.113h-29.336    c-10.191,0-19.21,5.268-24.473,13.214c-3.068,4.635-4.861,10.179-4.861,16.121v42.548v29.338    c0,16.127,13.204,29.333,29.336,29.333h29.964C168.06,362.109,181.261,375.313,181.261,391.443z"/>
	</g>
	<path style="fill:#5F8ACE;" d="M346.93,296.02v139.905v1.091c0,10.258,8.395,18.652,18.652,18.652h21.326h21.328   c10.256,0,18.65-8.395,18.65-18.652v-1.091V296.02v-1.091c0-10.26-8.395-18.652-18.65-18.652h-21.328h-21.326   c-10.258,0-18.652,8.392-18.652,18.652V296.02z"/>
	<polygon style="fill:#FFD997;" points="426.887,296.02 426.887,435.925 466.657,435.925 502,435.925 502,296.02  "/>
</g>
<path d="M502,286.02h-66.539c-3.756-11.448-14.537-19.743-27.225-19.743h-11.328v-8.11c0-5.522-4.477-10-10-10s-10,4.478-10,10v8.11  h-11.326c-12.688,0-23.471,8.295-27.227,19.743h-31.564c-24.262-39.907-67.545-64.465-114.392-64.465h-11.987v-68.357  c0-5.522-4.477-10-10-10H130.99c9.971-22.58,9.734-48.247-0.887-75.226c-9.619-24.434-24.379-41.322-25.002-42.029  c-1.945-2.205-4.767-3.445-7.699-3.383c-2.939,0.059-5.703,1.406-7.559,3.687C71.015,49.392,60.609,73.131,58.918,96.802  c-1.144,16.017,1.675,31.73,8.386,46.895c-3.999,1.309-6.892,5.064-6.892,9.501v81.571H49.335c-21.69,0-39.335,17.647-39.335,39.336  c0,9.49,3.379,18.208,8.998,25.01C7.619,306.016,0,318.521,0,332.772c0,14.253,7.621,26.76,19,33.66  c-5.617,6.803-8.996,15.52-8.996,25.011c0,14.251,7.617,26.754,18.994,33.655c-5.619,6.803-8.999,15.52-8.999,25.012  c0,21.689,17.645,39.333,39.335,39.333H93.6h98.8c38.08,0,73.649-16.417,98.586-43.518h47.37  c3.756,11.449,14.538,19.743,27.227,19.743h11.326v8.11c0,5.522,4.477,10,10,10s10-4.478,10-10v-8.11h11.328  c12.688,0,23.469-8.294,27.225-19.743H502c5.523,0,10.001-4.477,10.001-10V296.02C512.001,290.498,507.523,286.02,502,286.02z   M160.412,185.385h-25.629v-22.188h25.629V185.385z M80.412,185.385v-22.188h3.256c0.008,0,0.016,0.001,0.024,0.001  c0.007,0,0.014-0.001,0.021-0.001h31.07v22.188H80.412z M97.599,49.195c12.218,18.114,32.936,57.781,10.853,94.003H89.393  C72.59,113.048,75.342,81.495,97.599,49.195z M80.412,205.385h80v16.17h-38.449c-11.67,0-22.164,5.114-29.375,13.214H80.412V205.385  z M98.456,410.776H59.334h-9.999c-10.659,0-19.331-8.673-19.331-19.333c0-10.661,8.672-19.334,19.331-19.334h72.63h29.964  c10.659,0,19.332,8.673,19.332,19.334c0,10.66-8.673,19.333-19.332,19.333H98.456z M39.336,352.109  c-10.662,0-19.336-8.675-19.336-19.337c0-10.661,8.674-19.334,19.336-19.334h9.999h33.294v19.338c0,7.024,1.86,13.619,5.101,19.333  H39.336z M49.335,254.769h33.774c-0.313,1.996-0.479,4.039-0.479,6.121v32.548H49.335c-10.661,0-19.335-8.673-19.335-19.333  C30,263.443,38.674,254.769,49.335,254.769z M39.999,450.11c0-10.661,8.674-19.334,19.335-19.334h39.122h25.458  c10.66,0,19.333,8.673,19.333,19.334c0,10.66-8.673,19.333-19.333,19.333H93.6H59.334C48.673,469.443,39.999,460.77,39.999,450.11z   M312.311,388.382c-5.185-1.895-10.929,0.771-12.826,5.957c-16.429,44.922-59.463,75.103-107.086,75.103h-34.252  c3.239-5.714,5.1-12.309,5.1-19.333c0-7.21-1.959-13.968-5.359-19.785c18.354-2.801,32.567-18.336,33.333-37.275  c2.561,1.618,5.193,3.151,7.916,4.567c1.475,0.767,3.053,1.13,4.607,1.13c3.61,0,7.098-1.962,8.879-5.388  c2.549-4.899,0.643-10.938-4.256-13.486c-29.033-15.101-47.068-44.814-47.068-77.541v-12.109c0-5.523-4.478-10-10-10  c-5.523,0-10,4.477-10,10v42.554c0,10.66-8.674,19.333-19.336,19.333c-10.66,0-19.334-8.673-19.334-19.333V260.89  c0-3.848,1.143-7.428,3.088-10.443c0.1-0.145,0.19-0.295,0.283-0.444c3.484-5.095,9.338-8.447,15.963-8.447H192.4  c41.523,0,79.773,22.689,99.843,59.216c0.009,0.018,0.02,0.035,0.029,0.053c0.001,0.002,0.002,0.004,0.004,0.006  c0.001,0.002,0.002,0.004,0.004,0.006c0.197,0.358,0.422,0.698,0.659,1.028c0.067,0.094,0.138,0.186,0.208,0.277  c0.202,0.261,0.416,0.511,0.643,0.749c0.057,0.061,0.109,0.126,0.168,0.186c0.269,0.27,0.557,0.52,0.855,0.759  c0.1,0.079,0.203,0.153,0.305,0.229c0.234,0.173,0.477,0.335,0.727,0.487c0.092,0.057,0.184,0.116,0.277,0.169  c0.348,0.197,0.705,0.378,1.076,0.532c0.008,0.003,0.015,0.005,0.021,0.008c0.359,0.149,0.73,0.271,1.109,0.378  c0.096,0.027,0.191,0.05,0.287,0.074c0.297,0.074,0.6,0.134,0.906,0.181c0.109,0.018,0.219,0.037,0.329,0.051  c0.362,0.043,0.73,0.069,1.104,0.072c0.032,0.001,0.064,0.007,0.097,0.007c0.011,0,0.021-0.002,0.031-0.002h35.848v119.905h-30.733  c4.8-7.713,8.874-15.971,12.072-24.717C320.166,396.022,317.498,390.279,312.311,388.382z M416.887,437.016  c0,4.77-3.881,8.652-8.65,8.652h-42.654c-4.771,0-8.652-3.882-8.652-8.652V294.929c0-4.771,3.882-8.652,8.652-8.652h42.654  c4.77,0,8.65,3.882,8.65,8.652V437.016z M492,425.925h-15.343v-41.036c0-5.522-4.478-10-10-10s-10,4.478-10,10v41.036h-19.771  V306.02H492V425.925z"/>
<path d="M232.878,388.298l-0.273-0.053c-5.42-1.077-10.68,2.445-11.754,7.863c-1.074,5.417,2.445,10.68,7.863,11.754  c0.038,0.008,0.132,0.025,0.198,0.038c0.651,0.128,1.299,0.19,1.938,0.19c4.638,0,8.799-3.245,9.78-7.966  C241.756,394.716,238.285,389.422,232.878,388.298z"/>
<path d="M466.661,366.161c5.522,0,10-4.478,10-10v-0.24c0-5.522-4.478-10-10-10s-10,4.478-10,10v0.24  C456.661,361.683,461.139,366.161,466.661,366.161z"/>
<circle cx="386.91" cy="365.97" r="10"/>
<circle cx="386.91" cy="415.97" r="10"/>
<circle cx="386.91" cy="315.98" r="10"/>
<g>
</g>
<g>
</g>
<g>
</g>
<g>
</g>
<g>
</g>
<g>
</g>
<g>
</g>
<g>
</g>
<g>
</g>
<g>
</g>
<g>
</g>
<g>
</g>
<g>
</g>
<g>
</g>
<g>
</g>
</svg>
