<?xml version="1.0" encoding="iso-8859-1"?>
<!-- Generator: Adobe Illustrator 19.0.0, SVG Export Plug-In . SVG Version: 6.00 Build 0)  -->
<svg xmlns="http://www.w3.org/2000/svg" xmlns:xlink="http://www.w3.org/1999/xlink" version="1.1" id="Capa_1" x="0px" y="0px" viewBox="0 0 512 512" style="enable-background:new 0 0 512 512;" xml:space="preserve">
<g>
	<path style="fill:#36353A;" d="M390.113,200.732c-2.16,0-4.305-0.929-5.788-2.726l-59.022-71.502   c-2.637-3.194-2.185-7.922,1.01-10.559c3.193-2.636,7.921-2.186,10.559,1.01l59.022,71.502c2.637,3.194,2.185,7.922-1.01,10.559   C393.486,200.17,391.795,200.732,390.113,200.732z"/>
	<path style="fill:#36353A;" d="M305.971,96.217c-2.09,0-4.169-0.868-5.651-2.566l-16.011-18.332   c-2.726-3.12-2.405-7.857,0.715-10.582c3.119-2.726,7.858-2.405,10.582,0.715l16.011,18.332c2.726,3.12,2.405,7.857-0.715,10.582   C309.479,95.607,307.721,96.217,305.971,96.217z"/>
</g>
<path style="fill:#FFD15C;" d="M345.75,108.498L318.271,131.6c-7.23,6.078-18.119,5.136-24.197-2.094l-6.567-7.811  c-6.078-7.23-5.136-18.119,2.094-24.197l27.479-23.102c7.23-6.078,18.119-5.136,24.197,2.094l6.567,7.811  C353.922,91.531,352.98,102.42,345.75,108.498z"/>
<path style="fill:#E8B44D;" d="M345.75,108.495l-15.94,12.94c7.23-6.07,8.17-16.96,2.09-24.19l-6.56-7.81  c-5.32-6.33-14.34-7.85-21.35-4.04l13.09-11c7.23-6.08,18.12-5.14,24.2,2.09l6.56,7.82C353.92,91.535,352.98,102.415,345.75,108.495  z"/>
<circle style="fill:#A1ACAD;" cx="432.14" cy="249.089" r="43.756"/>
<g>
	<rect x="417.62" y="291.249" style="fill:#36353A;" width="27.382" height="128.28"/>
	<path style="fill:#36353A;" d="M506.866,449.114H5.134c-2.835,0-5.134-2.299-5.134-5.134v-25.055c0-2.835,2.299-5.134,5.134-5.134   h501.732c2.835,0,5.134,2.299,5.134,5.134v25.055C512,446.815,509.701,449.114,506.866,449.114z"/>
</g>
<path style="fill:#2D2C30;" d="M506.866,449.114h-74.579v-35.323h74.579c2.835,0,5.134,2.299,5.134,5.134v25.055  C512,446.815,509.701,449.114,506.866,449.114z"/>
<circle style="fill:#FFFFFF;" cx="432.14" cy="249.089" r="18.202"/>
<g>
	<path style="fill:#36353A;" d="M432.145,179.173c-8.527,0-16.823,1.526-24.709,4.51c-4.689-3.51-11.37-3.336-15.873,0.739   l-10.175,9.21c-2.476,2.241-3.931,5.312-4.097,8.646s0.977,6.534,3.218,9.01l8.793,9.715c-5.311,8.073-8.413,17.723-8.413,28.088   c0,16.086,7.454,30.457,19.083,39.861L8.971,412.373c-3.95,1.247-6.141,5.46-4.895,9.41c1.01,3.199,3.965,5.244,7.15,5.244   c0.748,0,1.509-0.112,2.26-0.35l405.588-128.025c4.175,1.102,8.554,1.695,13.071,1.695c28.263,0,51.257-22.994,51.257-51.257   s-22.994-51.256-51.257-51.256c-3.929,0-7.751,0.459-11.429,1.301c-0.479-1.175-1.145-2.292-2.002-3.309   c4.36-1.096,8.852-1.653,13.43-1.653c30.282,0,54.918,24.636,54.918,54.918c0,28.204-13.71,44.845-44.454,53.956   c-0.037,0.011-0.075,0.021-0.112,0.033L93.757,412.368c-3.953,1.239-6.153,5.447-4.914,9.4c1.005,3.206,3.963,5.259,7.155,5.259   c0.743,0,1.499-0.111,2.245-0.345l348.681-109.271c37.103-11.012,55.139-33.36,55.139-68.321   C502.063,210.538,470.697,179.173,432.145,179.173z M468.401,249.091c0,19.992-16.265,36.257-36.257,36.257   c-19.991,0-36.256-16.265-36.256-36.257c0-19.991,16.265-36.256,36.256-36.256C452.137,212.835,468.401,229.099,468.401,249.091z"/>
	<path style="fill:#36353A;" d="M413.97,267.265c5.011,5.011,11.593,7.516,18.175,7.516s13.164-2.505,18.175-7.516   c10.021-10.021,10.021-26.328,0-36.35c-10.021-10.021-26.328-10.021-36.35,0C403.949,240.937,403.949,257.244,413.97,267.265z    M424.577,241.523c2.086-2.087,4.827-3.13,7.567-3.13s5.481,1.043,7.567,3.13c4.173,4.173,4.173,10.962,0,15.135   c-4.172,4.174-10.963,4.174-15.135,0C420.404,252.485,420.404,245.696,424.577,241.523z"/>
</g>
<g>
</g>
<g>
</g>
<g>
</g>
<g>
</g>
<g>
</g>
<g>
</g>
<g>
</g>
<g>
</g>
<g>
</g>
<g>
</g>
<g>
</g>
<g>
</g>
<g>
</g>
<g>
</g>
<g>
</g>
</svg>
