<?xml version="1.0" encoding="iso-8859-1"?>
<!-- Generator: Adobe Illustrator 19.0.0, SVG Export Plug-In . SVG Version: 6.00 Build 0)  -->
<svg xmlns="http://www.w3.org/2000/svg" xmlns:xlink="http://www.w3.org/1999/xlink" version="1.1" id="Capa_1" x="0px" y="0px" viewBox="0 0 512.003 512.003" style="enable-background:new 0 0 512.003 512.003;" xml:space="preserve">
<g>
	<g>
		<path style="fill:#CCCCCC;" d="M337.974,38.148L473.88,174.056c37.531-37.529,37.531-98.377,0-135.91    C436.351,0.618,375.504,0.618,337.974,38.148z"/>
		<path style="fill:#CCCCCC;" d="M473.88,174.057L337.974,38.148c-18.107,18.107-27.475,41.645-28.109,65.371l98.645,98.646    C432.235,201.532,455.773,192.163,473.88,174.057z"/>
	</g>
	<path style="fill:#808080;" d="M408.51,202.165l-98.645-98.646C98.737,325.253,35.153,417.477,64.852,447.177   c28.194,28.193,112.736-27.68,310.932-214.038C386.364,223.188,397.27,212.866,408.51,202.165z"/>
</g>
<path d="M487.686,173.721c34.49-41.639,32.249-103.658-6.734-142.645C460.912,11.037,434.268,0,405.929,0  c-24.982,0-48.643,8.58-67.627,24.338l-2.488-2.488c-3.905-3.906-10.236-3.905-14.142,0c-3.904,3.905-3.904,10.236,0.001,14.143  l2.489,2.488c-14.27,17.217-22.688,38.395-24.109,60.846C194.305,210.489,127.161,287.522,88.888,341.582  C63.896,376.884,38.21,419.509,51.81,446.078L2.958,494.931c-3.905,3.905-3.904,10.237,0,14.143  c1.953,1.952,4.512,2.929,7.071,2.929s5.118-0.977,7.071-2.929l48.849-48.85c4.975,2.552,10.687,3.839,17.079,3.84  c0.004,0,0.002,0,0.006,0c24.233,0,60.577-19.363,114.365-60.929c45.816-35.405,106.701-88.886,185.426-162.898  c0.01-0.01,0.021-0.018,0.031-0.027c0.002-0.002,0.004-0.005,0.006-0.008c9.674-9.095,19.621-18.504,29.839-28.224  c22.45-1.421,43.63-9.839,60.849-24.11l2.49,2.49c1.953,1.953,4.512,2.93,7.07,2.93c2.56,0,5.119-0.977,7.072-2.93  c3.904-3.905,3.904-10.236-0.001-14.143L487.686,173.721z M405.929,20c22.998,0,44.619,8.957,60.881,25.218  c31.178,31.181,33.381,80.507,6.647,114.272L352.534,38.57C367.683,26.546,386.298,20,405.929,20z M375.999,219.211l-29.234-29.232  c-3.904-3.905-10.236-3.904-14.142,0c-3.905,3.906-3.905,10.237,0.001,14.143l28.805,28.803  C249.298,338.131,128.03,444.064,83.031,444.064c-6.409-0.001-9.409-2.259-11.106-3.958c-7.555-7.555-7.913-28.775,33.285-86.967  c37.166-52.495,102.359-127.395,204.834-235.297l84.145,84.145C388.174,207.699,382.104,213.447,375.999,219.211z M412.442,191.955  l-92.368-92.367c1.292-17.207,7.675-33.44,18.319-46.874l120.923,120.921C445.882,184.281,429.648,190.665,412.442,191.955z"/>
<path d="M312.138,183.64l0.169,0.169c1.952,1.953,4.513,2.929,7.071,2.929s5.119-0.976,7.071-2.929  c3.905-3.905,3.905-10.237,0-14.143l-0.169-0.169c-3.905-3.905-10.237-3.905-14.142,0  C308.233,173.402,308.233,179.734,312.138,183.64z"/>
<g>
</g>
<g>
</g>
<g>
</g>
<g>
</g>
<g>
</g>
<g>
</g>
<g>
</g>
<g>
</g>
<g>
</g>
<g>
</g>
<g>
</g>
<g>
</g>
<g>
</g>
<g>
</g>
<g>
</g>
</svg>
