<?xml version="1.0" encoding="iso-8859-1"?>
<!-- Generator: Adobe Illustrator 19.0.0, SVG Export Plug-In . SVG Version: 6.00 Build 0)  -->
<svg xmlns="http://www.w3.org/2000/svg" xmlns:xlink="http://www.w3.org/1999/xlink" version="1.1" id="Capa_1" x="0px" y="0px" viewBox="0 0 511.999 511.999" style="enable-background:new 0 0 511.999 511.999;" xml:space="preserve">
<path style="fill:#D8362A;" d="M363.237,196.271c9.21-1.82,16.182-10.303,16.182-20.51c0-11.534-8.898-20.884-19.874-20.884  c-7.698,0-14.359,4.607-17.66,11.333l-41.675-39.154c2.251-7.42,3.502-15.527,3.502-24.029c0-35.286-21.363-63.89-47.715-63.89  s-47.715,28.605-47.715,63.89c0,8.502,1.251,16.61,3.502,24.029l-41.675,39.154c-3.301-6.726-9.963-11.333-17.661-11.333  c-10.976,0-19.874,9.35-19.874,20.884c0,10.207,6.972,18.69,16.182,20.51v276.216c0,2.843-2.305,5.147-5.147,5.147h-3.88  c-2.843,0-5.147,2.305-5.147,5.147v24.067c0,2.843,2.305,5.147,5.147,5.147h232.532c2.843,0,5.147-2.305,5.147-5.147v-24.067  c0-2.843-2.305-5.147-5.147-5.147h-3.88c-2.843,0-5.147-2.305-5.147-5.147L363.237,196.271L363.237,196.271z"/>
<path style="fill:#B72020;" d="M368.386,477.636h3.881c2.843,0,5.147,2.305,5.147,5.147v24.069c0,2.843-2.305,5.147-5.147,5.147  h-46.265l0.174-325.137c0-0.874-0.37-1.708-1.018-2.294l-20.332-18.362l-39.403-37.018c-1.366-1.283-1.932-3.206-1.457-5.019  c1.732-6.62,2.687-13.729,2.687-21.143c0-26.489-12.035-49.21-29.186-58.887c5.693-3.222,11.963-5.003,18.531-5.003  c26.355,0,47.717,28.599,47.717,63.889c0,8.503-1.256,16.606-3.5,24.028l41.674,39.152c3.294-6.723,9.955-11.335,17.656-11.335  c10.974,0,19.879,9.358,19.879,20.888c0,10.202-6.98,18.685-16.184,20.508v276.221C363.239,475.331,365.543,477.636,368.386,477.636  z"/>
<path style="fill:#36353A;" d="M296.114,55.934H215.88c-2.843,0-5.147-2.305-5.147-5.147V5.147c0-2.843,2.305-5.147,5.147-5.147  h80.234c2.843,0,5.147,2.305,5.147,5.147v45.639C301.261,53.63,298.957,55.934,296.114,55.934z"/>
<path style="fill:#2D2C30;" d="M296.114,55.934h-22.616V0h22.616c2.843,0,5.147,2.305,5.147,5.147v45.639  C301.261,53.63,298.957,55.934,296.114,55.934z"/>
<rect x="148.757" y="233.738" style="fill:#36353A;" width="214.478" height="214.478"/>
<rect x="326.096" y="233.738" style="fill:#2D2C30;" width="37.14" height="214.478"/>
<g>
</g>
<g>
</g>
<g>
</g>
<g>
</g>
<g>
</g>
<g>
</g>
<g>
</g>
<g>
</g>
<g>
</g>
<g>
</g>
<g>
</g>
<g>
</g>
<g>
</g>
<g>
</g>
<g>
</g>
</svg>
