<?xml version="1.0" encoding="iso-8859-1"?>
<!-- Generator: Adobe Illustrator 19.0.0, SVG Export Plug-In . SVG Version: 6.00 Build 0)  -->
<svg xmlns="http://www.w3.org/2000/svg" xmlns:xlink="http://www.w3.org/1999/xlink" version="1.1" id="Capa_1" x="0px" y="0px" viewBox="0 0 511.999 511.999" style="enable-background:new 0 0 511.999 511.999;" xml:space="preserve">
<g>
	<path style="fill:#DAE3E4;" d="M22.126,49.998h228.943V38.403C251.069,22.78,238.288,10,222.666,10H50.532   c-15.625,0-28.406,12.78-28.406,28.403V49.998z"/>
	<polygon style="fill:#27D8A9;" points="251.069,49.998 22.126,49.998 22.126,93.396 22.126,184.452 251.069,184.452    251.069,144.647  "/>
	<path style="fill:#DAE3E4;" d="M251.069,184.452H22.126v200.535c0,15.623,12.781,28.406,28.406,28.406H194.39h28.276   c15.622,0,28.403-12.783,28.403-28.406V184.452L251.069,184.452z M63.997,298.922c0-40.094,32.505-72.6,72.599-72.6   c40.097,0,72.602,32.506,72.602,72.6c0,40.095-32.505,72.6-72.602,72.6C96.502,371.522,63.997,339.017,63.997,298.922z"/>
	<path style="fill:#9ADFEF;" d="M209.197,298.922c0-40.094-32.505-72.6-72.602-72.6c-40.094,0-72.599,32.506-72.599,72.6   c0,40.095,32.505,72.6,72.599,72.6C176.692,371.522,209.197,339.017,209.197,298.922L209.197,298.922z M136.596,278.196   c11.448,0,20.726,9.279,20.726,20.726c0,11.446-9.277,20.725-20.726,20.725c-11.444,0-20.724-9.279-20.724-20.725   S125.151,278.196,136.596,278.196z"/>
	<g>
		<circle style="fill:#DAE3E4;" cx="136.599" cy="298.92" r="20.725"/>
		<path style="fill:#DAE3E4;" d="M319.872,36.563v75.004c0,10.998,8.999,19.997,20,19.997c11,0,19.999-8.999,19.999-19.997V40.623    v-4.061c0-11.003-8.999-20.002-19.999-20.002C328.871,16.56,319.872,25.559,319.872,36.563z"/>
	</g>
	<path style="fill:#9ADFEF;" d="M359.871,40.623c0,12.376,10.126,22.502,22.501,22.502h22.5V10h-22.5   c-12.375,0-22.501,10.123-22.501,22.499v4.063V40.623z"/>
	<path style="fill:#DAE3E4;" d="M424.871,160.893c-11.001,0-19.999,8.999-19.999,20.002v75.004c0,10.998,8.998,19.997,19.999,19.997   s19.999-8.999,19.999-19.997v-70.943v-4.061C444.87,169.892,435.872,160.893,424.871,160.893z"/>
	<path style="fill:#9ADFEF;" d="M467.37,154.332c-12.374,0-22.5,10.123-22.5,22.499v4.064v4.061c0,12.376,10.126,22.502,22.5,22.502   h22.502v-53.125L467.37,154.332L467.37,154.332z"/>
</g>
<path d="M489.872,144.332H467.37c-10.176,0-19.272,4.704-25.234,12.049c-4.887-3.451-10.84-5.488-17.265-5.488  c-16.542,0-29.999,13.459-29.999,30.002v75.004c0,13.035,8.36,24.149,19.999,28.277v60.083c0,37.963-28.358,69.407-64.999,74.313  V139.844c11.639-4.128,19.999-15.242,19.999-28.277V70.621c3.851,1.611,8.073,2.504,12.501,2.504h22.5c5.523,0,10-4.477,10-10V10  c0-5.523-4.477-10-10-10h-22.5c-10.177,0-19.272,4.705-25.236,12.05c-4.886-3.452-10.84-5.489-17.264-5.489  c-16.542,0-30,13.459-30,30.002v75.004c0,13.035,8.361,24.149,20,28.277v289.415c0,34.596-28.146,62.741-62.74,62.741  c-34.596,0-62.742-28.146-62.742-62.741v-5.865h18.276c21.176,0,38.403-17.228,38.403-38.406V38.403  C261.069,17.228,243.842,0,222.666,0H50.532C29.354,0,12.126,17.228,12.126,38.403v346.584c0,21.178,17.229,38.406,38.406,38.406  H184.39v5.865c0,45.624,37.118,82.741,82.742,82.741c42.398,0,77.43-32.061,82.174-73.209c47.971-4.751,85.565-45.333,85.565-94.532  v-60.083c11.639-4.128,19.999-15.242,19.999-28.277v-40.945c3.851,1.61,8.072,2.504,12.5,2.504h22.502c5.522,0,10-4.477,10-10  v-53.125C499.872,148.809,495.394,144.332,489.872,144.332z M32.126,103.396h36.349c5.522,0,10-4.477,10-10s-4.478-10-10-10H32.126  V59.998h208.943v74.649h-41.035c-5.524,0-10,4.478-10,10c0,5.523,4.476,10,10,10h41.035v19.805H32.126V103.396z M50.532,20h172.134  c10.148,0,18.403,8.256,18.403,18.403v1.595H32.126v-1.595C32.126,28.256,40.384,20,50.532,20z M32.126,384.987V194.452h208.943  v190.535c0,10.149-8.256,18.406-18.403,18.406H50.532C40.384,403.393,32.126,395.137,32.126,384.987z M369.871,32.499  c0-6.892,5.608-12.499,12.501-12.499h12.5v33.125h-12.5c-6.893,0-12.501-5.608-12.501-12.502v-4.061V32.499z M329.872,36.563  c0-5.515,4.486-10.002,10-10.002s9.999,4.487,9.999,10.002v4.061v70.943c0,5.512-4.485,9.997-9.999,9.997s-10-4.485-10-9.997V36.563  z M414.872,180.895c0-5.516,4.485-10.002,9.999-10.002s9.999,4.486,9.999,10.002v4.061v70.943c0,5.512-4.485,9.997-9.999,9.997  s-9.999-4.485-9.999-9.997V180.895z M479.872,197.457H467.37c-6.893,0-12.5-5.608-12.5-12.502v-4.061v-4.064  c0-6.892,5.607-12.499,12.5-12.499h12.502V197.457z"/>
<path d="M171.305,134.651h-0.238c-5.522,0-10,4.478-10,10s4.478,10,10,10h0.238c5.523,0,10-4.478,10-10  S176.827,134.651,171.305,134.651z"/>
<path d="M97.442,83.4h-0.238c-5.523,0-10,4.477-10,10s4.477,10,10,10h0.238c5.522,0,10-4.477,10-10S102.965,83.4,97.442,83.4z"/>
<path d="M219.197,298.922c0-45.545-37.054-82.6-82.599-82.6c-45.546,0-82.6,37.055-82.6,82.6c0,45.546,37.054,82.6,82.6,82.6  S219.197,344.468,219.197,298.922z M136.599,361.522c-34.518,0-62.6-28.082-62.6-62.6s28.082-62.6,62.6-62.6  c34.517,0,62.599,28.082,62.599,62.6C199.197,333.439,171.115,361.522,136.599,361.522z"/>
<path d="M136.599,268.196c-16.941,0-30.725,13.783-30.725,30.726c0,16.942,13.783,30.725,30.725,30.725s30.725-13.783,30.725-30.725  C167.323,281.979,153.54,268.196,136.599,268.196z M136.599,309.647c-5.914,0-10.725-4.811-10.725-10.725  s4.811-10.726,10.725-10.726s10.725,4.812,10.725,10.726C147.323,304.836,142.513,309.647,136.599,309.647z"/>
<g>
</g>
<g>
</g>
<g>
</g>
<g>
</g>
<g>
</g>
<g>
</g>
<g>
</g>
<g>
</g>
<g>
</g>
<g>
</g>
<g>
</g>
<g>
</g>
<g>
</g>
<g>
</g>
<g>
</g>
</svg>
