<?xml version="1.0" encoding="iso-8859-1"?>
<!-- Generator: Adobe Illustrator 19.0.0, SVG Export Plug-In . SVG Version: 6.00 Build 0)  -->
<svg xmlns="http://www.w3.org/2000/svg" xmlns:xlink="http://www.w3.org/1999/xlink" version="1.1" id="Capa_1" x="0px" y="0px" viewBox="0 0 512 512" style="enable-background:new 0 0 512 512;" xml:space="preserve">
<path style="fill:#F0BEB4;" d="M342.126,121.597c-12.902-2.469-25.479,6.068-27.948,18.971l-0.876,4.579h-0.411l4.36-22.787  c2.469-12.902-6.068-25.479-18.971-27.948l0,0c-12.902-2.469-25.479,6.068-27.948,18.971l15.707-84.366  c2.487-13.198-6.276-26.032-19.475-28.52l0,0c-13.198-2.487-26.032,6.276-28.52,19.475l-19.9,105.594L198.819,19.771  C196.13,6.612,183.163-1.954,170.004,0.735l0,0c-13.158,2.689-21.725,15.656-19.036,28.815l27.139,133.564v52.826  c0,29.208,15.807,55.086,39.712,70.336V512h100.592V285.501c23.239-15.343,38.524-40.84,38.524-69.561v-41.494l4.161-24.9  C363.566,136.643,355.03,124.065,342.126,121.597z"/>
<g>
	<path style="fill:#E5A195;" d="M356.935,174.444l4.167-24.901c2.464-12.896-6.073-25.479-18.981-27.943   c-5.019-0.963-9.997-0.253-14.346,1.734c9.774,4.471,15.655,15.229,13.555,26.209l-4.167,24.901v41.498   c0,23.3-10.058,44.48-26.26,59.84c-14.012,13.272-32.607,22.195-53.27,24.374c3.244,0.345,6.539,0.517,9.885,0.517   c9.323,0,18.323-1.376,26.791-3.915v215.241h24.102V285.487c4.383-2.894,8.495-6.133,12.263-9.703   c16.203-15.361,26.26-36.54,26.26-59.84"/>
	<path style="fill:#E5A195;" d="M225.303,163.118h-7.526l-11.161-0.002L180.047,19.767c-1.674-8.189-7.346-14.612-14.572-17.636   c1.431-0.609,2.943-1.075,4.525-1.4c13.16-2.689,26.129,5.885,28.818,19.036L225.303,163.118z"/>
	<path style="fill:#E5A195;" d="M317.774,117.91c0,1.481-0.142,2.973-0.426,4.475l-11.669,60.994   c-2.476,12.917-15.059,21.461-27.976,18.986c-1.908-0.365-3.724-0.954-5.408-1.725c-1.705-0.771-3.277-1.745-4.718-2.861   l-0.578-0.842c9.944-1.309,18.428-8.858,20.416-19.209l11.669-60.994c0.284-1.502,0.426-2.993,0.426-4.475   c0-7.052-3.156-13.648-8.32-18.113c2.334-0.274,4.749-0.203,7.174,0.264C309.778,96.6,317.774,106.677,317.774,117.91z"/>
	<path style="fill:#E5A195;" d="M286.918,169.086c-2.038,12.092-10.857,39.044-49.007,47.083   c18.401-11.536,23.68-28.805,25.193-37.82c0.535-3.128-1.904-5.969-5.073-5.969h-79.922v-9.262h103.736   C285.014,163.118,287.453,165.958,286.918,169.086z"/>
	<path style="fill:#E5A195;" d="M286.115,28.97l-24.627,130.625l-0.416,3.521h-14.206l0.416-3.521L271.91,28.97   c2.324-12.328-5.155-24.333-16.906-27.905C257.267,0.375,259.661,0,262.107,0c1.492,0,3.003,0.142,4.515,0.426   C279.834,2.912,288.601,15.759,286.115,28.97z"/>
</g>
<path style="fill:#FF8A33;" d="M340.902,382.506h-146.02c-2.759,0-4.996-2.237-4.996-4.996v-37.193c0-2.759,2.237-4.996,4.996-4.996  h146.02c2.759,0,4.996,2.237,4.996,4.996v37.193C345.898,380.269,343.661,382.506,340.902,382.506z"/>
<path style="fill:#ED7829;" d="M340.902,382.506h-47.195v-47.186h47.195c2.759,0,4.996,2.237,4.996,4.996v37.193  C345.898,380.269,343.661,382.506,340.902,382.506z"/>
<g>
	<circle style="fill:#36353A;" cx="216.178" cy="358.913" r="8.578"/>
	<circle style="fill:#36353A;" cx="250.659" cy="358.913" r="8.578"/>
	<circle style="fill:#36353A;" cx="285.13" cy="358.913" r="8.578"/>
	<circle style="fill:#36353A;" cx="319.601" cy="358.913" r="8.578"/>
</g>
<g>
</g>
<g>
</g>
<g>
</g>
<g>
</g>
<g>
</g>
<g>
</g>
<g>
</g>
<g>
</g>
<g>
</g>
<g>
</g>
<g>
</g>
<g>
</g>
<g>
</g>
<g>
</g>
<g>
</g>
</svg>
