<?xml version="1.0" encoding="iso-8859-1"?>
<!-- Generator: Adobe Illustrator 19.0.0, SVG Export Plug-In . SVG Version: 6.00 Build 0)  -->
<svg xmlns="http://www.w3.org/2000/svg" xmlns:xlink="http://www.w3.org/1999/xlink" version="1.1" id="Capa_1" x="0px" y="0px" viewBox="0 0 512.004 512.004" style="enable-background:new 0 0 512.004 512.004;" xml:space="preserve">
<path style="fill:#FFD15C;" d="M335.665,199.708h-8.124H184.458h-8.124H5.242c-4.097,0-6.605,4.496-4.453,7.982l4.18,6.771  c9.758,15.808,27.01,25.432,45.587,25.432l4.189,0.406l6.895,14.753c7.387,15.808,20.447,25.432,34.51,25.432h17.883l4.666,14.753  c5,15.808,13.839,25.432,23.357,25.432h34.282h61.855h35.623h61.855h34.282c9.518,0,18.357-9.624,23.357-25.432l4.666-14.753h17.883  c14.063,0,27.123-9.624,34.51-25.432l6.895-14.753l4.189-0.406c18.577,0,35.828-9.624,45.587-25.432l4.18-6.771  c2.152-3.487-0.356-7.982-4.453-7.982L335.665,199.708L335.665,199.708z"/>
<g>
	<path style="fill:#E8B44D;" d="M5.242,199.713c-4.098,0-6.606,4.496-4.453,7.983l4.177,6.765   c9.755,15.805,27.004,25.434,45.582,25.434l4.187,0.408l6.897,14.748c7.389,15.815,20.452,25.434,34.509,25.434h17.887   l4.668,14.758c4.993,15.805,13.837,25.424,23.351,25.424h79.891c-9.514,0-18.359-9.619-23.351-25.424l-4.668-14.758H176.03   c-14.057,0-27.119-9.619-34.508-25.434l-6.898-14.748l-4.187-0.408c-18.578,0-35.827-9.629-45.582-25.434l-9.106-14.748H5.242z"/>
	<path style="fill:#E8B44D;" d="M506.754,199.713c4.098,0,6.606,4.496,4.453,7.983l-4.177,6.765   c-9.755,15.805-27.004,25.434-45.582,25.434l-4.187,0.408l-6.897,14.748c-7.389,15.815-20.452,25.434-34.509,25.434h-17.887   l-4.668,14.758c-4.993,15.805-13.837,25.424-23.351,25.424h-79.891c9.514,0,18.359-9.619,23.351-25.424l4.668-14.758h17.888   c14.057,0,27.119-9.619,34.509-25.434l6.898-14.748l4.187-0.408c18.578,0,35.827-9.629,45.582-25.434l9.106-14.748H506.754z"/>
</g>
<path style="fill:#D8362A;" d="M367.279,222.851c0-36.155-26.839-65.464-59.947-65.464c-21.773,0-40.833,12.677-51.333,31.639  c-10.5-18.963-29.56-31.639-51.333-31.639c-33.108,0-59.947,29.31-59.947,65.464c0,0-10.18,99.896,111.278,131.766H256h0.001  C377.459,322.747,367.279,222.851,367.279,222.851z"/>
<g>
	<path style="fill:#B72020;" d="M350.754,289.433c-14.873,25.413-42.735,51.538-94.754,65.185   c-7.212-1.894-13.963-4.03-20.284-6.364c39.219-14.517,61.659-36.937,74.469-58.823c19.855-33.922,16.527-66.577,16.527-66.577   c0-28.386-16.537-52.543-39.658-61.617c6.332-2.502,13.157-3.852,20.274-3.852c33.116,0,59.953,29.307,59.953,65.468   C367.281,222.854,370.609,255.51,350.754,289.433z"/>
	<circle style="fill:#B72020;" cx="210.368" cy="189.751" r="8.985"/>
	<circle style="fill:#B72020;" cx="178.278" cy="218.8" r="8.985"/>
</g>
<g>
	<path style="fill:#E8B44D;" d="M161.412,107.87c1.454,2.519,4.093,3.926,6.805,3.926c1.332,0,2.682-0.339,3.918-1.053   c3.754-2.168,5.041-6.969,2.873-10.723L141.735,42.39c-2.169-3.755-6.97-5.04-10.723-2.873c-3.754,2.168-5.041,6.969-2.873,10.723   L161.412,107.87z"/>
	<path style="fill:#E8B44D;" d="M350.588,404.135c-2.168-3.754-6.971-5.04-10.723-2.873c-3.754,2.168-5.041,6.969-2.873,10.723   l33.273,57.631c1.454,2.519,4.093,3.926,6.805,3.926c1.332,0,2.682-0.339,3.918-1.053c3.754-2.168,5.041-6.969,2.873-10.723   L350.588,404.135z"/>
	<path style="fill:#E8B44D;" d="M42.388,141.737l57.631,33.273c1.237,0.713,2.586,1.053,3.918,1.053   c2.713,0,5.352-1.407,6.805-3.926c2.168-3.754,0.881-8.555-2.873-10.723L50.237,128.14c-3.756-2.167-8.556-0.882-10.723,2.873   C37.346,134.768,38.633,139.569,42.388,141.737z"/>
	<path style="fill:#E8B44D;" d="M469.613,370.268l-57.631-33.273c-3.757-2.168-8.557-0.882-10.723,2.873   c-2.168,3.754-0.881,8.555,2.873,10.723l57.631,33.273c1.237,0.713,2.586,1.053,3.918,1.053c2.713,0,5.352-1.407,6.805-3.926   C474.654,377.236,473.367,372.435,469.613,370.268z"/>
	<path style="fill:#E8B44D;" d="M172.134,401.262c-3.757-2.168-8.556-0.882-10.723,2.873l-33.274,57.631   c-2.168,3.754-0.881,8.555,2.873,10.723c1.237,0.713,2.586,1.053,3.918,1.053c2.713,0,5.352-1.408,6.805-3.926l33.273-57.631   C177.175,408.231,175.888,403.43,172.134,401.262z"/>
	<path style="fill:#E8B44D;" d="M339.865,110.743c1.237,0.713,2.586,1.053,3.918,1.053c2.713,0,5.352-1.407,6.805-3.926   l33.273-57.631c2.168-3.754,0.881-8.555-2.873-10.723c-3.756-2.167-8.557-0.882-10.723,2.873l-33.273,57.631   C334.824,103.774,336.111,108.575,339.865,110.743z"/>
	<path style="fill:#E8B44D;" d="M256,88.271c4.336,0,7.85-3.514,7.85-7.85V13.875c0-4.336-3.514-7.85-7.85-7.85   c-4.336,0-7.85,3.514-7.85,7.85v66.546C248.15,84.757,251.664,88.271,256,88.271z"/>
	<path style="fill:#E8B44D;" d="M256,423.733c-4.336,0-7.85,3.514-7.85,7.85v66.546c0,4.336,3.514,7.85,7.85,7.85   c4.336,0,7.85-3.514,7.85-7.85v-66.546C263.85,427.247,260.336,423.733,256,423.733z"/>
	<path style="fill:#E8B44D;" d="M100.018,336.994l-57.631,33.273c-3.754,2.168-5.041,6.969-2.873,10.723   c1.454,2.519,4.093,3.926,6.805,3.926c1.332,0,2.682-0.339,3.918-1.053l57.631-33.273c3.754-2.168,5.041-6.969,2.873-10.723   C108.572,336.112,103.771,334.827,100.018,336.994z"/>
	<path style="fill:#E8B44D;" d="M408.065,176.063c1.332,0,2.682-0.339,3.918-1.053l57.631-33.273   c3.754-2.168,5.041-6.969,2.873-10.723c-2.169-3.755-6.97-5.039-10.723-2.873l-57.631,33.274   c-3.754,2.168-5.041,6.969-2.873,10.723C402.714,174.656,405.352,176.063,408.065,176.063z"/>
</g>
<circle style="fill:#B72020;" cx="212.288" cy="227.23" r="8.985"/>
<g>
</g>
<g>
</g>
<g>
</g>
<g>
</g>
<g>
</g>
<g>
</g>
<g>
</g>
<g>
</g>
<g>
</g>
<g>
</g>
<g>
</g>
<g>
</g>
<g>
</g>
<g>
</g>
<g>
</g>
</svg>
