<?xml version="1.0" encoding="iso-8859-1"?>
<!-- Generator: Adobe Illustrator 19.0.0, SVG Export Plug-In . SVG Version: 6.00 Build 0)  -->
<svg xmlns="http://www.w3.org/2000/svg" xmlns:xlink="http://www.w3.org/1999/xlink" version="1.1" id="Capa_1" x="0px" y="0px" viewBox="0 0 512 512" style="enable-background:new 0 0 512 512;" xml:space="preserve">
<g>
	<path style="fill:#DAE3E4;" d="M22.127,60.896h228.945V38.404C251.073,22.781,238.29,10,222.667,10H50.533   C34.91,10,22.127,22.781,22.127,38.404V60.896z"/>
	<path style="fill:#27D8A9;" d="M251.073,60.896H22.127V103.4v244.996h228.945v-51.138L251.073,60.896L251.073,60.896z    M144.892,183.175h47.758l-92.201,114.087l21.323-80.384l-41.221,2.114l22.552-76.944l67.658-15.918L144.892,183.175z"/>
	<polygon style="fill:#F7A139;" points="170.761,126.13 103.103,142.048 80.551,218.993 121.772,216.878 100.448,297.262    192.65,183.175 144.892,183.175  "/>
	<g>
		<path style="fill:#DAE3E4;" d="M251.073,348.396H22.127v36.592c0,15.623,12.783,28.406,28.406,28.406h143.86h28.273    c15.623,0,28.405-12.783,28.405-28.406v-36.592H251.073z"/>
		<path style="fill:#DAE3E4;" d="M319.875,111.567c0,10.999,8.999,19.995,20,19.995c11,0,19.999-8.996,19.999-19.995V40.623v-4.061    c0-11.002-8.999-20.001-19.999-20.001c-11.001,0-20,8.999-20,20.001V111.567z"/>
	</g>
	<path style="fill:#9ADFEF;" d="M359.874,40.623c0,12.376,10.126,22.499,22.499,22.499h22.502V10h-22.502   C370,10,359.874,20.123,359.874,32.499v4.063V40.623z"/>
	<path style="fill:#DAE3E4;" d="M424.874,160.894c-11,0-19.999,8.998-19.999,20v75.005c0,10.998,8.999,19.995,19.999,19.995   c11.001,0,19.999-8.997,19.999-19.995v-70.943v-4.061C444.873,169.892,435.875,160.894,424.874,160.894z"/>
	<path style="fill:#9ADFEF;" d="M467.373,154.331c-12.376,0-22.5,10.124-22.5,22.5v4.063v4.061c0,12.376,10.124,22.501,22.5,22.501   h22.5v-53.125H467.373z"/>
</g>
<path d="M201.673,178.864c-1.66-3.477-5.171-5.69-9.023-5.69h-32.242l19.461-42.913c1.574-3.472,1.038-7.536-1.383-10.48  c-2.42-2.944-6.303-4.255-10.015-3.384l-67.658,15.918c-3.504,0.824-6.294,3.467-7.307,6.922L70.954,216.18  c-0.911,3.109-0.259,6.468,1.749,9.011s5.133,3.951,8.359,3.789l27.528-1.412l-17.807,67.131c-1.21,4.56,0.934,9.347,5.142,11.481  c1.44,0.73,2.987,1.083,4.52,1.083c2.945,0,5.832-1.301,7.782-3.715l92.199-114.09C202.849,186.462,203.334,182.34,201.673,178.864z   M122.133,254.523l9.305-35.08c0.818-3.088,0.113-6.381-1.899-8.863c-1.903-2.348-4.761-3.701-7.766-3.701  c-0.171,0-0.342,0.005-0.513,0.014l-27.149,1.393l16.951-57.836l42.192-9.927l-17.47,38.52c-1.403,3.096-1.139,6.692,0.702,9.549  c1.841,2.855,5.007,4.582,8.405,4.582h26.819L122.133,254.523z"/>
<path d="M489.873,144.331h-22.5c-10.177,0-19.271,4.705-25.235,12.051c-4.886-3.452-10.84-5.488-17.264-5.488  c-16.542,0-29.999,13.458-29.999,30v75.005c0,13.034,8.36,24.147,19.999,28.275v60.085c0,37.963-28.358,69.406-64.999,74.314  v-278.73c11.639-4.128,19.999-15.241,19.999-28.275V70.62c3.85,1.61,8.071,2.503,12.499,2.503h22.502c5.522,0,10-4.476,10-10V10  c0-5.523-4.478-10-10-10h-22.502c-10.176,0-19.271,4.705-25.234,12.05c-4.886-3.452-10.84-5.488-17.264-5.488  c-16.542,0-30,13.459-30,30.001v75.004c0,13.034,8.361,24.147,20,28.275v289.417c0,34.596-28.146,62.741-62.74,62.741  c-34.596,0-62.741-28.146-62.741-62.741v-5.865h18.273c21.177,0,38.405-17.228,38.405-38.406V38.404  C261.073,17.228,243.844,0,222.667,0H50.533C29.356,0,12.127,17.228,12.127,38.404v346.584c0,21.178,17.229,38.406,38.406,38.406  h133.86v5.865c0,45.623,37.117,82.741,82.741,82.741c42.397,0,77.43-32.062,82.174-73.209c47.971-4.751,85.565-45.333,85.565-94.532  v-60.085c11.639-4.128,19.999-15.241,19.999-28.275v-40.945c3.851,1.61,8.072,2.503,12.5,2.503h22.5c5.522,0,10-4.477,10-10v-53.125  C499.873,148.809,495.396,144.331,489.873,144.331z M32.127,113.4h36.351c5.522,0,10-4.477,10-10c0-5.522-4.478-10-10-10H32.127  V70.896h208.945v216.362h-41.035c-5.523,0-10,4.477-10,10c0,5.522,4.477,10,10,10h41.035v31.138H32.127V113.4z M50.533,20h172.134  c10.148,0,18.405,8.256,18.405,18.404v12.492H32.127V38.404C32.127,28.256,40.384,20,50.533,20z M32.127,384.988v-26.592h208.945  v26.592c0,10.149-8.257,18.406-18.405,18.406H50.533C40.384,403.394,32.127,395.137,32.127,384.988z M369.874,32.499  c0-6.892,5.607-12.499,12.499-12.499h12.502v33.123h-12.502c-6.892,0-12.499-5.607-12.499-12.5v-4.061V32.499z M329.875,36.562  c0-5.515,4.486-10.001,10-10.001s9.999,4.486,9.999,10.001v4.061v70.943c0,5.511-4.485,9.995-9.999,9.995s-10-4.484-10-9.995V36.562  z M414.875,180.894c0-5.514,4.485-10,9.999-10s9.999,4.486,9.999,10v4.061v70.943c0,5.511-4.485,9.995-9.999,9.995  s-9.999-4.484-9.999-9.995V180.894z M479.873,197.456h-12.5c-6.893,0-12.5-5.607-12.5-12.501v-4.061v-4.063  c0-6.893,5.607-12.5,12.5-12.5h12.5V197.456z"/>
<path d="M144.066,370.893c-5.507,0-9.999,4.492-9.999,10.002c0,5.507,4.492,9.999,9.999,9.999c5.508,0,10-4.492,10-9.999  C154.066,375.385,149.573,370.893,144.066,370.893z"/>
<path d="M171.308,287.262h-0.238c-5.522,0-10,4.477-10,10c0,5.522,4.478,10,10,10h0.238c5.523,0,10-4.478,10-10  S176.83,287.262,171.308,287.262z"/>
<path d="M97.207,113.404h0.238c5.522,0,10-4.477,10-10s-4.478-10-10-10h-0.238c-5.522,0-10,4.477-10,10  S91.685,113.404,97.207,113.404z"/>
<g>
</g>
<g>
</g>
<g>
</g>
<g>
</g>
<g>
</g>
<g>
</g>
<g>
</g>
<g>
</g>
<g>
</g>
<g>
</g>
<g>
</g>
<g>
</g>
<g>
</g>
<g>
</g>
<g>
</g>
</svg>
