<?xml version="1.0" encoding="iso-8859-1"?>
<!-- Generator: Adobe Illustrator 19.0.0, SVG Export Plug-In . SVG Version: 6.00 Build 0)  -->
<svg xmlns="http://www.w3.org/2000/svg" xmlns:xlink="http://www.w3.org/1999/xlink" version="1.1" id="Capa_1" x="0px" y="0px" viewBox="0 0 512 512" style="enable-background:new 0 0 512 512;" xml:space="preserve">
<path style="fill:#58595B;" d="M506.853,412.732H5.147c-2.843,0-5.147-2.305-5.147-5.147v-303.17c0-2.843,2.305-5.147,5.147-5.147  h501.705c2.843,0,5.147,2.305,5.147,5.147v303.169C512,410.428,509.695,412.732,506.853,412.732z"/>
<path style="fill:#424A4C;" d="M506.853,412.732H5.147c-2.843,0-5.147-2.305-5.147-5.147v-303.17c0-2.843,2.305-5.147,5.147-5.147  h501.705c2.843,0,5.147,2.305,5.147,5.147v303.169C512,410.428,509.695,412.732,506.853,412.732z"/>
<path style="fill:#30393A;" d="M506.853,412.732h-60.161V99.268h60.161c2.843,0,5.147,2.305,5.147,5.147v303.169  C512,410.428,509.695,412.732,506.853,412.732z"/>
<g>
	<circle style="fill:#D8362A;" cx="54.06" cy="208.23" r="11.865"/>
	<circle style="fill:#D8362A;" cx="102.38" cy="208.23" r="11.865"/>
	<circle style="fill:#D8362A;" cx="150.71" cy="208.23" r="11.865"/>
</g>
<path style="fill:#FFFFFF;" d="M44.097,412.732V261.147c0-2.843,2.305-5.147,5.147-5.147H462.07c2.843,0,5.147,2.305,5.147,5.147  v151.585"/>
<circle style="fill:#D8362A;" cx="230.34" cy="149.82" r="10.638"/>
<circle style="fill:#FFD15C;" cx="422.92" cy="175.78" r="44.3"/>
<path style="fill:#FFFFFF;" d="M356.852,149.825c0-4.265-3.456-7.721-7.721-7.721H246.972c-2.923-6.271-9.271-10.638-16.634-10.638  s-13.71,4.367-16.633,10.638h-26.75c-4.265,0-7.721,3.456-7.721,7.721s3.456,7.721,7.721,7.721h26.75  c2.923,6.271,9.27,10.638,16.633,10.638c7.364,0,13.711-4.367,16.634-10.638H349.13C353.395,157.546,356.852,154.09,356.852,149.825  z M230.338,152.741c-1.609,0-2.917-1.308-2.917-2.917s1.308-2.917,2.917-2.917s2.918,1.308,2.918,2.917  S231.947,152.741,230.338,152.741z"/>
<g>
	<path style="fill:#FFD15C;" d="M63.409,160.463v-19.608c0-4.265-3.456-7.721-7.721-7.721s-7.721,3.456-7.721,7.721v19.608   c0,4.265,3.456,7.721,7.721,7.721S63.409,164.727,63.409,160.463z"/>
	<path style="fill:#FFD15C;" d="M82.087,160.463V130.01c0-4.265-3.456-7.721-7.721-7.721s-7.721,3.456-7.721,7.721v30.453   c0,4.265,3.456,7.721,7.721,7.721S82.087,164.727,82.087,160.463z"/>
	<path style="fill:#FFD15C;" d="M100.766,160.463v-26.699c0-4.265-3.456-7.721-7.721-7.721s-7.721,3.456-7.721,7.721v26.699   c0,4.265,3.456,7.721,7.721,7.721S100.766,164.727,100.766,160.463z"/>
	<path style="fill:#FFD15C;" d="M119.445,160.463V125.42c0-4.265-3.456-7.721-7.721-7.721s-7.721,3.456-7.721,7.721v35.043   c0,4.265,3.456,7.721,7.721,7.721S119.445,164.727,119.445,160.463z"/>
	<path style="fill:#FFD15C;" d="M138.123,133.763c0-4.265-3.456-7.721-7.721-7.721s-7.721,3.456-7.721,7.721v26.699   c0,4.265,3.456,7.721,7.721,7.721s7.721-3.456,7.721-7.721V133.763z"/>
	<path style="fill:#FFD15C;" d="M156.802,160.463v-15.227c0-4.265-3.456-7.721-7.721-7.721s-7.721,3.456-7.721,7.721v15.227   c0,4.265,3.456,7.721,7.721,7.721S156.802,164.727,156.802,160.463z"/>
</g>
<path style="fill:#FFFFFF;" d="M422.918,227.802c28.684,0,52.02-23.336,52.02-52.021c0-28.684-23.336-52.02-52.02-52.02  c-28.685,0-52.021,23.336-52.021,52.02S394.233,227.802,422.918,227.802z M387.167,183.502h28.03v28.031  C401.215,208.515,390.184,197.484,387.167,183.502z M430.639,211.532v-28.031h28.03  C455.652,197.484,444.622,208.515,430.639,211.532z M458.669,168.059h-28.03V140.03  C444.622,143.047,455.652,154.077,458.669,168.059z M415.197,140.03v28.029h-28.03C390.184,154.077,401.215,143.047,415.197,140.03z  "/>
<g>
	<path style="fill:#A1ACAD;" d="M215.195,189.87h-16.129c-4.265,0-7.721,3.456-7.721,7.721s3.456,7.721,7.721,7.721h16.129   c4.265,0,7.721-3.456,7.721-7.721C222.917,193.326,219.46,189.87,215.195,189.87z"/>
	<path style="fill:#A1ACAD;" d="M215.195,212.359h-16.129c-4.265,0-7.721,3.456-7.721,7.721s3.456,7.721,7.721,7.721h16.129   c4.265,0,7.721-3.456,7.721-7.721C222.917,215.816,219.46,212.359,215.195,212.359z"/>
	<path style="fill:#A1ACAD;" d="M255.803,189.87h-16.129c-4.265,0-7.721,3.456-7.721,7.721s3.456,7.721,7.721,7.721h16.129   c4.265,0,7.721-3.456,7.721-7.721C263.524,193.326,260.068,189.87,255.803,189.87z"/>
	<path style="fill:#A1ACAD;" d="M255.803,212.359h-16.129c-4.265,0-7.721,3.456-7.721,7.721s3.456,7.721,7.721,7.721h16.129   c4.265,0,7.721-3.456,7.721-7.721C263.524,215.816,260.068,212.359,255.803,212.359z"/>
	<path style="fill:#A1ACAD;" d="M296.411,189.87h-16.129c-4.265,0-7.721,3.456-7.721,7.721s3.456,7.721,7.721,7.721h16.129   c4.265,0,7.721-3.456,7.721-7.721C304.132,193.326,300.675,189.87,296.411,189.87z"/>
	<path style="fill:#A1ACAD;" d="M296.411,212.359h-16.129c-4.265,0-7.721,3.456-7.721,7.721s3.456,7.721,7.721,7.721h16.129   c4.265,0,7.721-3.456,7.721-7.721C304.132,215.816,300.675,212.359,296.411,212.359z"/>
	<path style="fill:#A1ACAD;" d="M337.018,189.87h-16.129c-4.265,0-7.721,3.456-7.721,7.721s3.456,7.721,7.721,7.721h16.129   c4.265,0,7.721-3.456,7.721-7.721C344.739,193.326,341.283,189.87,337.018,189.87z"/>
	<path style="fill:#A1ACAD;" d="M337.018,212.359h-16.129c-4.265,0-7.721,3.456-7.721,7.721s3.456,7.721,7.721,7.721h16.129   c4.265,0,7.721-3.456,7.721-7.721C344.739,215.816,341.283,212.359,337.018,212.359z"/>
</g>
<rect x="72.25" y="255.99" width="23.891" height="95.64"/>
<rect x="106.73" y="255.99" width="23.891" height="95.64"/>
<rect x="141.4" y="255.99" width="23.891" height="95.64"/>
<rect x="214.63" y="255.99" width="23.891" height="95.64"/>
<rect x="248.92" y="255.99" width="23.891" height="95.64"/>
<rect x="328.58" y="255.99" width="23.891" height="95.64"/>
<rect x="363.07" y="255.99" width="23.891" height="95.64"/>
<rect x="397.74" y="255.99" width="23.891" height="95.64"/>
<g>
</g>
<g>
</g>
<g>
</g>
<g>
</g>
<g>
</g>
<g>
</g>
<g>
</g>
<g>
</g>
<g>
</g>
<g>
</g>
<g>
</g>
<g>
</g>
<g>
</g>
<g>
</g>
<g>
</g>
</svg>
