<?xml version="1.0" encoding="iso-8859-1"?>
<!-- Generator: Adobe Illustrator 19.0.0, SVG Export Plug-In . SVG Version: 6.00 Build 0)  -->
<svg xmlns="http://www.w3.org/2000/svg" xmlns:xlink="http://www.w3.org/1999/xlink" version="1.1" id="Capa_1" x="0px" y="0px" viewBox="0 0 512 512" style="enable-background:new 0 0 512 512;" xml:space="preserve">
<g>
	<path style="fill:#CCCCCC;" d="M281.854,148.906c0-16.239,13.165-29.402,29.403-29.402c16.241,0,29.406,13.163,29.406,29.402   c0,16.242-13.165,29.405-29.406,29.405C295.019,178.311,281.854,165.148,281.854,148.906L281.854,148.906z M325.959,228.331h27.138   c16.862,0,30.658-13.795,30.658-30.658c0-8.492-3.497-16.205-9.125-21.771c6-13.973,9.308-29.244,9.308-45.247   C383.937,64.021,326.658,10,256,10S128.064,64.021,128.064,130.655c0,16.003,3.306,31.275,9.306,45.247   c-5.628,5.566-9.123,13.279-9.123,21.773c0,16.861,13.794,30.656,30.656,30.656h25.11v31.767c0,6.88,5.627,12.506,12.506,12.506   h33.429h52.106h31.401c6.878,0,12.504-5.626,12.504-12.506V228.331L325.959,228.331z M230.145,148.906   c0,16.242-13.163,29.405-29.402,29.405c-16.241,0-29.405-13.163-29.405-29.405c0-16.239,13.164-29.402,29.405-29.402   C216.982,119.503,230.145,132.666,230.145,148.906z"/>
	<g>
		<path style="fill:#808080;" d="M230.145,148.906c0-16.239-13.163-29.402-29.402-29.402c-16.241,0-29.405,13.163-29.405,29.402    c0,16.242,13.164,29.405,29.405,29.405C216.982,178.311,230.145,165.148,230.145,148.906z"/>
		<path style="fill:#808080;" d="M311.257,119.503c-16.238,0-29.403,13.163-29.403,29.402c0,16.242,13.165,29.405,29.403,29.405    c16.241,0,29.406-13.163,29.406-29.405C340.664,132.666,327.499,119.503,311.257,119.503z"/>
	</g>
	<path style="fill:#CCCCCC;" d="M256,375.573l-10,5.773l-29.999,17.322l-64.028,36.963c-6.853-9.061-19.546-11.81-29.641-5.981   c-10.934,6.311-14.679,20.292-8.366,31.224c3.414,5.914,9.072,9.725,15.275,10.978c-2.016,5.998-1.546,12.802,1.867,18.714   c6.313,10.934,20.291,14.679,31.225,8.368c10.095-5.829,14.062-18.193,9.641-28.66l84.025-48.514l10-5.773l30-17.317l64.026-36.968   c6.855,9.063,19.548,11.811,29.643,5.983c10.934-6.312,14.677-20.291,8.366-31.225c-3.414-5.914-9.072-9.723-15.275-10.976   c2.017-6,1.547-12.804-1.867-18.716c-6.313-10.934-20.291-14.679-31.224-8.365c-10.095,5.826-14.063,18.19-9.642,28.658   L256,375.573z"/>
	<g>
		<path style="fill:#5F8ACE;" d="M151.973,361.701l64.028,36.967l29.998-17.322l10-5.773l-84.027-48.513    c4.422-10.468,0.454-22.832-9.641-28.658c-10.934-6.314-24.911-2.568-31.225,8.365c-3.414,5.912-3.883,12.716-1.867,18.716    c-6.203,1.253-11.861,5.062-15.275,10.976c-6.31,10.934-2.567,24.913,8.366,31.225    C132.427,373.511,145.119,370.763,151.973,361.701z"/>
		<path style="fill:#5F8ACE;" d="M296,398.668l-30,17.317l-10,5.773l84.027,48.514c-4.421,10.467-0.453,22.831,9.64,28.66    c10.933,6.311,24.912,2.565,31.226-8.368c3.412-5.912,3.882-12.716,1.865-18.714c6.203-1.253,11.861-5.063,15.275-10.978    c6.313-10.932,2.567-24.913-8.364-31.224c-10.097-5.829-22.788-3.08-29.643,5.981L296,398.668z"/>
	</g>
</g>
<path d="M118.247,197.675c0,22.418,18.238,40.656,40.656,40.656h15.11v21.767c0,12.409,10.095,22.506,22.504,22.506h116.938  c12.41,0,22.506-10.097,22.506-22.506v-21.767h17.136c22.419,0,40.658-18.239,40.658-40.658c0-8.595-2.665-16.783-7.607-23.643  c5.172-13.902,7.789-28.465,7.789-43.376C393.937,58.611,332.058,0,256,0S118.064,58.611,118.064,130.655  c0,14.915,2.617,29.476,7.787,43.377C120.911,180.89,118.247,189.08,118.247,197.675z M256,20  c65.031,0,117.938,49.64,117.938,110.655c0,14.276-2.858,28.172-8.496,41.302c-1.623,3.777-0.768,8.164,2.156,11.055  c3.971,3.928,6.157,9.135,6.157,14.664c0,11.39-9.267,20.656-20.658,20.656h-27.136c-5.523,0-10,4.477-10,10v31.767  c0,1.358-1.148,2.506-2.506,2.506h-21.404v-13.401c0-5.522-4.478-10-10-10s-10,4.478-10,10v13.401h-32.104v-13.401  c0-5.522-4.477-10-10-10c-5.522,0-10,4.478-10,10v13.401h-23.431c-1.357,0-2.504-1.148-2.504-2.506v-31.767c0-5.523-4.477-10-10-10  h-25.11c-11.39,0-20.656-9.268-20.656-20.658c0-5.528,2.187-10.735,6.155-14.662c2.924-2.891,3.779-7.277,2.156-11.055  c-5.637-13.127-8.494-27.021-8.494-41.302C138.064,69.64,190.97,20,256,20z"/>
<path d="M215.853,69.024c1.43,0,2.883-0.308,4.261-0.958c11.185-5.277,23.594-8.067,35.886-8.067c5.523,0,10-4.477,10-10  s-4.477-10-10-10c-15.224,0-30.584,3.451-44.42,9.979c-4.995,2.357-7.133,8.317-4.777,13.311  C208.509,66.905,212.103,69.024,215.853,69.024z"/>
<path d="M191.592,85.763c2.504,0,5.011-0.934,6.952-2.813l0.334-0.323c0.05-0.047,0.098-0.093,0.143-0.136  c3.929-3.82,4.053-10.102,0.262-14.074c-3.814-3.996-10.145-4.143-14.139-0.329l-0.045,0.044c-0.039,0.036-0.076,0.072-0.114,0.109  l-0.347,0.335c-3.969,3.841-4.074,10.171-0.234,14.14C186.367,84.745,188.978,85.763,191.592,85.763z"/>
<path d="M200.743,188.311c21.727,0,39.402-17.677,39.402-39.405c0-21.727-17.676-39.402-39.402-39.402  c-21.728,0-39.405,17.676-39.405,39.402C161.337,170.634,179.015,188.311,200.743,188.311z M200.743,129.503  c10.698,0,19.402,8.703,19.402,19.402c0,10.7-8.704,19.405-19.402,19.405c-10.7,0-19.405-8.705-19.405-19.405  C181.337,138.206,190.042,129.503,200.743,129.503z"/>
<path d="M311.261,188.311c21.727,0,39.402-17.677,39.402-39.405c0-21.727-17.676-39.402-39.402-39.402  c-21.729,0-39.405,17.676-39.405,39.402C271.856,170.634,289.533,188.311,311.261,188.311z M311.261,129.503  c10.698,0,19.402,8.703,19.402,19.402c0,10.7-8.704,19.405-19.402,19.405c-10.7,0-19.405-8.705-19.405-19.405  C291.856,138.206,300.561,129.503,311.261,129.503z"/>
<path d="M394.668,420.99c-4.993-2.883-10.667-4.406-16.407-4.406c-7.176,0-14.131,2.386-19.772,6.613l-42.49-24.529l42.49-24.532  c5.642,4.228,12.597,6.613,19.772,6.613l0,0c5.742,0,11.416-1.523,16.406-4.405c7.602-4.388,13.039-11.473,15.311-19.951  c2.271-8.477,1.105-17.331-3.283-24.933c-3.054-5.291-7.492-9.569-12.754-12.433c0.15-5.988-1.334-11.971-4.389-17.26  c-5.854-10.136-16.764-16.433-28.475-16.433c-5.742,0-11.417,1.525-16.408,4.406c-11.635,6.716-17.75,19.66-16.193,32.44  l-72.477,41.845l-72.476-41.844c1.557-12.781-4.558-25.726-16.192-32.44c-4.993-2.883-10.668-4.407-16.409-4.407  c-11.712,0-22.622,6.297-28.475,16.433c-3.055,5.289-4.54,11.271-4.39,17.26c-5.262,2.863-9.7,7.143-12.755,12.434  c-9.058,15.692-3.661,35.826,12.028,44.883c4.992,2.882,10.666,4.405,16.407,4.405c7.175,0,14.13-2.385,19.771-6.612l42.488,24.53  l-42.487,24.53c-5.641-4.228-12.596-6.613-19.771-6.613c-5.742,0-11.415,1.523-16.406,4.406  c-7.602,4.387-13.039,11.473-15.311,19.951c-2.271,8.478-1.105,17.333,3.283,24.932c3.055,5.291,7.492,9.57,12.754,12.434  c-0.15,5.988,1.335,11.969,4.389,17.26C128.301,505.703,139.214,512,150.924,512c5.74,0,11.413-1.522,16.407-4.405  c11.633-6.717,17.747-19.663,16.192-32.442l72.478-41.846l72.476,41.844c-1.555,12.778,4.558,25.725,16.191,32.442  c4.992,2.883,10.665,4.405,16.406,4.405c11.713,0,22.625-6.297,28.479-16.435c3.053-5.29,4.537-11.271,4.386-17.257  c5.262-2.863,9.699-7.141,12.754-12.432c4.389-7.6,5.555-16.455,3.283-24.934C407.706,432.462,402.269,425.376,394.668,420.99z   M156.973,353.04c-1.568-0.904-3.29-1.34-4.993-1.34c-3.045,0-6.031,1.389-7.982,3.969c-2.406,3.18-6.24,5.079-10.259,5.079  c-2.235,0-4.452-0.597-6.409-1.727c-6.139-3.544-8.249-11.423-4.705-17.563c1.844-3.191,4.976-5.442,8.596-6.174  c2.813-0.568,5.245-2.316,6.68-4.801c1.434-2.485,1.732-5.467,0.818-8.186c-1.176-3.502-0.793-7.34,1.049-10.53  c2.291-3.968,6.566-6.434,11.155-6.434c2.235,0,4.451,0.597,6.409,1.728c5.607,3.236,7.94,10.16,5.429,16.106  c-1.963,4.647-0.157,10.028,4.212,12.552L236,375.572l-20.001,11.547L156.973,353.04z M166.974,461.613  c-4.368,2.522-6.174,7.904-4.211,12.551c2.511,5.946,0.176,12.872-5.43,16.108c-1.956,1.13-4.172,1.727-6.407,1.727  c-4.591,0-8.865-2.466-11.157-6.435c-1.842-3.191-2.225-7.027-1.049-10.527c0.914-2.719,0.616-5.701-0.818-8.186  c-1.434-2.484-3.867-4.234-6.68-4.803c-3.619-0.73-6.752-2.98-8.596-6.176c-1.717-2.974-2.174-6.439-1.285-9.756  c0.889-3.317,3.016-6.09,5.992-7.807c1.955-1.129,4.171-1.727,6.406-1.727c4.018,0,7.852,1.898,10.257,5.079  c3.044,4.023,8.606,5.151,12.977,2.629l63.984-36.94c0.015-0.009,0.03-0.014,0.044-0.022L261,384.232  c0.002-0.001,0.004-0.003,0.005-0.003l84.022-48.51c4.369-2.523,6.175-7.904,4.212-12.551c-2.511-5.947-0.178-12.871,5.431-16.107  c1.957-1.131,4.172-1.728,6.408-1.728c4.589,0,8.863,2.466,11.154,6.433c1.843,3.191,2.225,7.029,1.049,10.529  c-0.914,2.721-0.616,5.701,0.818,8.186c1.435,2.485,3.867,4.233,6.68,4.802c3.619,0.732,6.752,2.983,8.596,6.174  c1.717,2.975,2.174,6.44,1.284,9.758c-0.888,3.316-3.016,6.089-5.991,7.807c-1.955,1.129-4.17,1.726-6.406,1.726  c-4.018,0-7.853-1.899-10.26-5.08c-3.043-4.022-8.605-5.149-12.976-2.628l-86.204,49.771l-17.822,10.288  c-0.006,0.004-0.012,0.008-0.018,0.012L166.974,461.613z M389.373,455.874c-1.844,3.193-4.977,5.443-8.596,6.174  c-2.813,0.568-5.245,2.318-6.68,4.803c-1.436,2.485-1.732,5.467-0.818,8.187c1.176,3.499,0.795,7.337-1.047,10.526  c-2.291,3.969-6.567,6.435-11.158,6.435c-2.236,0-4.451-0.597-6.406-1.726c-5.605-3.237-7.939-10.163-5.429-16.109  c1.963-4.646,0.157-10.028-4.212-12.551l-69.026-39.853l7.813-4.511L296,410.215l59.027,34.076  c4.367,2.522,9.931,1.396,12.975-2.628c2.406-3.181,6.241-5.08,10.26-5.08c2.234,0,4.451,0.598,6.408,1.727  c2.973,1.717,5.1,4.489,5.988,7.807C391.546,449.434,391.09,452.899,389.373,455.874z"/>
<g>
</g>
<g>
</g>
<g>
</g>
<g>
</g>
<g>
</g>
<g>
</g>
<g>
</g>
<g>
</g>
<g>
</g>
<g>
</g>
<g>
</g>
<g>
</g>
<g>
</g>
<g>
</g>
<g>
</g>
</svg>
