<?xml version="1.0" encoding="iso-8859-1"?>
<!-- Generator: Adobe Illustrator 19.0.0, SVG Export Plug-In . SVG Version: 6.00 Build 0)  -->
<svg xmlns="http://www.w3.org/2000/svg" xmlns:xlink="http://www.w3.org/1999/xlink" version="1.1" id="Capa_1" x="0px" y="0px" viewBox="0 0 512 512" style="enable-background:new 0 0 512 512;" xml:space="preserve">
<g>
	<path style="fill:#36353A;" d="M85.036,512h26.691c2.39,0,4.345-1.955,4.345-4.345v-18.001c0-2.39-1.955-4.345-4.345-4.345H85.036   c-2.39,0-4.345,1.955-4.345,4.345v18.001C80.691,510.045,82.646,512,85.036,512z"/>
	<path style="fill:#36353A;" d="M426.964,512h-26.691c-2.39,0-4.345-1.955-4.345-4.345v-18.001c0-2.39,1.955-4.345,4.345-4.345   h26.691c2.39,0,4.345,1.955,4.345,4.345v18.001C431.309,510.045,429.354,512,426.964,512z"/>
	<path style="fill:#36353A;" d="M98.371,497.167c-4.142,0-7.5-3.357-7.5-7.5v-50.572c0-2.611,0.8-5.116,2.313-7.245l32.026-45.01   c2.401-3.377,7.083-4.166,10.459-1.764c3.375,2.401,4.164,7.084,1.763,10.459l-31.561,44.358v49.773   C105.871,493.81,102.513,497.167,98.371,497.167z"/>
	<path style="fill:#36353A;" d="M413.607,497.167c-4.143,0-7.5-3.357-7.5-7.5v-49.773l-31.562-44.358   c-2.401-3.375-1.611-8.058,1.764-10.459c3.375-2.399,8.059-1.611,10.459,1.764l32.024,45.009c1.514,2.127,2.314,4.634,2.314,7.246   v50.572C421.107,493.81,417.75,497.167,413.607,497.167z M406.571,440.545h0.01H406.571z"/>
</g>
<circle style="fill:#A1ACAD;" cx="256" cy="218.5" r="218.5"/>
<circle style="fill:#4EC0AA;" cx="256" cy="218.5" r="179.44"/>
<path style="fill:#40AD98;" d="M435.434,218.5c0,99.097-80.337,179.434-179.434,179.434c-9.653,0-19.121-0.762-28.362-2.236  C313.26,382.111,378.71,307.945,378.71,218.5S313.26,54.89,227.638,41.302c9.241-1.473,18.709-2.236,28.362-2.236  C355.097,39.066,435.434,119.403,435.434,218.5z"/>
<circle style="fill:#FFFFFF;" cx="193.48" cy="273.88" r="44.931"/>
<g>
	<circle style="fill:#40AD98;" cx="192.19" cy="99.37" r="8.585"/>
	<circle style="fill:#40AD98;" cx="159.26" cy="124.38" r="8.585"/>
	<circle style="fill:#40AD98;" cx="190.93" cy="135.21" r="8.585"/>
	<circle style="fill:#40AD98;" cx="289.61" cy="340.37" r="8.585"/>
	<circle style="fill:#40AD98;" cx="256.19" cy="354.2" r="8.585"/>
</g>
<g>
</g>
<g>
</g>
<g>
</g>
<g>
</g>
<g>
</g>
<g>
</g>
<g>
</g>
<g>
</g>
<g>
</g>
<g>
</g>
<g>
</g>
<g>
</g>
<g>
</g>
<g>
</g>
<g>
</g>
</svg>
