<?xml version="1.0" encoding="iso-8859-1"?>
<!-- Generator: Adobe Illustrator 19.0.0, SVG Export Plug-In . SVG Version: 6.00 Build 0)  -->
<svg xmlns="http://www.w3.org/2000/svg" xmlns:xlink="http://www.w3.org/1999/xlink" version="1.1" id="Capa_1" x="0px" y="0px" viewBox="0 0 511.999 511.999" style="enable-background:new 0 0 511.999 511.999;" xml:space="preserve">
<g>
	<path style="fill:#FFD15C;" d="M151.173,109.519L97.555,79.133c-2.831-1.604-3.628-5.319-1.705-7.944l17.138-23.394   c2.234-3.049,0.752-7.391-2.88-8.438L6.974,9.619c-5.856-1.689-9.631,6.059-4.693,9.63l52.374,37.882   c2.246,1.625,2.911,4.679,1.542,7.09l-23.55,41.491c-1.262,2.223-0.805,5.024,1.097,6.731l69.177,62.09L151.173,109.519z"/>
	<path style="fill:#FFD15C;" d="M121.182,321.41l-84.464,67.493c-2.994,2.392-2.64,7.048,0.681,8.96l31.985,18.415   c3.186,1.834,3.671,6.235,0.962,8.719L4.924,485.002c-4.63,4.247,0.436,11.659,6.074,8.887l115.149-56.607   c2.865-1.409,3.906-4.971,2.25-7.7l-25.39-41.846c-1.698-2.798-0.557-6.452,2.432-7.786l51.272-22.888L121.182,321.41z"/>
	<path style="fill:#FFD15C;" d="M363.157,334.275l72.857,50.399c2.226,1.54,2.981,4.483,1.77,6.904l-18.72,37.44   c-1.165,2.33-0.514,5.159,1.553,6.745l74.365,57.079c4.778,3.667,0.935,11.228-4.844,9.53l-109.534-32.184   c-2.509-0.737-4.138-3.156-3.878-5.758l5.941-59.425c0.208-2.083-0.798-4.101-2.587-5.188l-36.612-22.246l-5.564,2.085l0.02-22.593   L363.157,334.275z"/>
	<path style="fill:#FFD15C;" d="M353.74,122.715l63.611-47.935c2.228-1.769,5.444-1.52,7.374,0.569l18.143,19.639   c2.261,2.448,6.172,2.304,8.248-0.303l51.173-64.265c3.651-4.585,10.975-0.944,9.521,4.735l-27.664,108.111   c-0.791,3.089-4.058,4.839-7.067,3.783l-27.118-9.51c-1.934-0.678-4.085-0.212-5.564,1.207l-48.824,46.835L353.74,122.715z"/>
</g>
<path style="fill:#A1ACAD;" d="M402.369,231.203c0-84.973-68.354-153.982-153.077-155.04  c-85.547-1.068-157.027,69.487-157.027,155.04c0,50.827,24.462,95.936,62.25,124.213c1.382,1.034,2.213,2.644,2.213,4.371v43.593  c0,3.003,2.434,5.438,5.437,5.438h170.304c3.003,0,5.438-2.434,5.438-5.438v-46.338  C376.949,328.886,402.369,283.016,402.369,231.203z"/>
<path style="fill:#819696;" d="M402.369,231.987c-0.25,50.509-24.657,95.298-62.252,123.432c-1.382,1.034-2.213,2.644-2.213,4.371  v43.585c0,3.003-2.434,5.438-5.438,5.438H303.55v-49.018c0-1.729,0.832-3.342,2.216-4.378  c37.788-28.28,62.251-73.385,62.251-124.213c0-79.831-60.32-145.565-137.877-154.106c7.345-0.818,14.85-1.113,22.464-0.859  C336.122,79.017,402.783,148.424,402.369,231.987z"/>
<g>
	<path style="fill:#424A4C;" d="M228.089,230.3c1.244-3.951-0.951-8.162-4.902-9.406l-77-24.238   c-3.953-1.24-8.162,0.952-9.406,4.902c-1.244,3.951,0.951,8.162,4.902,9.406l33.252,10.467v23.399c0,4.143,3.358,7.5,7.5,7.5   s7.5-3.357,7.5-7.5v-18.677l28.748,9.049c0.75,0.235,1.508,0.348,2.254,0.348C224.124,235.55,227.081,233.501,228.089,230.3z"/>
	<path style="fill:#424A4C;" d="M357.853,201.557c-1.244-3.951-5.456-6.146-9.406-4.902l-77,24.238   c-3.951,1.244-6.146,5.455-4.902,9.406c1.008,3.202,3.964,5.25,7.152,5.25c0.746,0,1.505-0.112,2.254-0.348l28.748-9.049v18.677   c0,4.143,3.358,7.5,7.5,7.5s7.5-3.357,7.5-7.5V221.43l33.252-10.467C356.902,209.719,359.096,205.509,357.853,201.557z"/>
	<path style="fill:#424A4C;" d="M346.149,111.736l-20.33,15.56v15.32c0,3.66-2.64,6.79-6.24,7.4l-10.6,1.79l0.3,1.18   c1.02,4.01-1.4,8.09-5.42,9.11c-0.62,0.16-1.24,0.24-1.85,0.24c-3.35,0-6.4-2.26-7.26-5.66l-0.6-2.35l-5.68,0.96l0.72,2.81   c1.02,4.02-1.41,8.1-5.42,9.12c-0.62,0.16-1.24,0.23-1.85,0.23c-3.35,0-6.41-2.26-7.27-5.65l-1.01-3.99l-5.64,0.96l1.04,4.11   c1.02,4.01-1.41,8.09-5.42,9.11c-0.62,0.16-1.24,0.24-1.85,0.24c-3.35,0-6.4-2.26-7.27-5.66l-1.34-5.29l-5.59,0.95   c-0.42,0.07-0.85,0.11-1.26,0.11c-3.59,0-6.77-2.59-7.39-6.25c-0.69-4.08,2.06-7.96,6.14-8.65l4.39-0.74l-0.76-3   c-1.02-4.01,1.4-8.09,5.42-9.11c4.01-1.03,8.09,1.4,9.11,5.42l1.07,4.17l5.64-0.96l-1.09-4.29c-1.02-4.01,1.4-8.1,5.42-9.12   c4.01-1.02,8.09,1.41,9.11,5.42l1.4,5.48l5.67-0.96l-1.51-5.94c-1.02-4.01,1.41-8.09,5.42-9.11c4.01-1.02,8.1,1.4,9.12,5.42   l1.81,7.11l5.54-0.94v-12.69c0-2.34,1.09-4.54,2.94-5.96l19.91-15.23L346.149,111.736z"/>
	<path style="fill:#424A4C;" d="M202.459,306.796v99.78c0,0.78-0.12,1.53-0.34,2.24h-14.32c-0.22-0.71-0.34-1.46-0.34-2.24v-99.78   c0-4.15,3.35-7.5,7.5-7.5C199.099,299.296,202.459,302.646,202.459,306.796z"/>
	<path style="fill:#424A4C;" d="M237.359,306.796v99.78c0,0.78-0.12,1.53-0.34,2.24h-14.32c-0.22-0.71-0.34-1.46-0.34-2.24v-99.78   c0-4.15,3.36-7.5,7.5-7.5C234.009,299.296,237.359,302.646,237.359,306.796z"/>
	<path style="fill:#424A4C;" d="M272.269,306.796v99.78c0,0.78-0.12,1.53-0.34,2.24h-14.32c-0.22-0.71-0.34-1.46-0.34-2.24v-99.78   c0-4.15,3.36-7.5,7.5-7.5S272.269,302.646,272.269,306.796z"/>
	<path style="fill:#424A4C;" d="M307.179,306.796v99.78c0,0.78-0.12,1.53-0.34,2.24h-14.32c-0.22-0.71-0.34-1.46-0.34-2.24v-99.78   c0-4.15,3.36-7.5,7.5-7.5S307.179,302.646,307.179,306.796z"/>
</g>
<g>
</g>
<g>
</g>
<g>
</g>
<g>
</g>
<g>
</g>
<g>
</g>
<g>
</g>
<g>
</g>
<g>
</g>
<g>
</g>
<g>
</g>
<g>
</g>
<g>
</g>
<g>
</g>
<g>
</g>
</svg>
