<?xml version="1.0" encoding="iso-8859-1"?>
<!-- Generator: Adobe Illustrator 19.0.0, SVG Export Plug-In . SVG Version: 6.00 Build 0)  -->
<svg xmlns="http://www.w3.org/2000/svg" xmlns:xlink="http://www.w3.org/1999/xlink" version="1.1" id="Capa_1" x="0px" y="0px" viewBox="0 0 512 512" style="enable-background:new 0 0 512 512;" xml:space="preserve">
<g>
	<g>
		<polygon style="fill:#9ADFEF;" points="161.923,464.155 120.284,464.155 102.45,464.155 102.45,502 161.923,502   "/>
		<polygon style="fill:#9ADFEF;" points="350.075,464.155 350.075,502 409.546,502 409.546,464.155 391.714,464.155   "/>
	</g>
	<path style="fill:#5F8ACE;" d="M256,366.836L256,366.836L256,366.836z M161.923,464.155h188.152h41.639v-59.999v-40.001v-178.44   l-70.295-0.002v39.068v76.636c0,35.984-29.435,65.42-65.419,65.42c-35.98,0-65.419-29.436-65.419-65.42v-76.636v-39.068   l-70.297,0.002v178.44v40.001v23.431v36.568L161.923,464.155L161.923,464.155z"/>
	<polygon style="fill:#27D8A9;" points="391.714,404.156 391.714,464.155 409.546,464.155 431.714,464.155 431.714,404.156  "/>
	<rect x="391.71" y="364.15" style="fill:#9ADFEF;" width="40" height="40"/>
	<rect x="391.71" y="185.71" style="fill:#27D8A9;" width="40" height="178.44"/>
	<path style="fill:#9ADFEF;" d="M391.714,185.714h40c0-14.813-1.859-29.213-5.352-42.98h-41.681   C389.239,156.257,391.714,170.714,391.714,185.714z"/>
	<path style="fill:#F7A139;" d="M384.681,142.734h41.681C409.245,75.293,352.859,23.078,283.242,12.13v40.641   C330.724,62.572,369.404,97.427,384.681,142.734z"/>
	<path style="fill:#9ADFEF;" d="M255.998,49.998c9.322,0,18.435,0.956,27.244,2.773l0.002-40.647   C274.36,10.724,265.259,10,255.998,10s-18.359,0.724-27.242,2.13v40.641C237.566,50.955,246.678,49.998,255.998,49.998z"/>
	<path style="fill:#F7A139;" d="M228.756,52.771V12.13C159.14,23.078,102.755,75.293,85.637,142.734h41.683   C142.595,97.427,181.275,62.572,228.756,52.771z"/>
	<path style="fill:#9ADFEF;" d="M127.32,142.734H85.637c-3.493,13.767-5.351,28.167-5.351,42.979l39.998,0.002   C120.284,170.714,122.761,156.257,127.32,142.734z"/>
	<rect x="80.29" y="185.71" style="fill:#27D8A9;" width="39.998" height="178.44"/>
	<rect x="80.29" y="364.15" style="fill:#9ADFEF;" width="39.998" height="40"/>
	<polygon style="fill:#27D8A9;" points="120.284,404.156 80.286,404.156 80.286,464.155 102.45,464.155 120.284,464.155    120.284,427.586  "/>
	<path style="fill:#FFD997;" d="M190.581,301.416c0,35.984,29.439,65.42,65.419,65.42c35.984,0,65.419-29.436,65.419-65.42V224.78   H190.581V301.416L190.581,301.416z M276.457,301.416c0,11.3-9.159,20.459-20.457,20.459c-11.3,0-20.459-9.159-20.459-20.459   c0-11.298,9.159-20.456,20.459-20.456C267.298,280.96,276.457,290.119,276.457,301.416z"/>
	<circle style="fill:#E7526A;" cx="256" cy="301.42" r="20.458"/>
	<rect x="190.58" y="185.71" style="fill:#F7A139;" width="130.84" height="39.07"/>
	<path style="fill:#DAE3E4;" d="M190.581,185.712h130.838l70.295,0.002c0-15-2.475-29.457-7.033-42.98H127.32   c-4.559,13.523-7.035,27.98-7.035,42.98L190.581,185.712z"/>
	<path style="fill:#E7526A;" d="M127.32,142.734h257.361c-15.277-45.307-53.957-80.162-101.439-89.961   c-8.81-1.819-17.922-2.775-27.244-2.775c-9.32,0-18.433,0.956-27.242,2.773C181.275,62.572,142.595,97.427,127.32,142.734z"/>
</g>
<path d="M441.714,185.712L441.714,185.712c0-49.412-19.371-95.994-54.545-131.168C353.752,21.128,310.033,1.988,263.377,0.158  c-0.116-0.004-0.233-0.008-0.351-0.013C260.69,0.058,258.349,0,255.998,0s-4.692,0.058-7.029,0.145  c-0.112,0.004-0.226,0.008-0.339,0.013c-46.66,1.827-90.381,20.968-123.801,54.387C89.657,89.718,70.287,136.3,70.286,185.712l0,0  l0,0c0,0.001,0,0.002,0,0.002v178.44v40.001v59.999c0,5.522,4.476,10,10,10H92.45V502c0,5.522,4.477,10,10,10h59.471  c5.522,0,10-4.478,10-10v-27.846h168.152V502c0,5.522,4.478,10,10,10h59.473c5.523,0,10-4.478,10-10v-27.846h12.168  c5.523,0,10-4.478,10-10v-59.999v-40.001v-178.44C441.714,185.714,441.714,185.713,441.714,185.712L441.714,185.712z   M421.714,394.156h-20v-20.001h20V394.156z M350.073,454.155H161.921h-31.637v-16.568h41.035c5.523,0,10-4.478,10-10  c0-5.523-4.477-10-10-10h-41.035v-13.431v-40.001V195.712h50.297v105.704c0,41.587,33.834,75.42,75.421,75.42  c41.585,0,75.417-33.833,75.417-75.42V195.712h50.295v168.442v40.001v49.999h-31.641V454.155z M273.242,20.903v20.118  c-5.685-0.674-11.438-1.023-17.244-1.023c-5.805,0-11.559,0.349-17.242,1.023V20.903C250.217,19.703,261.783,19.702,273.242,20.903z   M230.346,62.633c0.278-0.045,0.554-0.101,0.824-0.167c8.028-1.615,16.331-2.468,24.828-2.468c8.5,0,16.804,0.853,24.835,2.469  c0.267,0.066,0.539,0.121,0.814,0.165c39.227,8.164,71.804,34.666,88.34,70.102H142.011C158.546,97.3,191.121,70.798,230.346,62.633  z M377.316,152.734c2.018,7.412,3.377,15.093,4,22.979H130.683c0.623-7.886,1.982-15.566,4-22.979H377.316z M421.404,175.712  h-20.037c-0.531-7.794-1.684-15.472-3.43-22.979h20.477C419.933,160.223,420.937,167.896,421.404,175.712z M200.581,234.781h110.838  v66.636c0,30.559-24.86,55.42-55.419,55.42s-55.419-24.861-55.419-55.42V234.781z M311.419,214.781H200.581v-19.068h110.838V214.781  z M110.632,175.712H90.597c0.468-7.816,1.472-15.489,2.99-22.979h20.475C112.316,160.241,111.163,167.918,110.632,175.712z   M90.286,195.712h19.998v158.442H90.286V195.712z M90.286,374.155h19.998v20.001H90.286V374.155z M401.714,354.155V195.712h20  v158.442h-20V354.155z M413.03,132.734h-21.314c-7.253-18.447-18.326-35.41-32.826-49.91  c-18.538-18.539-41.102-31.476-65.647-37.984V24.221C349.421,37.172,394.772,78.765,413.03,132.734z M218.756,24.221v20.618  c-24.546,6.509-47.108,19.445-65.647,37.984c-14.5,14.5-25.572,31.463-32.826,49.91H98.972  C117.228,78.764,162.579,37.171,218.756,24.221z M90.286,414.156h19.998v39.999h-7.834H90.286V414.156z M151.921,492H112.45v-17.846  h39.471L151.921,492L151.921,492z M399.546,492h-39.473v-17.846h39.473V492z M409.546,454.155h-7.832v-39.999h20v39.999H409.546z"/>
<path d="M256,331.875c16.795,0,30.459-13.664,30.459-30.459c0-16.794-13.664-30.456-30.459-30.456  c-16.794,0-30.457,13.662-30.457,30.456C225.543,318.211,239.206,331.875,256,331.875z M256,290.96  c5.767,0,10.459,4.69,10.459,10.456c0,5.767-4.692,10.459-10.459,10.459s-10.457-4.692-10.457-10.459  C245.543,295.651,250.234,290.96,256,290.96z"/>
<path d="M200.289,417.591h-0.239c-5.523,0-10,4.477-10,10c0,5.522,4.477,10,10,10h0.239c5.522,0,10-4.478,10-10  C210.289,422.068,205.812,417.591,200.289,417.591z"/>
<path d="M244.967,110.714h51.034c5.523,0,10-4.476,10-10c0-5.522-4.477-10-10-10h-51.034c-5.523,0-10,4.478-10,10  C234.967,106.238,239.445,110.714,244.967,110.714z"/>
<path d="M215.997,110.716h0.24c5.523,0,10-4.477,10-10s-4.477-10-10-10h-0.24c-5.522,0-10,4.477-10,10  C205.997,106.24,210.475,110.716,215.997,110.716z"/>
<g>
</g>
<g>
</g>
<g>
</g>
<g>
</g>
<g>
</g>
<g>
</g>
<g>
</g>
<g>
</g>
<g>
</g>
<g>
</g>
<g>
</g>
<g>
</g>
<g>
</g>
<g>
</g>
<g>
</g>
</svg>
