<?xml version="1.0" encoding="iso-8859-1"?>
<!-- Generator: Adobe Illustrator 19.0.0, SVG Export Plug-In . SVG Version: 6.00 Build 0)  -->
<svg xmlns="http://www.w3.org/2000/svg" xmlns:xlink="http://www.w3.org/1999/xlink" version="1.1" id="Capa_1" x="0px" y="0px" viewBox="0 0 512 512" style="enable-background:new 0 0 512 512;" xml:space="preserve">
<polygon style="fill:#A1ACAD;" points="256,141.727 208.198,141.727 208.198,193.375 256,239.864 303.802,193.375 303.802,141.727   "/>
<rect x="208.2" y="104.06" style="fill:#D8362A;" width="95.61" height="37.668"/>
<path style="fill:#424A4C;" d="M379.084,163.585v0.028l-0.018-0.028l-49.199-66.9c-1.443-1.961-4.054-2.657-6.281-1.673  l-20.79,9.184v88.079l-46.205,46.058l-46.486-46.338v-87.937L189.247,94.4c-2.241-1.037-4.902-0.354-6.365,1.636l-49.378,67.144  L0.866,363.126c-1.619,2.441-0.9,5.737,1.588,7.282l36.672,22.768c2.35,1.459,5.431,0.82,7.007-1.454l87.37-126.095l13.46,106.913  c0.088,0.699,0.033,1.408-0.162,2.084l-13.299,46.226h160.612h84.968l-13.247-46.741c-0.19-0.671-0.243-1.373-0.156-2.064  l13.4-106.433l89.776,129.567l0.013-0.008l0.006,0.008l40.67-25.25c2.488-1.545,3.207-4.841,1.588-7.282L379.084,163.585z"/>
<g>
	<path style="fill:#30393A;" d="M509.546,369.928l-12.855,7.981L379.084,200.623v-37.037l48.947,73.786l83.103,125.275   C512.753,365.087,512.034,368.383,509.546,369.928z"/>
	<polygon style="fill:#30393A;" points="294.134,258.9 294.134,420.85 266.438,420.85 266.438,256.155  "/>
	<path style="fill:#30393A;" d="M224.527,268.732l74.785-74.547c1.01-1.007,1.578-2.375,1.578-3.802V104.65   c0-2.126,1.254-4.051,3.199-4.91l18.405-8.131c2.303-1.017,5.003-0.298,6.494,1.73l50.051,68.066   c0.678,0.922,1.043,2.036,1.043,3.18v40.368c0,3.839-3.912,6.437-7.451,4.948l-33.807-14.227c-3.031-1.275-6.486,0.449-7.288,3.638   l-16.943,67.334c-0.557,2.215-2.456,3.835-4.731,4.037l-81.072,7.197C223.792,278.325,220.972,272.275,224.527,268.732z"/>
	<path style="fill:#30393A;" d="M287.473,268.732l-74.785-74.547c-1.01-1.007-1.578-2.375-1.578-3.802V104.65   c0-2.126-1.254-4.051-3.199-4.91l-18.405-8.131c-2.303-1.017-5.003-0.298-6.494,1.73l-50.05,68.066   c-0.678,0.922-1.043,2.036-1.043,3.18v40.368c0,3.839,3.912,6.437,7.451,4.948l33.807-14.227c3.031-1.275,6.486,0.449,7.288,3.638   l16.943,67.334c0.557,2.215,2.456,3.835,4.731,4.037l81.072,7.197C288.208,278.325,291.028,272.275,287.473,268.732z"/>
</g>
<g>
	<circle style="fill:#FFFFFF;" cx="351.01" cy="171.93" r="8.347"/>
	<circle style="fill:#FFFFFF;" cx="159.42" cy="171.56" r="8.383"/>
	<circle style="fill:#FFFFFF;" cx="293.13" cy="243.74" r="8.383"/>
	<circle style="fill:#FFFFFF;" cx="218.87" cy="243.74" r="8.383"/>
	<path style="fill:#FFFFFF;" d="M199.464,420.314c-3.986,0-7.218-3.143-7.218-7.02v-17.866c0-3.878,3.232-7.02,7.218-7.02   s7.218,3.143,7.218,7.02v17.866C206.682,417.171,203.451,420.314,199.464,420.314z M199.464,379.048   c-3.986,0-7.218-3.143-7.218-7.02v-23.4c0-3.878,3.232-7.02,7.218-7.02s7.218,3.143,7.218,7.02v23.4   C206.682,375.905,203.451,379.048,199.464,379.048z M199.464,332.247c-3.986,0-7.218-3.143-7.218-7.02v-23.4   c0-3.878,3.232-7.02,7.218-7.02s7.218,3.143,7.218,7.02v23.4C206.682,329.104,203.451,332.247,199.464,332.247z"/>
	<path style="fill:#FFFFFF;" d="M345.988,304.793h-26.537c-4.124,0-7.468-3.343-7.468-7.468s3.343-7.468,7.468-7.468h26.537   c4.124,0,7.468,3.343,7.468,7.468S350.112,304.793,345.988,304.793z"/>
</g>
<g>
</g>
<g>
</g>
<g>
</g>
<g>
</g>
<g>
</g>
<g>
</g>
<g>
</g>
<g>
</g>
<g>
</g>
<g>
</g>
<g>
</g>
<g>
</g>
<g>
</g>
<g>
</g>
<g>
</g>
</svg>
