<?xml version="1.0" encoding="iso-8859-1"?>
<!-- Generator: Adobe Illustrator 19.0.0, SVG Export Plug-In . SVG Version: 6.00 Build 0)  -->
<svg xmlns="http://www.w3.org/2000/svg" xmlns:xlink="http://www.w3.org/1999/xlink" version="1.1" id="Capa_1" x="0px" y="0px" viewBox="0 0 511.999 511.999" style="enable-background:new 0 0 511.999 511.999;" xml:space="preserve">
<g>
	<path style="fill:#808080;" d="M56.856,418.908v-49.72v-90.847v-11.715H33.428C20.541,266.627,10,277.168,10,290.054v115.311v1.831   c0,12.887,10.541,23.428,23.428,23.428h23.429v-11.716H56.856z"/>
	<g>
		<path style="fill:#CCCCCC;" d="M80.283,278.341H56.856v70.831v69.735h23.427c12.887,0,23.428-10.539,23.428-23.426v-93.717    C103.711,288.882,93.17,278.341,80.283,278.341z"/>
		<path style="fill:#CCCCCC;" d="M408.287,393.653c0,12.887,10.543,23.428,23.43,23.428h23.427V346.25v-69.739h-23.427    c-12.887,0-23.43,10.541-23.43,23.427V393.653z"/>
	</g>
	<path style="fill:#808080;" d="M455.144,346.25v70.831v11.713h23.43c12.884,0,23.425-10.541,23.425-23.428V288.223   c0-12.887-10.541-23.428-23.425-23.428h-23.43v11.715V346.25z"/>
	<path style="fill:#51C2E5;" d="M256,67.996c40.306,0,77.781,12.117,108.98,32.898c21.326,14.205,37.484,17.437,48.402,6.52   c10.916-10.919,10.541-30.251-24.678-52.561C350.318,30.537,304.802,16.456,256,16.456s-94.317,14.081-132.703,38.398   c-35.221,22.31-35.596,41.643-24.678,52.561c10.917,10.917,27.074,7.685,48.402-6.52C178.221,80.113,215.694,67.996,256,67.996z"/>
	<polygon style="fill:#F7A139;" points="204.814,258.365 170.352,375.941 233.342,372.711 200.76,495.544 341.648,321.207    268.669,321.207 308.199,234.041  "/>
</g>
<path d="M455.144,370.683c-5.522,0-10,4.477-10,10v1.029c0,5.523,4.478,10,10,10s10-4.477,10-10v-1.029  C465.144,375.16,460.666,370.683,455.144,370.683z"/>
<path d="M488.4,256.273c-2.007-56.099-23.803-108.713-62.051-149.792c2.697-5.201,3.807-10.987,3.147-16.931  c-1.638-14.77-13.561-29.285-35.44-43.145c-41.262-26.135-89-39.95-138.057-39.95c-49.059,0-96.797,13.815-138.056,39.95  c-21.88,13.861-33.804,28.378-35.441,43.147c-0.658,5.942,0.45,11.729,3.148,16.93c-38.669,41.533-60.529,94.852-62.119,151.641  C9.916,262.351,0,275.066,0,290.054v117.142c0,18.432,14.996,33.428,33.428,33.428h23.427c5.522,0,10-4.477,10-10v-1.715h13.429  c18.432,0,33.428-14.996,33.428-33.428v-93.715c0-18.432-14.996-33.426-33.428-33.426h-13.43v-1.715c0-5.523-4.478-10-10-10H43.598  c1.912-50.916,21.662-98.672,56.264-136.059c4.393,2.228,9.257,3.359,14.554,3.359c10.809,0,23.287-4.812,38.149-14.711  C183.229,88.793,218.996,77.998,256,77.998c37.006,0,72.773,10.795,103.436,31.22c14.863,9.899,27.342,14.71,38.148,14.71  c5.297,0,10.161-1.132,14.555-3.359c34.188,36.937,53.886,83.996,56.196,134.228h-13.191c-5.522,0-10,4.477-10,10v1.717h-13.427  c-18.434,0-33.43,14.995-33.43,33.425v93.719c0,18.43,14.996,33.425,33.43,33.425h13.427v1.715c0,5.522,4.478,10,10,10h23.427  c18.433,0,33.428-14.997,33.428-33.43V288.225C511.998,273.213,502.051,260.481,488.4,256.273z M46.854,278.341  c0,5.523,4.478,10,10,10h23.429c7.404,0,13.428,6.022,13.428,13.426v93.715c0,7.404-6.023,13.428-13.428,13.428H66.854v-65.689  c0-5.523-4.478-10-10-10s-10,4.477-10,10v77.404H33.428c-7.404,0-13.428-6.024-13.428-13.428V290.054  c0-7.404,6.024-13.428,13.428-13.428h13.427v1.715H46.854z M397.584,103.927c-6.643,0-15.748-3.82-27.062-11.355  C336.566,69.953,296.965,57.998,256,57.998c-40.963,0-80.564,11.955-114.521,34.574c-11.314,7.535-20.42,11.355-27.063,11.355  c-3.557,0-6.247-1.105-8.726-3.582c-2.581-2.581-3.664-5.391-3.309-8.59c0.423-3.82,3.83-14.242,26.266-28.455  C166.699,39.196,210.737,26.456,256,26.456c45.262,0,89.3,12.741,127.353,36.845c22.434,14.211,25.842,24.633,26.266,28.454  c0.354,3.199-0.729,6.01-3.308,8.59C403.832,102.822,401.141,103.927,397.584,103.927z M491.998,405.366  c0,7.405-6.023,13.43-13.428,13.43h-13.427v-1.715c0-5.522-4.478-10-10-10h-23.427c-7.405,0-13.43-6.022-13.43-13.425v-93.719  c0-7.402,6.025-13.425,13.43-13.425h13.427v64.96c0,5.523,4.478,10,10,10s10-4.477,10-10v-76.677h13.427  c7.404,0,13.428,6.024,13.428,13.43V405.366z"/>
<path d="M56.854,324.287c5.522,0,10-4.477,10-10v-0.58c0-5.522-4.478-10-10-10s-10,4.478-10,10v0.58  C46.854,319.81,51.332,324.287,56.854,324.287z"/>
<path d="M341.647,311.207h-57.463l33.121-73.037c1.574-3.471,1.038-7.535-1.383-10.48c-2.421-2.943-6.306-4.256-10.016-3.383  l-103.383,24.324c-3.504,0.824-6.293,3.468-7.306,6.922l-34.462,117.576c-0.912,3.109-0.26,6.467,1.748,9.01  s5.125,3.953,8.359,3.789l49.295-2.527l-29.066,109.58c-1.211,4.561,0.933,9.347,5.141,11.481c1.44,0.73,2.988,1.083,4.52,1.083  c2.945,0,5.832-1.301,7.783-3.715l140.889-174.338c2.422-2.996,2.906-7.118,1.246-10.595  C349.01,313.42,345.5,311.207,341.647,311.207z M222.439,452.802l20.566-77.528c0.818-3.088,0.113-6.382-1.898-8.862  c-1.904-2.348-4.762-3.701-7.767-3.701c-0.171,0-0.342,0.004-0.513,0.013l-48.917,2.509l28.861-98.467l77.918-18.333l-31.129,68.645  c-1.403,3.095-1.14,6.69,0.702,9.548c1.841,2.855,5.007,4.582,8.405,4.582h52.038L222.439,452.802z"/>
<g>
</g>
<g>
</g>
<g>
</g>
<g>
</g>
<g>
</g>
<g>
</g>
<g>
</g>
<g>
</g>
<g>
</g>
<g>
</g>
<g>
</g>
<g>
</g>
<g>
</g>
<g>
</g>
<g>
</g>
</svg>
