<?xml version="1.0" encoding="iso-8859-1"?>
<!-- Generator: Adobe Illustrator 19.0.0, SVG Export Plug-In . SVG Version: 6.00 Build 0)  -->
<svg xmlns="http://www.w3.org/2000/svg" xmlns:xlink="http://www.w3.org/1999/xlink" version="1.1" id="Capa_1" x="0px" y="0px" viewBox="0 0 512.001 512.001" style="enable-background:new 0 0 512.001 512.001;" xml:space="preserve">
<g>
	<polygon style="fill:#F7A139;" points="201.939,243.864 227.456,270.707 222.588,307.416 256,291.445 289.411,307.416    284.544,270.707 310.061,243.864 273.643,237.147 256,204.585 238.359,237.147  "/>
	<path style="fill:#808080;" d="M227.456,270.707l-25.517-26.843l36.42-6.716L256,204.585l17.643,32.562l36.418,6.716   l-25.518,26.843l4.867,36.709L256,291.445l-33.412,15.971L227.456,270.707L227.456,270.707z M427.131,170.434H84.87v44.153v126.98   h342.261v-44.155L427.131,170.434L427.131,170.434z"/>
	<path style="fill:#E7526A;" d="M84.87,170.434h342.261v126.978v44.155H84.87v-126.98V170.434L84.87,170.434z M469.912,127.653   H42.086c0,17.72-14.365,32.088-32.086,32.088v64.675c17.721,0,32.086,14.368,32.086,32.086c0,17.725-14.365,32.088-32.086,32.088   v63.672c17.721,0,32.086,14.363,32.086,32.086h427.826c0-17.723,14.368-32.086,32.089-32.086V288.59   c-17.721,0-32.089-14.364-32.089-32.088c0-17.719,14.368-32.086,32.089-32.086v-64.675   C484.28,159.741,469.912,145.373,469.912,127.653z"/>
</g>
<path d="M502.001,234.416c5.522,0,10-4.477,10-10v-64.675c0-5.523-4.478-10-10-10c-12.18,0-22.089-9.909-22.089-22.088  c0-5.523-4.478-10-10-10H42.086c-5.522,0-10,4.477-10,10c0,12.179-9.908,22.088-22.086,22.088c-5.523,0-10,4.477-10,10v64.675  c0,5.523,4.477,10,10,10c12.178,0,22.086,9.908,22.086,22.086c0,12.18-9.908,22.088-22.086,22.088c-5.523,0-10,4.477-10,10v63.672  c0,5.523,4.477,10,10,10c12.178,0,22.086,9.908,22.086,22.086c0,5.523,4.478,10,10,10h427.826c5.522,0,10-4.477,10-10  c0-12.178,9.909-22.086,22.089-22.086c5.522,0,10-4.477,10-10V288.59c0-5.523-4.478-10-10-10c-12.18,0-22.089-9.909-22.089-22.088  C479.912,244.324,489.821,234.416,502.001,234.416z M492.001,297.39v46.072c-15.19,3.715-27.173,15.697-30.889,30.886H50.886  C47.17,359.16,35.188,347.178,20,343.462V297.39c18.395-4.5,32.086-21.125,32.086-40.888c0-19.762-13.691-36.386-32.086-40.886  v-47.075c15.188-3.716,27.17-15.699,30.886-30.888h410.227c3.716,15.189,15.699,27.172,30.889,30.888v47.075  c-18.397,4.5-32.089,21.124-32.089,40.886C459.912,276.265,473.604,292.89,492.001,297.39z"/>
<path d="M427.131,160.434H84.868c-5.522,0-10,4.477-10,10v171.133c0,5.523,4.478,10,10,10h342.263c5.522,0,10-4.477,10-10V170.434  C437.131,164.911,432.653,160.434,427.131,160.434z M94.868,331.567v-106.98h41.298c5.523,0,10-4.477,10-10s-4.477-10-10-10H94.868  v-24.153h322.263v106.978h-41.298c-5.523,0-10,4.477-10,10s4.477,10,10,10h41.298v24.155H94.868z"/>
<path d="M311.876,234.032l-31.718-5.851l-15.366-28.359c-1.748-3.226-5.122-5.236-8.792-5.236c-3.67,0-7.044,2.01-8.792,5.236  l-15.366,28.359l-31.719,5.851c-3.608,0.665-6.563,3.254-7.696,6.744c-1.134,3.49-0.265,7.32,2.263,9.98l22.224,23.376  l-4.238,31.972c-0.482,3.638,1.066,7.247,4.035,9.404c2.969,2.158,6.881,2.514,10.191,0.932L256,302.529l29.098,13.911  c1.371,0.655,2.845,0.978,4.313,0.978c2.076,0,4.14-0.646,5.879-1.91c2.969-2.157,4.518-5.767,4.035-9.405l-4.238-31.971  l22.223-23.376c2.528-2.659,3.397-6.49,2.264-9.98C318.439,237.286,315.484,234.697,311.876,234.032z M277.297,263.816  c-2.084,2.191-3.064,5.207-2.666,8.205l2.441,18.413l-16.759-8.012c-2.729-1.305-5.899-1.304-8.627,0l-16.76,8.012l2.441-18.415  c0.397-2.997-0.582-6.013-2.665-8.204l-12.801-13.465l18.27-3.37c2.973-0.548,5.538-2.412,6.978-5.07L256,225.576l8.852,16.335  c1.439,2.658,4.005,4.521,6.978,5.07l18.268,3.37L277.297,263.816z"/>
<path d="M348.388,287.416h-0.257c-5.522,0-10,4.477-10,10s4.478,10,10,10h0.257c5.522,0,10-4.477,10-10  C358.388,291.893,353.91,287.416,348.388,287.416z"/>
<path d="M163.868,204.591h-0.255c-5.522,0-10,4.477-10,10s4.478,10,10,10h0.255c5.522,0,10-4.477,10-10  C173.868,209.068,169.391,204.591,163.868,204.591z"/>
<g>
</g>
<g>
</g>
<g>
</g>
<g>
</g>
<g>
</g>
<g>
</g>
<g>
</g>
<g>
</g>
<g>
</g>
<g>
</g>
<g>
</g>
<g>
</g>
<g>
</g>
<g>
</g>
<g>
</g>
</svg>
