<?xml version="1.0" encoding="iso-8859-1"?>
<!-- Generator: Adobe Illustrator 19.0.0, SVG Export Plug-In . SVG Version: 6.00 Build 0)  -->
<svg xmlns="http://www.w3.org/2000/svg" xmlns:xlink="http://www.w3.org/1999/xlink" version="1.1" id="Capa_1" x="0px" y="0px" viewBox="0 0 511.999 511.999" style="enable-background:new 0 0 511.999 511.999;" xml:space="preserve">
<path style="fill:#424A4C;" d="M163.085,221.983c0,0-135.76-31.112-152.73,73.536c0,0-24.795,121.22,72.444,118.945  c2.272-0.053,4.548-0.066,6.818,0.037c18.109,0.826,134.613-14.827,134.472-120.094  C224.083,289.509,229.112,232.642,163.085,221.983z"/>
<path style="fill:#30393A;" d="M224.094,294.412c0.14,105.267-116.368,120.913-134.476,120.092c-2.272-0.11-4.545-0.09-6.817-0.04  c-5.285,0.12-10.22-0.12-14.805-0.701c35.196-4.254,122.504-28.219,122.384-119.351c-0.01-4.905,5.015-61.773-61.012-72.433  c0,0-10.581-2.423-26.207-3.644c32.053-2.743,59.921,3.644,59.921,3.644C229.109,232.639,224.084,289.507,224.094,294.412z"/>
<path style="fill:#424A4C;" d="M349.007,221.983c0,0,135.76-31.112,152.73,73.536c0,0,24.795,121.22-72.444,118.945  c-2.272-0.053-4.548-0.066-6.818,0.037c-18.109,0.826-134.613-14.827-134.473-120.094  C288.009,289.509,282.98,232.642,349.007,221.983z"/>
<path style="fill:#30393A;" d="M429.292,414.464c-2.272-0.05-4.545-0.07-6.817,0.04c-2.703,0.12-7.598-0.12-13.964-0.981  c77.639-11.281,55.807-118,55.807-118c-9.139-56.397-52.783-73.364-91.082-77.028c39.85-3.454,116.068,0.34,128.5,77.028  C501.735,295.523,526.53,416.736,429.292,414.464z"/>
<g>
	<path style="fill:#A1ACAD;" d="M69.283,376.852c-1.667,0-3.345-0.553-4.736-1.691c-3.202-2.618-3.676-7.336-1.058-10.538   l87.091-106.535c2.616-3.202,7.335-3.676,10.538-1.058c3.202,2.618,3.676,7.336,1.058,10.538L75.085,374.103   C73.605,375.914,71.452,376.852,69.283,376.852z"/>
	<path style="fill:#A1ACAD;" d="M504.699,324.424c-4.099-0.101-7.571,3.162-7.675,7.298c-0.53,21.071-5.196,38.761-13.492,51.157   c-11.089,16.57-29.292,24.687-54.063,24.098c-2.921-0.069-5.183-0.055-7.335,0.043c-8.377,0.377-61.764-5.048-96.467-38.248   c-20.063-19.195-30.215-44.212-30.175-74.355c0-0.284-0.011-0.708-0.028-1.262c-0.111-3.574-0.01-7.61,0.495-11.876   c0.193-0.664,0.301-1.363,0.301-2.089c0-0.046-0.003-0.091-0.003-0.137c2.949-19.702,14.916-43.376,53.946-49.676   c0.161-0.026,0.321-0.058,0.48-0.094c0.142-0.032,6.857-1.54,17.326-2.725c0.05-0.005,0.099-0.012,0.148-0.017   c11.977-1.348,28.821-2.264,46.365-0.084c1.845,0.229,3.648,0.498,5.432,0.784l-82.139,100.477   c-2.618,3.202-2.144,7.921,1.058,10.538c1.392,1.138,3.069,1.691,4.736,1.691c2.17,0,4.322-0.938,5.802-2.749l86.894-106.293   c13.104,3.885,24.078,9.708,32.896,17.434l3.453,3.437c0.322,0.32,0.669,0.599,1.029,0.849c8.909,9.294,15.177,20.908,18.74,34.824   c1.025,4.006,5.106,6.424,9.112,5.398c4.007-1.025,6.424-5.105,5.398-9.112c-4.797-18.74-13.921-34.108-27.026-45.873   l-139.8-139.14c-5.667-5.641-13.191-8.747-21.187-8.747c-16.56,0-30.032,13.472-30.032,30.033v4.963   c0,4.136,3.352,7.489,7.489,7.489c4.137,0,7.489-3.353,7.489-7.489v-4.963c0-8.301,6.754-15.055,15.055-15.055   c4.008,0,7.779,1.557,10.619,4.385l106.479,105.977c-6.198-1.611-12.743-2.863-19.651-3.722   c-18.936-2.354-314.692-3.04-340.524,3.744l106.501-105.999c2.841-2.827,6.612-4.384,10.62-4.384   c8.301,0,15.054,6.753,15.054,15.055v4.963c0,4.136,3.353,7.489,7.489,7.489c4.137,0,7.489-3.353,7.489-7.489v-4.963   c0-16.56-13.472-30.033-30.032-30.033c-7.996,0-15.52,3.106-21.187,8.746L28.668,241.158c-0.075,0.075-0.14,0.156-0.211,0.233   c-13.387,13.53-21.945,31.204-25.47,52.785c-0.881,4.406-12.663,66.805,17.605,103.019c14.261,17.061,35.23,25.388,62.383,24.756   c2.563-0.06,4.507-0.05,6.301,0.031c0.608,0.028,1.273,0.042,1.99,0.042c18.274,0,70.875-9.29,105.513-42.429   c23.137-22.135,34.845-50.8,34.8-85.199c0-0.176,0.01-0.436,0.02-0.774c0.169-5.412-0.085-10.634-0.757-15.646   c0.636-13.352,11.696-24.02,25.204-24.02c13.507,0,24.568,10.668,25.204,24.02c-0.672,5.013-0.926,10.235-0.757,15.646   c0.011,0.338,0.02,0.598,0.02,0.775c-0.046,34.398,11.663,63.063,34.8,85.198c34.642,33.141,87.242,42.43,105.513,42.429   c0.716,0,1.382-0.014,1.989-0.042c1.793-0.082,3.739-0.091,6.302-0.031c30.269,0.695,52.737-9.636,66.862-30.742   c10.018-14.969,15.407-34.857,16.018-59.11C512.101,327.964,508.834,324.528,504.699,324.424z M17.692,297.02   c0.02-0.1,0.039-0.201,0.056-0.302c3.88-23.931,14.825-42.115,32.529-54.047c23.883-16.097,55.877-18.363,79.405-17.241   L18.199,357.822C11.448,328.781,17.606,297.446,17.692,297.02z M216.629,293.155c-0.018,0.553-0.028,0.978-0.028,1.261   c0.04,30.144-10.112,55.161-30.175,74.356c-34.705,33.202-88.091,38.633-96.468,38.248c-1.256-0.057-2.55-0.085-3.992-0.085   c-1.026,0-2.127,0.014-3.342,0.042c-22.323,0.528-39.324-5.99-50.514-19.357c-3.354-4.007-6.083-8.472-8.297-13.21l124.092-147.365   c8.205,1.064,13.328,2.197,13.512,2.239c0.158,0.036,0.316,0.067,0.475,0.093c39.03,6.301,50.997,29.975,53.946,49.676   c0,0.046-0.004,0.091-0.004,0.137c0,0.726,0.109,1.425,0.301,2.089C216.639,285.546,216.741,289.581,216.629,293.155z    M256.046,238.978c-13.032,0-24.63,6.236-31.983,15.875c-0.002-0.004-0.004-0.008-0.006-0.012   c-4.425-9.204-12.191-19.933-25.737-28.246h115.452c-13.547,8.314-21.314,19.042-25.739,28.246   c-0.002,0.004-0.004,0.008-0.006,0.012C280.676,245.213,269.078,238.978,256.046,238.978z"/>
</g>
<g>
</g>
<g>
</g>
<g>
</g>
<g>
</g>
<g>
</g>
<g>
</g>
<g>
</g>
<g>
</g>
<g>
</g>
<g>
</g>
<g>
</g>
<g>
</g>
<g>
</g>
<g>
</g>
<g>
</g>
</svg>
