<?xml version="1.0" encoding="iso-8859-1"?>
<!-- Generator: Adobe Illustrator 19.0.0, SVG Export Plug-In . SVG Version: 6.00 Build 0)  -->
<svg xmlns="http://www.w3.org/2000/svg" xmlns:xlink="http://www.w3.org/1999/xlink" version="1.1" id="Capa_1" x="0px" y="0px" viewBox="0 0 512 512" style="enable-background:new 0 0 512 512;" xml:space="preserve">
<g>
	<path style="fill:#5F8ACE;" d="M217.723,502V10H10v492H217.723L217.723,502z M136.986,85.305c0,12.771-10.354,23.126-23.124,23.126   S90.738,98.076,90.738,85.305s10.354-23.124,23.124-23.124S136.986,72.535,136.986,85.305L136.986,85.305z M113.862,162.806   c35.207,0,63.749,28.542,63.749,63.749s-28.542,63.749-63.749,63.749s-63.749-28.542-63.749-63.749S78.655,162.806,113.862,162.806   L113.862,162.806z M113.862,342.068c31.474,0,56.988,25.517,56.988,56.989c0,31.474-25.515,56.989-56.988,56.989   c-31.474,0-56.988-25.515-56.988-56.989C56.874,367.585,82.388,342.068,113.862,342.068z"/>
	<circle style="fill:#808080;" cx="113.859" cy="85.31" r="23.12"/>
	<path style="fill:#9ADFEF;" d="M177.611,226.555c0-35.208-28.542-63.749-63.749-63.749s-63.749,28.542-63.749,63.749   s28.542,63.749,63.749,63.749S177.611,261.762,177.611,226.555L177.611,226.555z M113.862,203.431   c12.771,0,23.124,10.352,23.124,23.124c0,12.77-10.354,23.124-23.124,23.124s-23.124-10.354-23.124-23.124   C90.738,213.782,101.091,203.431,113.862,203.431z"/>
	<circle style="fill:#5F8ACE;" cx="113.859" cy="226.56" r="23.12"/>
	<path style="fill:#9ADFEF;" d="M170.85,399.057c0-31.472-25.515-56.989-56.988-56.989c-31.474,0-56.988,25.517-56.988,56.989   c0,31.474,25.515,56.989,56.988,56.989C145.335,456.045,170.85,430.531,170.85,399.057L170.85,399.057z M113.862,378.386   c11.416,0,20.673,9.255,20.673,20.67c0,11.418-9.257,20.672-20.673,20.672c-11.418,0-20.671-9.255-20.671-20.672   C93.191,387.641,102.444,378.386,113.862,378.386z"/>
	<g>
		<circle style="fill:#5F8ACE;" cx="113.859" cy="399.06" r="20.672"/>
		<path style="fill:#5F8ACE;" d="M398.138,62.181c12.771,0,23.125,10.354,23.125,23.124s-10.354,23.126-23.125,23.126    c-12.772,0-23.126-10.356-23.126-23.126S385.365,62.181,398.138,62.181L398.138,62.181z M294.275,10v492H502V10H294.275    L294.275,10z M398.138,162.806c35.207,0,63.75,28.542,63.75,63.749s-28.543,63.749-63.75,63.749s-63.751-28.542-63.751-63.749    S362.931,162.806,398.138,162.806L398.138,162.806z M398.138,342.068c31.472,0,56.988,25.517,56.988,56.989    c0,31.474-25.517,56.989-56.988,56.989c-31.474,0-56.988-25.515-56.988-56.989C341.15,367.585,366.664,342.068,398.138,342.068z"/>
	</g>
	<circle style="fill:#808080;" cx="398.14" cy="85.31" r="23.12"/>
	<path style="fill:#9ADFEF;" d="M461.888,226.555c0-35.208-28.543-63.749-63.75-63.749s-63.751,28.542-63.751,63.749   s28.544,63.749,63.751,63.749S461.888,261.762,461.888,226.555L461.888,226.555z M398.138,203.431   c12.771,0,23.125,10.352,23.125,23.124c0,12.77-10.354,23.124-23.125,23.124c-12.772,0-23.126-10.354-23.126-23.124   C375.012,213.782,385.365,203.431,398.138,203.431z"/>
	<circle style="fill:#5F8ACE;" cx="398.14" cy="226.56" r="23.12"/>
	<path style="fill:#9ADFEF;" d="M455.126,399.057c0-31.472-25.517-56.989-56.988-56.989c-31.474,0-56.988,25.517-56.988,56.989   c0,31.474,25.515,56.989,56.988,56.989C429.609,456.045,455.126,430.531,455.126,399.057L455.126,399.057z M398.138,378.386   c11.416,0,20.671,9.255,20.671,20.67c0,11.418-9.255,20.672-20.671,20.672c-11.418,0-20.672-9.255-20.672-20.672   C377.466,387.641,386.72,378.386,398.138,378.386z"/>
	<circle style="fill:#5F8ACE;" cx="398.14" cy="399.06" r="20.671"/>
</g>
<path d="M217.723,0H10c-5.523,0-10,4.477-10,10v492c0,5.523,4.478,10,10,10h207.723c5.523,0,10-4.477,10-10V10  C227.723,4.477,223.245,0,217.723,0z M207.723,492H20V20h187.723V492z"/>
<path d="M59.205,126.87c1.696,0,3.415-0.432,4.99-1.341c4.782-2.761,6.422-8.877,3.66-13.66c-4.656-8.067-7.118-17.253-7.118-26.564  c0-0.897,0.025-1.846,0.075-2.821c0.281-5.516-3.962-10.215-9.479-10.496c-0.173-0.009-0.345-0.013-0.518-0.013  c-5.288,0-9.706,4.149-9.979,9.491c-0.066,1.313-0.101,2.604-0.101,3.84c0,12.817,3.388,25.46,9.798,36.563  C52.387,125.077,55.748,126.87,59.205,126.87z"/>
<path d="M166.988,85.305c0,9.311-2.462,18.497-7.118,26.564c-2.762,4.783-1.122,10.899,3.66,13.66  c1.575,0.909,3.294,1.341,4.99,1.341c3.456,0,6.818-1.794,8.67-5.002c6.41-11.103,9.798-23.746,9.798-36.563  s-3.388-25.46-9.798-36.562c-2.762-4.782-8.878-6.42-13.66-3.66c-4.783,2.762-6.422,8.878-3.66,13.661  C164.526,66.809,166.988,75.994,166.988,85.305z"/>
<path d="M113.863,118.432c18.265,0,33.124-14.86,33.124-33.126c0-18.265-14.859-33.124-33.124-33.124  c-18.266,0-33.126,14.859-33.126,33.124C80.738,103.571,95.598,118.432,113.863,118.432z M113.863,72.181  c7.236,0,13.124,5.887,13.124,13.124c0,7.238-5.888,13.126-13.124,13.126c-7.237,0-13.126-5.889-13.126-13.126  C100.738,78.068,106.626,72.181,113.863,72.181z"/>
<path d="M113.863,259.679c18.265,0,33.124-14.859,33.124-33.124s-14.859-33.124-33.124-33.124  c-18.266,0-33.126,14.859-33.126,33.124C80.738,244.82,95.598,259.679,113.863,259.679z M113.863,213.431  c7.236,0,13.124,5.888,13.124,13.124c0,7.237-5.888,13.124-13.124,13.124c-7.237,0-13.126-5.887-13.126-13.124  C100.738,219.318,106.626,213.431,113.863,213.431z"/>
<path d="M113.863,300.304c40.665,0,73.749-33.083,73.749-73.749s-33.084-73.749-73.749-73.749  c-40.666,0-73.751,33.084-73.751,73.749C40.113,267.221,73.197,300.304,113.863,300.304z M113.863,172.806  c29.638,0,53.749,24.112,53.749,53.749s-24.111,53.749-53.749,53.749c-29.639,0-53.751-24.112-53.751-53.749  C60.113,196.917,84.225,172.806,113.863,172.806z"/>
<path d="M113.863,368.386c-16.913,0-30.673,13.759-30.673,30.67c0,16.913,13.76,30.672,30.673,30.672  c16.912,0,30.671-13.76,30.671-30.672C144.535,382.145,130.776,368.386,113.863,368.386z M113.863,409.729  c-5.885,0-10.673-4.788-10.673-10.672s4.788-10.67,10.673-10.67c5.884,0,10.671,4.787,10.671,10.67  C124.535,404.941,119.747,409.729,113.863,409.729z"/>
<path d="M113.863,332.068c-36.938,0-66.988,30.051-66.988,66.989s30.051,66.989,66.988,66.989s66.986-30.051,66.986-66.989  S150.8,332.068,113.863,332.068z M113.863,446.045c-25.909,0-46.988-21.079-46.988-46.989c0-25.91,21.079-46.989,46.988-46.989  c25.908,0,46.986,21.079,46.986,46.989C160.85,424.966,139.772,446.045,113.863,446.045z"/>
<path d="M54.113,62.655c1.559,0.889,3.257,1.311,4.934,1.311c3.476,0,6.857-1.815,8.705-5.045l0.084-0.145  c2.778-4.771,1.148-10.862-3.621-13.643c-4.769-2.781-10.905-1.144-13.688,3.625l-0.164,0.284  C47.639,53.839,49.321,59.923,54.113,62.655z"/>
<path d="M501.999,0H294.275c-5.523,0-10,4.477-10,10v492c0,5.523,4.477,10,10,10H502c5.523,0,10-4.477,10-10V10  C511.999,4.477,507.522,0,501.999,0z M491.999,492H304.275V20H492v472H491.999z"/>
<path d="M451.263,85.305c0,0.905-0.025,1.848-0.076,2.804c-0.291,5.515,3.944,10.222,9.46,10.513  c0.179,0.009,0.357,0.014,0.535,0.014c5.281,0,9.696-4.138,9.978-9.474c0.068-1.305,0.103-2.603,0.103-3.857  c0-12.816-3.388-25.459-9.797-36.561c-2.76-4.783-8.874-6.421-13.66-3.661c-4.783,2.761-6.422,8.877-3.66,13.66  C448.802,66.81,451.263,75.994,451.263,85.305z"/>
<path d="M343.48,126.87c1.696,0,3.416-0.432,4.991-1.342c4.782-2.762,6.421-8.878,3.659-13.661  c-4.656-8.062-7.117-17.247-7.117-26.563c0-9.315,2.461-18.499,7.116-26.56c2.763-4.782,1.125-10.898-3.657-13.661  c-4.782-2.762-10.898-1.125-13.661,3.658c-6.41,11.097-9.798,23.74-9.798,36.562s3.388,25.466,9.797,36.564  C336.663,125.077,340.025,126.87,343.48,126.87z"/>
<path d="M398.138,118.432c18.267,0,33.127-14.86,33.127-33.126c0-18.265-14.86-33.124-33.127-33.124  c-18.265,0-33.124,14.859-33.124,33.124S379.872,118.432,398.138,118.432z M398.138,72.181c7.238,0,13.127,5.887,13.127,13.124  c0,7.238-5.889,13.126-13.127,13.126c-7.236,0-13.124-5.889-13.124-13.126S390.902,72.181,398.138,72.181z"/>
<path d="M398.138,259.679c18.267,0,33.127-14.859,33.127-33.124s-14.86-33.124-33.127-33.124c-18.265,0-33.124,14.859-33.124,33.124  S379.872,259.679,398.138,259.679z M398.138,213.431c7.238,0,13.127,5.888,13.127,13.124c0,7.237-5.889,13.124-13.127,13.124  c-7.236,0-13.124-5.887-13.124-13.124S390.902,213.431,398.138,213.431z"/>
<path d="M398.138,300.304c40.667,0,73.752-33.083,73.752-73.749s-33.085-73.749-73.752-73.749  c-40.665,0-73.749,33.084-73.749,73.749C324.389,267.221,357.473,300.304,398.138,300.304z M398.138,172.806  c29.639,0,53.752,24.112,53.752,53.749s-24.113,53.749-53.752,53.749c-29.638,0-53.749-24.112-53.749-53.749  C344.389,196.917,368.5,172.806,398.138,172.806z"/>
<path d="M398.138,368.386c-16.911,0-30.67,13.759-30.67,30.67c0,16.913,13.759,30.672,30.67,30.672  c16.913,0,30.673-13.76,30.673-30.672C428.811,382.145,415.051,368.386,398.138,368.386z M398.138,409.729  c-5.884,0-10.67-4.788-10.67-10.672s4.786-10.67,10.67-10.67c5.885,0,10.673,4.787,10.673,10.67  C408.811,404.941,404.023,409.729,398.138,409.729z"/>
<path d="M398.138,332.068c-36.938,0-66.988,30.051-66.988,66.989s30.051,66.989,66.988,66.989s66.988-30.051,66.988-66.989  S435.075,332.068,398.138,332.068z M398.138,446.045c-25.909,0-46.988-21.079-46.988-46.989c0-25.91,21.079-46.989,46.988-46.989  s46.988,21.079,46.988,46.989C445.126,424.966,424.047,446.045,398.138,446.045z"/>
<path d="M457.844,107.943c-4.807-2.714-10.921-0.995-13.636,3.816l-0.092,0.158c-2.733,4.799-1.046,10.882,3.753,13.616  c1.557,0.887,3.251,1.307,4.924,1.307c3.487,0,6.882-1.827,8.729-5.069l0.129-0.224  C464.364,116.736,462.654,110.658,457.844,107.943z"/>
<g>
</g>
<g>
</g>
<g>
</g>
<g>
</g>
<g>
</g>
<g>
</g>
<g>
</g>
<g>
</g>
<g>
</g>
<g>
</g>
<g>
</g>
<g>
</g>
<g>
</g>
<g>
</g>
<g>
</g>
</svg>
