<?xml version="1.0" encoding="iso-8859-1"?>
<!-- Generator: Adobe Illustrator 19.0.0, SVG Export Plug-In . SVG Version: 6.00 Build 0)  -->
<svg xmlns="http://www.w3.org/2000/svg" xmlns:xlink="http://www.w3.org/1999/xlink" version="1.1" id="Capa_1" x="0px" y="0px" viewBox="0 0 511.999 511.999" style="enable-background:new 0 0 511.999 511.999;" xml:space="preserve">
<path style="fill:#DDE5E8;" d="M296.352,102.619H29.764c-2.802,0-5.074,2.272-5.074,5.074v399.232c0,2.802,2.272,5.074,5.074,5.074  h321.673c2.802,0,5.074-2.272,5.074-5.074V141.281L296.352,102.619z"/>
<path style="fill:#BACBD1;" d="M356.51,141.279v365.646c0,2.802-2.272,5.074-5.074,5.074H311.43v-370.72l-60.161-38.656h45.08  L356.51,141.279z"/>
<polygon style="fill:#819696;" points="296.352,102.619 296.352,141.006 356.511,141.006 "/>
<g>
	<path style="fill:#36353A;" d="M356.504,110.125c-1.388,0-2.792-0.379-4.053-1.173c-3.556-2.242-4.621-6.942-2.38-10.498   l8.674-13.759c2.335-3.707,6.347-5.921,10.731-5.921h18.217L394.7,54.58c1.063-3.669,3.687-6.634,7.199-8.136   c3.51-1.501,7.468-1.349,10.855,0.418l19.232,10.035V17.773c0-4.204,3.407-7.611,7.611-7.611s7.612,3.408,7.612,7.611v43.311   c0,4.474-2.284,8.53-6.111,10.849c-3.826,2.319-8.477,2.468-12.444,0.397L408.46,61.793l-6.675,23.047   c-1.562,5.391-6.573,9.157-12.185,9.157h-18.723l-7.928,12.575C361.503,108.867,359.031,110.125,356.504,110.125z"/>
	<path style="fill:#36353A;" d="M383.735,141c-2.659,0-5.241-1.395-6.639-3.878c-2.062-3.663-0.766-8.304,2.897-10.367   l19.535-11.002c3.046-1.714,6.704-2.095,10.035-1.047l33.932,10.679l33.786-11.298c3.989-1.331,8.3,0.818,9.633,4.805   s-0.819,8.299-4.805,9.632l-34.567,11.559c-2.554,0.854-5.261,0.878-7.831,0.07l-33.671-10.598l-18.577,10.463   C386.283,140.683,385,141,383.735,141z"/>
	<path style="fill:#36353A;" d="M326.44,89.74c-0.491,0-0.988-0.048-1.488-0.147c-4.124-0.818-6.804-4.823-5.986-8.946l5.68-28.654   c1.172-5.921,6.406-10.219,12.443-10.219H348.9V7.611c0-4.204,3.407-7.611,7.611-7.611s7.612,3.408,7.612,7.611v36.7   c0,6.995-5.691,12.686-12.686,12.686h-12.264l-5.276,26.61C333.18,87.23,329.999,89.74,326.44,89.74z"/>
</g>
<path style="fill:#FF8A33;" d="M244.729,339.692c-5.144,0-9.974,1.337-14.17,3.675V214.131c0-4.142-3.358-7.5-7.5-7.5H110.095  c-4.142,0-7.5,3.358-7.5,7.5v182.54c0,0.282,0.019,0.56,0.049,0.834c-0.03,0.545-0.049,1.093-0.049,1.646  c0,16.104,13.055,29.159,29.159,29.159s29.159-13.055,29.159-29.159s-13.055-29.159-29.159-29.159c-5.14,0-9.966,1.335-14.159,3.669  V252.723h97.964v115.215c0,0.15,0.014,0.297,0.022,0.446c-0.002,0.156-0.012,0.31-0.012,0.467c0,16.104,13.055,29.159,29.159,29.159  s29.159-13.055,29.159-29.159S260.834,339.692,244.729,339.692z M215.56,237.723h-97.964v-16.092h97.964V237.723z"/>
<g>
	<circle style="fill:#819696;" cx="57.882" cy="461.32" r="8.712"/>
	<circle style="fill:#819696;" cx="92.979" cy="484.32" r="8.712"/>
	<circle style="fill:#819696;" cx="92.579" cy="450.36" r="8.712"/>
	<circle style="fill:#819696;" cx="263.059" cy="161.24" r="8.712"/>
	<circle style="fill:#819696;" cx="287.639" cy="188.51" r="8.712"/>
</g>
<g>
	<path style="fill:#ED7829;" d="M160.913,399.15c0,16.106-13.051,29.157-29.157,29.157c-3.41,0-6.678-0.589-9.722-1.664   c11.326-3.999,19.445-14.797,19.445-27.493s-8.119-23.494-19.445-27.493c3.045-1.076,6.312-1.664,9.722-1.664   C147.862,369.993,160.913,383.044,160.913,399.15z"/>
	<path style="fill:#ED7829;" d="M273.888,368.85c0,16.106-13.051,29.157-29.157,29.157c-3.41,0-6.678-0.589-9.722-1.664   c11.326-3.999,19.445-14.797,19.445-27.493s-8.119-23.494-19.445-27.493c3.045-1.076,6.312-1.664,9.722-1.664   C260.837,339.693,273.888,352.744,273.888,368.85z"/>
</g>
<g>
</g>
<g>
</g>
<g>
</g>
<g>
</g>
<g>
</g>
<g>
</g>
<g>
</g>
<g>
</g>
<g>
</g>
<g>
</g>
<g>
</g>
<g>
</g>
<g>
</g>
<g>
</g>
<g>
</g>
</svg>
