<?xml version="1.0" encoding="iso-8859-1"?>
<!-- Generator: Adobe Illustrator 19.0.0, SVG Export Plug-In . SVG Version: 6.00 Build 0)  -->
<svg xmlns="http://www.w3.org/2000/svg" xmlns:xlink="http://www.w3.org/1999/xlink" version="1.1" id="Capa_1" x="0px" y="0px" viewBox="0 0 512 512" style="enable-background:new 0 0 512 512;" xml:space="preserve">
<g>
	<path style="fill:#9ADFEF;" d="M168.763,327.523V197.512c-15.88,0-28.752-12.872-28.752-28.749   c0-15.879,12.872-28.751,28.752-28.751c15.877,0,28.749,12.872,28.749,28.751h130.012C327.524,81.08,256.444,10,168.763,10   C81.079,10,10,81.08,10,168.763C10,256.444,81.079,327.523,168.763,327.523z"/>
	<path style="fill:#E7526A;" d="M168.763,197.512v130.011V502H502V168.763H327.524H197.512h-28.749V197.512L168.763,197.512z    M321.631,262.61l13.75-33.303l13.751,33.303l35.921,2.788l-27.423,23.366l8.449,35.024l-30.698-18.86l-30.697,18.86l8.449-35.024   l-27.425-23.366L321.631,262.61z"/>
	<polygon style="fill:#F7A139;" points="285.708,265.398 313.133,288.764 304.684,323.788 335.381,304.928 366.079,323.788    357.63,288.764 385.053,265.398 349.132,262.61 335.381,229.308 321.631,262.61  "/>
	<path style="fill:#E7526A;" d="M168.763,197.512v-28.749h28.749c0-15.879-12.872-28.751-28.749-28.751   c-15.88,0-28.752,12.872-28.752,28.751C140.011,184.64,152.883,197.512,168.763,197.512z"/>
</g>
<path d="M375.383,404.235c5.523,0,10-4.477,10-10s-4.477-10-10-10h-0.238c-5.522,0-10,4.477-10,10s4.478,10,10,10H375.383z"/>
<path d="M346.416,404.231c5.522,0,10-4.477,10-10s-4.478-10-10-10H295.38c-5.522,0-10,4.477-10,10s4.478,10,10,10H346.416z"/>
<path d="M502,158.763H337.219C332.026,70.344,258.46,0,168.763,0C75.707,0,0,75.706,0,168.763  c0,89.697,70.345,163.263,158.763,168.456V502c0,5.523,4.478,10,10,10H502c5.523,0,10-4.477,10-10V168.763  C512,163.24,507.524,158.763,502,158.763z M20,168.763C20,86.735,86.735,20,168.763,20c78.665,0,143.255,61.381,148.417,138.763  H206.197c-4.422-16.536-19.525-28.751-37.435-28.751c-21.368,0-38.752,17.384-38.752,38.751c0,17.91,12.216,33.013,28.752,37.435  V317.18C81.381,312.018,20,247.428,20,168.763z M168.763,158.763c-5.522,0-10,4.477-10,10v15.833  c-5.249-3.327-8.752-9.172-8.752-15.833c0-10.339,8.412-18.752,18.752-18.752c6.661,0,12.506,3.502,15.833,8.752H168.763z M492,492  H178.763V178.763H492V492z"/>
<path d="M139.387,117.884c8.921-5.149,19.079-7.871,29.376-7.871c15.693,0,30.446,6.111,41.54,17.208  c1.953,1.954,4.512,2.93,7.072,2.93c2.559,0,5.118-0.976,7.07-2.928c3.906-3.905,3.906-10.236,0.002-14.142  c-14.873-14.876-34.648-23.067-55.685-23.067c-13.802,0-27.417,3.648-39.374,10.55c-4.783,2.761-6.423,8.877-3.662,13.66  C128.489,119.006,134.605,120.644,139.387,117.884z"/>
<path d="M254.281,119.386c1.853,3.208,5.214,5.002,8.67,5.002c1.696,0,3.416-0.432,4.99-1.341c4.783-2.761,6.422-8.877,3.66-13.66  c-21.142-36.623-60.549-59.374-102.839-59.374c-31.663,0-61.447,12.315-83.864,34.677c-3.91,3.9-3.919,10.232-0.019,14.142  c3.901,3.911,10.232,3.918,14.142,0.018c18.643-18.596,43.41-28.837,69.741-28.837C203.93,70.012,236.699,88.931,254.281,119.386z"/>
<path d="M79.656,105.525c-4.793-2.744-10.902-1.084-13.647,3.71c-0.003,0.006-0.066,0.116-0.073,0.129  c-2.775,4.774-1.154,10.894,3.619,13.67c1.582,0.919,3.311,1.356,5.018,1.356c3.445,0,6.797-1.782,8.654-4.975l0.139-0.243  C86.11,114.38,84.449,108.27,79.656,105.525z"/>
<path d="M314.733,253.115l-29.797,2.311c-4.037,0.313-7.486,3.029-8.738,6.88c-1.251,3.851-0.057,8.076,3.025,10.702l22.748,19.383  l-7.008,29.052c-0.949,3.936,0.567,8.056,3.844,10.435c3.273,2.379,7.66,2.549,11.111,0.43l25.463-15.644l25.464,15.644  c1.61,0.989,3.424,1.479,5.233,1.479c2.068,0,4.132-0.641,5.879-1.91c3.275-2.38,4.793-6.5,3.844-10.436l-7.011-29.051  l22.749-19.383c3.081-2.626,4.275-6.851,3.025-10.702c-1.251-3.851-4.7-6.567-8.737-6.88l-29.796-2.311l-11.407-27.624  c-1.545-3.743-5.194-6.184-9.243-6.184c-4.048,0-7.698,2.441-9.243,6.184L314.733,253.115z M330.875,266.426l4.506-10.916  l4.508,10.916c1.439,3.483,4.713,5.862,8.471,6.154l11.771,0.913l-8.988,7.659c-2.869,2.444-4.119,6.294-3.236,9.958l2.77,11.479  l-10.061-6.182c-1.605-0.986-3.42-1.479-5.234-1.479s-3.63,0.493-5.235,1.479l-10.061,6.182l2.77-11.48  c0.885-3.664-0.367-7.513-3.234-9.957l-8.989-7.659l11.774-0.913C326.162,272.289,329.437,269.91,330.875,266.426z"/>
<path d="M245.696,431.578c0,5.523,4.477,10,10,10h159.373c5.523,0,10-4.477,10-10s-4.477-10-10-10H255.696  C250.172,421.578,245.696,426.055,245.696,431.578z"/>
<g>
</g>
<g>
</g>
<g>
</g>
<g>
</g>
<g>
</g>
<g>
</g>
<g>
</g>
<g>
</g>
<g>
</g>
<g>
</g>
<g>
</g>
<g>
</g>
<g>
</g>
<g>
</g>
<g>
</g>
</svg>
