<?xml version="1.0" encoding="iso-8859-1"?>
<!-- Generator: Adobe Illustrator 19.0.0, SVG Export Plug-In . SVG Version: 6.00 Build 0)  -->
<svg xmlns="http://www.w3.org/2000/svg" xmlns:xlink="http://www.w3.org/1999/xlink" version="1.1" id="Capa_1" x="0px" y="0px" viewBox="0 0 512.001 512.001" style="enable-background:new 0 0 512.001 512.001;" xml:space="preserve">
<g>
	<g>
		<rect x="96" y="226.63" style="fill:#E7526A;" width="40" height="194.86"/>
		<rect x="236" y="300.11" style="fill:#E7526A;" width="40" height="121.39"/>
		<rect x="376" y="355.38" style="fill:#E7526A;" width="40" height="66.12"/>
	</g>
	<g>
		<rect x="96" y="178.72" style="fill:#27D8A9;" width="40" height="47.911"/>
		<rect x="236" y="178.72" style="fill:#27D8A9;" width="40" height="121.39"/>
		<rect x="376" y="178.72" style="fill:#27D8A9;" width="40" height="176.66"/>
	</g>
	<g>
		<circle style="fill:#F7A139;" cx="354.79" cy="108.3" r="19.999"/>
		<circle style="fill:#F7A139;" cx="157.22" cy="108.3" r="19.999"/>
	</g>
	<path style="fill:#CCCCCC;" d="M177.214,108.298c0,11.045-8.954,19.999-19.999,19.999c-11.046,0-19.999-8.954-19.999-19.999   c0-11.044,8.953-20,19.999-20C168.26,88.298,177.214,97.254,177.214,108.298L177.214,108.298z M487.246,37.875H24.752   C16.638,37.875,10,44.511,10,52.629v406.743c0,8.118,6.638,14.754,14.752,14.754h462.494c8.116,0,14.755-6.637,14.755-14.754   V52.629C502.001,44.511,495.362,37.875,487.246,37.875L487.246,37.875z M135.999,178.724v47.911v194.863h-40V226.635v-47.911   H135.999L135.999,178.724z M236.001,300.111V178.724h40v121.387v121.387h-40V300.111L236.001,300.111z M374.784,108.298   c0,11.045-8.955,19.999-19.998,19.999c-11.046,0-20.002-8.954-20.002-19.999c0-11.044,8.956-20,20.002-20   C365.829,88.298,374.784,97.254,374.784,108.298L374.784,108.298z M376.001,355.382V178.724h40.001v176.658v66.116h-40.001V355.382   z"/>
</g>
<path d="M487.246,27.875H24.752C11.103,27.875,0,38.98,0,52.629v406.743c0,13.649,11.103,24.754,24.752,24.754h462.494  c13.649,0,24.755-11.105,24.755-24.754V52.629C512.001,38.98,500.895,27.875,487.246,27.875z M492.001,459.372  c0,2.577-2.178,4.754-4.755,4.754H24.752c-2.575,0-4.752-2.177-4.752-4.754V52.629c0-2.577,2.177-4.754,4.752-4.754h462.494  c2.577,0,4.755,2.177,4.755,4.754L492.001,459.372L492.001,459.372z"/>
<path d="M150.338,216.635h-4.341v-37.913c0-5.523-4.478-10-10-10H95.996c-5.522,0-10,4.477-10,10v37.913h-4.335  c-5.523,0-10,4.477-10,10s4.477,10,10,10h4.335v184.861c0,5.523,4.478,10,10,10h40.001c5.522,0,10-4.477,10-10V236.635h4.341  c5.522,0,10-4.477,10-10C160.338,221.112,155.86,216.635,150.338,216.635z M105.996,188.722h20.001v27.913h-20.001V188.722z   M125.997,411.495h-20.001v-174.86h20.001V411.495z"/>
<path d="M290.339,290.111h-4.34V178.722c0-5.523-4.477-10-10-10h-40c-5.523,0-10,4.477-10,10v111.389h-4.338  c-5.522,0-10,4.477-10,10s4.478,10,10,10h4.338v111.385c0,5.523,4.477,10,10,10h40c5.523,0,10-4.477,10-10V310.111h4.34  c5.523,0,10-4.477,10-10C300.339,294.588,295.861,290.111,290.339,290.111z M245.999,188.722h20v101.389h-20V188.722z   M265.999,411.495h-20V310.111h20V411.495z"/>
<path d="M430.339,345.382H426V188.724h1.037c5.522,0,10-4.477,10-10s-4.478-10-10-10h-10.999c-0.013,0-0.025-0.002-0.038-0.002  h-40.001c-5.522,0-10,4.477-10,10v166.66h-4.337c-5.522,0-10,4.477-10,10s4.478,10,10,10h4.337v56.113c0,5.523,4.478,10,10,10H416  c5.522,0,10-4.477,10-10v-56.113h4.339c5.523,0,10-4.477,10-10S435.862,345.382,430.339,345.382z M385.999,188.724H406v156.658  h-20.001V188.724z M406,411.495h-20.001v-46.113H406V411.495z"/>
<path d="M219.715,118.298c5.523,0,10-4.477,10-10s-4.477-10-10-10h-34.218c-4.129-11.639-15.244-20-28.28-20  c-13.037,0-24.153,8.361-28.281,20.001l-43.972-0.003l0,0c-5.523,0-10,4.477-10,9.999c-0.001,5.523,4.477,10,9.998,10.001  l43.973,0.003c4.129,11.64,15.244,20.001,28.282,20.001s24.153-8.362,28.281-20.003h34.217V118.298z M157.217,118.301  c-5.515,0-10.001-4.486-10.001-10.001s4.486-10.001,10.001-10.001c5.501,0,9.977,4.465,9.999,9.962c0,0.013-0.002,0.025-0.002,0.038  c0,0.014,0.002,0.026,0.002,0.039C167.195,113.835,162.719,118.301,157.217,118.301z"/>
<path d="M456.005,98.298h-72.941c-4.128-11.639-15.242-20-28.277-20c-13.038,0-24.154,8.361-28.283,20h-34.217  c-5.524,0-10,4.477-10,10s4.476,10,10,10h34.216c4.128,11.641,15.245,20.003,28.284,20.003c13.036,0,24.152-8.362,28.279-20.003  h72.939c5.522,0,10-4.477,10-10C466.005,102.775,461.527,98.298,456.005,98.298z M354.786,118.301c-5.51,0-9.993-4.477-10.003-9.982  c0-0.007,0.001-0.014,0.001-0.021c0-0.006-0.001-0.012-0.001-0.019c0.011-5.505,4.493-9.981,10.003-9.981  c5.514,0,9.998,4.487,9.998,10.001C364.784,113.814,360.3,118.301,354.786,118.301z"/>
<path d="M56.233,98.3h-0.237c-5.522,0-10,4.477-10,10s4.478,10,10,10h0.237c5.523,0,10-4.477,10-10S61.757,98.3,56.233,98.3z"/>
<path d="M456.005,168.726h-0.238c-5.523,0-10,4.477-10,10s4.477,10,10,10h0.238c5.522,0,10-4.477,10-10  S461.527,168.726,456.005,168.726z"/>
<g>
</g>
<g>
</g>
<g>
</g>
<g>
</g>
<g>
</g>
<g>
</g>
<g>
</g>
<g>
</g>
<g>
</g>
<g>
</g>
<g>
</g>
<g>
</g>
<g>
</g>
<g>
</g>
<g>
</g>
</svg>
