<?xml version="1.0" encoding="iso-8859-1"?>
<!-- Generator: Adobe Illustrator 19.0.0, SVG Export Plug-In . SVG Version: 6.00 Build 0)  -->
<svg xmlns="http://www.w3.org/2000/svg" xmlns:xlink="http://www.w3.org/1999/xlink" version="1.1" id="Capa_1" x="0px" y="0px" viewBox="0 0 512 512" style="enable-background:new 0 0 512 512;" xml:space="preserve">
<circle style="fill:#FFD15C;" cx="256" cy="55.41" r="55.41"/>
<path style="fill:#E8B44D;" d="M311.407,55.417c0,30.595-24.802,55.407-55.407,55.407c-4.055,0-8.006-0.432-11.814-1.266  c24.925-5.413,43.593-27.601,43.593-54.141c0-26.551-18.668-48.739-43.593-54.152C247.994,0.432,251.946,0,256,0  C286.606,0,311.407,24.812,311.407,55.417z"/>
<circle style="fill:#FF8A33;" cx="256" cy="55.41" r="55.41"/>
<path style="fill:#ED7829;" d="M311.407,55.417c0,30.595-24.802,55.407-55.407,55.407c-4.055,0-8.006-0.432-11.814-1.266  c24.925-5.413,43.593-27.601,43.593-54.141c0-26.551-18.668-48.739-43.593-54.152C247.994,0.432,251.946,0,256,0  C286.606,0,311.407,24.812,311.407,55.417z"/>
<circle style="fill:#FF8A33;" cx="397.84" cy="114.17" r="55.41"/>
<path style="fill:#ED7829;" d="M453.244,114.169c0,30.595-24.802,55.407-55.407,55.407c-4.055,0-8.006-0.432-11.814-1.266  c24.925-5.413,43.593-27.601,43.593-54.141c0-26.551-18.668-48.739-43.593-54.152c3.808-0.834,7.76-1.266,11.814-1.266  C428.443,58.752,453.244,83.564,453.244,114.169z"/>
<circle style="fill:#FF8A33;" cx="456.59" cy="256" r="55.41"/>
<path style="fill:#ED7829;" d="M511.995,256.006c0,30.595-24.802,55.407-55.407,55.407c-4.055,0-8.006-0.432-11.814-1.266  c24.925-5.413,43.593-27.601,43.593-54.141c0-26.551-18.668-48.739-43.593-54.152c3.808-0.834,7.759-1.266,11.814-1.266  C487.193,200.589,511.995,225.4,511.995,256.006z"/>
<circle style="fill:#FF8A33;" cx="397.84" cy="397.84" r="55.41"/>
<path style="fill:#ED7829;" d="M453.244,397.843c0,30.595-24.802,55.407-55.407,55.407c-4.055,0-8.006-0.432-11.814-1.266  c24.925-5.413,43.593-27.601,43.593-54.141c0-26.551-18.668-48.739-43.593-54.152c3.808-0.834,7.76-1.266,11.814-1.266  C428.443,342.425,453.244,367.237,453.244,397.843z"/>
<circle style="fill:#FF8A33;" cx="256" cy="456.59" r="55.41"/>
<path style="fill:#ED7829;" d="M311.407,456.593C311.407,487.189,286.606,512,256,512c-4.055,0-8.006-0.432-11.814-1.266  c24.925-5.413,43.593-27.601,43.593-54.141c0-26.551-18.668-48.739-43.593-54.152c3.808-0.834,7.76-1.266,11.814-1.266  C286.606,401.176,311.407,425.988,311.407,456.593z"/>
<circle style="fill:#FF8A33;" cx="114.16" cy="397.84" r="55.41"/>
<path style="fill:#ED7829;" d="M169.571,397.843c0,30.595-24.802,55.407-55.407,55.407c-4.055,0-8.006-0.432-11.814-1.266  c24.925-5.413,43.593-27.601,43.593-54.141c0-26.551-18.668-48.739-43.593-54.152c3.808-0.834,7.76-1.266,11.814-1.266  C144.769,342.425,169.571,367.237,169.571,397.843z"/>
<circle style="fill:#FF8A33;" cx="55.41" cy="256" r="55.41"/>
<path style="fill:#ED7829;" d="M110.82,256.006c0,30.595-24.802,55.407-55.407,55.407c-4.055,0-8.006-0.432-11.814-1.266  c24.925-5.413,43.593-27.601,43.593-54.141c0-26.551-18.668-48.739-43.593-54.152c3.808-0.834,7.76-1.266,11.814-1.266  C86.019,200.589,110.82,225.4,110.82,256.006z"/>
<circle style="fill:#FF8A33;" cx="114.16" cy="114.17" r="55.41"/>
<path style="fill:#ED7829;" d="M169.571,114.169c0,30.595-24.802,55.407-55.407,55.407c-4.055,0-8.006-0.432-11.814-1.266  c24.925-5.413,43.593-27.601,43.593-54.141c0-26.551-18.668-48.739-43.593-54.152c3.808-0.834,7.76-1.266,11.814-1.266  C144.769,58.752,169.571,83.564,169.571,114.169z"/>
<path style="fill:#A1ACAD;" d="M252.043,37.646c-120.594,0-218.355,97.761-218.355,218.355s97.761,218.355,218.355,218.355  s218.355-97.761,218.355-218.355S372.637,37.646,252.043,37.646z M252.043,441.239c-102.174,0-185.002-82.828-185.002-185.002  S149.869,71.235,252.043,71.235s185.002,82.828,185.002,185.002S354.217,441.239,252.043,441.239z"/>
<g>
</g>
<g>
</g>
<g>
</g>
<g>
</g>
<g>
</g>
<g>
</g>
<g>
</g>
<g>
</g>
<g>
</g>
<g>
</g>
<g>
</g>
<g>
</g>
<g>
</g>
<g>
</g>
<g>
</g>
</svg>
