<?xml version="1.0" encoding="iso-8859-1"?>
<!-- Generator: Adobe Illustrator 19.0.0, SVG Export Plug-In . SVG Version: 6.00 Build 0)  -->
<svg xmlns="http://www.w3.org/2000/svg" xmlns:xlink="http://www.w3.org/1999/xlink" version="1.1" id="Capa_1" x="0px" y="0px" viewBox="0 0 511.999 511.999" style="enable-background:new 0 0 511.999 511.999;" xml:space="preserve">
<g>
	<path style="fill:#808080;" d="M181.396,338.349l39.515-3.066l15.122-36.631l15.127,36.631l39.512,3.066l-30.166,25.702   l9.295,38.525l-33.768-20.746l-33.767,20.746l9.294-38.527L181.396,338.349L181.396,338.349z M326.388,424.543   c13.987-18.766,22.271-42.039,22.271-67.245c0-23.812-7.393-45.897-20.008-64.085c-17.717-25.567-45.748-43.44-78.076-47.609   c-4.761-0.61-9.613-0.928-14.541-0.928c-10.941,0-21.521,1.561-31.522,4.472c-16.97,4.935-32.286,13.762-44.913,25.448   c-22.256,20.569-36.187,50.008-36.187,82.703c0,26.168,8.923,50.248,23.896,69.369C167.92,452.999,200,469.92,236.033,469.92   C273.029,469.92,305.855,452.084,326.388,424.543z"/>
	<polygon style="fill:#F7A139;" points="220.911,335.282 181.396,338.349 211.561,364.048 202.267,402.576 236.033,381.83    269.801,402.576 260.506,364.05 290.672,338.349 251.16,335.282 236.033,298.651  "/>
	<path style="fill:#27D8A9;" d="M123.411,357.298c0-32.694,13.931-62.134,36.187-82.703H10v41.122v110.95h42.95h94.357   C132.334,407.546,123.411,383.466,123.411,357.298z"/>
	<g>
		<polygon style="fill:#5F8ACE;" points="93.262,236.31 204.511,249.148 210.781,194.788 217.056,140.428 105.807,127.59     102.137,159.383   "/>
		<polygon style="fill:#5F8ACE;" points="249.474,194.556 250.574,245.604 351.337,243.433 350.847,220.677 349.136,141.335     304.963,142.287 248.373,143.508   "/>
	</g>
	<path style="fill:#27D8A9;" d="M351.337,243.433l-100.763,2.171c32.328,4.169,60.359,22.042,78.076,47.609h70.273v-72.536h-48.077   L351.337,243.433z"/>
</g>
<path d="M394.804,392.491c2.556-11.539,3.853-23.379,3.853-35.193c0-10.213-0.971-20.473-2.886-30.494  c-1.037-5.425-6.278-8.983-11.699-7.945c-5.425,1.037-8.981,6.274-7.945,11.699c1.679,8.787,2.53,17.783,2.53,26.74  c0,10.362-1.137,20.747-3.379,30.867c-1.195,5.392,2.208,10.732,7.6,11.926c0.728,0.162,1.457,0.239,2.173,0.239  C389.637,400.33,393.771,397.155,394.804,392.491z"/>
<path d="M507.962,461.893l-53.229-39.545V177.232h44.723c5.523,0,10-4.477,10-10s-4.477-10-10-10h-44.723v-31.52  c0-5.523-4.477-10-10-10s-10,4.477-10,10v31.52h-44.719c-5.523,0-10,4.477-10,10s4.477,10,10,10h44.719v245.116l-47.265,35.114  l-47.448-35.25c11.803-18.838,18.639-41.091,18.639-64.914c0-19.401-4.537-37.76-12.593-54.083h52.858c5.523,0,10-4.477,10-10  v-72.538c0-5.523-4.477-10-10-10h-38.291l-1.5-69.557c-0.057-2.652-1.164-5.172-3.08-7.006c-1.915-1.835-4.473-2.822-7.133-2.776  l-34.174,0.737l-0.406-18.837l47.025-1.163c5.521-0.137,9.885-4.723,9.749-10.245c-0.137-5.521-4.7-9.865-10.245-9.749l-46.98,1.162  c-0.333-5.323-4.791-9.491-10.184-9.368c-5.402,0.116-9.701,4.5-9.772,9.862l-47.04,1.163c-5.521,0.137-9.887,4.723-9.75,10.245  c0.135,5.437,4.584,9.752,9.992,9.752c0.084,0,0.168-0.001,0.252-0.003l46.96-1.162l0.404,18.773l-46.595,1.005  c-2.65,0.057-5.171,1.165-7.006,3.08c-1.834,1.916-2.832,4.481-2.775,7.133l0.882,40.893l-17.245,0.104l4.979-43.145  c0.633-5.487-3.302-10.447-8.788-11.081l-111.249-12.838c-2.637-0.304-5.282,0.451-7.36,2.099s-3.416,4.054-3.72,6.688l-0.729,6.307  l-16.48-22.677L90.887,78.65l44.948,18.493c1.245,0.512,2.533,0.754,3.801,0.754c3.933,0,7.662-2.335,9.252-6.198  c2.102-5.107-0.336-10.951-5.443-13.053L98.107,59.994c1.574-4.984-0.961-10.401-5.902-12.323  c-4.82-1.876-10.207,0.242-12.517,4.746L32.093,32.834c-5.108-2.101-10.95,0.335-13.053,5.443  c-2.101,5.107,0.336,10.951,5.443,13.053l47.903,19.709l-14.342,36.872c-1.233,3.171-0.77,6.751,1.23,9.504l32.482,44.693  l-8.43,73.055c-0.634,5.487,3.301,10.447,8.787,11.081l76.312,8.806c-4.396,2.917-8.6,6.103-12.574,9.545H10  c-5.523,0-10,4.477-10,10v152.071c0,5.523,4.477,10,10,10h32.95v33.253c0,5.523,4.478,10,10,10s10-4.477,10-10v-33.253h79.694  c22.51,26.446,56.021,43.253,93.391,43.253c36.621,0,69.537-16.141,92.025-41.677l53.443,39.704  c0.114,0.084,0.232,0.158,0.348,0.236c0.091,0.062,0.18,0.127,0.273,0.186c0.282,0.179,0.569,0.341,0.862,0.488  c0.068,0.034,0.139,0.064,0.209,0.097c0.262,0.125,0.527,0.236,0.795,0.336c0.066,0.024,0.13,0.05,0.195,0.072  c0.337,0.117,0.676,0.219,1.02,0.298c0.003,0.001,0.006,0.001,0.01,0.002c0.334,0.078,0.672,0.132,1.01,0.174  c0.07,0.009,0.139,0.017,0.209,0.025c0.342,0.036,0.684,0.06,1.026,0.06c0.003,0,0.005-0.001,0.008-0.001s0.005,0.001,0.008,0.001  c0.343,0,0.685-0.024,1.026-0.06c0.07-0.007,0.14-0.016,0.209-0.025c0.338-0.042,0.675-0.097,1.009-0.174  c0.004-0.001,0.008-0.001,0.011-0.002c0.344-0.079,0.684-0.181,1.02-0.298c0.065-0.022,0.129-0.048,0.194-0.072  c0.27-0.1,0.536-0.212,0.798-0.336c0.069-0.033,0.139-0.062,0.207-0.096c0.293-0.147,0.581-0.309,0.863-0.488  c0.092-0.059,0.18-0.123,0.271-0.185c0.116-0.079,0.234-0.153,0.349-0.237l41.301-30.684v22.657c0,5.523,4.477,10,10,10  s10-4.477,10-10v-22.657l41.303,30.684c1.792,1.331,3.883,1.973,5.955,1.973c3.057,0,6.073-1.396,8.035-4.037  C513.319,471.45,512.396,465.186,507.962,461.893z M388.924,230.677v52.538H333.68c-8.563-11.258-19.021-20.996-30.9-28.734  l48.773-1.051c2.651-0.057,5.172-1.165,7.006-3.081c1.834-1.915,2.833-4.481,2.775-7.132l-0.27-12.541L388.924,230.677  L388.924,230.677z M295.182,152.501l0.688,31.965c0.117,5.448,4.57,9.785,9.993,9.785c0.072,0,0.146-0.001,0.22-0.002  c5.521-0.119,9.901-4.691,9.782-10.213l-0.689-31.966l24.177-0.521l1.77,82.102l-80.767,1.74l-1.771-82.1L295.182,152.501z   M114.594,138.67l91.381,10.545l-5.142,44.575c-0.002,0.017-0.004,0.033-0.006,0.049l-5.104,44.227l-91.381-10.545L114.594,138.67z   M219.701,204.734l19.986-0.12l0.65,30.145c-1.429-0.05-2.861-0.084-4.303-0.084c-6.802,0-13.473,0.566-19.977,1.636  L219.701,204.734z M20,416.667v-90.95h41.035c5.523,0,10-4.477,10-10s-4.477-10-10-10H20v-21.122h117.354  c-15.039,20.357-23.942,45.508-23.942,72.703c0,21.524,5.582,41.767,15.363,59.369L20,416.667L20,416.667z M236.035,459.92  c-56.587,0-102.624-46.036-102.624-102.622s46.037-102.622,102.624-102.622c56.586,0,102.623,46.036,102.623,102.622  C338.658,413.884,292.621,459.92,236.035,459.92z"/>
<path d="M291.445,328.378l-33.387-2.591l-12.782-30.955c-1.546-3.742-5.194-6.184-9.243-6.183c-4.049,0-7.699,2.442-9.243,6.184  l-12.778,30.954l-33.389,2.591c-4.037,0.313-7.486,3.03-8.737,6.881s-0.056,8.076,3.026,10.702l25.488,21.715l-7.855,32.557  c-0.949,3.936,0.568,8.056,3.844,10.436c3.275,2.379,7.662,2.55,11.113,0.43l28.531-17.531l28.531,17.531  c1.611,0.989,3.425,1.48,5.235,1.48c2.067,0,4.132-0.641,5.878-1.91c3.275-2.38,4.793-6.5,3.844-10.436l-7.856-32.555l25.491-21.717  c3.082-2.626,4.276-6.851,3.025-10.701C298.932,331.408,295.483,328.692,291.445,328.378z M254.02,356.439  c-2.869,2.444-4.12,6.293-3.236,9.957l3.615,14.982l-13.13-8.067c-1.607-0.987-3.421-1.48-5.235-1.48s-3.629,0.493-5.235,1.48  l-13.13,8.067l3.615-14.984c0.885-3.664-0.367-7.513-3.236-9.958l-11.728-9.991l15.366-1.192c3.757-0.292,7.031-2.671,8.469-6.154  l5.881-14.245l5.882,14.246c1.438,3.483,4.712,5.861,8.47,6.153l15.363,1.192L254.02,356.439z"/>
<path d="M90.002,305.721h-0.237c-5.522,0-10,4.477-10,10s4.478,10,10,10h0.237c5.523,0,10-4.477,10-10  S95.525,305.721,90.002,305.721z"/>
<path d="M380.389,408.074c-5.061-2.206-10.956,0.107-13.163,5.17l-0.171,0.397c-2.189,5.07,0.145,10.956,5.215,13.146  c1.293,0.558,2.637,0.822,3.961,0.822c3.869,0,7.553-2.259,9.185-6.037l0.143-0.335  C387.766,416.174,385.451,410.281,380.389,408.074z"/>
<g>
</g>
<g>
</g>
<g>
</g>
<g>
</g>
<g>
</g>
<g>
</g>
<g>
</g>
<g>
</g>
<g>
</g>
<g>
</g>
<g>
</g>
<g>
</g>
<g>
</g>
<g>
</g>
<g>
</g>
</svg>
