<?xml version="1.0" encoding="iso-8859-1"?>
<!-- Generator: Adobe Illustrator 19.0.0, SVG Export Plug-In . SVG Version: 6.00 Build 0)  -->
<svg xmlns="http://www.w3.org/2000/svg" xmlns:xlink="http://www.w3.org/1999/xlink" version="1.1" id="Capa_1" x="0px" y="0px" viewBox="0 0 511.999 511.999" style="enable-background:new 0 0 511.999 511.999;" xml:space="preserve">
<g>
	<path style="fill:#5F8ACE;" d="M233.756,200.147l22.247-53.886l12.126,29.368L399.131,44.625C358.453,16.37,304.006,10,245.356,10   c-59.871,0-104.86,14.034-139.521,39.931C76.439,71.896,47.431,119.8,47.431,170.976c0,49.347,27.034,109.764,59.945,165.406   L209.9,233.859l-34.273-29.203L233.756,200.147z"/>
	<polygon style="fill:#F7A139;" points="256.003,146.261 233.756,200.147 175.628,204.656 209.901,233.859 220.002,242.465    206.33,299.14 256.003,268.621 263.213,273.049 305.674,299.14 292.002,242.467 336.374,204.656 331.947,204.314 278.252,200.147    268.129,175.629  "/>
	<g>
		<path style="fill:#E7526A;" d="M399.131,44.625L268.129,175.629l10.123,24.518l53.695,4.167L442.714,93.547    C431.149,72.519,416.379,56.604,399.131,44.625z"/>
		<path style="fill:#E7526A;" d="M206.33,299.14l13.672-56.675l-10.101-8.606L107.377,336.382    c11.61,19.629,23.951,38.664,36.094,56.409L263.213,273.05l-7.21-4.429L206.33,299.14z"/>
	</g>
	<path style="fill:#5F8ACE;" d="M263.213,273.049L143.471,392.79c12.521,18.292,24.829,35.213,35.911,50.002   c57.485,76.725,92.642,80.609,151.931,1.512c41.549-55.428,70.955-101.915,102.291-164.246   c31.522-62.695,44.503-115.682,12.337-180.355c-1.046-2.1-2.12-4.15-3.227-6.157L331.947,204.314l4.427,0.342l-44.372,37.811   l13.672,56.673L263.213,273.049z"/>
</g>
<path d="M454.893,95.25c-1.072-2.155-2.181-4.266-3.318-6.342c-0.005-0.009-0.01-0.019-0.015-0.028  c-18.742-34.197-46.416-57.764-84.399-71.914C335.667,5.232,298.1,0,245.356,0C185.199,0,137.603,13.712,99.85,41.92  c-30.063,22.462-62.419,72.43-62.419,129.056c0,44.279,20.455,101.15,60.977,169.814c0.227,0.459,0.489,0.903,0.79,1.33  c10.56,17.82,22.466,36.43,35.71,55.817c0.201,0.334,0.422,0.66,0.665,0.975c11.018,16.095,22.95,32.721,35.806,49.876  c33.193,44.303,58.466,63.207,84.505,63.211c0.003,0,0.005,0,0.008,0c26.058,0,51.008-18.453,83.423-61.697  c43.473-57.996,72.414-104.468,103.224-165.752C474.676,220.63,489.076,163.977,454.893,95.25z M430.183,91.935l-102.05,102.051  l-42.982-3.335l-5.231-12.67L400.054,57.847C411.487,66.932,421.644,78.142,430.183,91.935z M282.281,244.812l7.991,33.128  l-29.034-17.84c-3.213-1.974-7.26-1.973-10.471,0l-29.037,17.841l7.992-33.131c0.884-3.664-0.366-7.513-3.235-9.957l-25.938-22.1  l33.979-2.636c3.757-0.292,7.031-2.671,8.47-6.154l13.004-31.498l2.845,6.888c0.012,0.029,0.023,0.059,0.036,0.088l10.125,24.522  c1.439,3.483,4.713,5.862,8.47,6.154l33.976,2.635l-25.938,22.103C282.647,237.3,281.397,241.148,282.281,244.812z M119.929,337.973  l87.967-87.966l-11.286,46.788c-0.95,3.936,0.567,8.056,3.843,10.436c1.747,1.269,3.81,1.91,5.879,1.91  c1.81,0,3.624-0.491,5.234-1.479l7.504-4.61l-74.108,74.107C135.922,363.67,127.576,350.607,119.929,337.973z M111.821,57.942  C145.992,32.411,189.672,20,245.356,20c49.675,0,99.049,4.162,137.831,26.429L271.653,157.962l-6.407-15.518  c-1.545-3.742-5.194-6.184-9.243-6.184c-4.049,0-7.698,2.441-9.243,6.184l-19.902,48.206l-52.003,4.034  c-4.036,0.313-7.486,3.03-8.737,6.88c-1.251,3.851-0.057,8.076,3.025,10.702l26.029,22.178l-85.723,85.721  c-34.571-60.529-52.018-110.471-52.018-149.191C57.431,123.449,84.793,78.137,111.821,57.942z M424.669,275.566  c-30.234,60.141-58.652,105.768-101.358,162.74C295.476,475.44,274.684,492,255.891,492h-0.005  c-18.773-0.003-39.899-17.028-68.502-55.204c-11.013-14.696-21.327-28.972-30.95-42.827l108.268-108.267l35.736,21.957  c3.451,2.12,7.838,1.95,11.113-0.43s4.793-6.5,3.843-10.436l-12.23-50.701l39.696-33.827c2.426-2.067,3.676-5.127,3.489-8.214  l93.622-93.623C466.684,169.068,453.914,217.4,424.669,275.566z"/>
<path d="M381.547,293.277c-4.821-2.67-10.923-0.892-13.604,3.929c-0.084,0.151-0.167,0.304-0.243,0.45  c-2.551,4.898-0.656,10.953,4.242,13.504c1.479,0.771,3.063,1.136,4.622,1.136c3.603,0,7.078-1.952,8.858-5.371  c0.007-0.011,0.057-0.102,0.064-0.113C388.146,301.982,386.373,295.948,381.547,293.277z"/>
<path d="M367.596,318.08c-4.742-2.832-10.881-1.283-13.713,3.458c-18.354,30.736-38.825,61.084-62.579,92.778  c-3.313,4.419-2.415,10.687,2.005,14c1.798,1.348,3.902,1.998,5.989,1.998c3.041,0,6.046-1.382,8.01-4.003  c24.178-32.259,45.029-63.176,63.747-94.518C373.886,327.051,372.338,320.911,367.596,318.08z"/>
<path d="M96.049,128.948c-5.214-1.799-10.912,0.972-12.714,6.194c-0.033,0.097-0.087,0.264-0.123,0.378  c-1.655,5.227,1.211,10.822,6.434,12.525c1.03,0.336,2.075,0.496,3.103,0.496c4.211-0.001,8.129-2.682,9.505-6.903  c0.013-0.037,0.033-0.104,0.052-0.161C103.977,136.307,101.209,130.727,96.049,128.948z"/>
<path d="M98.751,121.891c1.544,0.863,3.218,1.272,4.869,1.272c3.505,0,6.907-1.847,8.738-5.123  c6.632-11.868,14.726-21.569,23.405-28.055c16.704-12.481,36.329-20.839,59.997-25.551c5.417-1.079,8.934-6.344,7.855-11.76  c-1.078-5.416-6.35-8.929-11.76-7.855c-26.286,5.233-49.186,15.039-68.064,29.144c-10.911,8.153-20.902,20.021-28.893,34.319  C92.205,113.104,93.929,119.197,98.751,121.891z"/>
<g>
</g>
<g>
</g>
<g>
</g>
<g>
</g>
<g>
</g>
<g>
</g>
<g>
</g>
<g>
</g>
<g>
</g>
<g>
</g>
<g>
</g>
<g>
</g>
<g>
</g>
<g>
</g>
<g>
</g>
</svg>
