<?xml version="1.0" encoding="iso-8859-1"?>
<!-- Generator: Adobe Illustrator 19.0.0, SVG Export Plug-In . SVG Version: 6.00 Build 0)  -->
<svg xmlns="http://www.w3.org/2000/svg" xmlns:xlink="http://www.w3.org/1999/xlink" version="1.1" id="Capa_1" x="0px" y="0px" viewBox="0 0 511.999 511.999" style="enable-background:new 0 0 511.999 511.999;" xml:space="preserve">
<path style="fill:#424A4C;" d="M243.31,101.411l-26.707-21.546c-1.737-1.401-2.374-3.762-1.577-5.846l27.019-70.707  C242.806,1.317,244.72,0,246.855,0h17.463c2.844,0,5.15,2.306,5.15,5.15v96.261H243.31z"/>
<path style="fill:#FFD15C;" d="M242.93,281.115c-2.421-1.183-4.797-2.456-7.122-3.816c-15.896-9.298-37.25-26.111-37.698-46.213  c-0.208-9.337-5.005-10.499-9.105-9.765c-3.256,0.583-6.151,2.485-8.114,5.148c-18.237,24.737-11.955,51.397-6.55,65.158  c4.263,10.852,8.212,21.825,11.582,32.986c5.606,18.57,3.216,38.637-6.594,55.371l-11.653,19.879c0,0-49.379,79.939,46.193,106.415  c27.538,7.629,56.72,7.629,84.258,0c95.573-26.476,46.193-106.415,46.193-106.415l-15.402-26.274  c-7.42-12.657-9.227-27.835-4.988-41.881l5.812-19.254c4.664-15.45,15.803-32.674,6.011-48.634  c-2.082-3.394-11.58-11.24-15.78-5.977c-2.04,2.556-2.784,7.117-2.597,10.312c0.686,11.689-2.437,20.131-14.782,23.06  c-10.292,2.441-21.465,0.917-31.73-0.931C270.866,290.285,262.821,287.361,242.93,281.115"/>
<g>
	<path style="fill:#E8B44D;" d="M298.124,506.279c-17.695,4.903-36.069,6.654-54.247,5.253c10.104-0.772,20.157-2.534,30.003-5.253   c95.57-26.48,46.193-106.415,46.193-106.415l-15.408-26.274c-7.416-12.658-9.228-27.84-4.985-41.878l5.809-19.26   c2.863-9.507,8.188-19.683,9.579-29.828c2.081-3.883,2.647-8.796,2.307-14.471c-0.186-3.193,0.567-7.756,2.606-10.31   c4.192-5.263,13.688,2.585,15.779,5.974c9.785,15.964-1.349,33.185-6.015,48.634l-5.809,19.26   c-4.243,14.038-2.431,29.22,4.985,41.878l15.398,26.274C344.317,399.864,393.703,479.799,298.124,506.279z"/>
	<path style="fill:#E8B44D;" d="M264.318,327.795h-15.859c-2.844,0-5.15-2.306-5.15-5.15V101.411h26.158v221.235   C269.468,325.489,267.162,327.795,264.318,327.795z"/>
</g>
<circle cx="208.596" cy="59.559" r="5.45"/>
<circle cx="215.285" cy="44.279" r="5.45"/>
<circle cx="221.745" cy="30.644" r="5.45"/>
<circle cx="228.305" cy="16.1" r="5.45"/>
<g>
	<circle style="fill:#E8B44D;" cx="304.894" cy="457.225" r="8.583"/>
	<circle style="fill:#E8B44D;" cx="322.064" cy="427.315" r="8.583"/>
</g>
<g>
	<path style="fill:#D8362A;" d="M236.809,356.877h47.085c4.142,0,7.498-3.357,7.498-7.498c0-4.141-3.357-7.498-7.498-7.498H236.81   c-4.142,0-7.498,3.357-7.498,7.498C229.312,353.52,232.668,356.877,236.809,356.877z"/>
	<path style="fill:#D8362A;" d="M236.809,389.473h47.085c4.142,0,7.498-3.357,7.498-7.498c0-4.141-3.357-7.498-7.498-7.498H236.81   c-4.142,0-7.498,3.357-7.498,7.498C229.312,386.116,232.668,389.473,236.809,389.473z"/>
</g>
<g>
</g>
<g>
</g>
<g>
</g>
<g>
</g>
<g>
</g>
<g>
</g>
<g>
</g>
<g>
</g>
<g>
</g>
<g>
</g>
<g>
</g>
<g>
</g>
<g>
</g>
<g>
</g>
<g>
</g>
</svg>
