<?xml version="1.0" encoding="iso-8859-1"?>
<!-- Generator: Adobe Illustrator 19.0.0, SVG Export Plug-In . SVG Version: 6.00 Build 0)  -->
<svg xmlns="http://www.w3.org/2000/svg" xmlns:xlink="http://www.w3.org/1999/xlink" version="1.1" id="Capa_1" x="0px" y="0px" viewBox="0 0 512 512" style="enable-background:new 0 0 512 512;" xml:space="preserve">
<g>
	<path style="fill:#36353A;" d="M82.186,270.947c-4.142,0-7.498-3.357-7.498-7.498V188.28c0-4.141,3.356-7.498,7.498-7.498   s7.498,3.357,7.498,7.498v75.169C89.683,267.59,86.327,270.947,82.186,270.947z"/>
	<path style="fill:#36353A;" d="M429.814,270.947c-4.142,0-7.498-3.357-7.498-7.498V188.28c0-4.141,3.356-7.498,7.498-7.498   c4.142,0,7.498,3.357,7.498,7.498v75.169C437.312,267.59,433.956,270.947,429.814,270.947z"/>
	<path style="fill:#36353A;" d="M165.739,512c-4.142,0-7.498-3.357-7.498-7.498v-2.332c0-11.667-9.492-21.16-21.16-21.16h-22.666   c-19.935,0-36.154-16.219-36.154-36.155v-34.366c0-4.141,3.356-7.498,7.498-7.498s7.498,3.357,7.498,7.498v34.366   c0,11.667,9.492,21.16,21.159,21.16h22.666c19.936,0,36.155,16.22,36.155,36.155v2.332C173.237,508.643,169.881,512,165.739,512z"/>
</g>
<path style="fill:#A1ACAD;" d="M82.19,265.4c-41.833,0-75.746,33.913-75.746,75.746s33.913,75.746,75.746,75.746V265.4z"/>
<path style="fill:#819696;" d="M82.186,265.396v151.493c-7.553,0-14.85-1.103-21.729-3.164V268.57  C67.336,266.498,74.633,265.396,82.186,265.396z"/>
<g>
	<path style="fill:#D8362A;" d="M117.058,416.893H82.19V265.4h34.869c5.466,0,9.938,4.473,9.938,9.938v131.615   C126.997,412.42,122.525,416.893,117.058,416.893z"/>
	<path style="fill:#D8362A;" d="M73.312,188.592c-2.855-0.02-5.149-2.38-5.072-5.234C70.992,81.624,154.326,0,256.725,0   S442.457,81.624,445.21,183.358c0.077,2.854-2.217,5.213-5.072,5.234l-18.606,0.132c-2.772,0.02-5.043-2.179-5.128-4.95   C413.77,97.851,343.288,29.006,256.725,29.006S99.68,97.851,97.046,183.774c-0.085,2.771-2.356,4.969-5.128,4.95L73.312,188.592z"/>
</g>
<path style="fill:#A1ACAD;" d="M429.81,265.4c41.833,0,75.746,33.913,75.746,75.746s-33.913,75.746-75.746,75.746V265.4z"/>
<path style="fill:#819696;" d="M505.556,341.148c0,41.835-33.916,75.741-75.741,75.741v-3.358  c30.895-9.563,53.339-38.346,53.339-72.383s-22.444-62.831-53.339-72.383v-3.368C471.641,265.396,505.556,299.311,505.556,341.148z"/>
<path style="fill:#D8362A;" d="M394.942,416.893h34.869V265.4h-34.869c-5.466,0-9.938,4.473-9.938,9.938v131.615  C385.004,412.42,389.476,416.893,394.942,416.893z"/>
<g>
	<circle style="fill:#819696;" cx="36.725" cy="347.617" r="8.762"/>
	<circle style="fill:#819696;" cx="45.488" cy="374.978" r="8.762"/>
</g>
<g>
</g>
<g>
</g>
<g>
</g>
<g>
</g>
<g>
</g>
<g>
</g>
<g>
</g>
<g>
</g>
<g>
</g>
<g>
</g>
<g>
</g>
<g>
</g>
<g>
</g>
<g>
</g>
<g>
</g>
</svg>
