<?xml version="1.0" encoding="iso-8859-1"?>
<!-- Generator: Adobe Illustrator 19.0.0, SVG Export Plug-In . SVG Version: 6.00 Build 0)  -->
<svg xmlns="http://www.w3.org/2000/svg" xmlns:xlink="http://www.w3.org/1999/xlink" version="1.1" id="Capa_1" x="0px" y="0px" viewBox="0 0 511.999 511.999" style="enable-background:new 0 0 511.999 511.999;" xml:space="preserve">
<path style="fill:#FFD15C;" d="M373.404,54.745c9.111-0.207,18.697-6.468,24.132-16.768c7.354-13.938,4.322-29.981-6.772-35.834  c-11.093-5.853-26.047,0.702-33.401,14.639c-5.435,10.302-5.191,21.748-0.218,29.385L113.566,476.228  c-6.659,11.757-2.283,26.692,9.667,32.997l0,0l0,0c11.951,6.305,26.748,1.486,32.694-10.648L373.404,54.745z"/>
<path style="fill:#E8B44D;" d="M397.533,37.98c-5.437,10.298-15.023,16.558-24.126,16.763L155.922,498.58  c-4.171,8.505-12.686,13.418-21.531,13.418c-3.161,0-6.353-0.618-9.412-1.935c5.086-2.183,9.443-6.116,12.079-11.481L354.532,54.743  c9.113-0.206,18.7-6.467,24.136-16.763c7.301-13.839,4.356-29.748-6.528-35.7c6.189-2.873,12.913-3.151,18.628-0.134  C401.858,7.994,404.885,24.038,397.533,37.98z"/>
<path style="fill:#FFD15C;" d="M138.596,54.745c-9.111-0.207-18.697-6.468-24.132-16.768c-7.354-13.938-4.322-29.981,6.772-35.834  c11.093-5.853,26.047,0.702,33.401,14.639c5.435,10.302,5.191,21.748,0.218,29.385l243.579,430.061  c6.659,11.757,2.283,26.692-9.667,32.997l0,0l0,0c-11.951,6.305-26.748,1.486-32.694-10.648L138.596,54.745z"/>
<path style="fill:#E8B44D;" d="M388.771,509.227c-3.573,1.884-7.394,2.77-11.162,2.77c-0.577,0-1.154-0.021-1.73-0.062  c7.65-7.383,9.71-19.297,4.202-29.038L145.14,68.119l-6.549-13.376c-0.35-0.01-0.7-0.021-1.051-0.062l-1.051-1.843  c4.973-7.64,5.22-19.091-0.216-29.388c-4.798-9.092-12.81-15.034-20.883-16.455c1.585-1.987,3.542-3.635,5.838-4.85  c11.1-5.859,26.051,0.7,33.404,14.632c5.437,10.308,5.189,21.748,0.216,29.388l243.578,430.059  C405.091,487.985,400.715,502.926,388.771,509.227z"/>
<g>
</g>
<g>
</g>
<g>
</g>
<g>
</g>
<g>
</g>
<g>
</g>
<g>
</g>
<g>
</g>
<g>
</g>
<g>
</g>
<g>
</g>
<g>
</g>
<g>
</g>
<g>
</g>
<g>
</g>
</svg>
