<?xml version="1.0" encoding="iso-8859-1"?>
<!-- Generator: Adobe Illustrator 19.0.0, SVG Export Plug-In . SVG Version: 6.00 Build 0)  -->
<svg xmlns="http://www.w3.org/2000/svg" xmlns:xlink="http://www.w3.org/1999/xlink" version="1.1" id="Capa_1" x="0px" y="0px" viewBox="0 0 512 512" style="enable-background:new 0 0 512 512;" xml:space="preserve">
<g>
	<path style="fill:#5F8ACE;" d="M77.185,457.967c102.808,17.236,223.73-149.79,102.643-180.412   c-9.942-2.515-19.753-4.15-29.269-5.204c-8.264-0.914-16.307-1.392-24.017-1.624h-39.5c-21.85,0-41.576,9.096-55.596,23.708   C18.164,308.278,10,327.073,10,347.772c0,32.707,13.008,77.714,41.371,98.971C58.883,452.375,67.475,456.339,77.185,457.967z"/>
	<path style="fill:#5F8ACE;" d="M332.172,277.555c-91.232,23.071-45.082,123.574,27.191,164.362   c23.651,13.348,50.102,20.3,75.451,16.05C481.185,450.193,502,389.144,502,347.772c0-20.699-8.164-39.494-21.447-53.337   c-8.58-8.942-19.295-15.816-31.325-19.808c-7.632-2.531-15.792-3.9-24.27-3.9h-39.5   C368.868,271.226,350.751,272.857,332.172,277.555z"/>
</g>
<path d="M489.177,289.079L410.93,94.493c-20.066-49.905-47.555-52.659-58.449-51.523c-20.689,2.154-37.274,21.751-42.251,49.924  c-0.96,5.438,2.669,10.626,8.108,11.587s10.627-2.67,11.587-8.108c3.331-18.857,13.228-32.323,24.628-33.51  c13.271-1.379,27.423,13.231,37.822,39.093l66.637,165.716c-1.966-0.839-3.969-1.608-6.005-2.303  c-0.386-0.157-0.78-0.281-1.179-0.389c-8.467-2.754-17.496-4.25-26.87-4.25c-3.608,0-7.413-0.044-11.441-0.09  c-4.458-0.052-9.068-0.105-13.905-0.105c-4.598,0-9.404,0.05-14.373,0.195H126.763c-4.97-0.145-9.776-0.195-14.373-0.195  c-4.838,0-9.448,0.053-13.906,0.105c-4.028,0.046-7.833,0.09-11.441,0.09c-12.079,0-23.59,2.475-34.055,6.941l66.637-165.717  c10.398-25.861,24.534-40.482,37.822-39.092c11.4,1.187,21.297,14.654,24.629,33.511c0.96,5.438,6.146,9.066,11.587,8.108  c5.438-0.961,9.069-6.149,8.108-11.587c-4.979-28.174-21.563-47.77-42.254-49.924c-10.884-1.131-38.381,1.617-58.447,51.524  L22.823,289.079C8.656,304.567,0,325.177,0,347.772c0,24.16,6.471,51.176,17.309,72.268c13.99,27.225,34.123,43.75,58.223,47.79  c5.47,0.917,11.128,1.382,16.818,1.382c32.222,0,67.634-15.164,97.155-41.603c28.024-25.097,46.854-56.933,50.367-85.162  c0.136-1.093,0.245-2.176,0.337-3.251c4.767-2.796,10.241-4.33,15.79-4.33c5.55,0,11.025,1.534,15.791,4.33  c0.092,1.072,0.2,2.151,0.336,3.241c3.512,28.228,22.34,60.064,50.364,85.163c9.881,8.849,20.423,16.428,31.282,22.606  c0.416,0.281,0.85,0.521,1.293,0.731c21.206,11.818,43.572,18.272,64.582,18.274c0.005,0,0.01,0,0.015,0  c5.683,0,11.336-0.465,16.806-1.382c24.1-4.04,44.232-20.565,58.223-47.79C505.529,398.948,512,371.932,512,347.772  C512,325.177,503.344,304.567,489.177,289.079z M220.025,339.976c-2.934,23.575-19.331,50.766-43.861,72.734  c-25.902,23.197-56.451,36.501-83.813,36.501c-4.586,0-9.132-0.372-13.512-1.106c-4.04-0.677-7.798-1.848-11.296-3.392  l86.627-86.627c3.905-3.905,3.905-10.237,0-14.143c-3.904-3.905-10.236-3.905-14.143,0l-89.144,89.144  c-6.886-6.847-12.063-14.947-15.786-22.19C25.644,392.502,20,368.903,20,347.772c0-36.967,30.075-67.043,67.043-67.043h39.427  c0.505,0.015,1.011,0.032,1.52,0.049l-20.59,20.59c-3.904,3.905-3.904,10.237,0,14.143c1.953,1.953,4.512,2.929,7.071,2.929  c2.56,0,5.118-0.976,7.071-2.929l32.644-32.644c7.569,0.996,15.331,2.396,23.192,4.383  C209.035,295.255,223.385,312.995,220.025,339.976z M238.873,317.842c-3.461-15.226-12.439-27.85-26.373-37.112h87  c-13.934,9.262-22.913,21.887-26.373,37.112c-5.477-1.945-11.28-2.976-17.127-2.976  C250.153,314.866,244.351,315.896,238.873,317.842z M476.902,410.898c-7.664,14.913-21.473,33.473-43.74,37.207  c-4.381,0.734-8.922,1.106-13.499,1.106c-0.004,0-0.009,0-0.012,0c-13.997-0.002-28.826-3.492-43.441-9.999l26.313-26.313  c3.905-3.905,3.905-10.237-0.001-14.142c-3.904-3.905-10.236-3.905-14.142,0l-30.575,30.576  c-7.562-4.772-14.938-10.335-21.971-16.633c-24.531-21.97-40.928-49.16-43.859-72.733c-3.357-26.976,10.992-44.713,42.647-52.718  c8.402-2.125,16.695-3.581,24.758-4.585l-6.566,6.565c-3.904,3.905-3.905,10.237,0,14.142c1.953,1.953,4.512,2.929,7.071,2.929  c2.56,0,5.118-0.977,7.071-2.929l22.642-22.643h35.36c1.311,0,2.61,0.048,3.903,0.123l-72.526,72.524  c-3.905,3.905-3.905,10.237-0.001,14.142c1.953,1.953,4.512,2.929,7.072,2.929c2.559,0,5.118-0.977,7.07-2.929l81.215-81.212  C475.39,296.653,492,320.304,492,347.772C492,368.903,486.356,392.502,476.902,410.898z"/>
<path d="M87.041,321.722l-0.166,0.169c-3.883,3.928-3.846,10.259,0.082,14.142c1.949,1.927,4.489,2.888,7.029,2.888  c2.578,0,5.156-0.991,7.112-2.97l0.167-0.169c3.883-3.928,3.846-10.259-0.082-14.142C97.254,317.756,90.924,317.794,87.041,321.722z  "/>
<path d="M408.822,378.317l-0.166,0.169c-3.883,3.928-3.846,10.259,0.082,14.142c1.949,1.926,4.489,2.888,7.029,2.888  c2.578,0,5.156-0.991,7.111-2.97l0.168-0.169c3.883-3.928,3.846-10.259-0.082-14.142  C419.036,374.352,412.704,374.39,408.822,378.317z"/>
<g>
</g>
<g>
</g>
<g>
</g>
<g>
</g>
<g>
</g>
<g>
</g>
<g>
</g>
<g>
</g>
<g>
</g>
<g>
</g>
<g>
</g>
<g>
</g>
<g>
</g>
<g>
</g>
<g>
</g>
</svg>
