<?xml version="1.0" encoding="iso-8859-1"?>
<!-- Generator: Adobe Illustrator 19.0.0, SVG Export Plug-In . SVG Version: 6.00 Build 0)  -->
<svg xmlns="http://www.w3.org/2000/svg" xmlns:xlink="http://www.w3.org/1999/xlink" version="1.1" id="Capa_1" x="0px" y="0px" viewBox="0 0 512 512" style="enable-background:new 0 0 512 512;" xml:space="preserve">
<g>
	<g>
		<path style="fill:#FFD997;" d="M161.391,153.247c16.131,0,29.334-13.2,29.334-29.333V59.335c0-16.134-13.203-29.336-29.334-29.336    c-16.134,0-29.336,13.214-29.336,29.336v34.263v30.316C132.055,140.034,145.257,153.247,161.391,153.247z"/>
		<path style="fill:#FFD997;" d="M190.725,123.914v28.015c0,16.12,13.209,29.331,29.333,29.331c16.13,0,29.333-13.2,29.333-29.331    v-29.7c0-0.089,0-0.175,0-0.265v-72.63v-0.266c-0.145-16.012-13.287-29.065-29.335-29.065c-16.132,0-29.331,13.21-29.331,29.331    v10V123.914L190.725,123.914z"/>
		<path style="fill:#FFD997;" d="M249.391,49.335v72.628c0-16.129,13.207-29.333,29.334-29.333h29.336V49.335v-10    c0-16.134-13.2-29.335-29.334-29.335c-16.136,0-29.336,13.208-29.336,29.335v9.733C249.391,49.158,249.391,49.246,249.391,49.335z    "/>
		<path style="fill:#FFD997;" d="M308.061,49.335V92.63h42.549c5.941,0,11.487,1.792,16.119,4.86V49.335    c0-16.135-13.201-29.337-29.335-29.337C321.262,19.997,308.061,33.211,308.061,49.335z"/>
		<path style="fill:#FFD997;" d="M249.391,121.965c0,0.09,0,0.175,0,0.265V121.965L249.391,121.965z M249.391,121.963    L249.391,121.963L249.391,121.963z M220.056,181.261L220.056,181.261L220.056,181.261z M350.61,92.629    c5.941,0,11.487,1.792,16.119,4.86c7.947,5.261,13.215,14.282,13.215,24.473v29.335v41.101c0,46.745-26.008,87.541-64.465,108.643    v45.888H175.576V286.52c-26.595-22.78-43.52-56.571-43.52-94.121v-68.485c0,16.12,13.202,29.333,29.336,29.333    c16.131,0,29.334-13.2,29.334-29.333V59.335v-10c0-16.121,13.199-29.331,29.331-29.331c16.048,0,29.19,13.054,29.335,29.065v0.266    v72.63c0-16.131,13.207-29.335,29.334-29.335h29.336L350.61,92.629L350.61,92.629z"/>
	</g>
	<path style="fill:#5F8ACE;" d="M315.479,346.931H175.576h-1.091c-10.26,0-18.654,8.394-18.654,18.65v21.33v21.326   c0,10.256,8.394,18.65,18.654,18.65h1.091h139.904h1.092c10.26,0,18.652-8.395,18.652-18.65v-21.326v-21.33   c0-10.256-8.393-18.65-18.652-18.65H315.479z"/>
	<polygon style="fill:#FFD997;" points="315.479,426.887 175.576,426.887 175.576,466.657 175.576,502 315.479,502  "/>
	<path d="M389.944,192.399v-70.437c0-11.671-5.115-22.166-13.215-29.375V49.335c0-21.689-17.646-39.335-39.335-39.335   c-9.491,0-18.208,3.379-25.011,8.998C305.483,7.62,292.978,0,278.727,0c-14.253,0-26.758,7.621-33.659,19   c-6.804-5.618-15.521-8.997-25.012-8.997c-14.25,0-26.753,7.618-33.653,18.995c-6.804-5.62-15.521-9-25.014-9   c-21.689,0-39.334,17.646-39.334,39.336v34.263v98.801c0,38.081,16.418,73.651,43.521,98.588v47.368   c-11.45,3.755-19.745,14.537-19.745,27.225v11.328h-8.109c-5.522,0-10,4.477-10,10s4.478,10,10,10h8.109v11.328   c0,12.688,8.295,23.47,19.745,27.225V502c0,5.523,4.478,10,10,10h139.903c5.522,0,10-4.477,10-10v-66.539   c11.449-3.755,19.744-14.537,19.744-27.226v-11.328h8.109c5.523,0,10-4.477,10-10s-4.477-10-10-10h-8.109v-11.328   c0-12.689-8.295-23.47-19.744-27.226v-31.564C365.386,282.527,389.944,239.244,389.944,192.399z M316.571,356.931   c4.771,0,8.652,3.88,8.652,8.65v42.655c0,4.77-3.881,8.65-8.652,8.65H174.485c-4.771,0-8.654-3.88-8.654-8.65v-42.655   c0-4.77,3.883-8.65,8.654-8.65H316.571z M337.396,30c10.661,0,19.333,8.674,19.333,19.335v33.773   c-1.994-0.313-4.037-0.479-6.119-0.479h-32.549V49.335C318.061,38.673,326.735,30,337.396,30z M259.391,39.335   c0-10.662,8.674-19.335,19.336-19.335c10.66,0,19.334,8.674,19.334,19.335v10V82.63h-19.336c-7.024,0-13.619,1.86-19.334,5.1   L259.391,39.335L259.391,39.335z M200.725,49.335c0-10.66,8.672-19.331,19.333-19.331c10.661,0,19.333,8.672,19.333,19.331v72.63   v29.964c0,10.66-8.674,19.331-19.335,19.331c-10.659,0-19.331-8.672-19.331-19.331V98.456V59.335V49.335L200.725,49.335z    M142.055,59.335c0-10.662,8.674-19.336,19.336-19.336c10.66,0,19.334,8.674,19.334,19.336v39.122v25.458   c0,10.661-8.674,19.333-19.336,19.333c-10.66,0-19.334-8.673-19.334-19.333V93.598V59.335z M210.292,318.268   c1.135,0.415,2.293,0.611,3.434,0.611c4.08,0,7.911-2.515,9.393-6.568c1.897-5.187-0.77-10.93-5.957-12.826   c-44.923-16.428-75.105-59.462-75.105-107.086v-34.253c5.715,3.24,12.311,5.101,19.336,5.101c7.211,0,13.968-1.959,19.785-5.359   c2.801,18.353,18.336,32.566,37.276,33.332c-1.619,2.561-3.152,5.195-4.568,7.917c-2.549,4.9-0.643,10.938,4.257,13.486   c1.475,0.767,3.052,1.13,4.606,1.13c3.61,0,7.099-1.962,8.88-5.387c15.102-29.033,44.814-47.069,77.54-47.069h12.109   c5.523,0,10-4.477,10-10s-4.477-10-10-10h-42.552c-10.66,0-19.334-8.674-19.334-19.335s8.674-19.333,19.334-19.333h71.885   c3.846,0,7.422,1.141,10.436,3.083c0.148,0.103,0.302,0.196,0.456,0.291c5.092,3.485,8.441,9.337,8.441,15.959v70.437   c0,41.523-22.691,79.775-59.221,99.845c-0.014,0.007-0.025,0.014-0.037,0.021c-0.006,0.003-0.012,0.007-0.018,0.01   c-0.027,0.014-0.051,0.032-0.076,0.047c-0.258,0.144-0.51,0.297-0.752,0.463c-0.13,0.088-0.25,0.186-0.375,0.28   c-0.131,0.099-0.265,0.194-0.391,0.299c-0.155,0.13-0.3,0.268-0.446,0.406c-0.087,0.081-0.177,0.16-0.261,0.245   c-0.147,0.148-0.283,0.305-0.42,0.461c-0.076,0.087-0.155,0.172-0.228,0.262c-0.122,0.15-0.234,0.307-0.346,0.463   c-0.08,0.109-0.16,0.216-0.235,0.329c-0.092,0.139-0.174,0.282-0.259,0.425c-0.083,0.14-0.168,0.279-0.244,0.424   c-0.064,0.122-0.119,0.247-0.179,0.371c-0.082,0.172-0.164,0.343-0.236,0.52c-0.045,0.11-0.081,0.223-0.122,0.334   c-0.07,0.192-0.142,0.384-0.2,0.581c-0.036,0.12-0.062,0.241-0.093,0.361c-0.049,0.189-0.1,0.378-0.138,0.571   c-0.032,0.169-0.054,0.34-0.077,0.51c-0.021,0.147-0.049,0.292-0.063,0.441c-0.03,0.304-0.045,0.609-0.047,0.915   c0,0.019-0.002,0.038-0.002,0.057v0.008c0,0.026-0.001,0.052,0,0.079v35.801H185.576v-30.733   C193.287,310.996,201.546,315.07,210.292,318.268z M185.576,492v-15.343h41.036c5.522,0,10-4.477,10-10s-4.478-10-10-10h-41.036   v-19.771h119.904V492H185.576z"/>
	<path d="M215.469,220.868c-5.409-1.119-10.699,2.36-11.816,7.77c-0.029,0.142-0.057,0.286-0.082,0.436   c-0.968,5.382,2.572,10.555,7.957,11.589c0.637,0.122,1.271,0.181,1.896,0.181c4.7,0,8.891-3.33,9.811-8.116   c0.01-0.054,0.027-0.152,0.041-0.234C224.275,227.152,220.815,221.972,215.469,220.868z"/>
	<path d="M255.578,456.661h-0.238c-5.523,0-10,4.477-10,10s4.477,10,10,10h0.238c5.523,0,10-4.477,10-10   C265.578,461.138,261.102,456.661,255.578,456.661z"/>
	<path d="M245.526,396.908c5.508,0,10-4.492,10-10c0-5.507-4.492-10-10-10s-10,4.492-10,10S240.018,396.908,245.526,396.908z"/>
	<path d="M195.53,396.908c5.508,0,10-4.492,10-10c0-5.507-4.492-10-10-10s-10,4.492-10,10S190.022,396.908,195.53,396.908z"/>
	<path d="M295.522,396.908c5.508,0,10-4.492,10-10c0-5.507-4.492-10-10-10s-10,4.492-10,10S290.014,396.908,295.522,396.908z"/>
</g>
<g>
</g>
<g>
</g>
<g>
</g>
<g>
</g>
<g>
</g>
<g>
</g>
<g>
</g>
<g>
</g>
<g>
</g>
<g>
</g>
<g>
</g>
<g>
</g>
<g>
</g>
<g>
</g>
<g>
</g>
</svg>
