<?xml version="1.0" encoding="iso-8859-1"?>
<!-- Generator: Adobe Illustrator 19.0.0, SVG Export Plug-In . SVG Version: 6.00 Build 0)  -->
<svg xmlns="http://www.w3.org/2000/svg" xmlns:xlink="http://www.w3.org/1999/xlink" version="1.1" id="Capa_1" x="0px" y="0px" viewBox="0 0 512 512" style="enable-background:new 0 0 512 512;" xml:space="preserve">
<g>
	<path style="fill:#424A4C;" d="M186.451,512h-58.73c-2.845,0-5.152-2.307-5.152-5.152v-21.809h69.034v21.809   C191.603,509.693,189.296,512,186.451,512z"/>
	<path style="fill:#424A4C;" d="M384.28,512h-58.73c-2.845,0-5.152-2.307-5.152-5.152v-21.809h69.034v21.809   C389.431,509.693,387.125,512,384.28,512z"/>
</g>
<path style="fill:#A1ACAD;" d="M414.727,485.114H97.273c-2.846,0-5.153-2.307-5.153-5.153V5.153C92.12,2.307,94.427,0,97.273,0  h317.454c2.846,0,5.153,2.307,5.153,5.153V479.96C419.88,482.806,417.573,485.114,414.727,485.114z"/>
<path style="fill:#819696;" d="M368.103,485.114h46.624c2.846,0,5.153-2.307,5.153-5.153V5.153c0-2.846-2.307-5.153-5.153-5.153  h-46.624V485.114z"/>
<circle style="fill:#424A4C;" cx="256" cy="334.95" r="92.39"/>
<circle style="fill:#FFFFFF;" cx="256" cy="334.95" r="26.05"/>
<circle style="fill:#36353A;" cx="256" cy="137.31" r="56.837"/>
<circle style="fill:#FFFFFF;" cx="256" cy="137.31" r="19.71"/>
<g>
	<circle style="fill:#36353A;" cx="126.01" cy="448.5" r="8.587"/>
	<circle style="fill:#36353A;" cx="126.01" cy="37.33" r="8.587"/>
	<circle style="fill:#36353A;" cx="385.99" cy="448.5" r="8.587"/>
	<circle style="fill:#36353A;" cx="385.99" cy="37.33" r="8.587"/>
</g>
<g>
</g>
<g>
</g>
<g>
</g>
<g>
</g>
<g>
</g>
<g>
</g>
<g>
</g>
<g>
</g>
<g>
</g>
<g>
</g>
<g>
</g>
<g>
</g>
<g>
</g>
<g>
</g>
<g>
</g>
</svg>
