<?xml version="1.0" encoding="iso-8859-1"?>
<!-- Generator: Adobe Illustrator 19.0.0, SVG Export Plug-In . SVG Version: 6.00 Build 0)  -->
<svg xmlns="http://www.w3.org/2000/svg" xmlns:xlink="http://www.w3.org/1999/xlink" version="1.1" id="Capa_1" x="0px" y="0px" viewBox="0 0 512 512" style="enable-background:new 0 0 512 512;" xml:space="preserve">
<path style="fill:#A1ACAD;" d="M387.33,373.887h-17.001c-29.461,0-53.43,23.969-53.43,53.43v31.253  c0,21.198-17.246,38.445-38.445,38.445h-73.963c-21.198,0-38.445-17.246-38.445-38.445V392.5c-4.985,0.207-10,0.151-14.985,0.06  v66.01c0,29.461,23.969,53.43,53.43,53.43h73.963c29.461,0,53.43-23.969,53.43-53.43v-31.253c0-21.198,17.246-38.445,38.445-38.445  h17.001c4.138,0,7.493-3.355,7.493-7.493C394.822,377.242,391.468,373.887,387.33,373.887z"/>
<path style="fill:#424A4C;" d="M169.795,395h-24.221c-2.837,0-5.137-2.3-5.137-5.137v-103.74h34.495v103.74  C174.932,392.701,172.632,395,169.795,395z"/>
<path style="fill:#30393A;" d="M169.795,395h-12.11V286.124h17.247v103.74C174.932,392.701,172.632,395,169.795,395z"/>
<path style="fill:#FFD15C;" d="M179.278,29.646L162.025,2.39c-2.017-3.186-6.664-3.186-8.681,0l-17.253,27.256  c-0.52,0.822-0.796,1.775-0.796,2.747v36.27c0,1.454,0.616,2.84,1.696,3.815l1.527,1.377c2.036,1.837,2.271,4.949,0.533,7.07  l-2.592,3.163c-0.752,0.918-1.164,2.069-1.164,3.256v39.132h22.39h22.39V87.345c0-1.187-0.411-2.338-1.164-3.256l-2.592-3.163  c-1.738-2.121-1.504-5.234,0.533-7.07l1.527-1.377c1.08-0.974,1.696-2.36,1.696-3.815v-36.27  C180.074,31.42,179.798,30.469,179.278,29.646z"/>
<path style="fill:#E8B44D;" d="M178.383,72.474l-1.533,1.383c-2.035,1.837-2.269,4.949-0.531,7.069l2.594,3.165  c0.753,0.918,1.164,2.069,1.164,3.256v39.125h-20.383V87.348c0-1.187-0.411-2.338-1.164-3.256l-2.594-3.165  c-1.738-2.121-1.504-5.232,0.531-7.069L158,72.474c1.079-0.974,1.695-2.36,1.695-3.813V32.396c0-0.972-0.276-1.925-0.796-2.747  L147.5,11.634l5.842-9.238c2.016-3.187,6.664-3.188,8.682-0.002l17.257,27.255c0.52,0.822,0.797,1.775,0.797,2.748v36.264  C180.077,70.115,179.462,71.5,178.383,72.474z"/>
<path style="fill:#4EC0AA;" d="M193.055,286.124h-70.74c-2.837,0-5.137-2.3-5.137-5.137V131.614c0-2.837,2.3-5.137,5.137-5.137  h70.74c2.837,0,5.137,2.3,5.137,5.137v149.374C198.191,283.824,195.892,286.124,193.055,286.124z"/>
<path style="fill:#40AD98;" d="M193.055,286.124h-19.168V126.477h19.168c2.837,0,5.137,2.3,5.137,5.137v149.374  C198.191,283.824,195.892,286.124,193.055,286.124z"/>
<path style="fill:#FFFFFF;" d="M181.53,213.732v-69.049c0-4.221-3.422-7.643-7.643-7.643c-4.221,0-7.643,3.422-7.643,7.643v69.049  c0,4.221,3.422,7.643,7.643,7.643C178.108,221.374,181.53,217.952,181.53,213.732z"/>
<g>
</g>
<g>
</g>
<g>
</g>
<g>
</g>
<g>
</g>
<g>
</g>
<g>
</g>
<g>
</g>
<g>
</g>
<g>
</g>
<g>
</g>
<g>
</g>
<g>
</g>
<g>
</g>
<g>
</g>
</svg>
