<?xml version="1.0" encoding="iso-8859-1"?>
<!-- Generator: Adobe Illustrator 19.0.0, SVG Export Plug-In . SVG Version: 6.00 Build 0)  -->
<svg xmlns="http://www.w3.org/2000/svg" xmlns:xlink="http://www.w3.org/1999/xlink" version="1.1" id="Capa_1" x="0px" y="0px" viewBox="0 0 511.998 511.998" style="enable-background:new 0 0 511.998 511.998;" xml:space="preserve">
<g>
	<path style="fill:#CCCCCC;" d="M386.179,97.73c0-42.247-30.263-77.767-70.18-85.954C310.324,10.612,304.455,10,298.449,10H276h-40   h-22.451c-6.004,0-11.873,0.612-17.547,1.776c-39.919,8.187-70.183,43.707-70.183,85.954v29.146v39.998v39.998v40.001v29.147   c0,3.672,0.229,7.296,0.674,10.852c5.253,42.1,40.643,75.185,83.726,76.815v-0.19h91.561v0.19   c43.085-1.63,78.474-34.715,83.728-76.815c0.443-3.556,0.671-7.18,0.671-10.852v-69.147v-39.998v-39.998V97.73z"/>
	<path style="fill:#F7A139;" d="M298.449,363.75h-84.9c-1.114,0-2.226-0.02-3.33-0.063v45.591h17.03h57.502h17.028v-45.591   C300.675,363.729,299.565,363.75,298.449,363.75z"/>
	<rect x="227.25" y="409.28" style="fill:#5F8ACE;" width="57.5" height="92.72"/>
</g>
<path d="M196.002,116.879h-0.238c-5.522,0-10,4.477-10,10c0,5.523,4.478,10,10,10h0.238c5.523,0,10-4.477,10-10  C206.002,121.355,201.525,116.879,196.002,116.879z"/>
<path d="M298.449,0h-84.9C159.66,0,115.82,43.841,115.82,97.73v178.29c0,2.781,0.123,5.534,0.353,8.257  c-0.223,0.829-0.353,1.696-0.353,2.595c0,1.77,0.464,3.43,1.271,4.872c6.841,42.112,40.684,75.277,83.126,81.092v36.441  c0,5.523,4.477,10,10,10h7.032v82.721c0,5.523,4.478,10,10,10h57.502c5.522,0,10-4.477,10-10v-82.721h7.028c5.522,0,10-4.477,10-10  v-36.441c42.443-5.814,76.287-38.98,83.128-81.092c0.808-1.442,1.271-3.102,1.271-4.872c0-0.899-0.13-1.766-0.353-2.595  c0.23-2.723,0.353-5.476,0.353-8.257V97.73C396.179,43.841,352.338,0,298.449,0z M291.78,399.278h-7.028H227.25h-7.032V373.75  h71.563v25.528H291.78z M274.751,491.999h-37.502v-72.721h37.502V491.999z M303.115,353.597c-0.438-0.059-0.881-0.1-1.335-0.1  h-91.563c-0.454,0-0.898,0.041-1.335,0.1c-33.575-2-61.463-25.404-70.199-56.725h57.319c5.523,0,10-4.477,10-10s-4.477-10-10-10  h-60.161c-0.003-0.285-0.021-0.566-0.021-0.852v-19.147h60.183c5.523,0,10-4.477,10-10s-4.477-10-10-10H135.82v-20.001h60.183  c5.523,0,10-4.477,10-10s-4.477-10-10-10H135.82v-19.998h60.183c5.523,0,10-4.477,10-10s-4.477-10-10-10H135.82v-19.998h31.215  c5.522,0,10-4.477,10-10c0-5.523-4.478-10-10-10H135.82V97.73c0-33.163,20.883-61.526,50.183-72.67v34.996c0,5.523,4.478,10,10,10  c5.523,0,10-4.477,10-10V20.373c2.484-0.24,5-0.373,7.547-0.373H226v40.055c0,5.523,4.477,10,10,10c5.522,0,10-4.477,10-10V20h20  v40.055c0,5.523,4.478,10,10,10s10-4.477,10-10V20h12.449c2.548,0,5.064,0.132,7.55,0.373v39.683c0,5.523,4.478,10,10,10  s10-4.477,10-10V25.061c29.299,11.145,50.18,39.508,50.18,72.669v19.146h-60.18c-5.522,0-10,4.477-10,10c0,5.523,4.478,10,10,10  h60.18v19.998h-60.18c-5.522,0-10,4.477-10,10s4.478,10,10,10h60.18v19.998h-60.18c-5.522,0-10,4.477-10,10s4.478,10,10,10h60.18  v20.001h-31.213c-5.522,0-10,4.477-10,10s4.478,10,10,10h31.213v19.147c0,0.286-0.019,0.567-0.021,0.852H316  c-5.522,0-10,4.477-10,10s4.478,10,10,10h57.316C364.579,328.193,336.691,351.598,303.115,353.597z"/>
<path d="M315.999,256.878h0.238c5.522,0,10-4.477,10-10s-4.478-10-10-10h-0.238c-5.522,0-10,4.477-10,10  C305.999,252.4,310.477,256.878,315.999,256.878z"/>
<g>
</g>
<g>
</g>
<g>
</g>
<g>
</g>
<g>
</g>
<g>
</g>
<g>
</g>
<g>
</g>
<g>
</g>
<g>
</g>
<g>
</g>
<g>
</g>
<g>
</g>
<g>
</g>
<g>
</g>
</svg>
