<?xml version="1.0" encoding="iso-8859-1"?>
<!-- Generator: Adobe Illustrator 19.0.0, SVG Export Plug-In . SVG Version: 6.00 Build 0)  -->
<svg xmlns="http://www.w3.org/2000/svg" xmlns:xlink="http://www.w3.org/1999/xlink" version="1.1" id="Capa_1" x="0px" y="0px" viewBox="0 0 512 512" style="enable-background:new 0 0 512 512;" xml:space="preserve">
<path style="fill:#FFD15C;" d="M100.969,356.476C145.211,442.41,190.439,499.401,256,498.068  c103.348,2.1,156.17-140.73,234.255-313.398S411.022,13.915,411.022,13.915H256H100.978c0,0-157.318-1.912-79.233,170.755  c25.738,56.913,48.731,110.585,71.693,156.894C95.948,346.625,98.457,351.597,100.969,356.476"/>
<path style="fill:#E8B44D;" d="M490.255,184.669C412.17,357.33,359.346,500.166,256,498.068  c-12.358,0.247-23.986-1.573-35.028-5.264C302.286,465.59,351.45,336.686,420.2,184.669C496.588,15.74,347.666,13.91,341.179,13.91  h69.84C411.019,13.91,568.34,11.997,490.255,184.669z"/>
<path style="fill:#D8362A;" d="M260.484,161.495l20.477,41.492c0.728,1.476,2.136,2.499,3.765,2.735l45.789,6.654  c4.101,0.596,5.739,5.636,2.771,8.528l-33.133,32.297c-1.178,1.149-1.716,2.804-1.438,4.426l7.822,45.604  c0.701,4.085-3.587,7.199-7.255,5.271l-40.955-21.531c-1.457-0.766-3.197-0.766-4.653,0l-40.955,21.531  c-3.668,1.928-7.955-1.186-7.255-5.271l7.822-45.604c0.278-1.622-0.26-3.277-1.438-4.426l-33.133-32.297  c-2.968-2.893-1.33-7.933,2.771-8.528l45.789-6.654c1.629-0.237,3.036-1.259,3.765-2.735l20.477-41.492  C253.35,157.779,258.65,157.779,260.484,161.495z"/>
<path style="fill:#B72020;" d="M298.72,255.941c-0.05,0.26-0.08,0.53-0.08,0.79c0,0.3,0.02,0.59,0.07,0.89l1.15,6.68l6.67,38.93  c0.27,1.58-0.21,3.02-1.1,4.07c-1.42,1.67-3.9,2.38-6.15,1.2l-40.61-21.34c-0.09-0.05-0.18-0.1-0.27-0.16  c-0.02-0.01-0.05-0.02-0.07-0.03c-1.44-0.92-2.33-2.51-2.33-4.24v-124.02c1.78,0,3.56,0.92,4.48,2.78l20.48,41.49  c0.27,0.55,0.64,1.05,1.08,1.45c0.29,0.27,0.62,0.51,0.97,0.71c0.53,0.29,1.11,0.49,1.72,0.58l45.79,6.66  c0.33,0.05,0.65,0.12,0.95,0.23c0.3,0.1,0.58,0.23,0.84,0.38c0.13,0.07,0.26,0.16,0.38,0.24c0.24,0.17,0.46,0.36,0.67,0.57  c1.81,1.85,2.05,5.03-0.07,7.1l-33.14,32.3c-0.24,0.23-0.46,0.49-0.65,0.77s-0.35,0.57-0.47,0.88c-0.07,0.15-0.13,0.31-0.17,0.47  C298.79,255.531,298.74,255.731,298.72,255.941z"/>
<g>
	<circle style="fill:#E8B44D;" cx="196.44" cy="417.66" r="8.568"/>
	<circle style="fill:#E8B44D;" cx="230.96" cy="440.29" r="8.568"/>
	<circle style="fill:#E8B44D;" cx="230.56" cy="406.88" r="8.568"/>
	<circle style="fill:#E8B44D;" cx="390.5" cy="68.995" r="8.568"/>
	<circle style="fill:#E8B44D;" cx="414.68" cy="95.81" r="8.568"/>
</g>
<g>
</g>
<g>
</g>
<g>
</g>
<g>
</g>
<g>
</g>
<g>
</g>
<g>
</g>
<g>
</g>
<g>
</g>
<g>
</g>
<g>
</g>
<g>
</g>
<g>
</g>
<g>
</g>
<g>
</g>
</svg>
