<?xml version="1.0" encoding="iso-8859-1"?>
<!-- Generator: Adobe Illustrator 19.0.0, SVG Export Plug-In . SVG Version: 6.00 Build 0)  -->
<svg xmlns="http://www.w3.org/2000/svg" xmlns:xlink="http://www.w3.org/1999/xlink" version="1.1" id="Capa_1" x="0px" y="0px" viewBox="0 0 512 512" style="enable-background:new 0 0 512 512;" xml:space="preserve">
<g>
	<path style="fill:#D8362A;" d="M69.332,64.058h-0.254h-34.77c-2.845,0-5.151,2.306-5.151,5.151v18.387h39.921h0.254h39.921V69.209   c0-2.845-2.306-5.151-5.151-5.151H69.332z"/>
	<path style="fill:#D8362A;" d="M340.475,448.25h-168.95c-2.845,0-5.151-2.306-5.151-5.151V79.445c0-2.845,2.306-5.151,5.151-5.151   h168.95c2.845,0,5.151,2.306,5.151,5.151v363.654C345.626,445.944,343.32,448.25,340.475,448.25z"/>
</g>
<path style="fill:#B72020;" d="M340.475,448.25h-21.634V74.294h21.634c2.845,0,5.151,2.306,5.151,5.151v363.654  C345.626,445.944,343.32,448.25,340.475,448.25z"/>
<path style="fill:#A1ACAD;" d="M0,92.691v337.163c0,2.845,2.306,5.151,5.151,5.151h161.223V87.54H5.151  C2.306,87.54,0,89.846,0,92.691z"/>
<rect x="140.62" y="87.54" style="fill:#819696;" width="25.754" height="347.46"/>
<path style="fill:#A1ACAD;" d="M506.849,87.54h-41.027V71.25c0-4.142-3.357-7.5-7.5-7.5s-7.5,3.358-7.5,7.5v16.29h-12.333V71.25  c0-4.142-3.357-7.5-7.5-7.5s-7.5,3.358-7.5,7.5v16.29h-12.334V71.25c0-4.142-3.357-7.5-7.5-7.5s-7.5,3.358-7.5,7.5v16.29h-50.529  v347.465h161.223c2.845,0,5.151-2.306,5.151-5.151V92.691C512,89.846,509.694,87.54,506.849,87.54z"/>
<path style="fill:#819696;" d="M486.246,87.54v347.465h20.603c2.845,0,5.151-2.306,5.151-5.151V92.691  c0-2.845-2.306-5.151-5.151-5.151H486.246z"/>
<circle style="fill:#424A4C;" cx="88" cy="261.12" r="57.19"/>
<path style="fill:#30393A;" d="M145.19,261.123c0,31.59-25.6,57.19-57.19,57.19c-3.83,0-7.56-0.38-11.18-1.09  c26.24-5.19,46.02-28.33,46.02-56.1s-19.78-50.91-46.02-56.1c3.62-0.71,7.35-1.09,11.18-1.09  C119.59,203.933,145.19,229.533,145.19,261.123z"/>
<g>
	<circle style="fill:#FFD15C;" cx="88" cy="261.12" r="13.322"/>
	<path style="fill:#FFD15C;" d="M238.534,276.832h-26.649c-1.312,0-2.385-1.073-2.385-2.385v-26.649   c0-1.312,1.073-2.385,2.385-2.385h26.649c1.312,0,2.385,1.073,2.385,2.385v26.649C240.919,275.759,239.846,276.832,238.534,276.832   z"/>
	<path style="fill:#FFD15C;" d="M300.115,276.832h-26.649c-1.312,0-2.385-1.073-2.385-2.385v-26.649   c0-1.312,1.073-2.385,2.385-2.385h26.649c1.312,0,2.385,1.073,2.385,2.385v26.649C302.5,275.759,301.427,276.832,300.115,276.832z"/>
	<path style="fill:#FFD15C;" d="M238.534,334.024h-26.649c-1.312,0-2.385-1.073-2.385-2.385V304.99c0-1.312,1.073-2.385,2.385-2.385   h26.649c1.312,0,2.385,1.073,2.385,2.385v26.649C240.919,332.951,239.846,334.024,238.534,334.024z"/>
	<path style="fill:#FFD15C;" d="M300.115,334.024h-26.649c-1.312,0-2.385-1.073-2.385-2.385V304.99c0-1.312,1.073-2.385,2.385-2.385   h26.649c1.312,0,2.385,1.073,2.385,2.385v26.649C302.5,332.951,301.427,334.024,300.115,334.024z"/>
	<path style="fill:#FFD15C;" d="M238.534,391.216h-26.649c-1.312,0-2.385-1.073-2.385-2.385v-26.649   c0-1.312,1.073-2.385,2.385-2.385h26.649c1.312,0,2.385,1.073,2.385,2.385v26.649C240.919,390.143,239.846,391.216,238.534,391.216   z"/>
	<path style="fill:#FFD15C;" d="M300.115,391.216h-26.649c-1.312,0-2.385-1.073-2.385-2.385v-26.649   c0-1.312,1.073-2.385,2.385-2.385h26.649c1.312,0,2.385,1.073,2.385,2.385v26.649C302.5,390.143,301.427,391.216,300.115,391.216z"/>
</g>
<circle style="fill:#424A4C;" cx="424.52" cy="261.12" r="57.19"/>
<path style="fill:#30393A;" d="M481.715,261.123c0,31.59-25.6,57.19-57.19,57.19c-3.83,0-7.56-0.38-11.18-1.09  c26.24-5.19,46.02-28.33,46.02-56.1s-19.78-50.91-46.02-56.1c3.62-0.71,7.35-1.09,11.18-1.09  C456.115,203.933,481.715,229.533,481.715,261.123z"/>
<circle style="fill:#FFD15C;" cx="424.52" cy="261.12" r="13.322"/>
<g>
	<path style="fill:#FFFFFF;" d="M302.5,142.233h-93c-4.142,0-7.5-3.358-7.5-7.5s3.358-7.5,7.5-7.5h93c4.143,0,7.5,3.358,7.5,7.5   S306.643,142.233,302.5,142.233z"/>
	<path style="fill:#FFFFFF;" d="M302.5,171.233h-93c-4.142,0-7.5-3.358-7.5-7.5s3.358-7.5,7.5-7.5h93c4.143,0,7.5,3.358,7.5,7.5   S306.643,171.233,302.5,171.233z"/>
	<path style="fill:#FFFFFF;" d="M302.5,200.233h-93c-4.142,0-7.5-3.358-7.5-7.5s3.358-7.5,7.5-7.5h93c4.143,0,7.5,3.358,7.5,7.5   S306.643,200.233,302.5,200.233z"/>
</g>
<g>
	<circle style="fill:#424A4C;" cx="31.2" cy="188.48" r="8.585"/>
	<circle style="fill:#424A4C;" cx="144.8" cy="188.48" r="8.585"/>
	<circle style="fill:#424A4C;" cx="31.2" cy="333.77" r="8.585"/>
	<circle style="fill:#424A4C;" cx="144.8" cy="333.77" r="8.585"/>
	<circle style="fill:#424A4C;" cx="367.72" cy="188.48" r="8.585"/>
	<circle style="fill:#424A4C;" cx="481.33" cy="188.48" r="8.585"/>
	<circle style="fill:#424A4C;" cx="367.72" cy="333.77" r="8.585"/>
	<circle style="fill:#424A4C;" cx="481.33" cy="333.77" r="8.585"/>
</g>
<g>
	<path style="fill:#FFFFFF;" d="M142.435,226.235c-0.141-0.27-0.294-0.536-0.472-0.793c-0.071-0.102-0.15-0.195-0.225-0.293   C130.116,207.843,110.367,196.43,88,196.43c-35.671,0-64.692,29.021-64.692,64.692S52.329,325.814,88,325.814   s64.692-29.021,64.692-64.692C152.692,248.279,148.915,236.309,142.435,226.235z M88,310.814c-27.4,0-49.692-22.292-49.692-49.692   S60.6,211.43,88,211.43c14.697,0,27.918,6.419,37.024,16.594l-24.213,16.718C97.274,241.969,92.832,240.3,88,240.3   c-11.481,0-20.822,9.341-20.822,20.822c0,11.481,9.341,20.822,20.822,20.822s20.822-9.341,20.822-20.822   c0-1.184-0.122-2.337-0.313-3.468l24.722-17.07c2.856,6.265,4.461,13.215,4.461,20.538C137.692,288.523,115.4,310.814,88,310.814z    M93.822,261.122c0,3.21-2.612,5.822-5.822,5.822s-5.822-2.612-5.822-5.822S84.79,255.3,88,255.3S93.822,257.912,93.822,261.122z"/>
	<path style="fill:#FFFFFF;" d="M489.217,261.122c0-35.671-29.021-64.692-64.691-64.692c-35.672,0-64.692,29.021-64.692,64.692   s29.021,64.692,64.692,64.692c12.917,0,24.951-3.82,35.061-10.368c0.208-0.116,0.419-0.223,0.62-0.361   c0.102-0.07,0.194-0.149,0.291-0.224C477.803,303.24,489.217,283.49,489.217,261.122z M374.833,261.122   c0-27.4,22.292-49.692,49.692-49.692s49.691,22.292,49.691,49.692c0,14.697-6.418,27.918-16.593,37.024l-16.719-24.214   c2.772-3.537,4.441-7.978,4.441-12.81c0-11.481-9.341-20.822-20.821-20.822c-11.481,0-20.822,9.341-20.822,20.822   c0,11.481,9.341,20.822,20.822,20.822c1.184,0,2.337-0.122,3.468-0.313l17.07,24.722c-6.265,2.856-13.215,4.461-20.537,4.461   C397.125,310.814,374.833,288.523,374.833,261.122z M424.525,266.944c-3.21,0-5.822-2.612-5.822-5.822s2.612-5.822,5.822-5.822   s5.821,2.612,5.821,5.822C430.347,264.332,427.735,266.944,424.525,266.944z"/>
</g>
<g>
</g>
<g>
</g>
<g>
</g>
<g>
</g>
<g>
</g>
<g>
</g>
<g>
</g>
<g>
</g>
<g>
</g>
<g>
</g>
<g>
</g>
<g>
</g>
<g>
</g>
<g>
</g>
<g>
</g>
</svg>
