<?xml version="1.0" encoding="iso-8859-1"?>
<!-- Generator: Adobe Illustrator 19.0.0, SVG Export Plug-In . SVG Version: 6.00 Build 0)  -->
<svg xmlns="http://www.w3.org/2000/svg" xmlns:xlink="http://www.w3.org/1999/xlink" version="1.1" id="Capa_1" x="0px" y="0px" viewBox="0 0 512 512" style="enable-background:new 0 0 512 512;" xml:space="preserve">
<path style="fill:#D8362A;" d="M508.965,206.794L324.41,114.321c-14.435-7.233-31.977-3.125-41.7,9.765l0,0  c-13.386,17.747-40.037,17.747-53.423,0l0,0c-9.723-12.89-27.265-16.998-41.7-9.765L3.03,206.794  c-4.934,2.472-3.471,9.691,1.71,10.324c0.58,0.071,76.813,45.285,76.813,45.285c44.709,26.589,95.764,40.624,147.782,40.624h54.075  c52.45,0,103.911-14.268,148.873-41.276l61.656-37.036l15.273-8.223C512.721,214.549,513.206,208.919,508.965,206.794z"/>
<path style="fill:#B72020;" d="M509.216,216.494l-15.274,8.224l-61.663,37.033c-44.958,27.008-96.421,41.273-148.872,41.273h-54.664  c52.029-0.216,103.05-14.471,147.668-41.273l61.663-37.033l15.274-8.224c3.51-1.945,3.994-7.575-0.247-9.696l-168.85-84.605  c9.953-11.384,26.452-14.739,40.162-7.874l184.557,92.479C513.21,208.918,512.726,214.548,509.216,216.494z"/>
<path style="fill:#F0BEB4;" d="M183.147,210.815v117.56c0,40.234,32.617,72.851,72.851,72.851l0,0  c40.235,0,72.851-32.617,72.851-72.851v-117.56H183.147z"/>
<g>
	<path style="fill:#E5A195;" d="M328.849,210.812v117.564c0,20.12-8.153,38.333-21.335,51.516   c-13.183,13.183-31.396,21.335-51.516,21.335c-3.292,0-6.535-0.219-9.714-0.65c16.235-2.155,30.774-9.658,41.802-20.686   c13.183-13.183,21.335-31.396,21.335-51.516V210.812H328.849z"/>
	<path style="fill:#E5A195;" d="M256,329.123c-4.139,0-7.494-3.355-7.494-7.494v-52.631c0-4.139,3.355-7.494,7.494-7.494   s7.494,3.355,7.494,7.494v52.631C263.493,325.768,260.138,329.123,256,329.123z"/>
</g>
<path style="fill:#B72020;" d="M504.479,218.313H7.521c-4.142,0-7.5-3.358-7.5-7.5s3.358-7.5,7.5-7.5h496.958  c4.142,0,7.5,3.358,7.5,7.5S508.621,218.313,504.479,218.313z"/>
<g>
</g>
<g>
</g>
<g>
</g>
<g>
</g>
<g>
</g>
<g>
</g>
<g>
</g>
<g>
</g>
<g>
</g>
<g>
</g>
<g>
</g>
<g>
</g>
<g>
</g>
<g>
</g>
<g>
</g>
</svg>
