<?xml version="1.0" encoding="iso-8859-1"?>
<!-- Generator: Adobe Illustrator 19.0.0, SVG Export Plug-In . SVG Version: 6.00 Build 0)  -->
<svg xmlns="http://www.w3.org/2000/svg" xmlns:xlink="http://www.w3.org/1999/xlink" version="1.1" id="Capa_1" x="0px" y="0px" viewBox="0 0 512 512" style="enable-background:new 0 0 512 512;" xml:space="preserve">
<g>
	<g>
		<polygon style="fill:#F7A139;" points="103.184,102.713 408.815,102.713 408.815,62.715 347.558,62.715 164.443,62.715     103.184,62.715   "/>
		<polygon style="fill:#F7A139;" points="49.998,399.286 49.998,202.714 49.998,152.714 10,152.714 10,399.286   "/>
		<rect x="103.18" y="449.29" style="fill:#F7A139;" width="305.63" height="39.999"/>
		<polygon style="fill:#F7A139;" points="462,202.714 462,399.286 502.001,399.286 502.001,152.714 462,152.714   "/>
	</g>
	<g>
		<path style="fill:#E7526A;" d="M462,152.714h40.001v-51.44c0-21.208-17.354-38.56-38.564-38.56h-54.621v39.998H462V152.714z"/>
		<path style="fill:#E7526A;" d="M103.184,102.713V62.715H48.561C27.352,62.715,10,80.067,10,101.275v51.44h39.998v-50.002H103.184z    "/>
		<path style="fill:#E7526A;" d="M103.184,449.29H49.998v-50.004H10v51.44c0,21.21,17.352,38.562,38.561,38.562h54.623    C103.184,489.288,103.184,449.29,103.184,449.29z"/>
		<path style="fill:#E7526A;" d="M408.815,449.29v39.999h54.621c21.211,0,38.564-17.353,38.564-38.562v-51.44h-40v50.004    L408.815,449.29L408.815,449.29z"/>
	</g>
	<polygon style="fill:#808080;" points="49.998,202.714 462,202.714 462,152.714 462,102.713 408.815,102.713 103.184,102.713    49.998,102.713 49.998,152.714  "/>
	<polygon style="fill:#CCCCCC;" points="462,202.714 49.998,202.714 49.998,399.286 49.998,449.29 103.184,449.29 408.815,449.29    462,449.29 462,399.286  "/>
</g>
<path d="M463.436,52.715H357.558V42.712c0-16.542-13.458-29.999-30-29.999H184.44c-16.541,0-29.997,13.458-29.997,29.999v10.003  H48.561C21.784,52.715,0,74.499,0,101.275v349.451c0,26.777,21.784,48.562,48.561,48.562h414.875  c26.778,0,48.564-21.785,48.564-48.562V101.275C512.001,74.499,490.215,52.715,463.436,52.715z M398.815,459.29v19.999H113.184  V459.29H398.815z M59.998,439.29V212.714H452V439.29H59.998z M20,162.714h19.998v226.57H20V162.714z M164.443,72.715h183.114h51.258  v19.998H113.184V72.715H164.443z M452,112.713v80.002H59.998v-80.002H452z M472,162.714h20.001v226.57H472V162.714z   M492.001,101.275v41.44H472v-40.002c0-5.523-4.478-10-10-10h-43.185V72.715h44.621C479.186,72.715,492.001,85.527,492.001,101.275z   M174.443,42.712c0-5.514,4.485-9.999,9.997-9.999h143.117c5.514,0,10,4.486,10,9.999v10.003H174.443V42.712z M48.561,72.715h44.623  v19.998H49.998c-5.523,0-10,4.477-10,10v40.002H20v-41.44C20,85.527,32.813,72.715,48.561,72.715z M20,450.726v-41.44h19.998v40.004  c0,5.523,4.477,10,10,10h43.186v19.999H48.561C32.813,479.288,20,466.475,20,450.726z M463.436,479.288h-44.621V459.29H462  c5.522,0,10-4.477,10-10v-40.004h20.001v41.44C492.001,466.475,479.186,479.288,463.436,479.288z"/>
<path d="M407.266,162.716h0.238c5.522,0,10-4.477,10-10s-4.478-10-10-10h-0.238c-5.523,0-10,4.477-10,10  C397.266,158.24,401.743,162.716,407.266,162.716z"/>
<path d="M327.501,162.714h51.035c5.523,0,10-4.477,10-10s-4.477-10-10-10h-51.035c-5.523,0-10,4.477-10,10  C317.501,158.238,321.977,162.714,327.501,162.714z"/>
<path d="M103.184,162.714c5.507,0,9.999-4.49,9.999-10c0-5.505-4.492-9.998-9.999-9.998c-5.508,0-9.998,4.492-9.998,9.998  C93.186,158.225,97.677,162.714,103.184,162.714z"/>
<path d="M153.183,162.714c5.507,0,9.997-4.49,9.997-10c0-5.505-4.49-9.998-9.997-9.998c-5.51,0-10,4.492-10,9.998  C143.183,158.225,147.673,162.714,153.183,162.714z"/>
<path d="M203.179,162.714c5.507,0,9.997-4.49,9.997-10c0-5.505-4.49-9.998-9.997-9.998c-5.508,0-10,4.492-10,9.998  C193.179,158.225,197.671,162.714,203.179,162.714z"/>
<path d="M180.003,391.17h-51.035c-5.523,0-10,4.477-10,10s4.477,10,10,10h51.035c5.523,0,10-4.477,10-10  S185.526,391.17,180.003,391.17z"/>
<path d="M100.238,391.173H100c-5.523,0-10,4.478-10,10c0,5.523,4.477,10,10,10h0.238c5.523,0,10-4.477,10-10  C110.238,395.651,105.761,391.173,100.238,391.173z"/>
<g>
</g>
<g>
</g>
<g>
</g>
<g>
</g>
<g>
</g>
<g>
</g>
<g>
</g>
<g>
</g>
<g>
</g>
<g>
</g>
<g>
</g>
<g>
</g>
<g>
</g>
<g>
</g>
<g>
</g>
</svg>
