<?xml version="1.0" encoding="iso-8859-1"?>
<!-- Generator: Adobe Illustrator 19.0.0, SVG Export Plug-In . SVG Version: 6.00 Build 0)  -->
<svg xmlns="http://www.w3.org/2000/svg" xmlns:xlink="http://www.w3.org/1999/xlink" version="1.1" id="Capa_1" x="0px" y="0px" viewBox="0 0 511.999 511.999" style="enable-background:new 0 0 511.999 511.999;" xml:space="preserve">
<g>
	<polygon style="fill:#F7A139;" points="411.095,72.62 439.38,100.905 501.999,59.635 466.643,45.356 452.364,10.001  "/>
	<polygon style="fill:#CCCCCC;" points="439.38,100.905 411.095,72.62 254.284,229.432 238.327,245.387 266.613,273.674    282.567,257.717  "/>
	<path style="fill:#E7526A;" d="M266.613,273.674l-28.286-28.288l15.957-15.955l-20.877-3.792L19.35,311.42   c-15.49,7.503-10.695,27.35,6.773,29.6l14.686,1.538l116.427,12.207l11.469,109.399l0.736,7.027l1.539,14.686   c2.252,17.468,22.096,22.266,29.6,6.774l85.78-214.057l-3.793-20.876L266.613,273.674z"/>
</g>
<path d="M511.949,58.643c-0.369-3.699-2.76-6.888-6.205-8.28l-31.42-12.69l-12.69-31.418c-1.392-3.446-4.58-5.836-8.279-6.206  c-3.699-0.371-7.297,1.344-9.342,4.448l-40.709,61.77L250.914,218.657l-15.72-2.855c-1.854-0.337-3.761-0.144-5.507,0.557  L15.632,302.138c-0.217,0.087-0.43,0.181-0.64,0.282c-10.686,5.176-16.446,15.542-14.676,26.411  c1.886,11.576,11.743,20.46,24.53,22.106c0.078,0.01,0.156,0.02,0.236,0.028l123.054,12.9l10.615,101.285  c0.001,0.003,0.002,0.006,0.002,0.009l2.28,21.758c0.009,0.079,0.018,0.158,0.028,0.237c1.648,12.788,10.533,22.645,22.109,24.53  c1.305,0.212,2.601,0.316,3.883,0.316c9.396,0,17.971-5.589,22.525-14.991c0.102-0.21,0.195-0.423,0.282-0.64l85.779-214.057  c0.701-1.747,0.893-3.656,0.557-5.507l-2.855-15.719l152.39-152.392l61.77-40.711C510.605,65.94,512.318,62.341,511.949,58.643z   M275.606,250.538c-0.019,0.019-0.037,0.038-0.057,0.058l-8.937,8.936l-14.143-14.145l8.949-8.95  c0.013-0.012,0.025-0.024,0.037-0.037l149.64-149.639l14.143,14.144L275.606,250.538z M191.447,488.557  c-0.944,1.833-2.563,3.793-5.06,3.387c-2.125-0.346-4.822-2.451-5.475-7.244l-1.995-19.028l18.766-44.697  c2.138-5.092-0.257-10.954-5.349-13.091c-5.094-2.14-10.954,0.257-13.092,5.349l-4.658,11.096l-7.402-70.608  c-0.492-4.698-4.204-8.411-8.902-8.903L27.299,331.088c-4.792-0.651-6.896-3.348-7.243-5.472c-0.407-2.503,1.555-4.119,3.388-5.063  l209.55-83.975l-1.736,1.737c-3.906,3.905-3.906,10.237-0.001,14.142l28.286,28.288c1.875,1.875,4.419,2.929,7.071,2.929  c2.651,0,5.196-1.054,7.071-2.929l1.736-1.736L191.447,488.557z M440.684,88.068l-16.752-16.754l26.295-39.901l7.144,17.687  c1.017,2.516,3.011,4.51,5.527,5.527l17.688,7.144L440.684,88.068z"/>
<path d="M217.461,266.255c-3.904-3.905-10.235-3.905-14.142,0c-3.906,3.905-3.906,10.237-0.001,14.142l28.284,28.286  c1.952,1.953,4.512,2.929,7.07,2.929c2.56,0,5.119-0.977,7.071-2.929c3.905-3.905,3.905-10.237,0.001-14.142L217.461,266.255z"/>
<path d="M189.619,294.097c-3.904-3.906-10.235-3.905-14.142,0c-3.905,3.905-3.905,10.237-0.001,14.142l28.284,28.286  c1.952,1.953,4.512,2.929,7.071,2.929c2.559,0,5.118-0.977,7.07-2.929c3.906-3.905,3.906-10.237,0.001-14.142L189.619,294.097z"/>
<path d="M203.526,381.169c-5.096-2.129-10.953,0.275-13.082,5.372l-0.092,0.22c-2.129,5.096,0.277,10.953,5.373,13.082  c1.26,0.526,2.565,0.775,3.851,0.775c3.913,0,7.628-2.311,9.231-6.148l0.092-0.22C211.028,389.155,208.622,383.298,203.526,381.169z  "/>
<g>
</g>
<g>
</g>
<g>
</g>
<g>
</g>
<g>
</g>
<g>
</g>
<g>
</g>
<g>
</g>
<g>
</g>
<g>
</g>
<g>
</g>
<g>
</g>
<g>
</g>
<g>
</g>
<g>
</g>
</svg>
