<?xml version="1.0" encoding="iso-8859-1"?>
<!-- Generator: Adobe Illustrator 19.0.0, SVG Export Plug-In . SVG Version: 6.00 Build 0)  -->
<svg xmlns="http://www.w3.org/2000/svg" xmlns:xlink="http://www.w3.org/1999/xlink" version="1.1" id="Capa_1" x="0px" y="0px" viewBox="0 0 512 512" style="enable-background:new 0 0 512 512;" xml:space="preserve">
<path style="fill:#4EC0AA;" d="M264.093,512h-16.189c-2.814,0-5.096-2.282-5.096-5.096V306.026h26.381v200.879  C269.189,509.719,266.908,512,264.093,512z"/>
<path style="fill:#FFD15C;" d="M480.521,205.324c0-30.711-84.105-56.099-193.347-60.21c-1.042-1.462-2.049-2.955-2.987-4.499  c-5.93-9.754-16.336-16.225-28.188-16.225s-22.258,6.471-28.188,16.225c-0.938,1.545-1.945,3.037-2.987,4.499  c-109.242,4.109-193.347,29.498-193.347,60.21c0,13.357,15.922,25.706,42.89,35.739c-0.042-0.014-0.055-0.018-0.032-0.01  c0.069,0.026,0.142,0.051,0.211,0.076c1.148,0.426,2.316,0.848,3.504,1.265c0.1,0.035,0.198,0.07,0.298,0.105  c1.55,0.542,3.125,1.078,4.74,1.606c27.982,9.782,113.423,39.705,113.423,39.705c15.563,5.847,24.89,12.982,30.111,18.178  c2.411,2.399,4.424,5.181,6.163,8.151c4.787,8.177,13.392,13.633,23.216,13.633c9.823,0,18.429-5.456,23.216-13.633  c1.739-2.97,3.752-5.751,6.163-8.151c5.22-5.196,14.548-12.332,30.111-18.178c0,0,85.439-29.923,113.422-39.705  c1.616-0.527,3.192-1.063,4.742-1.607c0.098-0.034,0.195-0.069,0.293-0.104c1.189-0.418,2.36-0.84,3.509-1.267  c0.068-0.025,0.141-0.05,0.209-0.075c0.023-0.009,0.01-0.004-0.032,0.01C464.599,231.03,480.521,218.681,480.521,205.324z"/>
<path style="fill:#E8B44D;" d="M480.524,205.32c0,13.351-15.899,25.703-42.846,35.733c0,0-0.01,0-0.041,0.01  c-0.061,0.031-0.122,0.041-0.183,0.061c-1.151,0.428-2.314,0.856-3.506,1.274c-0.102,0.031-0.194,0.071-0.295,0.102  c-1.549,0.54-3.129,1.08-4.74,1.611c-27.986,9.774-113.424,39.697-113.424,39.697c-15.563,5.85-24.888,12.984-30.107,18.182  c-2.416,2.395-4.433,5.178-6.166,8.154c-4.791,8.174-13.392,13.626-23.217,13.626c-9.825,0-18.427-5.453-23.217-13.626  c-1.447-2.477-3.088-4.821-4.994-6.92c0.377-0.428,0.774-0.835,1.172-1.233c5.218-5.198,14.544-12.332,30.107-18.182  c0,0,85.438-29.923,113.424-39.697c1.611-0.53,3.19-1.07,4.74-1.611c0.102-0.031,0.194-0.071,0.295-0.102  c1.192-0.418,2.355-0.846,3.506-1.274c0.061-0.02,0.122-0.031,0.183-0.061c0.031-0.01,0.041-0.01,0.041-0.01  c26.947-10.028,42.846-22.381,42.846-35.733c0-30.708-195.387-63.138-196.314-64.677c0.01-0.01,0.01-0.02,0.02-0.031  c5.932-9.753,16.337-16.225,28.19-16.225c11.853,0,22.259,6.472,28.19,16.225c0.937,1.549,1.947,3.037,2.986,4.504  C396.41,149.225,480.524,174.612,480.524,205.32z"/>
<path style="fill:#A1ACAD;" d="M255.998,142.839c-4.143,0-7.502-3.359-7.502-7.502V7.502c0-4.143,3.359-7.502,7.502-7.502  c4.143,0,7.502,3.359,7.502,7.502v127.834C263.501,139.479,260.142,142.839,255.998,142.839z"/>
<g>
	<path style="fill:#E8B44D;" d="M251.943,187.773c-11.611,0-23.236-1.751-34.442-5.271c-3.953-1.241-6.151-5.453-4.91-9.405   c1.24-3.953,5.452-6.152,9.405-4.91c22.076,6.932,46.025,5.973,67.436-2.7c3.839-1.555,8.215,0.296,9.77,4.136   c1.556,3.84-0.296,8.215-4.136,9.77C281.308,184.968,266.637,187.773,251.943,187.773z"/>
	<circle style="fill:#E8B44D;" cx="138.715" cy="221.882" r="8.588"/>
	<circle style="fill:#E8B44D;" cx="179.178" cy="213.3" r="8.588"/>
	<circle style="fill:#E8B44D;" cx="147.298" cy="185.551" r="8.588"/>
	<circle style="fill:#E8B44D;" cx="372.712" cy="185.551" r="8.588"/>
</g>
<g>
</g>
<g>
</g>
<g>
</g>
<g>
</g>
<g>
</g>
<g>
</g>
<g>
</g>
<g>
</g>
<g>
</g>
<g>
</g>
<g>
</g>
<g>
</g>
<g>
</g>
<g>
</g>
<g>
</g>
</svg>
