<?xml version="1.0" encoding="iso-8859-1"?>
<!-- Generator: Adobe Illustrator 19.0.0, SVG Export Plug-In . SVG Version: 6.00 Build 0)  -->
<svg xmlns="http://www.w3.org/2000/svg" xmlns:xlink="http://www.w3.org/1999/xlink" version="1.1" id="Capa_1" x="0px" y="0px" viewBox="0 0 512 512" style="enable-background:new 0 0 512 512;" xml:space="preserve">
<path style="fill:#A1ACAD;" d="M426.606,244.527c-14.712,0-28.015,6.019-37.595,15.722V7.619c0-4.208-3.411-7.619-7.619-7.619  c-4.208,0-7.619,3.411-7.619,7.619v282.823c0,0.652,0.091,1.281,0.245,1.885c-0.156,1.657-0.245,3.335-0.245,5.033  c0,29.179,23.654,52.833,52.833,52.833c29.179,0,52.833-23.654,52.833-52.833C479.439,268.181,455.785,244.527,426.606,244.527z"/>
<path style="fill:#819696;" d="M479.437,297.358c0,29.186-23.65,52.836-52.836,52.836c-4.307,0-8.493-0.518-12.505-1.493  c23.131-5.618,40.31-26.474,40.31-51.342c0-24.858-17.178-45.714-40.31-51.332c4.013-0.975,8.198-1.493,12.505-1.493  C455.788,244.532,479.437,268.182,479.437,297.358z"/>
<path style="fill:#A1ACAD;" d="M293.056,356.864c-14.681,0-27.959,5.991-37.533,15.658V180.684h0.035v-51.587  c0-2.805-2.274-5.079-5.079-5.079h-0.035h-10.159H47.797H37.738h-0.099c-2.805,0-5.079,2.274-5.079,5.079v330.26  c0,0.112,0.011,0.221,0.016,0.332C32.856,488.626,56.391,512,85.395,512c29.179,0,52.833-23.654,52.833-52.833  s-23.654-52.833-52.833-52.833c-14.714,0-28.018,6.02-37.598,15.725c0-58.744,0-172.648,0-241.375h192.412  c-0.013,82.564,0.075,226.163,0.075,226.163c0,0.047,0.006,0.093,0.007,0.14c-0.045,0.898-0.068,1.801-0.068,2.71  c0,29.179,23.654,52.833,52.833,52.833s52.833-23.654,52.833-52.833S322.235,356.864,293.056,356.864z"/>
<g>
	<path style="fill:#819696;" d="M345.888,409.694c0,29.186-23.65,52.836-52.836,52.836c-4.307,0-8.493-0.518-12.505-1.493   c23.131-5.618,40.31-26.474,40.31-51.342c0-24.858-17.178-45.714-40.31-51.332c4.013-0.975,8.198-1.493,12.505-1.493   C322.238,356.869,345.888,380.518,345.888,409.694z"/>
	<path style="fill:#819696;" d="M138.226,459.164c0,29.186-23.65,52.836-52.836,52.836c-4.307,0-8.493-0.518-12.505-1.493   c23.131-5.618,40.31-26.474,40.31-51.342c0-24.858-17.178-45.714-40.31-51.332c4.013-0.975,8.198-1.493,12.505-1.493   C114.576,406.339,138.226,429.989,138.226,459.164z"/>
</g>
<g>
</g>
<g>
</g>
<g>
</g>
<g>
</g>
<g>
</g>
<g>
</g>
<g>
</g>
<g>
</g>
<g>
</g>
<g>
</g>
<g>
</g>
<g>
</g>
<g>
</g>
<g>
</g>
<g>
</g>
</svg>
