<?xml version="1.0" encoding="iso-8859-1"?>
<!-- Generator: Adobe Illustrator 19.0.0, SVG Export Plug-In . SVG Version: 6.00 Build 0)  -->
<svg xmlns="http://www.w3.org/2000/svg" xmlns:xlink="http://www.w3.org/1999/xlink" version="1.1" id="Capa_1" x="0px" y="0px" viewBox="0 0 512.001 512.001" style="enable-background:new 0 0 512.001 512.001;" xml:space="preserve">
<path style="fill:#E8B44D;" d="M362.495,33.578l13.648,34.88H135.857l13.648-34.88c0.76-1.943,2.634-3.221,4.72-3.221h203.551  C359.862,30.357,361.735,31.635,362.495,33.578z"/>
<path style="fill:#4EC0AA;" d="M122.648,272.464V73.525c0-2.799,2.269-5.068,5.068-5.068h256.57c2.799,0,5.068,2.269,5.068,5.068  v397.267c0,22.758-18.449,41.207-41.207,41.207H163.854c-22.758,0-41.206-18.449-41.206-41.207V328.487"/>
<path style="fill:#40AD98;" d="M389.353,73.527v397.262c0,22.76-18.451,41.211-41.211,41.211h-45.722  c22.754,0,41.201-18.447,41.201-41.211V68.459h40.664C387.084,68.459,389.353,70.729,389.353,73.527z"/>
<path style="fill:#D8362A;" d="M343.797,293.85c0,48.489-39.308,87.798-87.798,87.798s-87.798-39.308-87.798-87.798  s39.308-87.798,87.798-87.798c23.536,0,44.909,9.261,60.673,24.338C333.388,246.374,343.797,268.896,343.797,293.85z"/>
<path style="fill:#B72020;" d="M343.794,293.854c0,48.488-39.305,87.794-87.794,87.794c-5.584,0-11.038-0.517-16.328-1.521  c40.684-7.652,71.466-43.37,71.466-86.273c0-24.953-10.409-47.474-27.122-63.459c-12.021-11.503-27.316-19.622-44.343-22.825  c5.291-1.003,10.743-1.52,16.328-1.52c23.535,0,44.911,9.264,60.671,24.346C333.385,246.378,343.794,268.899,343.794,293.854z"/>
<path style="fill:#40AD98;" d="M203.645,111.261c4.199,0,7.601-3.403,7.601-7.601c0-4.198-3.403-7.601-7.601-7.601h-22.26  c-4.199,0-7.601,3.403-7.601,7.601c0,4.198,3.403,7.601,7.601,7.601H203.645z"/>
<path style="fill:#FFD15C;" d="M256,389.249c52.602,0,95.398-42.796,95.398-95.399c0-26.29-10.466-50.779-29.471-68.953  C304.094,207.843,280.681,198.45,256,198.45c-52.602,0-95.398,42.796-95.398,95.399S203.398,389.249,256,389.249z M256,213.654  c7.181,0,14.227,0.967,21.001,2.798l-72.614,88.825c-2.658,3.25-2.176,8.04,1.074,10.696c1.412,1.154,3.115,1.717,4.808,1.717  c2.202,0,4.386-0.952,5.89-2.791l75.812-92.737c4.123,2.073,8.072,4.513,11.812,7.297l-31.222,38.193  c-2.658,3.25-2.176,8.04,1.074,10.696c1.412,1.154,3.115,1.717,4.807,1.717c2.202,0,4.387-0.952,5.891-2.791l30.757-37.624  c13.638,14.817,21.108,33.861,21.108,54.198c0,44.22-35.975,80.195-80.195,80.195s-80.195-35.975-80.195-80.195  S211.78,213.654,256,213.654z"/>
<path style="fill:#40AD98;" d="M386.351,111.674H240.988c-4.147,0-7.507-3.361-7.507-7.507c0-4.146,3.36-7.507,7.507-7.507h145.363  c4.147,0,7.507,3.361,7.507,7.507C393.858,108.312,390.497,111.674,386.351,111.674z"/>
<g>
	<path style="fill:#FFD15C;" d="M387.884,36.833H124.116c-4.147,0-7.507-3.361-7.507-7.507s3.36-7.507,7.507-7.507h263.768   c4.147,0,7.507,3.361,7.507,7.507S392.031,36.833,387.884,36.833z"/>
	<path style="fill:#FFD15C;" d="M323.195,36.833c-1.672,0-3.353-0.555-4.748-1.695c-3.21-2.625-3.686-7.354-1.061-10.563   l17.835-21.818c2.624-3.211,7.354-3.685,10.564-1.061c3.21,2.625,3.686,7.354,1.061,10.563l-17.835,21.818   C327.527,35.893,325.37,36.833,323.195,36.833z"/>
</g>
<g>
</g>
<g>
</g>
<g>
</g>
<g>
</g>
<g>
</g>
<g>
</g>
<g>
</g>
<g>
</g>
<g>
</g>
<g>
</g>
<g>
</g>
<g>
</g>
<g>
</g>
<g>
</g>
<g>
</g>
</svg>
