<?xml version="1.0" encoding="iso-8859-1"?>
<!-- Generator: Adobe Illustrator 19.0.0, SVG Export Plug-In . SVG Version: 6.00 Build 0)  -->
<svg xmlns="http://www.w3.org/2000/svg" xmlns:xlink="http://www.w3.org/1999/xlink" version="1.1" id="Capa_1" x="0px" y="0px" viewBox="0 0 512 512" style="enable-background:new 0 0 512 512;" xml:space="preserve">
<path style="fill:#FF8A33;" d="M241.09,307.045h-8.464h-21.334c-2.501,0-4.648,1.78-5.111,4.238l-36.668,194.539  c-0.821,4.354,3.831,7.675,7.683,5.484L256,466.475l78.804,44.832c3.852,2.191,8.504-1.13,7.683-5.484l-36.667-194.54  c-0.463-2.458-2.61-4.238-5.111-4.238h-21.334h-7.424L241.09,307.045L241.09,307.045z"/>
<path style="fill:#ED7829;" d="M334.802,511.307l-30.358-17.269l-35.243-186.991h31.503c2.501,0,4.648,1.78,5.111,4.238  l36.67,194.537C343.305,510.177,338.653,513.498,334.802,511.307z"/>
<path style="fill:#FFD15C;" d="M264.403,331.063h-16.016c-2.872,0-5.201-2.329-5.201-5.201V102.421h26.419v223.441  C269.604,328.735,267.276,331.063,264.403,331.063z"/>
<path style="fill:#424A4C;" d="M243.186,102.421l-26.973-21.76c-1.754-1.415-2.397-3.799-1.593-5.905l27.288-71.412  C242.677,1.33,244.61,0,246.766,0h17.637c2.872,0,5.201,2.329,5.201,5.201v97.22C269.604,102.421,243.186,102.421,243.186,102.421z"/>
<g>
	<circle style="fill:#B72020;" cx="203.88" cy="456.19" r="8.585"/>
	<circle style="fill:#B72020;" cx="208.92" cy="428.58" r="8.585"/>
	<circle style="fill:#B72020;" cx="213.95" cy="400.97" r="8.585"/>
</g>
<g>
	<path style="fill:#FFD15C;" d="M279.548,356.96h-47.096c-4.142,0-7.5-3.358-7.5-7.5s3.358-7.5,7.5-7.5h47.096   c4.143,0,7.5,3.358,7.5,7.5S283.691,356.96,279.548,356.96z"/>
	<path style="fill:#FFD15C;" d="M279.548,389.564h-47.096c-4.142,0-7.5-3.358-7.5-7.5s3.358-7.5,7.5-7.5h47.096   c4.143,0,7.5,3.358,7.5,7.5S283.691,389.564,279.548,389.564z"/>
</g>
<circle cx="204.23" cy="59.57" r="5.451"/>
<circle cx="210.92" cy="44.29" r="5.451"/>
<circle cx="217.38" cy="30.65" r="5.451"/>
<circle cx="223.95" cy="16.1" r="5.451"/>
<g>
</g>
<g>
</g>
<g>
</g>
<g>
</g>
<g>
</g>
<g>
</g>
<g>
</g>
<g>
</g>
<g>
</g>
<g>
</g>
<g>
</g>
<g>
</g>
<g>
</g>
<g>
</g>
<g>
</g>
</svg>
