<?xml version="1.0" encoding="iso-8859-1"?>
<!-- Generator: Adobe Illustrator 19.0.0, SVG Export Plug-In . SVG Version: 6.00 Build 0)  -->
<svg xmlns="http://www.w3.org/2000/svg" xmlns:xlink="http://www.w3.org/1999/xlink" version="1.1" id="Capa_1" x="0px" y="0px" viewBox="0 0 512 512" style="enable-background:new 0 0 512 512;" xml:space="preserve">
<path style="fill:#A1ACAD;" d="M333.596,125.539h-0.247h-38.656h-0.247H255.79h-0.247h-38.656h-0.247h-38.656h-0.247h-33.884  c-2.772,0-5.02,2.247-5.02,5.02v17.918h38.903h0.247h38.656h0.247h38.656h0.247h38.656h0.247h38.656h0.247H372.5v-17.918  c0-2.772-2.247-5.02-5.02-5.02H333.596z"/>
<path style="fill:#36353A;" d="M438.162,155.82c-4.161,0-7.534-3.373-7.534-7.534v-55.39c0-1.385-1.127-2.511-2.511-2.511H83.883  c-1.385,0-2.511,1.127-2.511,2.511v55.39c0,4.161-3.373,7.534-7.534,7.534s-7.534-3.373-7.534-7.534v-55.39  c0-9.694,7.886-17.58,17.58-17.58h344.233c9.694,0,17.58,7.886,17.58,17.58v55.39C445.697,152.447,442.323,155.82,438.162,155.82z"/>
<path style="fill:#FFD15C;" d="M506.853,409.745H5.147c-2.843,0-5.147-2.305-5.147-5.147V146.283c0-2.843,2.305-5.147,5.147-5.147  h501.705c2.843,0,5.147,2.305,5.147,5.147v258.314C512,407.441,509.695,409.745,506.853,409.745z"/>
<path style="fill:#E8B44D;" d="M506.853,409.745H256V141.136h250.853c2.843,0,5.147,2.305,5.147,5.147v258.314  C512,407.441,509.695,409.745,506.853,409.745z"/>
<path style="fill:#DDE5E8;" d="M323.37,357.266H188.63c-2.843,0-5.147-2.305-5.147-5.147v-78.241c0-2.843,2.305-5.147,5.147-5.147  h134.74c2.843,0,5.147,2.305,5.147,5.147v78.241C328.517,354.963,326.213,357.266,323.37,357.266z"/>
<path style="fill:#FCFCFC;" d="M323.37,357.266h-21.71V268.73h21.71c2.843,0,5.147,2.305,5.147,5.147v78.241  C328.517,354.963,326.213,357.266,323.37,357.266z"/>
<path style="fill:#4EC0AA;" d="M376.622,229.242h-241.93c-2.843,0-5.147-2.305-5.147-5.147v-51.537c0-2.843,2.305-5.147,5.147-5.147  h241.93c2.843,0,5.147,2.305,5.147,5.147v51.537C381.769,226.938,379.465,229.242,376.622,229.242z"/>
<path style="fill:#40AD98;" d="M376.622,229.242h-23.374V167.41h23.374c2.843,0,5.147,2.305,5.147,5.147v51.537  C381.769,226.938,379.465,229.242,376.622,229.242z"/>
<path style="fill:#FFFFFF;" d="M222.506,176.682c-4.161,0-7.534,3.373-7.534,7.534v6.575h-63.804c-4.161,0-7.534,3.373-7.534,7.534  s3.373,7.534,7.534,7.534h63.804v6.575c0,4.161,3.373,7.534,7.534,7.534s7.534-3.373,7.534-7.534v-6.575h130.105  c4.161,0,7.534-3.373,7.534-7.534s-3.373-7.534-7.534-7.534H230.04v-6.575C230.04,180.055,226.667,176.682,222.506,176.682z"/>
<g>
	<circle style="fill:#D6AF09;" cx="85.02" cy="222.509" r="8.624"/>
	<circle style="fill:#D6AF09;" cx="342.27" cy="388.25" r="8.624"/>
	<circle style="fill:#D6AF09;" cx="352.99" cy="360.539" r="8.624"/>
	<circle style="fill:#D6AF09;" cx="50.34" cy="200.359" r="8.624"/>
	<circle style="fill:#D6AF09;" cx="46.931" cy="237.429" r="8.624"/>
</g>
<g>
	<path style="fill:#424A4C;" d="M93.898,436.685H35.217c-2.843,0-5.147-2.305-5.147-5.147v-21.791h68.976v21.791   C99.046,434.38,96.741,436.685,93.898,436.685z"/>
	<path style="fill:#424A4C;" d="M476.097,436.685h-58.681c-2.843,0-5.147-2.305-5.147-5.147v-21.791h68.976v21.791   C481.244,434.38,478.939,436.685,476.097,436.685z"/>
	<circle style="fill:#424A4C;" cx="96.62" cy="316.07" r="50.09"/>
</g>
<circle style="fill:#FFFFFF;" cx="96.62" cy="316.07" r="17.369"/>
<circle style="fill:#424A4C;" cx="414.71" cy="316.07" r="50.09"/>
<circle style="fill:#FFFFFF;" cx="414.71" cy="316.07" r="17.369"/>
<g>
</g>
<g>
</g>
<g>
</g>
<g>
</g>
<g>
</g>
<g>
</g>
<g>
</g>
<g>
</g>
<g>
</g>
<g>
</g>
<g>
</g>
<g>
</g>
<g>
</g>
<g>
</g>
<g>
</g>
</svg>
