<?xml version="1.0" encoding="iso-8859-1"?>
<!-- Generator: Adobe Illustrator 19.0.0, SVG Export Plug-In . SVG Version: 6.00 Build 0)  -->
<svg xmlns="http://www.w3.org/2000/svg" xmlns:xlink="http://www.w3.org/1999/xlink" version="1.1" id="Capa_1" x="0px" y="0px" viewBox="0 0 512 512" style="enable-background:new 0 0 512 512;" xml:space="preserve">
<circle style="fill:#424A4C;" cx="256" cy="256" r="256"/>
<path style="fill:#30393A;" d="M512,255.998C512,397.386,397.386,512,255.998,512c-58.523,0-112.45-19.631-155.567-52.67  c33.368,15.932,70.724,24.846,110.162,24.846c141.377,0,255.992-114.614,255.992-256.002c0-82.864-39.376-156.536-100.424-203.332  C452.415,66.022,512,154.049,512,255.998z"/>
<circle style="fill:#4EC0AA;" cx="256" cy="256" r="86.966"/>
<path style="fill:#40AD98;" d="M342.968,256c0,48.026-38.943,86.968-86.968,86.968c-27.619,0-52.237-12.884-68.162-32.971  c13.785,9.193,30.34,14.545,48.156,14.545c48.026,0,86.958-38.933,86.958-86.968c0-20.397-7.022-39.163-18.786-53.988  C327.563,199.171,342.968,225.79,342.968,256z"/>
<g>
	<path style="fill:#565D5E;" d="M79.102,188.704c-0.976,0-1.967-0.191-2.922-0.596c-3.816-1.615-5.599-6.018-3.984-9.834   c18.025-42.574,50.557-77.821,91.6-99.247c3.67-1.917,8.205-0.495,10.122,3.179c1.918,3.673,0.494,8.205-3.179,10.122   c-37.965,19.819-68.054,52.419-84.727,91.796C84.803,186.985,82.024,188.704,79.102,188.704z"/>
	<path style="fill:#565D5E;" d="M342.288,435.082c-2.744,0-5.387-1.51-6.706-4.128c-1.864-3.7-0.376-8.212,3.324-10.076   c56.942-28.691,94.599-83.587,100.732-146.847c0.4-4.124,4.064-7.148,8.191-6.743c4.124,0.4,7.143,4.067,6.743,8.191   c-3.274,33.766-15.244,66.353-34.62,94.237c-18.975,27.307-44.666,49.632-74.295,64.562   C344.575,434.823,343.423,435.082,342.288,435.082z"/>
	<path style="fill:#565D5E;" d="M341.095,393.552c-2.744,0-5.387-1.51-6.706-4.128c-1.864-3.7-0.376-8.212,3.324-10.076   c37.036-18.661,61.528-54.364,65.517-95.506c0.4-4.124,4.064-7.144,8.191-6.743c4.124,0.4,7.143,4.067,6.743,8.191   c-2.215,22.851-10.317,44.903-23.428,63.773c-12.839,18.477-30.223,33.583-50.271,43.685   C343.382,393.293,342.23,393.552,341.095,393.552z"/>
</g>
<circle cx="256" cy="221.99" r="8.587"/>
<path d="M248.498,263.502h-18.006c-4.144,0-7.502-3.359-7.502-7.502s3.359-7.502,7.502-7.502h18.006  c4.144,0,7.502,3.359,7.502,7.502S252.641,263.502,248.498,263.502z"/>
<path style="fill:#FFD15C;" d="M256,161.531c-52.09,0-94.468,42.379-94.468,94.469S203.91,350.469,256,350.469  S350.468,308.09,350.468,256S308.09,161.531,256,161.531z M256,335.464c-41.285,0-75.305-31.652-79.099-71.961h17.079  c4.144,0,7.502-3.359,7.502-7.502s-3.358-7.502-7.502-7.502h-17.079c3.794-40.31,37.814-71.961,79.099-71.961  s75.305,31.652,79.099,71.961H286.26c-4.144,0-7.502,3.359-7.502,7.502s3.359,7.502,7.502,7.502h48.839  C331.305,303.812,297.285,335.464,256,335.464z"/>
<path d="M288.229,302.347H223.77c-4.144,0-7.502-3.359-7.502-7.502s3.359-7.502,7.502-7.502h64.459c4.144,0,7.502,3.359,7.502,7.502  S292.373,302.347,288.229,302.347z"/>
<g>
</g>
<g>
</g>
<g>
</g>
<g>
</g>
<g>
</g>
<g>
</g>
<g>
</g>
<g>
</g>
<g>
</g>
<g>
</g>
<g>
</g>
<g>
</g>
<g>
</g>
<g>
</g>
<g>
</g>
</svg>
