<?xml version="1.0" encoding="iso-8859-1"?>
<!-- Generator: Adobe Illustrator 19.0.0, SVG Export Plug-In . SVG Version: 6.00 Build 0)  -->
<svg xmlns="http://www.w3.org/2000/svg" xmlns:xlink="http://www.w3.org/1999/xlink" version="1.1" id="Capa_1" x="0px" y="0px" viewBox="0 0 512 512" style="enable-background:new 0 0 512 512;" xml:space="preserve">
<g>
	<path style="fill:#36353A;" d="M256.359,512c-4.192,0-7.589-3.397-7.589-7.589V365.786c0-4.192,3.397-7.589,7.589-7.589   s7.589,3.397,7.589,7.589v138.625C263.948,508.602,260.55,512,256.359,512z"/>
	<path style="fill:#36353A;" d="M371.564,512H141.153c-4.192,0-7.589-3.397-7.589-7.589c0-4.192,3.397-7.589,7.589-7.589h230.411   c4.192,0,7.589,3.397,7.589,7.589C379.153,508.603,375.756,512,371.564,512z"/>
	<path style="fill:#36353A;" d="M256.359,367.303c-44.862,0-87.157-17.589-119.095-49.526   c-31.937-31.938-49.526-74.233-49.526-119.095v-52.36c0-4.192,3.397-7.589,7.589-7.589s7.589,3.397,7.589,7.589v52.36   c0,84.609,68.834,153.444,153.444,153.444s153.444-68.834,153.444-153.444v-52.36c0-4.192,3.397-7.589,7.589-7.589   s7.589,3.397,7.589,7.589v52.36c0,44.862-17.589,87.157-49.526,119.095C343.517,349.715,301.221,367.303,256.359,367.303z"/>
	<path style="fill:#36353A;" d="M136.563,184.384H67.074c-4.192,0-7.589-3.397-7.589-7.589c0-4.192,3.397-7.589,7.589-7.589h69.489   c4.192,0,7.589,3.397,7.589,7.589C144.152,180.987,140.755,184.384,136.563,184.384z"/>
	<path style="fill:#36353A;" d="M444.631,184.384h-69.489c-4.192,0-7.589-3.397-7.589-7.589c0-4.192,3.397-7.589,7.589-7.589h69.489   c4.192,0,7.589,3.397,7.589,7.589C452.22,180.987,448.823,184.384,444.631,184.384z"/>
</g>
<g>
	<circle style="fill:#B72020;" cx="53.627" cy="176.796" r="14.984"/>
	<circle style="fill:#B72020;" cx="458.373" cy="176.796" r="14.984"/>
</g>
<path style="fill:#A1ACAD;" d="M256.359,325.822L256.359,325.822c-66.453,0-120.823-54.371-120.823-120.822v-84.177  C135.535,54.371,189.906,0,256.359,0l0,0c66.453,0,120.822,54.371,120.822,120.822v84.177  C377.181,271.453,322.812,325.822,256.359,325.822z"/>
<g>
	<path style="fill:#819696;" d="M377.185,120.825v84.17c0,66.457-54.376,120.822-120.822,120.822c-5.883,0-11.683-0.43-17.346-1.259   c58.308-8.473,103.466-59.001,103.466-119.564v-84.17c0-33.223-13.591-63.437-35.488-85.333   C288.968,17.475,265.34,5.09,239.018,1.263c5.663-0.828,11.462-1.259,17.346-1.259c33.223,0,63.426,13.591,85.323,35.488   C363.594,57.389,377.185,87.603,377.185,120.825z"/>
	<circle style="fill:#819696;" cx="210.141" cy="271.947" r="8.888"/>
	<circle style="fill:#819696;" cx="246.753" cy="294.154" r="8.888"/>
	<circle style="fill:#819696;" cx="239.26" cy="264.215" r="8.888"/>
</g>
<g>
	<path style="fill:#36353A;" d="M207.915,12.061v33.492c0,4.26-3.45,7.71-7.7,7.71c-4.26,0-7.71-3.45-7.71-7.71V18.385   c4.847-3.046,9.927-5.757,15.198-8.095C207.844,10.857,207.915,11.454,207.915,12.061z"/>
	<path style="fill:#36353A;" d="M245.354,0.515v45.038c0,4.26-3.45,7.71-7.71,7.71s-7.71-3.45-7.71-7.71V2.934   C234.962,1.801,240.113,0.981,245.354,0.515z"/>
	<path style="fill:#36353A;" d="M282.782,2.934v42.62c0,4.26-3.45,7.71-7.71,7.71c-4.25,0-7.7-3.45-7.7-7.71V0.515   C272.614,0.981,277.753,1.801,282.782,2.934z"/>
	<path style="fill:#36353A;" d="M320.211,18.385v27.169c0,4.26-3.45,7.71-7.7,7.71c-4.26,0-7.71-3.45-7.71-7.71V12.061   c0-0.607,0.071-1.204,0.213-1.771L320.211,18.385z"/>
	<path style="fill:#36353A;" d="M227.141,214.25c0,4.25-3.602,7.7-8.034,7.7h-82.365c-0.728-5.039-1.123-10.179-1.184-15.39   c0.101-0.02,0.213-0.02,0.324-0.02h83.226C223.539,206.54,227.141,209.991,227.141,214.25z"/>
	<path style="fill:#36353A;" d="M227.141,176.811c0,4.26-3.602,7.71-8.034,7.71h-83.226c-0.111,0-0.233,0-0.344-0.02v-15.37   c0.111-0.02,0.233-0.02,0.344-0.02h83.226C223.539,169.111,227.141,172.562,227.141,176.811z"/>
	<path style="fill:#36353A;" d="M227.141,139.383c0,4.26-3.602,7.71-8.034,7.71h-83.226c-0.111,0-0.233,0-0.344-0.02v-15.38   c0.111-0.02,0.233-0.02,0.344-0.02h83.226C223.539,131.673,227.141,135.124,227.141,139.383z"/>
	<path style="fill:#36353A;" d="M227.141,101.955c0,4.25-3.602,7.7-8.034,7.7h-83.043c0.475-5.242,1.296-10.381,2.448-15.411h80.594   C223.539,94.244,227.141,97.694,227.141,101.955z"/>
	<path style="fill:#36353A;" d="M375.974,221.95h-82.355c-4.442,0-8.035-3.45-8.035-7.7c0-4.26,3.592-7.71,8.035-7.71h83.216   c0.111,0,0.223,0,0.324,0.02L375.974,221.95z"/>
	<path style="fill:#36353A;" d="M377.179,169.132v15.37c-0.111,0.02-0.223,0.02-0.344,0.02H293.62c-4.442,0-8.035-3.45-8.035-7.71   c0-4.25,3.592-7.7,8.035-7.7h83.216C376.956,169.111,377.067,169.111,377.179,169.132z"/>
	<path style="fill:#36353A;" d="M377.179,147.073c-0.111,0.02-0.223,0.02-0.344,0.02H293.62c-4.442,0-8.035-3.45-8.035-7.71   s3.592-7.71,8.035-7.71h83.216c0.122,0,0.233,0,0.344,0.02V147.073z"/>
	<path style="fill:#36353A;" d="M376.653,109.655H293.62c-4.442,0-8.035-3.45-8.035-7.7c0-4.26,3.592-7.71,8.035-7.71h80.584   C375.358,99.273,376.177,104.414,376.653,109.655z"/>
</g>
<g>
</g>
<g>
</g>
<g>
</g>
<g>
</g>
<g>
</g>
<g>
</g>
<g>
</g>
<g>
</g>
<g>
</g>
<g>
</g>
<g>
</g>
<g>
</g>
<g>
</g>
<g>
</g>
<g>
</g>
</svg>
