<?xml version="1.0" encoding="iso-8859-1"?>
<!-- Generator: Adobe Illustrator 19.0.0, SVG Export Plug-In . SVG Version: 6.00 Build 0)  -->
<svg xmlns="http://www.w3.org/2000/svg" xmlns:xlink="http://www.w3.org/1999/xlink" version="1.1" id="Capa_1" x="0px" y="0px" viewBox="0 0 512 512" style="enable-background:new 0 0 512 512;" xml:space="preserve">
<path style="fill:#F0BEB4;" d="M326.751,35.843h-1.535c-12.603,0-22.914,10.113-22.914,22.473v41.531  c-1.37-11.492-11.212-20.48-23.057-20.48l0,0c-12.774,0-23.226,10.452-23.226,23.226h-0.018c0-12.775-10.452-23.226-23.226-23.226  l0,0c-12.774,0-23.911,10.452-23.911,23.226V23.226C208.863,10.452,198.411,0,185.637,0s-23.226,10.452-23.226,23.226v132.246  h-0.075v55.338c0,31.306,17.334,58.961,43.354,74.775V512h100.621V285.585c26.021-15.813,43.354-43.468,43.354-74.775v-28.861  v-13.424v-1.183V58.316C349.666,45.956,339.354,35.843,326.751,35.843z"/>
<path style="fill:#E5A195;" d="M326.748,35.845h-1.531c-3.742,0-7.272,0.893-10.396,2.464c7.414,3.732,12.515,11.308,12.515,20.01  v152.495c0,24.412-10.537,46.602-27.515,62.688c-14.493,13.732-33.671,23.022-55,25.436c3.661,0.426,7.394,0.639,11.176,0.639  c9.087,0,17.88-1.248,26.205-3.564V512h24.109V285.588c5.733-3.484,11.045-7.541,15.843-12.086  c16.978-16.085,27.515-38.276,27.515-62.688V58.32C349.669,45.957,339.355,35.845,326.748,35.845z"/>
<path style="fill:#FF8A33;" d="M330.104,380.887H181.898c-2.801,0-5.071-2.27-5.071-5.071v-37.751c0-2.801,2.27-5.071,5.071-5.071  h148.207c2.801,0,5.071,2.27,5.071,5.071v37.751C335.175,378.617,332.905,380.887,330.104,380.887z"/>
<path style="fill:#ED7829;" d="M330.104,380.887h-47.902v-47.893h47.902c2.801,0,5.071,2.27,5.071,5.071v37.751  C335.175,378.617,332.905,380.887,330.104,380.887z"/>
<g>
	<path style="fill:#E5A195;" d="M208.862,23.228V155.51h-18.935V23.228c0-9.412-5.669-17.556-13.753-21.187   c2.89-1.319,6.095-2.039,9.462-2.039C198.416,0.003,208.862,10.449,208.862,23.228z"/>
	<path style="fill:#E5A195;" d="M256.002,102.589v52.921h-18.59v-52.921c0-6.389-2.647-12.191-6.927-16.4   c-2.099-2.069-4.584-3.753-7.343-4.929c2.85-1.217,5.994-1.897,9.29-1.897c6.481,0,12.373,2.617,16.643,6.826   C253.345,90.399,256.002,96.2,256.002,102.589z"/>
	<path style="fill:#E5A195;" d="M302.473,102.589v60.345c0,12.779-10.456,23.225-23.225,23.225c-3.134,0-6.126-0.629-8.854-1.765   c-0.091-0.041-0.183-0.081-0.274-0.122c8.266-3.56,14.097-11.795,14.097-21.339v-60.345c0-6.389-2.617-12.191-6.826-16.4   c-2.079-2.079-4.544-3.763-7.272-4.939c2.799-1.217,5.892-1.887,9.128-1.887c6.389,0,12.191,2.617,16.4,6.826   C299.856,90.399,302.473,96.2,302.473,102.589z"/>
	<path style="fill:#E5A195;" d="M269.562,161.352c-2.008,11.917-10.7,38.479-48.296,46.399   c18.134-11.369,23.337-28.387,24.827-37.272c0.527-3.083-1.876-5.882-5-5.882h-78.762v-9.128h102.231   C267.686,155.469,270.089,158.269,269.562,161.352z"/>
</g>
<g>
	<circle style="fill:#36353A;" cx="204.28" cy="359.21" r="8.579"/>
	<circle style="fill:#36353A;" cx="238.76" cy="359.21" r="8.579"/>
	<circle style="fill:#36353A;" cx="273.24" cy="359.21" r="8.579"/>
	<circle style="fill:#36353A;" cx="307.72" cy="359.21" r="8.579"/>
</g>
<g>
</g>
<g>
</g>
<g>
</g>
<g>
</g>
<g>
</g>
<g>
</g>
<g>
</g>
<g>
</g>
<g>
</g>
<g>
</g>
<g>
</g>
<g>
</g>
<g>
</g>
<g>
</g>
<g>
</g>
</svg>
