<?xml version="1.0" encoding="iso-8859-1"?>
<!-- Generator: Adobe Illustrator 19.0.0, SVG Export Plug-In . SVG Version: 6.00 Build 0)  -->
<svg xmlns="http://www.w3.org/2000/svg" xmlns:xlink="http://www.w3.org/1999/xlink" version="1.1" id="Capa_1" x="0px" y="0px" viewBox="0 0 512 512" style="enable-background:new 0 0 512 512;" xml:space="preserve">
<path d="M270.172,353.655c0.746,0,1.505-0.112,2.254-0.348l10.935-3.442v5.305c0,4.142,3.358,7.5,7.5,7.5s7.5-3.358,7.5-7.5v-10.028  l15.439-4.86c3.951-1.244,6.146-5.455,4.902-9.406c-1.244-3.951-5.454-6.146-9.406-4.902l-41.374,13.024  c-3.951,1.244-6.146,5.455-4.902,9.406C264.028,351.606,266.984,353.655,270.172,353.655z"/>
<path d="M213.636,355.17c0,4.142,3.358,7.5,7.5,7.5c4.142,0,7.5-3.358,7.5-7.5v-5.305l10.935,3.442  c0.75,0.236,1.508,0.348,2.254,0.348c3.188,0,6.144-2.048,7.152-5.25c1.244-3.951-0.951-8.162-4.902-9.406l-41.374-13.024  c-3.951-1.243-8.162,0.951-9.406,4.902c-1.244,3.951,0.951,8.162,4.902,9.406l15.439,4.86L213.636,355.17L213.636,355.17z"/>
<path style="fill:#424A4C;" d="M382.146,123.069V5.149c0-2.844-2.305-5.149-5.149-5.149h-38.112c-2.844,0-5.149,2.305-5.149,5.149  v133.652c0,42.934-34.805,77.737-77.737,77.737l0,0c-42.934,0-77.737-34.805-77.737-77.737V5.149c0-2.844-2.305-5.149-5.149-5.149  h-38.112c-2.844,0-5.149,2.305-5.149,5.149v117.92c0,34.528-15.894,67.132-43.093,88.402l0,0v295.376  c0,2.844,2.305,5.149,5.149,5.149h150.326h27.529h150.326c2.844,0,5.149-2.305,5.149-5.149V211.471l0,0  C398.039,190.202,382.146,157.597,382.146,123.069z"/>
<g>
	<path style="fill:#30393A;" d="M425.241,211.475v295.376c0,2.844-2.305,5.149-5.149,5.149h-48.145V212.957   c0-0.937-0.432-1.816-1.162-2.403c-13.057-10.49-23.426-23.62-30.588-38.305c-3.162-6.498-5.705-13.295-7.569-20.308   c0.731-4.274,1.112-8.661,1.112-13.141V5.149c0-2.844,2.305-5.149,5.149-5.149h38.104c2.844,0,5.149,2.305,5.149,5.149v117.925   c0,17.26,3.975,34.046,11.349,49.175C400.864,187.367,411.647,200.837,425.241,211.475z"/>
	<circle style="fill:#30393A;" cx="135.059" cy="465.396" r="8.585"/>
	<circle style="fill:#30393A;" cx="175.519" cy="456.816" r="8.585"/>
	<circle style="fill:#30393A;" cx="143.649" cy="423.857" r="8.585"/>
	<circle style="fill:#30393A;" cx="135.059" cy="231.498" r="8.585"/>
</g>
<path style="fill:#DDE5E8;" d="M340.382,345.399c0-48.112-40.265-86.82-88.934-84.264c-44.237,2.322-79.41,39.152-79.83,83.447  c-0.27,28.533,13.625,53.832,35.079,69.303v23.178c0,2.761,2.239,5,5,5H300.3c2.761,0,5-2.239,5-5v-23.178  C326.548,398.562,340.382,373.598,340.382,345.399z"/>
<path style="fill:#BACBD1;" d="M340.344,342.785c0.885,29.267-13.142,55.305-35.046,71.101v23.174c0,2.761-2.239,5-5,5h-13.697  v-28.174c21.25-15.325,35.085-40.288,35.085-68.487c0-43.447-32.829-79.221-75.037-83.869c4.901-0.546,9.934-0.664,15.046-0.328  C304.792,264.03,339.039,299.617,340.344,342.785z"/>
<path d="M284.369,380.967c-4.25-0.13-7.73,3.28-7.73,7.5v46.11h-3.76v-45.8c0-4.11-3.17-7.69-7.27-7.81  c-4.25-0.13-7.73,3.28-7.73,7.5v46.11h-3.76v-45.8c0-4.11-3.16-7.69-7.27-7.81c-4.25-0.13-7.73,3.28-7.73,7.5v46.11h-3.76v-45.8  c0-4.11-3.16-7.69-7.26-7.81c-4.25-0.13-7.74,3.28-7.74,7.5v53.6h71.279v-53.29C291.639,384.667,288.469,381.087,284.369,380.967z"/>
<path d="M270.172,353.655c0.746,0,1.505-0.112,2.254-0.348l10.935-3.442v5.305c0,4.142,3.358,7.5,7.5,7.5s7.5-3.358,7.5-7.5v-10.028  l15.439-4.86c3.951-1.244,6.146-5.455,4.902-9.406c-1.244-3.951-5.454-6.146-9.406-4.902l-41.374,13.024  c-3.951,1.244-6.146,5.455-4.902,9.406C264.028,351.606,266.984,353.655,270.172,353.655z"/>
<path d="M213.636,355.17c0,4.142,3.358,7.5,7.5,7.5c4.142,0,7.5-3.358,7.5-7.5v-5.305l10.935,3.442  c0.75,0.236,1.508,0.348,2.254,0.348c3.188,0,6.144-2.048,7.152-5.25c1.244-3.951-0.951-8.162-4.902-9.406l-41.374-13.024  c-3.951-1.243-8.162,0.951-9.406,4.902c-1.244,3.951,0.951,8.162,4.902,9.406l15.439,4.86L213.636,355.17L213.636,355.17z"/>
<g>
</g>
<g>
</g>
<g>
</g>
<g>
</g>
<g>
</g>
<g>
</g>
<g>
</g>
<g>
</g>
<g>
</g>
<g>
</g>
<g>
</g>
<g>
</g>
<g>
</g>
<g>
</g>
<g>
</g>
</svg>
